<svg width="16" height="16" viewBox="0 0 16 16" fill="none" xmlns="http://www.w3.org/2000/svg">
<g id="Icon ">
<circle id="Oval" opacity="0.15" cx="8" cy="8" r="8" fill="#36B37E"/>
<path id="Icon" d="M6.93359 10.5495L4.75911 8.38801C4.69835 8.32725 4.66797 8.24913 4.66797 8.15364C4.66797 8.05815 4.69835 7.98003 4.75911 7.91927L5.24088 7.45052C5.30165 7.38107 5.3776 7.34635 5.46875 7.34635C5.55989 7.34635 5.64019 7.38107 5.70963 7.45052L7.16796 8.90885L10.293 5.78385C10.3624 5.71441 10.4427 5.67969 10.5338 5.67969C10.625 5.67969 10.7009 5.71441 10.7617 5.78385L11.2435 6.2526C11.3042 6.31337 11.3346 6.39149 11.3346 6.48698C11.3346 6.58246 11.3042 6.66059 11.2435 6.72135L7.40234 10.5495C7.34157 10.6189 7.26345 10.6536 7.16796 10.6536C7.07248 10.6536 6.99435 10.6189 6.93359 10.5495Z" fill="#36B37E"/>
</g>
</svg>
