<svg width="120" height="142" viewBox="0 0 120 142" fill="none" xmlns="http://www.w3.org/2000/svg">
<path id="Pattern" opacity="0.2" fill-rule="evenodd" clip-rule="evenodd" d="M120 4.17647C120 6.48307 118.126 8.35294 115.814 8.35294C113.502 8.35294 111.628 6.48307 111.628 4.17647C111.628 1.86987 113.502 0 115.814 0C118.126 0 120 1.86987 120 4.17647ZM120 26.451C120 28.7576 118.126 30.6275 115.814 30.6275C113.502 30.6275 111.628 28.7576 111.628 26.451C111.628 24.1444 113.502 22.2745 115.814 22.2745C118.126 22.2745 120 24.1444 120 26.451ZM120 48.7255C120 51.0321 118.126 52.902 115.814 52.902C113.502 52.902 111.628 51.0321 111.628 48.7255C111.628 46.4189 113.502 44.549 115.814 44.549C118.126 44.549 120 46.4189 120 48.7255ZM120 71C120 73.3066 118.126 75.1765 115.814 75.1765C113.502 75.1765 111.628 73.3066 111.628 71C111.628 68.6934 113.502 66.8235 115.814 66.8235C118.126 66.8235 120 68.6934 120 71ZM120 93.2745C120 95.5811 118.126 97.451 115.814 97.451C113.502 97.451 111.628 95.5811 111.628 93.2745C111.628 90.9679 113.502 89.098 115.814 89.098C118.126 89.098 120 90.9679 120 93.2745ZM120 115.549C120 117.856 118.126 119.725 115.814 119.725C113.502 119.725 111.628 117.856 111.628 115.549C111.628 113.242 113.502 111.373 115.814 111.373C118.126 111.373 120 113.242 120 115.549ZM4.18605 142C6.49794 142 8.37209 140.13 8.37209 137.824C8.37209 135.517 6.49794 133.647 4.18605 133.647C1.87416 133.647 0 135.517 0 137.824C0 140.13 1.87416 142 4.18605 142ZM30.6977 137.824C30.6977 140.13 28.8235 142 26.5116 142C24.1997 142 22.3256 140.13 22.3256 137.824C22.3256 135.517 24.1997 133.647 26.5116 133.647C28.8235 133.647 30.6977 135.517 30.6977 137.824ZM48.8372 142C51.1491 142 53.0233 140.13 53.0233 137.824C53.0233 135.517 51.1491 133.647 48.8372 133.647C46.5253 133.647 44.6512 135.517 44.6512 137.824C44.6512 140.13 46.5253 142 48.8372 142ZM75.3488 137.824C75.3488 140.13 73.4747 142 71.1628 142C68.8509 142 66.9767 140.13 66.9767 137.824C66.9767 135.517 68.8509 133.647 71.1628 133.647C73.4747 133.647 75.3488 135.517 75.3488 137.824ZM93.4884 142C95.8003 142 97.6744 140.13 97.6744 137.824C97.6744 135.517 95.8003 133.647 93.4884 133.647C91.1765 133.647 89.3023 135.517 89.3023 137.824C89.3023 140.13 91.1765 142 93.4884 142ZM115.814 142C118.126 142 120 140.13 120 137.824C120 135.517 118.126 133.647 115.814 133.647C113.502 133.647 111.628 135.517 111.628 137.824C111.628 140.13 113.502 142 115.814 142ZM93.4884 119.725C95.8003 119.725 97.6744 117.856 97.6744 115.549C97.6744 113.242 95.8003 111.373 93.4884 111.373C91.1765 111.373 89.3023 113.242 89.3023 115.549C89.3023 117.856 91.1765 119.725 93.4884 119.725ZM75.3488 115.549C75.3488 117.856 73.4747 119.725 71.1628 119.725C68.8509 119.725 66.9767 117.856 66.9767 115.549C66.9767 113.242 68.8509 111.373 71.1628 111.373C73.4747 111.373 75.3488 113.242 75.3488 115.549ZM48.8372 119.725C51.1491 119.725 53.0233 117.856 53.0233 115.549C53.0233 113.242 51.1491 111.373 48.8372 111.373C46.5253 111.373 44.6512 113.242 44.6512 115.549C44.6512 117.856 46.5253 119.725 48.8372 119.725ZM30.6977 115.549C30.6977 117.856 28.8235 119.725 26.5116 119.725C24.1997 119.725 22.3256 117.856 22.3256 115.549C22.3256 113.242 24.1997 111.373 26.5116 111.373C28.8235 111.373 30.6977 113.242 30.6977 115.549ZM4.18605 119.725C6.49794 119.725 8.37209 117.856 8.37209 115.549C8.37209 113.242 6.49794 111.373 4.18605 111.373C1.87416 111.373 0 113.242 0 115.549C0 117.856 1.87416 119.725 4.18605 119.725ZM93.4884 97.451C95.8003 97.451 97.6744 95.5811 97.6744 93.2745C97.6744 90.9679 95.8003 89.098 93.4884 89.098C91.1765 89.098 89.3023 90.9679 89.3023 93.2745C89.3023 95.5811 91.1765 97.451 93.4884 97.451ZM75.3488 93.2745C75.3488 95.5811 73.4747 97.451 71.1628 97.451C68.8509 97.451 66.9767 95.5811 66.9767 93.2745C66.9767 90.9679 68.8509 89.098 71.1628 89.098C73.4747 89.098 75.3488 90.9679 75.3488 93.2745ZM48.8372 97.451C51.1491 97.451 53.0233 95.5811 53.0233 93.2745C53.0233 90.9679 51.1491 89.098 48.8372 89.098C46.5253 89.098 44.6512 90.9679 44.6512 93.2745C44.6512 95.5811 46.5253 97.451 48.8372 97.451ZM30.6977 93.2745C30.6977 95.5811 28.8235 97.451 26.5116 97.451C24.1997 97.451 22.3256 95.5811 22.3256 93.2745C22.3256 90.9679 24.1997 89.098 26.5116 89.098C28.8235 89.098 30.6977 90.9679 30.6977 93.2745ZM4.18605 97.451C6.49794 97.451 8.37209 95.5811 8.37209 93.2745C8.37209 90.9679 6.49794 89.098 4.18605 89.098C1.87416 89.098 0 90.9679 0 93.2745C0 95.5811 1.87416 97.451 4.18605 97.451ZM93.4884 75.1765C95.8003 75.1765 97.6744 73.3066 97.6744 71C97.6744 68.6934 95.8003 66.8235 93.4884 66.8235C91.1765 66.8235 89.3023 68.6934 89.3023 71C89.3023 73.3066 91.1765 75.1765 93.4884 75.1765ZM75.3488 71C75.3488 73.3066 73.4747 75.1765 71.1628 75.1765C68.8509 75.1765 66.9767 73.3066 66.9767 71C66.9767 68.6934 68.8509 66.8235 71.1628 66.8235C73.4747 66.8235 75.3488 68.6934 75.3488 71ZM48.8372 75.1765C51.1491 75.1765 53.0233 73.3066 53.0233 71C53.0233 68.6934 51.1491 66.8235 48.8372 66.8235C46.5253 66.8235 44.6512 68.6934 44.6512 71C44.6512 73.3066 46.5253 75.1765 48.8372 75.1765ZM30.6977 71C30.6977 73.3066 28.8235 75.1765 26.5116 75.1765C24.1997 75.1765 22.3256 73.3066 22.3256 71C22.3256 68.6934 24.1997 66.8235 26.5116 66.8235C28.8235 66.8235 30.6977 68.6934 30.6977 71ZM4.18605 75.1765C6.49794 75.1765 8.37209 73.3066 8.37209 71C8.37209 68.6934 6.49794 66.8235 4.18605 66.8235C1.87416 66.8235 0 68.6934 0 71C0 73.3066 1.87416 75.1765 4.18605 75.1765ZM93.4884 52.902C95.8003 52.902 97.6744 51.0321 97.6744 48.7255C97.6744 46.4189 95.8003 44.549 93.4884 44.549C91.1765 44.549 89.3023 46.4189 89.3023 48.7255C89.3023 51.0321 91.1765 52.902 93.4884 52.902ZM75.3488 48.7255C75.3488 51.0321 73.4747 52.902 71.1628 52.902C68.8509 52.902 66.9767 51.0321 66.9767 48.7255C66.9767 46.4189 68.8509 44.549 71.1628 44.549C73.4747 44.549 75.3488 46.4189 75.3488 48.7255ZM48.8372 52.902C51.1491 52.902 53.0233 51.0321 53.0233 48.7255C53.0233 46.4189 51.1491 44.549 48.8372 44.549C46.5253 44.549 44.6512 46.4189 44.6512 48.7255C44.6512 51.0321 46.5253 52.902 48.8372 52.902ZM30.6977 48.7255C30.6977 51.0321 28.8235 52.902 26.5116 52.902C24.1997 52.902 22.3256 51.0321 22.3256 48.7255C22.3256 46.4189 24.1997 44.549 26.5116 44.549C28.8235 44.549 30.6977 46.4189 30.6977 48.7255ZM4.18605 52.902C6.49794 52.902 8.37209 51.0321 8.37209 48.7255C8.37209 46.4189 6.49794 44.549 4.18605 44.549C1.87416 44.549 0 46.4189 0 48.7255C0 51.0321 1.87416 52.902 4.18605 52.902ZM93.4884 30.6275C95.8003 30.6275 97.6744 28.7576 97.6744 26.451C97.6744 24.1444 95.8003 22.2745 93.4884 22.2745C91.1765 22.2745 89.3023 24.1444 89.3023 26.451C89.3023 28.7576 91.1765 30.6275 93.4884 30.6275ZM75.3488 26.451C75.3488 28.7576 73.4747 30.6275 71.1628 30.6275C68.8509 30.6275 66.9767 28.7576 66.9767 26.451C66.9767 24.1444 68.8509 22.2745 71.1628 22.2745C73.4747 22.2745 75.3488 24.1444 75.3488 26.451ZM48.8372 30.6275C51.1491 30.6275 53.0233 28.7576 53.0233 26.451C53.0233 24.1444 51.1491 22.2745 48.8372 22.2745C46.5253 22.2745 44.6512 24.1444 44.6512 26.451C44.6512 28.7576 46.5253 30.6275 48.8372 30.6275ZM30.6977 26.451C30.6977 28.7576 28.8235 30.6275 26.5116 30.6275C24.1997 30.6275 22.3256 28.7576 22.3256 26.451C22.3256 24.1444 24.1997 22.2745 26.5116 22.2745C28.8235 22.2745 30.6977 24.1444 30.6977 26.451ZM4.18605 30.6275C6.49794 30.6275 8.37209 28.7576 8.37209 26.451C8.37209 24.1444 6.49794 22.2745 4.18605 22.2745C1.87416 22.2745 0 24.1444 0 26.451C0 28.7576 1.87416 30.6275 4.18605 30.6275ZM93.4884 8.35294C95.8003 8.35294 97.6744 6.48307 97.6744 4.17647C97.6744 1.86987 95.8003 0 93.4884 0C91.1765 0 89.3023 1.86987 89.3023 4.17647C89.3023 6.48307 91.1765 8.35294 93.4884 8.35294ZM75.3488 4.17647C75.3488 6.48307 73.4747 8.35294 71.1628 8.35294C68.8509 8.35294 66.9767 6.48307 66.9767 4.17647C66.9767 1.86987 68.8509 0 71.1628 0C73.4747 0 75.3488 1.86987 75.3488 4.17647ZM48.8372 8.35294C51.1491 8.35294 53.0233 6.48307 53.0233 4.17647C53.0233 1.86987 51.1491 0 48.8372 0C46.5253 0 44.6512 1.86987 44.6512 4.17647C44.6512 6.48307 46.5253 8.35294 48.8372 8.35294ZM30.6977 4.17647C30.6977 6.48307 28.8235 8.35294 26.5116 8.35294C24.1997 8.35294 22.3256 6.48307 22.3256 4.17647C22.3256 1.86987 24.1997 0 26.5116 0C28.8235 0 30.6977 1.86987 30.6977 4.17647ZM4.18605 8.35294C6.49794 8.35294 8.37209 6.48307 8.37209 4.17647C8.37209 1.86987 6.49794 0 4.18605 0C1.87416 0 0 1.86987 0 4.17647C0 6.48307 1.87416 8.35294 4.18605 8.35294Z" fill="#7282A0"/>
</svg>
