<svg width="14" height="14" viewBox="0 0 14 14" fill="none" xmlns="http://www.w3.org/2000/svg">
<path id="arrow-left" d="M7.35467 13.6033L8.04843 12.9095C8.34841 12.6127 8.34219 12.1283 8.03592 11.8377L4.2703 8.25018H13.2515C13.6672 8.25018 14.0015 7.9158 14.0015 7.50018V6.50018C14.0015 6.08457 13.6672 5.75019 13.2515 5.75019H4.2703L8.03592 2.1627C8.33905 1.87208 8.3453 1.38771 8.04843 1.09083L7.35467 0.397079C7.06405 0.103317 6.58905 0.103317 6.29532 0.397079L0.220321 6.47205C-0.0734404 6.7627 -0.0734404 7.23767 0.220321 7.53143L6.29532 13.6033C6.58594 13.897 7.06094 13.897 7.35467 13.6033Z" fill="white"/>
</svg>
