<svg width="14" height="14" viewBox="0 0 14 14" fill="none" xmlns="http://www.w3.org/2000/svg">
<g id="check 1" clip-path="url(#clip0_599_9512)">
<g id="Layer 11">
<path id="Vector" d="M10.9105 4.12902C11.0371 4.24841 11.1111 4.41318 11.1162 4.58711C11.1214 4.76104 11.0572 4.92989 10.9379 5.05652L6.41411 9.8548C6.35276 9.91984 6.27876 9.97164 6.19666 10.0071C6.11456 10.0425 6.0261 10.0607 5.93669 10.0607H5.92849C5.83763 10.0595 5.74801 10.0394 5.66531 10.0018C5.58261 9.96411 5.50863 9.90969 5.44806 9.84195L3.06286 7.18523C2.94661 7.05568 2.88659 6.88525 2.896 6.71143C2.90541 6.53762 2.98348 6.37467 3.11304 6.25842C3.24259 6.14217 3.41302 6.08215 3.58684 6.09156C3.76065 6.10097 3.9236 6.17904 4.03985 6.30859L5.94763 8.43539L9.98356 4.15637C10.1029 4.02994 10.2676 3.95605 10.4414 3.95093C10.6152 3.9458 10.7839 4.00985 10.9105 4.12902ZM13.7835 2.93684C14.0715 5.63786 14.0715 8.36183 13.7835 11.0629V11.0675C13.7089 11.7098 13.3832 12.3486 12.8659 12.8656C12.3485 13.3827 11.7103 13.7086 11.0677 13.7833H11.0631C9.71366 13.9276 8.35749 14 7.00036 14.0001C5.64315 14.0003 4.2869 13.9282 2.93735 13.7841H2.9327C2.29013 13.7095 1.65165 13.3835 1.13458 12.8664C0.617509 12.3494 0.291572 11.7104 0.216923 11.0678C0.216923 11.0661 0.216923 11.0645 0.216923 11.0631C-0.0710056 8.3621 -0.0710056 5.63813 0.216923 2.93711V2.93246C0.291572 2.28988 0.617236 1.65141 1.13458 1.13434C1.65192 0.617265 2.29013 0.291327 2.9327 0.216679H2.93735C5.63837 -0.0712498 8.36235 -0.0712498 11.0634 0.216679H11.068C11.7106 0.291327 12.3491 0.617265 12.8661 1.13434C13.3832 1.65141 13.7092 2.28988 13.7838 2.93246L13.7835 2.93684ZM12.7502 3.04976C12.6509 2.20566 11.7932 1.34816 10.9493 1.24918C8.32359 0.969179 5.6755 0.969179 3.04974 1.24918C2.20536 1.34844 1.34786 2.20621 1.24888 3.05004C0.968876 5.6758 0.968876 8.32389 1.24888 10.9496C1.34786 11.794 2.20591 12.6515 3.04974 12.7505C5.67559 13.0305 8.32377 13.0305 10.9496 12.7505C11.7937 12.6512 12.6512 11.7935 12.7502 10.9496C13.0305 8.32392 13.0307 5.67583 12.751 3.05004L12.7502 3.04976Z" fill="url(#paint0_linear_599_9512)"/>
</g>
</g>
<defs>
<linearGradient id="paint0_linear_599_9512" x1="12.8661" y1="12.8659" x2="1.13458" y2="1.13434" gradientUnits="userSpaceOnUse">
<stop stop-color="#06B27C"/>
<stop offset="1" stop-color="#A0D39F"/>
</linearGradient>
<clipPath id="clip0_599_9512">
<rect width="14" height="14" fill="white"/>
</clipPath>
</defs>
</svg>
