<svg width="46" height="52" viewBox="0 0 46 52" fill="none" xmlns="http://www.w3.org/2000/svg">
<g id="customer-service 1" clip-path="url(#clip0_599_9849)">
<path id="Vector" d="M12.2544 13.711C10.0512 8.28442 13.0796 4.19058 16.1213 2.83419V2.84277C16.1587 2.31696 16.22 1.84372 16.2842 1.44561C16.4079 0.689077 17.0011 0.14502 17.6892 0.14502H26.7042C32.3133 0.14502 35.9943 7.46994 33.9109 13.8827L32.4868 18.2685H14.105L12.2554 13.7121L12.2544 13.711Z" fill="url(#paint0_linear_599_9849)"/>
<path id="Vector_2" d="M36.4167 51.6534H9.58338C8.15738 51.6534 6.81475 50.9473 5.90146 49.7154C4.98626 48.4825 4.6125 46.8717 4.87509 45.2964L6.23688 37.1721C6.70742 34.3305 8.55796 32.0845 11.064 31.313L17.7081 29.2859C21.1687 28.2289 24.8305 28.2289 28.2929 29.2859L34.9351 31.313H34.937C37.4431 32.0845 39.2936 34.3305 39.7651 37.1742L41.125 45.2954C41.3876 46.8707 41.0148 48.4814 40.0996 49.7154C39.1863 50.9473 37.8427 51.6534 36.4167 51.6534Z" fill="url(#paint1_linear_599_9849)"/>
<path id="Vector_3" opacity="0.5" d="M22.042 34.4839H23.9587V51.6534H22.042V34.4839Z" fill="url(#paint2_linear_599_9849)"/>
<path id="Vector_4" d="M16.2918 43.0688H13.4168C12.8869 43.0688 12.4585 42.588 12.4585 41.9957C12.4585 41.4034 12.8869 40.9226 13.4168 40.9226H16.2918C16.8218 40.9226 17.2502 41.4034 17.2502 41.9957C17.2502 42.588 16.8218 43.0688 16.2918 43.0688Z" fill="url(#paint3_linear_599_9849)"/>
<path id="Vector_5" d="M21.0833 28.0454H24.9167C28.6216 28.0454 31.625 31.4085 31.625 35.5571C31.625 36.7428 30.7673 37.7032 29.7083 37.7032H16.2917C15.2327 37.7032 14.375 36.7428 14.375 35.5571C14.375 31.4085 17.3784 28.0454 21.0833 28.0454Z" fill="url(#paint4_linear_599_9849)"/>
<path id="Vector_6" d="M18.2085 25.9421V32.3378C18.2085 35.3006 20.3542 37.7032 23.0002 37.7032C25.6461 37.7032 27.7918 35.3006 27.7918 32.3378V25.9421H18.2085Z" fill="url(#paint5_linear_599_9849)"/>
<path id="Vector_7" d="M31.626 25.8993H26.8333C26.3034 25.8993 25.875 25.4186 25.875 24.8262C25.875 24.2339 26.3034 23.7532 26.8333 23.7532H31.626C32.155 23.7532 32.5843 23.2713 32.5843 22.6801V19.4608C32.5843 18.8684 33.0127 18.3877 33.5426 18.3877C34.0726 18.3877 34.501 18.8684 34.501 19.4608V22.6801C34.501 24.455 33.211 25.8993 31.626 25.8993Z" fill="url(#paint6_linear_599_9849)"/>
<path id="Vector_8" d="M32.583 21.607H30.6663C30.1364 21.607 29.708 21.1262 29.708 20.5339V14.0953C29.708 13.503 30.1364 13.0222 30.6663 13.0222H32.583C34.1681 13.0222 35.458 14.4666 35.458 16.2415V18.3877C35.458 20.1626 34.1681 21.607 32.583 21.607Z" fill="url(#paint7_linear_599_9849)"/>
<path id="Vector_9" d="M10.5415 18.3877V16.2415C10.5415 14.4666 11.8314 13.0222 13.4165 13.0222H15.3332C15.8631 13.0222 16.2915 13.503 16.2915 14.0953V20.5339C16.2915 21.1262 15.8631 21.607 15.3332 21.607H13.4165C11.8314 21.607 10.5415 20.1626 10.5415 18.3877Z" fill="url(#paint8_linear_599_9849)"/>
<path id="Vector_10" d="M14.375 21.6067V14.0951C14.375 11.7246 16.0914 9.80273 18.2083 9.80273H27.7917C29.9086 9.80273 31.625 11.7246 31.625 14.0951V21.6067C31.625 23.6682 30.8938 25.6448 29.5924 27.102L27.9086 28.9875C26.6072 30.4447 24.8419 31.2635 23.001 31.2635C21.16 31.2635 19.3947 30.4447 18.0933 28.9875L16.4095 27.102C15.1081 25.6448 14.3769 23.6682 14.3769 21.6067H14.375Z" fill="url(#paint9_linear_599_9849)"/>
<path id="Vector_11" d="M31.626 25.8991H26.8333C26.3034 25.8991 25.875 25.4184 25.875 24.826C25.875 24.2337 26.3034 23.7529 26.8333 23.7529H31.626V25.8991Z" fill="url(#paint10_linear_599_9849)"/>
<path id="Vector_12" d="M25.8753 22.6799H23.9587C22.9001 22.6799 22.042 23.6408 22.042 24.8261C22.042 26.0114 22.9001 26.9723 23.9587 26.9723H25.8753C26.9339 26.9723 27.792 26.0114 27.792 24.8261C27.792 23.6408 26.9339 22.6799 25.8753 22.6799Z" fill="url(#paint11_linear_599_9849)"/>
</g>
<defs>
<linearGradient id="paint0_linear_599_9849" x1="11.207" y1="3.36644" x2="32.4455" y2="13.2095" gradientUnits="userSpaceOnUse">
<stop stop-color="#3E4154"/>
<stop offset="1" stop-color="#1B2129"/>
</linearGradient>
<linearGradient id="paint1_linear_599_9849" x1="23" y1="29.7066" x2="23" y2="51.9485" gradientUnits="userSpaceOnUse">
<stop stop-color="#4793EB"/>
<stop offset="1" stop-color="#2367EC"/>
</linearGradient>
<linearGradient id="paint2_linear_599_9849" x1="23.0003" y1="37.2932" x2="23.0003" y2="51.3411" gradientUnits="userSpaceOnUse">
<stop stop-color="#2B50D2"/>
<stop offset="1" stop-color="#182EA5"/>
</linearGradient>
<linearGradient id="paint3_linear_599_9849" x1="12.4997" y1="40.9151" x2="17.1962" y2="42.634" gradientUnits="userSpaceOnUse">
<stop stop-color="white"/>
<stop offset="1" stop-color="#DADFE0"/>
</linearGradient>
<linearGradient id="paint4_linear_599_9849" x1="23" y1="29.2966" x2="23" y2="37.3384" gradientUnits="userSpaceOnUse">
<stop stop-color="#6FC6FC"/>
<stop offset="1" stop-color="#50A7F6"/>
</linearGradient>
<linearGradient id="paint5_linear_599_9849" x1="18.8362" y1="28.5444" x2="27.9815" y2="32.5256" gradientUnits="userSpaceOnUse">
<stop stop-color="#F1D2BD"/>
<stop offset="1" stop-color="#FEB592"/>
</linearGradient>
<linearGradient id="paint6_linear_599_9849" x1="30.1875" y1="20.8075" x2="30.1875" y2="25.6525" gradientUnits="userSpaceOnUse">
<stop stop-color="#C6CBCC"/>
<stop offset="1" stop-color="#9FA5A6"/>
</linearGradient>
<linearGradient id="paint7_linear_599_9849" x1="32.583" y1="13.3023" x2="32.583" y2="21.6799" gradientUnits="userSpaceOnUse">
<stop stop-color="#4793EB"/>
<stop offset="1" stop-color="#2367EC"/>
</linearGradient>
<linearGradient id="paint8_linear_599_9849" x1="13.4165" y1="13.3023" x2="13.4165" y2="21.6799" gradientUnits="userSpaceOnUse">
<stop stop-color="#4793EB"/>
<stop offset="1" stop-color="#2367EC"/>
</linearGradient>
<linearGradient id="paint9_linear_599_9849" x1="23" y1="10.4723" x2="23" y2="31.3697" gradientUnits="userSpaceOnUse">
<stop stop-color="#F1D2BD"/>
<stop offset="0.314" stop-color="#F2CFB9"/>
<stop offset="0.608" stop-color="#F5C7AD"/>
<stop offset="0.894" stop-color="#FBBB9B"/>
<stop offset="1" stop-color="#FEB592"/>
</linearGradient>
<linearGradient id="paint10_linear_599_9849" x1="28.75" y1="0.144909" x2="28.75" y2="25.6523" gradientUnits="userSpaceOnUse">
<stop stop-color="#C6CBCC"/>
<stop offset="1" stop-color="#9FA5A6"/>
</linearGradient>
<linearGradient id="paint11_linear_599_9849" x1="24.917" y1="22.5705" x2="24.917" y2="26.5098" gradientUnits="userSpaceOnUse">
<stop stop-color="#4793EB"/>
<stop offset="1" stop-color="#2367EC"/>
</linearGradient>
<clipPath id="clip0_599_9849">
<rect width="46" height="51.5084" fill="white" transform="translate(0 0.14502)"/>
</clipPath>
</defs>
</svg>
