<svg width="25" height="25" viewBox="0 0 25 25" fill="none" xmlns="http://www.w3.org/2000/svg">
<rect width="25" height="25" fill="#F5F5F5"/>
<g id="Home Page" clip-path="url(#clip0_335_104)">
<rect width="1920" height="7739" transform="translate(-429 -4913)" fill="white"/>
<g id="testimonials">
<rect width="1833" height="1031" transform="translate(-399 -618)" fill="white"/>
<path id="Star 2" d="M8.592 -13.0417C11.1865 -16.8597 16.8135 -16.8597 19.408 -13.0417C20.9907 -10.7126 23.8869 -9.65846 26.5965 -10.4253C31.0382 -11.6824 35.3487 -8.06542 34.8821 -3.47292C34.5974 -0.671333 36.1384 1.99782 38.707 3.15207C42.9175 5.04417 43.8947 10.5856 40.5852 13.8037C38.5663 15.7669 38.0311 18.8021 39.2568 21.3374C41.266 25.4933 38.4526 30.3664 33.8488 30.7043C31.0403 30.9105 28.6793 32.8916 27.9886 35.6216C26.8564 40.0967 21.5688 42.0212 17.8249 39.3209C15.541 37.6735 12.459 37.6735 10.1751 39.3209C6.43118 42.0212 1.14356 40.0967 0.0113525 35.6216C-0.679333 32.8916 -3.04034 30.9105 -5.8488 30.7043C-10.4526 30.3664 -13.266 25.4933 -11.2568 21.3374C-10.0311 18.8021 -10.5663 15.7669 -12.5852 13.8037C-15.8947 10.5857 -14.9176 5.04417 -10.707 3.15207C-8.13841 1.99782 -6.59738 -0.671337 -6.88206 -3.47293C-7.34873 -8.06542 -3.03822 -11.6824 1.40347 -10.4253C4.11306 -9.65846 7.00926 -10.7126 8.592 -13.0417Z" fill="#F4D36C"/>
<path id="What our Students say about us?" d="M-176.48 -315.18L-192.95 -252H-211.58L-221.66 -293.58L-232.1 -252H-250.73L-266.75 -315.18H-250.28L-241.19 -269.19L-229.94 -315.18H-213.02L-202.22 -269.19L-193.04 -315.18H-176.48ZM-142.842 -302.76C-137.082 -302.76 -132.462 -300.84 -128.982 -297C-125.502 -293.22 -123.762 -288 -123.762 -281.34V-252H-139.062V-279.27C-139.062 -282.63 -139.932 -285.24 -141.672 -287.1C-143.412 -288.96 -145.752 -289.89 -148.692 -289.89C-151.632 -289.89 -153.972 -288.96 -155.712 -287.1C-157.452 -285.24 -158.322 -282.63 -158.322 -279.27V-252H-173.712V-318.6H-158.322V-295.47C-156.762 -297.69 -154.632 -299.46 -151.932 -300.78C-149.232 -302.1 -146.202 -302.76 -142.842 -302.76ZM-121.077 -277.2C-121.077 -282.36 -120.117 -286.89 -118.197 -290.79C-116.217 -294.69 -113.547 -297.69 -110.187 -299.79C-106.827 -301.89 -103.077 -302.94 -98.9373 -302.94C-95.3973 -302.94 -92.3073 -302.22 -89.6673 -300.78C-86.9673 -299.34 -84.8973 -297.45 -83.4573 -295.11V-302.22H-68.0673V-252H-83.4573V-259.11C-84.9573 -256.77 -87.0573 -254.88 -89.7573 -253.44C-92.3973 -252 -95.4873 -251.28 -99.0273 -251.28C-103.107 -251.28 -106.827 -252.33 -110.187 -254.43C-113.547 -256.59 -116.217 -259.62 -118.197 -263.52C-120.117 -267.48 -121.077 -272.04 -121.077 -277.2ZM-83.4573 -277.11C-83.4573 -280.95 -84.5373 -283.98 -86.6973 -286.2C-88.7973 -288.42 -91.3773 -289.53 -94.4373 -289.53C-97.4973 -289.53 -100.107 -288.42 -102.267 -286.2C-104.367 -284.04 -105.417 -281.04 -105.417 -277.2C-105.417 -273.36 -104.367 -270.3 -102.267 -268.02C-100.107 -265.8 -97.4973 -264.69 -94.4373 -264.69C-91.3773 -264.69 -88.7973 -265.8 -86.6973 -268.02C-84.5373 -270.24 -83.4573 -273.27 -83.4573 -277.11ZM-33.8933 -265.05V-252H-41.7233C-47.3033 -252 -51.6533 -253.35 -54.7733 -256.05C-57.8933 -258.81 -59.4533 -263.28 -59.4533 -269.46V-289.44H-65.5733V-302.22H-59.4533V-314.46H-44.0633V-302.22H-33.9833V-289.44H-44.0633V-269.28C-44.0633 -267.78 -43.7033 -266.7 -42.9833 -266.04C-42.2633 -265.38 -41.0633 -265.05 -39.3833 -265.05H-33.8933ZM6.71149 -251.28C1.79149 -251.28 -2.64851 -252.33 -6.60851 -254.43C-10.5085 -256.53 -13.5985 -259.53 -15.8785 -263.43C-18.0985 -267.33 -19.2085 -271.89 -19.2085 -277.11C-19.2085 -282.27 -18.0685 -286.8 -15.7885 -290.7C-13.5085 -294.66 -10.3885 -297.69 -6.42852 -299.79C-2.46851 -301.89 1.97149 -302.94 6.89149 -302.94C11.8115 -302.94 16.2515 -301.89 20.2115 -299.79C24.1715 -297.69 27.2915 -294.66 29.5715 -290.7C31.8515 -286.8 32.9915 -282.27 32.9915 -277.11C32.9915 -271.95 31.8215 -267.39 29.4815 -263.43C27.2015 -259.53 24.0515 -256.53 20.0315 -254.43C16.0715 -252.33 11.6315 -251.28 6.71149 -251.28ZM6.71149 -264.6C9.65149 -264.6 12.1415 -265.68 14.1815 -267.84C16.2815 -270 17.3315 -273.09 17.3315 -277.11C17.3315 -281.13 16.3115 -284.22 14.2715 -286.38C12.2915 -288.54 9.83149 -289.62 6.89149 -289.62C3.89149 -289.62 1.40149 -288.54 -0.578514 -286.38C-2.55851 -284.28 -3.54851 -281.19 -3.54851 -277.11C-3.54851 -273.09 -2.58851 -270 -0.668515 -267.84C1.31149 -265.68 3.77149 -264.6 6.71149 -264.6ZM85.7962 -302.22V-252H70.4062V-258.84C68.8462 -256.62 66.7162 -254.82 64.0162 -253.44C61.3762 -252.12 58.4362 -251.46 55.1962 -251.46C51.3562 -251.46 47.9662 -252.3 45.0262 -253.98C42.0862 -255.72 39.8062 -258.21 38.1862 -261.45C36.5662 -264.69 35.7562 -268.5 35.7562 -272.88V-302.22H51.0562V-274.95C51.0562 -271.59 51.9262 -268.98 53.6662 -267.12C55.4062 -265.26 57.7462 -264.33 60.6862 -264.33C63.6862 -264.33 66.0562 -265.26 67.7962 -267.12C69.5362 -268.98 70.4062 -271.59 70.4062 -274.95V-302.22H85.7962ZM107.291 -293.85C109.091 -296.61 111.341 -298.77 114.041 -300.33C116.741 -301.95 119.741 -302.76 123.041 -302.76V-286.47H118.811C114.971 -286.47 112.091 -285.63 110.171 -283.95C108.251 -282.33 107.291 -279.45 107.291 -275.31V-252H91.9007V-302.22H107.291V-293.85ZM-240.56 -152.37C-245.18 -152.37 -249.32 -153.12 -252.98 -154.62C-256.64 -156.12 -259.58 -158.34 -261.8 -161.28C-263.96 -164.22 -265.1 -167.76 -265.22 -171.9H-248.84C-248.6 -169.56 -247.79 -167.76 -246.41 -166.5C-245.03 -165.3 -243.23 -164.7 -241.01 -164.7C-238.73 -164.7 -236.93 -165.21 -235.61 -166.23C-234.29 -167.31 -233.63 -168.78 -233.63 -170.64C-233.63 -172.2 -234.17 -173.49 -235.25 -174.51C-236.27 -175.53 -237.56 -176.37 -239.12 -177.03C-240.62 -177.69 -242.78 -178.44 -245.6 -179.28C-249.68 -180.54 -253.01 -181.8 -255.59 -183.06C-258.17 -184.32 -260.39 -186.18 -262.25 -188.64C-264.11 -191.1 -265.04 -194.31 -265.04 -198.27C-265.04 -204.15 -262.91 -208.74 -258.65 -212.04C-254.39 -215.4 -248.84 -217.08 -242 -217.08C-235.04 -217.08 -229.43 -215.4 -225.17 -212.04C-220.91 -208.74 -218.63 -204.12 -218.33 -198.18H-234.98C-235.1 -200.22 -235.85 -201.81 -237.23 -202.95C-238.61 -204.15 -240.38 -204.75 -242.54 -204.75C-244.4 -204.75 -245.9 -204.24 -247.04 -203.22C-248.18 -202.26 -248.75 -200.85 -248.75 -198.99C-248.75 -196.95 -247.79 -195.36 -245.87 -194.22C-243.95 -193.08 -240.95 -191.85 -236.87 -190.53C-232.79 -189.15 -229.49 -187.83 -226.97 -186.57C-224.39 -185.31 -222.17 -183.48 -220.31 -181.08C-218.45 -178.68 -217.52 -175.59 -217.52 -171.81C-217.52 -168.21 -218.45 -164.94 -220.31 -162C-222.11 -159.06 -224.75 -156.72 -228.23 -154.98C-231.71 -153.24 -235.82 -152.37 -240.56 -152.37ZM-185.009 -166.05V-153H-192.839C-198.419 -153 -202.769 -154.35 -205.889 -157.05C-209.009 -159.81 -210.569 -164.28 -210.569 -170.46V-190.44H-216.689V-203.22H-210.569V-215.46H-195.179V-203.22H-185.099V-190.44H-195.179V-170.28C-195.179 -168.78 -194.819 -167.7 -194.099 -167.04C-193.379 -166.38 -192.179 -166.05 -190.499 -166.05H-185.009ZM-131.796 -203.22V-153H-147.186V-159.84C-148.746 -157.62 -150.876 -155.82 -153.576 -154.44C-156.216 -153.12 -159.156 -152.46 -162.396 -152.46C-166.236 -152.46 -169.626 -153.3 -172.566 -154.98C-175.506 -156.72 -177.786 -159.21 -179.406 -162.45C-181.026 -165.69 -181.836 -169.5 -181.836 -173.88V-203.22H-166.536V-175.95C-166.536 -172.59 -165.666 -169.98 -163.926 -168.12C-162.186 -166.26 -159.846 -165.33 -156.906 -165.33C-153.906 -165.33 -151.536 -166.26 -149.796 -168.12C-148.056 -169.98 -147.186 -172.59 -147.186 -175.95V-203.22H-131.796ZM-128.752 -178.2C-128.752 -183.36 -127.792 -187.89 -125.872 -191.79C-123.892 -195.69 -121.222 -198.69 -117.862 -200.79C-114.502 -202.89 -110.752 -203.94 -106.612 -203.94C-103.312 -203.94 -100.312 -203.25 -97.6119 -201.87C-94.8519 -200.49 -92.6919 -198.63 -91.1319 -196.29V-219.6H-75.7419V-153H-91.1319V-160.2C-92.5719 -157.8 -94.6419 -155.88 -97.3419 -154.44C-99.9819 -153 -103.072 -152.28 -106.612 -152.28C-110.752 -152.28 -114.502 -153.33 -117.862 -155.43C-121.222 -157.59 -123.892 -160.62 -125.872 -164.52C-127.792 -168.48 -128.752 -173.04 -128.752 -178.2ZM-91.1319 -178.11C-91.1319 -181.95 -92.2119 -184.98 -94.3719 -187.2C-96.4719 -189.42 -99.0519 -190.53 -102.112 -190.53C-105.172 -190.53 -107.782 -189.42 -109.942 -187.2C-112.042 -185.04 -113.092 -182.04 -113.092 -178.2C-113.092 -174.36 -112.042 -171.3 -109.942 -169.02C-107.782 -166.8 -105.172 -165.69 -102.112 -165.69C-99.0519 -165.69 -96.4719 -166.8 -94.3719 -169.02C-92.2119 -171.24 -91.1319 -174.27 -91.1319 -178.11ZM-22.2179 -178.92C-22.2179 -177.48 -22.3079 -175.98 -22.4879 -174.42H-57.3179C-57.0779 -171.3 -56.0879 -168.9 -54.3479 -167.22C-52.5479 -165.6 -50.3579 -164.79 -47.7779 -164.79C-43.9379 -164.79 -41.2679 -166.41 -39.7679 -169.65H-23.3879C-24.2279 -166.35 -25.7579 -163.38 -27.9779 -160.74C-30.1379 -158.1 -32.8679 -156.03 -36.1679 -154.53C-39.4679 -153.03 -43.1579 -152.28 -47.2379 -152.28C-52.1579 -152.28 -56.5379 -153.33 -60.3779 -155.43C-64.2179 -157.53 -67.2179 -160.53 -69.3779 -164.43C-71.5379 -168.33 -72.6179 -172.89 -72.6179 -178.11C-72.6179 -183.33 -71.5679 -187.89 -69.4679 -191.79C-67.3079 -195.69 -64.3079 -198.69 -60.4679 -200.79C-56.6279 -202.89 -52.2179 -203.94 -47.2379 -203.94C-42.3779 -203.94 -38.0579 -202.92 -34.2779 -200.88C-30.4979 -198.84 -27.5579 -195.93 -25.4579 -192.15C-23.2979 -188.37 -22.2179 -183.96 -22.2179 -178.92ZM-37.9679 -182.97C-37.9679 -185.61 -38.8679 -187.71 -40.6679 -189.27C-42.4679 -190.83 -44.7179 -191.61 -47.4179 -191.61C-49.9979 -191.61 -52.1879 -190.86 -53.9879 -189.36C-55.7279 -187.86 -56.8079 -185.73 -57.2279 -182.97H-37.9679ZM11.5511 -203.76C17.4311 -203.76 22.1111 -201.84 25.5911 -198C29.1311 -194.22 30.9011 -189 30.9011 -182.34V-153H15.6011V-180.27C15.6011 -183.63 14.7311 -186.24 12.9911 -188.1C11.2511 -189.96 8.9111 -190.89 5.97109 -190.89C3.03109 -190.89 0.691095 -189.96 -1.0489 -188.1C-2.7889 -186.24 -3.65891 -183.63 -3.65891 -180.27V-153H-19.0489V-203.22H-3.65891V-196.56C-2.09891 -198.78 0.00109404 -200.52 2.64109 -201.78C5.28109 -203.1 8.25109 -203.76 11.5511 -203.76ZM64.6356 -166.05V-153H56.8056C51.2256 -153 46.8756 -154.35 43.7556 -157.05C40.6356 -159.81 39.0756 -164.28 39.0756 -170.46V-190.44H32.9556V-203.22H39.0756V-215.46H54.4656V-203.22H64.5456V-190.44H54.4656V-170.28C54.4656 -168.78 54.8256 -167.7 55.5456 -167.04C56.2656 -166.38 57.4656 -166.05 59.1456 -166.05H64.6356ZM88.6881 -152.28C84.3081 -152.28 80.4081 -153.03 76.9881 -154.53C73.5681 -156.03 70.8681 -158.07 68.8881 -160.65C66.9081 -163.29 65.7981 -166.23 65.5581 -169.47H80.7681C80.9481 -167.73 81.7581 -166.32 83.1981 -165.24C84.6381 -164.16 86.4081 -163.62 88.5081 -163.62C90.4281 -163.62 91.8981 -163.98 92.9181 -164.7C93.9981 -165.48 94.5381 -166.47 94.5381 -167.67C94.5381 -169.11 93.7881 -170.16 92.2881 -170.82C90.7881 -171.54 88.3581 -172.32 84.9981 -173.16C81.3981 -174 78.3981 -174.87 75.9981 -175.77C73.5981 -176.73 71.5281 -178.2 69.7881 -180.18C68.0481 -182.22 67.1781 -184.95 67.1781 -188.37C67.1781 -191.25 67.9581 -193.86 69.5181 -196.2C71.1381 -198.6 73.4781 -200.49 76.5381 -201.87C79.6581 -203.25 83.3481 -203.94 87.6081 -203.94C93.9081 -203.94 98.8581 -202.38 102.458 -199.26C106.118 -196.14 108.218 -192 108.758 -186.84H94.5381C94.2981 -188.58 93.5181 -189.96 92.1981 -190.98C90.9381 -192 89.2581 -192.51 87.1581 -192.51C85.3581 -192.51 83.9781 -192.15 83.0181 -191.43C82.0581 -190.77 81.5781 -189.84 81.5781 -188.64C81.5781 -187.2 82.3281 -186.12 83.8281 -185.4C85.3881 -184.68 87.7881 -183.96 91.0281 -183.24C94.7481 -182.28 97.7781 -181.32 100.118 -180.36C102.458 -179.46 104.498 -177.96 106.238 -175.86C108.038 -173.82 108.968 -171.06 109.028 -167.58C109.028 -164.64 108.188 -162 106.508 -159.66C104.888 -157.38 102.518 -155.58 99.3981 -154.26C96.3381 -152.94 92.7681 -152.28 88.6881 -152.28ZM-242.99 -53.28C-247.37 -53.28 -251.27 -54.03 -254.69 -55.53C-258.11 -57.03 -260.81 -59.07 -262.79 -61.65C-264.77 -64.29 -265.88 -67.23 -266.12 -70.47H-250.91C-250.73 -68.73 -249.92 -67.32 -248.48 -66.24C-247.04 -65.16 -245.27 -64.62 -243.17 -64.62C-241.25 -64.62 -239.78 -64.98 -238.76 -65.7C-237.68 -66.48 -237.14 -67.47 -237.14 -68.67C-237.14 -70.11 -237.89 -71.16 -239.39 -71.82C-240.89 -72.54 -243.32 -73.32 -246.68 -74.16C-250.28 -75 -253.28 -75.87 -255.68 -76.77C-258.08 -77.73 -260.15 -79.2 -261.89 -81.18C-263.63 -83.22 -264.5 -85.95 -264.5 -89.37C-264.5 -92.25 -263.72 -94.86 -262.16 -97.2C-260.54 -99.6 -258.2 -101.49 -255.14 -102.87C-252.02 -104.25 -248.33 -104.94 -244.07 -104.94C-237.77 -104.94 -232.82 -103.38 -229.22 -100.26C-225.56 -97.14 -223.46 -93 -222.92 -87.84H-237.14C-237.38 -89.58 -238.16 -90.96 -239.48 -91.98C-240.74 -93 -242.42 -93.51 -244.52 -93.51C-246.32 -93.51 -247.7 -93.15 -248.66 -92.43C-249.62 -91.77 -250.1 -90.84 -250.1 -89.64C-250.1 -88.2 -249.35 -87.12 -247.85 -86.4C-246.29 -85.68 -243.89 -84.96 -240.65 -84.24C-236.93 -83.28 -233.9 -82.32 -231.56 -81.36C-229.22 -80.46 -227.18 -78.96 -225.44 -76.86C-223.64 -74.82 -222.71 -72.06 -222.65 -68.58C-222.65 -65.64 -223.49 -63 -225.17 -60.66C-226.79 -58.38 -229.16 -56.58 -232.28 -55.26C-235.34 -53.94 -238.91 -53.28 -242.99 -53.28ZM-221.244 -79.2C-221.244 -84.36 -220.284 -88.89 -218.364 -92.79C-216.384 -96.69 -213.714 -99.69 -210.354 -101.79C-206.994 -103.89 -203.244 -104.94 -199.104 -104.94C-195.564 -104.94 -192.474 -104.22 -189.834 -102.78C-187.134 -101.34 -185.064 -99.45 -183.624 -97.11V-104.22H-168.234V-54H-183.624V-61.11C-185.124 -58.77 -187.224 -56.88 -189.924 -55.44C-192.564 -54 -195.654 -53.28 -199.194 -53.28C-203.274 -53.28 -206.994 -54.33 -210.354 -56.43C-213.714 -58.59 -216.384 -61.62 -218.364 -65.52C-220.284 -69.48 -221.244 -74.04 -221.244 -79.2ZM-183.624 -79.11C-183.624 -82.95 -184.704 -85.98 -186.864 -88.2C-188.964 -90.42 -191.544 -91.53 -194.604 -91.53C-197.664 -91.53 -200.274 -90.42 -202.434 -88.2C-204.534 -86.04 -205.584 -83.04 -205.584 -79.2C-205.584 -75.36 -204.534 -72.3 -202.434 -70.02C-200.274 -67.8 -197.664 -66.69 -194.604 -66.69C-191.544 -66.69 -188.964 -67.8 -186.864 -70.02C-184.704 -72.24 -183.624 -75.27 -183.624 -79.11ZM-110.75 -104.22L-142.25 -30.15H-158.81L-147.29 -55.71L-167.72 -104.22H-150.53L-138.92 -72.81L-127.4 -104.22H-110.75ZM-99.073 -79.2C-99.073 -84.36 -98.113 -88.89 -96.193 -92.79C-94.213 -96.69 -91.543 -99.69 -88.183 -101.79C-84.823 -103.89 -81.073 -104.94 -76.933 -104.94C-73.393 -104.94 -70.303 -104.22 -67.663 -102.78C-64.963 -101.34 -62.893 -99.45 -61.453 -97.11V-104.22H-46.063V-54H-61.453V-61.11C-62.953 -58.77 -65.053 -56.88 -67.753 -55.44C-70.393 -54 -73.483 -53.28 -77.023 -53.28C-81.103 -53.28 -84.823 -54.33 -88.183 -56.43C-91.543 -58.59 -94.213 -61.62 -96.193 -65.52C-98.113 -69.48 -99.073 -74.04 -99.073 -79.2ZM-61.453 -79.11C-61.453 -82.95 -62.533 -85.98 -64.693 -88.2C-66.793 -90.42 -69.373 -91.53 -72.433 -91.53C-75.493 -91.53 -78.103 -90.42 -80.263 -88.2C-82.363 -86.04 -83.413 -83.04 -83.413 -79.2C-83.413 -75.36 -82.363 -72.3 -80.263 -70.02C-78.103 -67.8 -75.493 -66.69 -72.433 -66.69C-69.373 -66.69 -66.793 -67.8 -64.693 -70.02C-62.533 -72.24 -61.453 -75.27 -61.453 -79.11ZM-24.489 -97.11C-23.049 -99.45 -20.979 -101.34 -18.279 -102.78C-15.579 -104.22 -12.489 -104.94 -9.00898 -104.94C-4.86898 -104.94 -1.11898 -103.89 2.24102 -101.79C5.60102 -99.69 8.24102 -96.69 10.161 -92.79C12.141 -88.89 13.131 -84.36 13.131 -79.2C13.131 -74.04 12.141 -69.48 10.161 -65.52C8.24102 -61.62 5.60102 -58.59 2.24102 -56.43C-1.11898 -54.33 -4.86898 -53.28 -9.00898 -53.28C-12.549 -53.28 -15.639 -53.97 -18.279 -55.35C-20.919 -56.79 -22.989 -58.68 -24.489 -61.02V-54H-39.879V-120.6H-24.489V-97.11ZM-2.52898 -79.2C-2.52898 -83.04 -3.60898 -86.04 -5.76898 -88.2C-7.86898 -90.42 -10.479 -91.53 -13.599 -91.53C-16.659 -91.53 -19.269 -90.42 -21.429 -88.2C-23.529 -85.98 -24.579 -82.95 -24.579 -79.11C-24.579 -75.27 -23.529 -72.24 -21.429 -70.02C-19.269 -67.8 -16.659 -66.69 -13.599 -66.69C-10.539 -66.69 -7.92898 -67.8 -5.76898 -70.02C-3.60898 -72.3 -2.52898 -75.36 -2.52898 -79.2ZM39.115 -53.28C34.195 -53.28 29.755 -54.33 25.795 -56.43C21.895 -58.53 18.805 -61.53 16.525 -65.43C14.305 -69.33 13.195 -73.89 13.195 -79.11C13.195 -84.27 14.335 -88.8 16.615 -92.7C18.895 -96.66 22.015 -99.69 25.975 -101.79C29.935 -103.89 34.375 -104.94 39.295 -104.94C44.215 -104.94 48.655 -103.89 52.615 -101.79C56.575 -99.69 59.695 -96.66 61.975 -92.7C64.255 -88.8 65.395 -84.27 65.395 -79.11C65.395 -73.95 64.225 -69.39 61.885 -65.43C59.605 -61.53 56.455 -58.53 52.435 -56.43C48.475 -54.33 44.035 -53.28 39.115 -53.28ZM39.115 -66.6C42.055 -66.6 44.545 -67.68 46.585 -69.84C48.685 -72 49.735 -75.09 49.735 -79.11C49.735 -83.13 48.715 -86.22 46.675 -88.38C44.695 -90.54 42.235 -91.62 39.295 -91.62C36.295 -91.62 33.805 -90.54 31.825 -88.38C29.845 -86.28 28.855 -83.19 28.855 -79.11C28.855 -75.09 29.815 -72 31.735 -69.84C33.715 -67.68 36.175 -66.6 39.115 -66.6ZM118.2 -104.22V-54H102.81V-60.84C101.25 -58.62 99.1197 -56.82 96.4197 -55.44C93.7797 -54.12 90.8397 -53.46 87.5997 -53.46C83.7597 -53.46 80.3697 -54.3 77.4297 -55.98C74.4897 -57.72 72.2097 -60.21 70.5897 -63.45C68.9697 -66.69 68.1597 -70.5 68.1597 -74.88V-104.22H83.4597V-76.95C83.4597 -73.59 84.3297 -70.98 86.0697 -69.12C87.8097 -67.26 90.1497 -66.33 93.0897 -66.33C96.0897 -66.33 98.4597 -67.26 100.2 -69.12C101.94 -70.98 102.81 -73.59 102.81 -76.95V-104.22H118.2ZM152.294 -67.05V-54H144.464C138.884 -54 134.534 -55.35 131.414 -58.05C128.294 -60.81 126.734 -65.28 126.734 -71.46V-91.44H120.614V-104.22H126.734V-116.46H142.124V-104.22H152.204V-91.44H142.124V-71.28C142.124 -69.78 142.484 -68.7 143.204 -68.04C143.924 -67.38 145.124 -67.05 146.804 -67.05H152.294ZM-213.83 -5.22V45H-229.22V38.16C-230.78 40.38 -232.91 42.18 -235.61 43.56C-238.25 44.88 -241.19 45.54 -244.43 45.54C-248.27 45.54 -251.66 44.7 -254.6 43.02C-257.54 41.28 -259.82 38.79 -261.44 35.55C-263.06 32.31 -263.87 28.5 -263.87 24.12V-5.22H-248.57V22.05C-248.57 25.41 -247.7 28.02 -245.96 29.88C-244.22 31.74 -241.88 32.67 -238.94 32.67C-235.94 32.67 -233.57 31.74 -231.83 29.88C-230.09 28.02 -229.22 25.41 -229.22 22.05V-5.22H-213.83ZM-187.295 45.72C-191.675 45.72 -195.575 44.97 -198.995 43.47C-202.415 41.97 -205.115 39.93 -207.095 37.35C-209.075 34.71 -210.185 31.77 -210.425 28.53H-195.215C-195.035 30.27 -194.225 31.68 -192.785 32.76C-191.345 33.84 -189.575 34.38 -187.475 34.38C-185.555 34.38 -184.085 34.02 -183.065 33.3C-181.985 32.52 -181.445 31.53 -181.445 30.33C-181.445 28.89 -182.195 27.84 -183.695 27.18C-185.195 26.46 -187.625 25.68 -190.985 24.84C-194.585 24 -197.585 23.13 -199.985 22.23C-202.385 21.27 -204.455 19.8 -206.195 17.82C-207.935 15.78 -208.805 13.05 -208.805 9.63C-208.805 6.75 -208.025 4.14 -206.465 1.8C-204.845 -0.600003 -202.505 -2.49 -199.445 -3.87C-196.325 -5.25 -192.635 -5.94 -188.375 -5.94C-182.075 -5.94 -177.125 -4.38 -173.525 -1.26C-169.865 1.86 -167.765 6 -167.225 11.16H-181.445C-181.685 9.42 -182.465 8.04 -183.785 7.02C-185.045 6 -186.725 5.49 -188.825 5.49C-190.625 5.49 -192.005 5.85 -192.965 6.57C-193.925 7.23 -194.405 8.16 -194.405 9.36C-194.405 10.8 -193.655 11.88 -192.155 12.6C-190.595 13.32 -188.195 14.04 -184.955 14.76C-181.235 15.72 -178.205 16.68 -175.865 17.64C-173.525 18.54 -171.485 20.04 -169.745 22.14C-167.945 24.18 -167.015 26.94 -166.955 30.42C-166.955 33.36 -167.795 36 -169.475 38.34C-171.095 40.62 -173.465 42.42 -176.585 43.74C-179.645 45.06 -183.215 45.72 -187.295 45.72ZM-144.04 -21.69C-137.62 -21.69 -132.49 -20.01 -128.65 -16.65C-124.75 -13.29 -122.8 -8.55 -122.8 -2.43C-122.8 3.21 -124.66 7.62 -128.38 10.8C-132.04 13.92 -136.9 15.51 -142.96 15.57L-143.41 22.32H-156.91L-157.36 5.58H-151.96C-147.34 5.58 -143.83 5.01 -141.43 3.87C-138.97 2.73 -137.74 0.659999 -137.74 -2.34C-137.74 -4.44 -138.31 -6.09 -139.45 -7.29C-140.59 -8.49 -142.18 -9.09 -144.22 -9.09C-146.38 -9.09 -148.06 -8.46 -149.26 -7.2C-150.46 -6 -151.06 -4.35 -151.06 -2.25H-165.55C-165.67 -5.91 -164.92 -9.21 -163.3 -12.15C-161.62 -15.09 -159.16 -17.4 -155.92 -19.08C-152.62 -20.82 -148.66 -21.69 -144.04 -21.69ZM-149.98 45.72C-152.68 45.72 -154.9 44.94 -156.64 43.38C-158.32 41.76 -159.16 39.78 -159.16 37.44C-159.16 35.04 -158.32 33.03 -156.64 31.41C-154.9 29.79 -152.68 28.98 -149.98 28.98C-147.34 28.98 -145.18 29.79 -143.5 31.41C-141.76 33.03 -140.89 35.04 -140.89 37.44C-140.89 39.78 -141.76 41.76 -143.5 43.38C-145.18 44.94 -147.34 45.72 -149.98 45.72Z" fill="#1E47A1"/>
<g id="Frame">
<path id="Vector" d="M10.7375 14.2623L15.7854 9.21436M20.9479 6.13519L16.6875 19.9831C16.3052 21.2248 16.1146 21.8456 15.7844 22.0508C15.6438 22.1387 15.4842 22.1918 15.319 22.2056C15.1537 22.2193 14.9876 22.1934 14.8344 22.13C14.476 21.981 14.1844 21.4008 13.6031 20.2383L10.9052 14.8404C10.8494 14.7156 10.7821 14.5964 10.7042 14.4841C10.65 14.4136 10.5869 14.3502 10.5167 14.2956C10.408 14.2204 10.2926 14.1556 10.1719 14.1019L4.7625 11.3956C3.60104 10.8144 3.01979 10.5237 2.87083 10.1654C2.80729 10.012 2.78132 9.84571 2.79509 9.68028C2.80887 9.51485 2.86197 9.3551 2.95 9.21436C3.1552 8.88519 3.77604 8.69352 5.0177 8.31123L18.8667 4.05081C19.8427 3.74977 20.3302 3.59977 20.6604 3.72165C20.8023 3.77373 20.9311 3.85606 21.0379 3.9629C21.1448 4.06975 21.2271 4.19856 21.2792 4.3404C21.4 4.66956 21.25 5.15706 20.95 6.13206L20.9479 6.13519Z" stroke="#2D1247" stroke-width="2" stroke-linecap="round" stroke-linejoin="round"/>
</g>
</g>
</g>
<defs>
<clipPath id="clip0_335_104">
<rect width="1920" height="7739" fill="white" transform="translate(-429 -4913)"/>
</clipPath>
</defs>
</svg>
