<svg width="21" height="20" viewBox="0 0 21 20" fill="none" xmlns="http://www.w3.org/2000/svg">
<g id="twitter 1" clip-path="url(#clip0_1661_3766)">
<path id="Vector" d="M10.9462 9.65845L15.447 16.0961H13.5999L9.92716 10.843V10.8426L9.38796 10.0715L5.09766 3.93457H6.94476L10.407 8.8873L10.9462 9.65845Z" fill="#959EAD"/>
<path id="Vector_2" d="M18.1163 0H2.43839C1.24491 0 0.277344 0.967563 0.277344 2.16104V17.839C0.277344 19.0324 1.24491 20 2.43839 20H18.1163C19.3098 20 20.2773 19.0324 20.2773 17.839V2.16104C20.2773 0.967563 19.3098 0 18.1163 0ZM13.034 16.9604L9.31744 11.5514L4.6643 16.9604H3.4617L8.78346 10.7746L3.4617 3.02934H7.5207L11.04 8.15126L15.4462 3.02934H16.6488L11.5742 8.92828H11.5738L17.093 16.9604H13.034Z" fill="#959EAD"/>
</g>
<defs>
<clipPath id="clip0_1661_3766">
<rect width="20" height="20" fill="white" transform="translate(0.277344)"/>
</clipPath>
</defs>
</svg>
