<svg width="19" height="14" viewBox="0 0 19 14" fill="none" xmlns="http://www.w3.org/2000/svg">
<g id="Group">
<path id="Vector" d="M18.1444 2.7289C17.944 1.62143 17.2672 0.910506 16.2089 0.716957C15.7723 0.636789 15.3277 0.57838 14.8842 0.558338C13.0034 0.473302 11.1217 0.406591 9.24031 0.333008C9.23974 0.352477 9.23917 0.371947 9.2386 0.391416C8.80597 0.391416 8.37306 0.385117 7.94073 0.392561C6.14696 0.422625 4.35291 0.44238 2.56859 0.665134C1.45883 0.803424 0.690075 1.46338 0.459018 2.56054C0.32989 3.17326 0.259457 3.80143 0.208492 4.42646C0.0994062 5.76327 0.0724926 7.10437 0.167549 8.44318C0.22653 9.2712 0.302118 10.1018 0.439835 10.9198C0.6205 11.9912 1.35891 12.6995 2.39852 12.8539C3.0141 12.9452 3.63569 13.0231 4.25699 13.0434C6.16414 13.1053 8.07243 13.1625 9.98044 13.172C11.8824 13.1817 13.7853 13.1365 15.6798 12.9375C16.1683 12.8859 16.6496 12.8081 17.0765 12.5346C17.7825 12.0825 18.1038 11.4031 18.1808 10.6051C18.2847 9.52545 18.3901 8.44318 18.4256 7.36005C18.4769 5.81022 18.4213 4.26097 18.1444 2.7289ZM7.46315 9.51801V4.04509C9.05163 4.95815 10.6235 5.86176 12.2231 6.7814C10.6258 7.6999 9.05421 8.60323 7.46315 9.51801Z" fill="#959EAD"/>
</g>
</svg>
