<svg width="21" height="20" viewBox="0 0 21 20" fill="none" xmlns="http://www.w3.org/2000/svg">
<g id="linkedin-sign 1" clip-path="url(#clip0_1661_3763)">
<g id="Group">
<path id="Vector" d="M19.1769 1.10016C18.4437 0.366766 17.5603 0 16.5274 0H4.02732C2.99443 0 2.11104 0.366766 1.3775 1.10016C0.64411 1.83369 0.277344 2.71704 0.277344 3.74998V16.2499C0.277344 17.2828 0.64411 18.1662 1.3775 18.8997C2.11104 19.6333 2.99443 20 4.02732 20H16.5273C17.5602 20 18.4436 19.6333 19.1768 18.8997C19.9103 18.1662 20.2771 17.2828 20.2771 16.2499V3.74998C20.277 2.71704 19.9103 1.83356 19.1769 1.10016ZM6.37103 16.7447H3.3632V7.70819H6.37103V16.7447ZM6.09776 6.03517C5.78531 6.33467 5.37293 6.48444 4.86073 6.48444H4.8476C4.35286 6.48444 3.95152 6.33467 3.64327 6.03517C3.33497 5.73567 3.18091 5.36462 3.18091 4.92192C3.18091 4.47056 3.33944 4.09722 3.65618 3.80201C3.97314 3.5069 4.38323 3.35927 4.88663 3.35927C5.39008 3.35927 5.79374 3.5069 6.09762 3.80201C6.4014 4.09722 6.55769 4.47056 6.56631 4.92192C6.56627 5.36444 6.4102 5.73549 6.09776 6.03517ZM17.1913 16.7447H14.1835V11.9141C14.1835 10.5514 13.6802 9.86984 12.6732 9.86984C12.2913 9.86984 11.97 9.97615 11.7097 10.1889C11.449 10.4014 11.2538 10.6597 11.1238 10.9638C11.0629 11.1198 11.0326 11.3628 11.0326 11.6926V16.7446H8.02476C8.0508 11.2933 8.0508 8.28105 8.02476 7.7081H11.0326V8.98389C11.665 7.9951 12.563 7.49968 13.728 7.49968C14.7696 7.49968 15.6074 7.84264 16.2411 8.52829C16.8748 9.21407 17.1915 10.2255 17.1915 11.562V16.7447H17.1913Z" fill="#959EAD"/>
</g>
</g>
<defs>
<clipPath id="clip0_1661_3763">
<rect width="20" height="20" fill="white" transform="translate(0.277344)"/>
</clipPath>
</defs>
</svg>
