<svg width="21" height="20" viewBox="0 0 21 20" fill="none" xmlns="http://www.w3.org/2000/svg">
<g id="instagram 1" clip-path="url(#clip0_1661_3769)">
<path id="Vector" d="M12.0352 10C12.0352 10.9708 11.2481 11.7578 10.2773 11.7578C9.30658 11.7578 8.51953 10.9708 8.51953 10C8.51953 9.02924 9.30658 8.24219 10.2773 8.24219C11.2481 8.24219 12.0352 9.02924 12.0352 10Z" fill="#959EAD"/>
<path id="Vector_2" d="M13.2461 4.6875H7.30859C6.01617 4.6875 4.96484 5.73883 4.96484 7.03125V12.9688C4.96484 14.2612 6.01617 15.3125 7.30859 15.3125H13.2461C14.5385 15.3125 15.5898 14.2612 15.5898 12.9688V7.03125C15.5898 5.73883 14.5385 4.6875 13.2461 4.6875ZM10.2773 12.9297C8.6619 12.9297 7.34766 11.6154 7.34766 10C7.34766 8.38455 8.6619 7.07031 10.2773 7.07031C11.8928 7.07031 13.207 8.38455 13.207 10C13.207 11.6154 11.8928 12.9297 10.2773 12.9297ZM13.6367 7.22656C13.3131 7.22656 13.0508 6.96426 13.0508 6.64062C13.0508 6.31699 13.3131 6.05469 13.6367 6.05469C13.9604 6.05469 14.2227 6.31699 14.2227 6.64062C14.2227 6.96426 13.9604 7.22656 13.6367 7.22656Z" fill="#959EAD"/>
<path id="Vector_3" d="M15.0039 0H5.55078C2.64307 0 0.277344 2.36572 0.277344 5.27344V14.7266C0.277344 17.6343 2.64307 20 5.55078 20H15.0039C17.9116 20 20.2773 17.6343 20.2773 14.7266V5.27344C20.2773 2.36572 17.9116 0 15.0039 0ZM16.7617 12.9688C16.7617 14.9072 15.1846 16.4844 13.2461 16.4844H7.30859C5.37012 16.4844 3.79297 14.9072 3.79297 12.9688V7.03125C3.79297 5.09277 5.37012 3.51562 7.30859 3.51562H13.2461C15.1846 3.51562 16.7617 5.09277 16.7617 7.03125V12.9688Z" fill="#959EAD"/>
</g>
<defs>
<clipPath id="clip0_1661_3769">
<rect width="20" height="20" fill="white" transform="translate(0.277344)"/>
</clipPath>
</defs>
</svg>
