<svg width="20" height="20" viewBox="0 0 20 20" fill="none" xmlns="http://www.w3.org/2000/svg">
<g id="gem 1" clip-path="url(#clip0_1238_26730)">
<path id="Vector" d="M10 19.375C15.1777 19.375 19.375 15.1777 19.375 10C19.375 4.82233 15.1777 0.625 10 0.625C4.82233 0.625 0.625 4.82233 0.625 10C0.625 15.1777 4.82233 19.375 10 19.375Z" fill="#1E47A1"/>
<g id="Group">
<path id="Vector_2" fill-rule="evenodd" clip-rule="evenodd" d="M3.44531 9.05859C8.05859 10.4648 12.375 10.1758 16.5508 9.05859L14.4492 5.32031H5.64844C4.91406 6.56641 4.17969 7.8125 3.44922 9.05469L3.44531 9.05859Z" fill="#FFE177"/>
<path id="Vector_3" fill-rule="evenodd" clip-rule="evenodd" d="M10.0469 5.32422L12.2148 9.05859L14.4492 5.32422H10.0469ZM10.0508 5.32422L7.83203 9.05859L5.64844 5.32422H10.0508Z" fill="#F6B92B"/>
<path id="Vector_4" fill-rule="evenodd" clip-rule="evenodd" d="M3.44531 9.05859H16.5508L9.99609 16.9805L3.44531 9.05859Z" fill="#F6B92B"/>
<path id="Vector_5" fill-rule="evenodd" clip-rule="evenodd" d="M7.83203 9.05859H12.2187L10 16.9805L7.83203 9.05859Z" fill="#FFE177"/>
</g>
</g>
<defs>
<clipPath id="clip0_1238_26730">
<rect width="20" height="20" fill="white"/>
</clipPath>
</defs>
</svg>
