<svg width="59" height="61" viewBox="0 0 59 61" fill="none" xmlns="http://www.w3.org/2000/svg">
<g id="Group">
<path id="Vector" d="M57.7576 12.9381C58.3723 13.5577 58.6866 14.2584 58.3327 15.1243C57.991 15.9601 57.3183 16.2175 56.4794 16.2143C53.148 16.1984 49.8166 16.2079 46.4867 16.2079H45.7591V22.5618C45.9131 22.5745 46.0764 22.5983 46.2396 22.5983C47.3821 22.6031 48.5246 22.5983 49.6655 22.6015C50.953 22.6047 51.6211 23.3085 51.6226 24.6654C51.6256 27.1043 51.6241 29.5416 51.6241 31.9805C51.6241 40.8209 51.6119 49.6613 51.6394 58.5033C51.6424 59.606 51.3557 60.4242 50.3687 60.9009H36.0913C36.0959 59.2755 36.1035 57.6501 36.1035 56.0247V24.864C36.1035 23.2307 36.7091 22.6015 38.2756 22.5999C39.5508 22.5999 40.826 22.5967 42.1013 22.592C42.1363 22.592 42.1714 22.5697 42.2843 22.5316V21.8706C42.2843 15.3277 42.2828 8.78639 42.2889 2.24506C42.2889 1.9114 42.3041 1.56503 42.3911 1.24726C42.6092 0.441711 43.4054 -0.0842004 44.1925 0.011131C45.001 0.108051 45.634 0.77696 45.6965 1.62223C45.7209 1.97178 45.6996 2.32451 45.6996 2.74079H46.3814C49.751 2.74079 53.1205 2.74873 56.4885 2.73602C57.3046 2.73284 57.959 2.99024 58.3128 3.78784C58.6805 4.61723 58.4105 5.31633 57.8415 5.95028C56.7615 7.14987 55.6968 8.36693 54.5894 9.61895C54.7176 9.76671 54.835 9.9113 54.9631 10.0448C55.8921 11.0124 56.8149 11.9848 57.7576 12.9381Z" fill="#FF782D"/>
<path id="Vector_2" d="M32.6734 38.3741C32.6764 45.883 32.6703 53.392 32.6657 60.9009H19.1891C19.1876 53.4111 19.183 45.9228 19.1861 38.4329C19.1861 37.3127 19.8847 36.5533 20.9662 36.5469C24.2762 36.5294 27.5878 36.5294 30.8979 36.5469C31.9595 36.5533 32.6719 37.2969 32.6734 38.3741Z" fill="#FF782D"/>
<path id="Vector_3" d="M15.7613 60.9008H1.82709C0.840177 60.4687 0.509173 59.6933 0.524426 58.5922C0.568662 55.2842 0.538155 51.9762 0.541206 48.6666C0.541206 47.197 1.18338 46.5312 2.60198 46.5312C6.29184 46.5296 9.98322 46.5296 13.6731 46.5312C15.11 46.5312 15.7537 47.2097 15.7552 48.7159C15.7583 52.777 15.7598 56.8397 15.7613 60.9008Z" fill="#FF782D"/>
<path id="Vector_4" d="M31.3371 16.138C30.457 16.5702 29.4975 16.1794 29.0094 15.1816C28.6311 14.4078 28.265 13.6308 27.8547 12.7744C27.722 13.0112 27.6244 13.1669 27.5405 13.3305C21.9332 24.1777 13.7466 32.1362 2.94091 37.1618C1.44452 37.8577 0.851155 37.6734 0 36.28V35.3283C0.295921 34.5831 0.87251 34.2049 1.56045 33.8872C11.5775 29.2477 19.1739 21.8754 24.4135 11.8577C24.5187 11.6559 24.6072 11.4461 24.7598 11.1236C23.7484 11.3333 22.8622 11.5319 21.9699 11.6972C21.2026 11.8386 20.4582 11.4112 20.1425 10.6899C19.6971 9.66981 20.2401 8.47022 21.3109 8.22236C23.3152 7.76 25.3241 7.32307 27.3376 6.90361C28.3215 6.69864 28.9423 7.03548 29.3908 7.96973C30.2953 9.84458 31.1938 11.7226 32.08 13.607C32.5605 14.6286 32.2356 15.6963 31.3371 16.138Z" fill="#FF782D"/>
</g>
</svg>
