<svg width="59" height="61" viewBox="0 0 59 61" fill="none" xmlns="http://www.w3.org/2000/svg">
<g id="Group">
<path id="Vector" d="M26.6157 2.17176C26.6172 3.21414 26.6157 4.25651 26.6157 5.3006C26.6142 6.75925 26.2113 7.33417 24.9584 7.69926C22.0345 8.55057 19.3212 9.90685 16.9955 12.0906C15.9883 13.0357 15.1078 14.1497 14.241 15.2928C15.4222 14.3749 16.6674 13.8017 18.1095 13.9024C19.57 14.003 20.7893 14.6649 21.7369 15.9086C23.2264 17.8637 23.3729 20.6497 22.1169 22.7907C20.8839 24.8942 18.5063 25.8633 16.3592 25.128C15.0452 24.6793 14.0411 23.7819 13.359 22.4495C12.6906 21.1393 12.5456 19.7301 12.8233 18.251C12.7562 18.2339 12.689 18.2186 12.6234 18.2032C12.2968 19.3838 11.9031 20.549 11.659 21.75C10.9295 25.3497 11.044 28.9239 12.0359 32.457C12.4617 33.9686 12.2251 34.61 10.9967 35.4084C10.1741 35.9424 9.35311 36.4781 8.52294 36.9967C7.40435 37.6962 6.35749 37.2697 5.90426 35.9254C4.08674 30.5224 3.87309 25.0256 5.15192 19.4452C5.19922 19.2439 5.24195 19.0409 5.31063 18.7287C4.96116 18.7287 4.66816 18.7236 4.37516 18.7304C3.70981 18.744 3.03988 18.7219 2.3791 18.7918C1.30324 18.9044 0.485281 18.5308 0 17.4082V16.388C1.71832 12.6007 3.43817 8.815 5.1565 5.02934C5.22517 4.87751 5.29689 4.72738 5.37167 4.57895C6.05839 3.22096 7.46845 3.0896 8.33371 4.32476C9.08453 5.39614 9.80024 6.49822 10.5327 7.58496C10.6457 7.75044 10.7662 7.9074 10.899 8.09165C12.5441 6.14508 14.3585 4.51071 16.4049 3.20049C18.8893 1.60877 21.5462 0.562982 24.3694 0.0494705C25.7886 -0.209844 26.6111 0.578336 26.6157 2.17176Z" fill="#FF782D"/>
<path id="Vector_2" d="M56.6626 18.7852C55.7119 18.7938 54.7596 18.746 53.8089 18.7255C53.6243 18.7204 53.4396 18.7238 53.1955 18.7238C53.3755 19.6434 53.5586 20.4844 53.7051 21.3323C54.5506 26.2542 54.1797 31.0686 52.6415 35.7721C52.1394 37.3075 51.1078 37.7323 49.8443 36.9254C49.0522 36.4187 48.2648 35.9034 47.4728 35.3951C46.2779 34.6256 46.0276 33.9586 46.4397 32.4931C47.5369 28.5897 47.5659 24.6676 46.6045 20.7352C46.3969 19.8873 46.0917 19.0684 45.7514 18.2479C45.9605 19.872 45.7667 21.3869 44.964 22.7569C44.1506 24.1421 42.9984 24.99 41.5395 25.2886C39.2993 25.7475 37.0041 24.41 36.0168 22.0881C35.0203 19.744 35.5697 16.9308 37.3384 15.2453C38.9056 13.7525 41.6769 13.0957 44.1475 15.3613C44.1872 15.3237 44.2254 15.2862 44.2651 15.2504C43.7294 14.5765 43.2228 13.8702 42.6505 13.239C40.1035 10.436 37.0118 8.72826 33.5904 7.71318C32.2551 7.31738 31.8736 6.78852 31.8721 5.24286V2.24198C31.8751 0.561546 32.6916 -0.226635 34.1703 0.0565643C39.1986 1.01705 43.528 3.49419 47.1203 7.55623C47.2668 7.72171 47.4011 7.90255 47.5842 8.13115C48.2572 7.13313 48.8951 6.188 49.533 5.24116C49.739 4.93578 49.9374 4.62358 50.151 4.32503C51.0269 3.1001 52.4691 3.19735 53.1085 4.58263C54.8512 8.35976 56.5695 12.1505 58.2665 15.9533C58.8967 17.3658 58.0803 18.7716 56.6626 18.7852Z" fill="#FF782D"/>
<path id="Vector_3" d="M47.7344 45.3668C44.4061 49.8348 40.2492 52.8494 35.201 54.3012C35.0912 54.3319 34.9798 54.3643 34.8729 54.4036C34.8394 54.4155 34.815 54.4548 34.7539 54.511C35.1049 55.678 35.4605 56.8619 35.813 58.0442C36.3257 59.7605 35.5887 60.8967 33.9558 60.8984C30.8152 60.9018 27.6746 60.9018 24.534 60.8984C22.8752 60.8967 22.161 59.7639 22.6906 57.9913C23.0385 56.8278 23.3864 55.6626 23.7374 54.4855C22.7531 54.1289 21.7902 53.8167 20.8486 53.4328C16.8016 51.7814 13.4565 49.0262 10.7218 45.3224C9.89164 44.1965 10.087 42.9459 11.2147 42.2072C12.0693 41.6494 12.9254 41.0983 13.7846 40.5507C14.8406 39.8734 15.5426 39.986 16.3651 40.9926C18.6786 43.8194 21.4407 45.853 24.7721 46.8357C25.8098 47.141 26.8826 47.2946 27.9493 47.4532C24.8133 45.6244 23.6077 43.3571 24.2456 40.392C24.8011 37.8057 26.907 35.9803 29.2983 36.0144C31.6805 36.0468 33.7376 37.8893 34.2503 40.4535C34.8485 43.4407 33.6338 45.7012 30.4261 47.4345C32.1276 47.3219 33.675 46.95 35.1766 46.3273C37.8716 45.2098 40.1378 43.3929 42.0759 41.0403C42.9594 39.9689 43.6263 39.858 44.7434 40.578C45.5674 41.1086 46.393 41.634 47.2125 42.1714C48.4089 42.9562 48.6134 44.1862 47.7344 45.3668Z" fill="#FF782D"/>
</g>
</svg>
