<svg width="73" height="61" viewBox="0 0 73 61" fill="none" xmlns="http://www.w3.org/2000/svg">
<g id="Group">
<path id="Vector" d="M54.7252 43.9342C53.8319 35.2796 44.3805 28.8803 34.049 29.9333C24.1035 30.9483 16.8248 38.404 17.8562 46.7731C18.6719 53.3754 23.0361 57.8114 30.4645 60.0809C31.8195 60.4964 33.2957 60.6344 34.717 60.9008H37.8341C38.1785 60.8516 38.523 60.7961 38.8693 60.7533C48.7012 59.5401 55.5826 52.2399 54.7252 43.9342ZM38.945 55.1723C38.7728 55.2326 38.6006 55.2913 38.3981 55.3595V58.0112H34.1682V55.3848C30.7256 54.0082 28.992 52.0178 29.1643 49.6072H33.2654C33.3184 49.7578 33.3733 49.8831 33.4055 50.0132C33.7462 51.3581 35.0407 52.1558 36.6531 52.0099C38.0877 51.8814 39.2308 50.7824 39.2024 49.5596C39.1702 48.2528 37.9723 47.1886 36.3617 47.1505C34.2212 47.0998 32.4005 46.4828 30.9622 45.149C27.6445 42.0739 28.9163 37.2557 33.4907 35.6174C34.013 35.4303 34.1985 35.2209 34.1625 34.7547C34.1114 34.0886 34.1493 33.4161 34.1493 32.6992H38.4C38.4 33.4383 38.4321 34.1456 38.3886 34.8498C38.364 35.2511 38.5287 35.4223 38.9696 35.5825C41.6495 36.5547 43.1314 38.2802 43.4228 40.7179C43.4361 40.8321 43.4228 40.9478 43.4228 41.1017H39.2668C39.2213 40.9542 39.1684 40.8067 39.1305 40.656C38.8031 39.373 37.4518 38.5562 35.8999 38.7053C34.4407 38.8448 33.2787 39.9915 33.3506 41.2222C33.4282 42.5179 34.6167 43.506 36.1819 43.5742C39.7872 43.7296 42.433 45.4504 43.2298 48.1576C44.0852 51.0694 42.2892 54.013 38.945 55.1723Z" fill="#FF782D"/>
<path id="Vector_2" d="M19.0146 32.3441C19.0108 32.6644 18.8461 33.0403 18.6096 33.2925C16.9858 35.0133 15.6893 36.8815 14.815 38.9528C14.7014 39.2192 14.6219 39.4428 14.1658 39.4413C9.44389 39.4206 4.72195 39.4191 0 39.4111V35.8491H8.1948V23.7513H19.0335V24.3905C19.0335 27.0422 19.0468 29.6924 19.0146 32.3441Z" fill="#FF782D"/>
<path id="Vector_3" d="M72.5078 35.8696V39.4C72.2769 39.4111 72.0498 39.4317 71.8246 39.4317C67.4339 39.4333 63.0431 39.4238 58.6543 39.4444C58.1187 39.446 57.8707 39.3191 57.6928 38.8893C56.8469 36.8323 55.5448 34.9878 53.9323 33.2861C53.7071 33.0466 53.5349 32.693 53.5349 32.3932C53.5141 21.8323 53.5178 11.2714 53.5178 0.710468V0.131592H64.3357V35.8696H72.5078Z" fill="#FF782D"/>
<path id="Vector_4" d="M49.2068 8.0011V29.4655C47.5016 28.7867 45.8229 27.989 44.0363 27.4434C42.2554 26.8994 40.3628 26.6092 38.4419 26.1921V8.0011H49.2068Z" fill="#FF782D"/>
<path id="Vector_5" d="M34.0946 15.8896V26.1936C32.2058 26.606 30.2981 26.9026 28.4983 27.4497C26.725 27.9905 25.0595 28.7851 23.3335 29.4734V15.8896H34.0946Z" fill="#FF782D"/>
</g>
</svg>
