<svg width="16" height="19" viewBox="0 0 16 19" fill="none" xmlns="http://www.w3.org/2000/svg">
<g id="Group">
<path id="Vector" d="M3.79796 16.0196C2.89143 16.3536 2.40345 16.9854 2.12563 18.1162C2.08177 18.2946 1.83137 18.2946 1.78749 18.1162C1.5097 16.9854 1.02169 16.3536 0.115157 16.0196C-0.0383858 15.9608 -0.0383858 15.735 0.115157 15.6781C1.02169 15.3442 1.5097 14.7123 1.78749 13.5815C1.83137 13.4032 2.08177 13.4032 2.12563 13.5815C2.40345 14.7123 2.89143 15.3442 3.79796 15.6781C3.95151 15.735 3.95151 15.9608 3.79796 16.0196Z" fill="#FF782D"/>
<path id="Vector_2" d="M15.7105 12.359C14.1076 12.8674 13.3162 13.9167 12.8958 15.9355C12.8556 16.1252 12.5943 16.1252 12.5541 15.9355C12.1319 13.9167 11.3423 12.8674 9.73938 12.359C9.57125 12.3058 9.57125 12.063 9.73938 12.0098C11.3423 11.5013 12.1319 10.454 12.5541 8.43332C12.5943 8.24358 12.8556 8.24358 12.8958 8.43332C13.3162 10.454 14.1076 11.5013 15.7105 12.0098C15.8787 12.063 15.8787 12.3058 15.7105 12.359Z" fill="#FF782D"/>
<path id="Vector_3" d="M8.8625 5.37285C6.62903 6.02554 5.5781 7.43527 5.03527 10.2547C4.99873 10.4464 4.73006 10.4464 4.69352 10.2547C4.15067 7.43527 3.09974 6.02554 0.86812 5.37285C0.696304 5.32351 0.696304 5.07496 0.86812 5.02563C3.09974 4.37293 4.15067 2.9632 4.69352 0.143726C4.73006 -0.0479088 4.99873 -0.0479088 5.03527 0.143726C5.5781 2.9632 6.62903 4.37293 8.8625 5.02563C9.03249 5.07496 9.03249 5.32351 8.8625 5.37285Z" fill="#FF782D"/>
</g>
</svg>
