<svg width="24" height="24" viewBox="0 0 24 24" fill="none" xmlns="http://www.w3.org/2000/svg">
<g id="link 1">
<path id="Vector" fill-rule="evenodd" clip-rule="evenodd" d="M10.9732 15.0022C10.9948 15.013 11.0272 15.013 11.0272 15.013V15.0346C11.0596 15.0346 11.1243 14.9914 11.1243 14.9914L12.2901 13.8256C12.3013 13.8144 12.3124 13.804 12.3232 13.7939C12.3542 13.765 12.382 13.7389 12.3981 13.7069C12.4196 13.6637 12.4304 13.6205 12.4089 13.5773C12.3873 13.5342 12.3549 13.491 12.3117 13.491C11.8691 13.3938 11.4697 13.1779 11.1459 12.8541C10.7681 12.4871 10.5414 12.0013 10.4874 11.4508C10.4227 10.7708 10.6602 10.1015 11.1459 9.61579L14.2007 6.56097C15.0643 5.69742 16.5755 5.69742 17.439 6.56097C17.8708 7.00354 18.1083 7.57564 18.1083 8.19093C18.1083 8.80621 17.8708 9.3891 17.439 9.82088L16.0466 11.2026C16.0142 11.2349 16.0034 11.2889 16.0142 11.3321C16.1437 11.7963 16.2193 12.282 16.2193 12.7678C16.2193 13.0052 16.2085 13.2103 16.1761 13.383C16.1761 13.437 16.1977 13.5018 16.2517 13.5234C16.3056 13.5557 16.3704 13.5449 16.4136 13.5018L18.7775 11.1486C20.4075 9.50784 20.4075 6.85242 18.7775 5.22247C17.1476 3.59251 14.4922 3.59251 12.8622 5.22247L9.8074 8.27728C9.53754 8.54714 9.32165 8.83859 9.15974 9.13004C9.15614 9.13364 9.15134 9.13723 9.14655 9.14083C9.13695 9.14803 9.12736 9.15523 9.12736 9.16242C8.4581 10.3606 8.40413 11.8071 8.99782 13.0376C9.20292 13.4586 9.46198 13.8364 9.8074 14.1818C10.142 14.5272 10.5414 14.8079 10.9732 15.0022ZM5.23056 18.7792C6.05094 19.5888 7.11958 19.999 8.18823 19.999L8.15584 20.0098C9.22449 20.0098 10.3039 19.5996 11.1135 18.79L14.1683 15.7352C14.7296 15.1739 15.1182 14.4831 15.2909 13.7167L15.3557 13.2417C15.3773 13.1338 15.3773 13.0258 15.3773 12.9179V12.8747V12.7775V12.4861C15.3773 12.3781 15.3665 12.2702 15.3449 12.1838C15.3341 12.0651 15.3125 11.968 15.2909 11.8708C15.2694 11.7629 15.237 11.6441 15.1938 11.5146C15.0103 10.8993 14.6649 10.3164 14.1791 9.83067C13.8553 9.50684 13.4559 9.22618 13.0241 9.02109C12.9809 8.98871 12.873 9.04268 12.873 9.04268L11.7072 10.2085C11.6748 10.2409 11.6316 10.284 11.5993 10.3488C11.5777 10.3812 11.5777 10.4244 11.5993 10.4675C11.6208 10.5107 11.6532 10.5431 11.6964 10.5431C12.139 10.6295 12.5384 10.8453 12.8622 11.1692C13.294 11.6117 13.5315 12.1946 13.5207 12.8315C13.5099 13.2201 13.4127 13.5979 13.2292 13.9217C13.186 13.9973 13.1321 14.0837 13.0457 14.1808C13.0025 14.2456 12.9486 14.3211 12.8622 14.4075L9.80739 17.4623C9.37561 17.8833 8.79271 18.1208 8.18823 18.1208C7.58374 18.1208 6.99005 17.8833 6.56907 17.4623C6.13729 17.0197 5.89981 16.4476 5.89981 15.8324C5.89981 15.2171 6.13729 14.6342 6.56907 14.2024L7.96154 12.8099C7.99393 12.7667 8.00472 12.7128 7.99393 12.6696C7.77804 12.0003 7.71327 11.3203 7.81042 10.6402C7.82122 10.5863 7.78883 10.5215 7.73486 10.4999C7.69168 10.4675 7.58374 10.5215 7.58374 10.5215L5.23056 12.8639C4.43178 13.6519 4 14.7097 4 15.8216C4 16.9334 4.44257 17.9912 5.23056 18.7792Z" fill="#1E47A1"/>
</g>
</svg>
