<svg width="50" height="50" viewBox="0 0 50 50" fill="none" xmlns="http://www.w3.org/2000/svg">
<g clip-path="url(#clip0_1871_3324)">
<path d="M49.9414 3.73309C49.8331 1.74696 48.2535 0.167566 46.2674 0.0591677C42.2598 -0.159778 34.4176 0.0532107 26.9188 3.93182C23.096 5.90917 19.0531 9.26161 15.8266 13.1296C15.7868 13.1772 15.7482 13.2252 15.7087 13.2729L8.38645 13.8386C7.18118 13.9317 6.10764 14.5635 5.44104 15.5717L0.445532 23.1275C-0.0600342 23.8922 -0.140405 24.8491 0.230395 25.6873C0.601294 26.5256 1.3634 27.1098 2.26917 27.2501L8.43821 28.2056C8.41643 28.3255 8.39456 28.4453 8.37454 28.5652C8.16917 29.7937 8.5762 31.0568 9.4635 31.944L18.0565 40.5371C18.7921 41.2727 19.7862 41.6783 20.8047 41.6783C21.0145 41.6783 21.2254 41.661 21.4354 41.626C21.5553 41.6059 21.6751 41.5841 21.795 41.5623L22.7505 47.7314C22.8908 48.6372 23.475 49.3994 24.3131 49.7702C24.6618 49.9245 25.0309 50.0007 25.3983 50.0007C25.9142 50.0006 26.4265 49.8504 26.873 49.5552L34.4288 44.5596C35.4371 43.8929 36.0688 42.8193 36.1617 41.6141L36.7274 34.292C36.7751 34.2525 36.8232 34.2139 36.8708 34.1741C40.7389 30.9476 44.0914 26.9047 46.0687 23.0818C49.9475 15.5827 50.1601 7.74042 49.9414 3.73309ZM32.8131 42.1156L25.5855 46.8942L24.6542 40.882C27.7089 39.9839 30.7307 38.5454 33.6095 36.6183L33.241 41.3884C33.2181 41.6859 33.062 41.9511 32.8131 42.1156ZM20.1281 38.4655L11.535 29.8724C11.3157 29.6531 11.2144 29.345 11.2641 29.0482C11.5196 27.5206 11.9165 26.0664 12.4079 24.6965L25.3013 37.5898C23.656 38.1792 22.1823 38.5308 20.9523 38.7364C20.655 38.7858 20.3473 38.6848 20.1281 38.4655ZM8.61213 16.7596L13.3821 16.3911C11.4549 19.2699 10.0164 22.2917 9.11829 25.3464L3.10618 24.4152L7.88489 17.1875C8.04954 16.9385 8.31467 16.7825 8.61213 16.7596ZM34.9945 31.9242C32.628 33.8981 30.3308 35.3259 28.2134 36.359L13.641 21.7866C14.9944 19.0225 16.646 16.7209 18.0763 15.0062C21.0621 11.4266 24.7757 8.33866 28.2649 6.53397C35.1471 2.97411 42.3982 2.78241 46.1079 2.98436C46.599 3.01112 46.9895 3.40165 47.0162 3.89276C47.2185 7.60253 47.0264 14.8535 43.4665 21.7358C41.6619 25.2249 38.574 28.9384 34.9945 31.9242Z" fill="black"/>
<path d="M34.2498 23.0708C36.125 23.0706 38.001 22.3567 39.4286 20.9291C40.812 19.5458 41.5737 17.7065 41.5737 15.7502C41.5737 13.794 40.8119 11.9547 39.4286 10.5714C36.573 7.71567 31.9265 7.71587 29.071 10.5714C27.6876 11.9547 26.9258 13.794 26.9258 15.7502C26.9258 17.7065 27.6877 19.5458 29.071 20.9291C30.4989 22.357 32.3739 23.0709 34.2498 23.0708ZM31.1424 12.6429C31.999 11.7862 33.1243 11.3579 34.2496 11.3579C35.375 11.3579 36.5003 11.7862 37.3569 12.6429C38.1869 13.4729 38.6439 14.5764 38.6439 15.7501C38.6439 16.9239 38.1869 18.0275 37.3569 18.8575C35.6437 20.5708 32.8557 20.5708 31.1423 18.8575C30.3123 18.0275 29.8552 16.924 29.8552 15.7502C29.8552 14.5765 30.3124 13.4729 31.1424 12.6429Z" fill="#1E47A1"/>
<path d="M1.49604 41.2049C1.87095 41.2049 2.24585 41.062 2.53179 40.7758L7.31431 35.9933C7.88638 35.4212 7.88638 34.4938 7.31431 33.9217C6.74233 33.3497 5.8148 33.3497 5.24273 33.9217L0.460303 38.7042C-0.111768 39.2763 -0.111768 40.2038 0.460303 40.7758C0.74624 41.0619 1.12114 41.2049 1.49604 41.2049Z" fill="black"/>
<path d="M11.6954 38.3045C11.1234 37.7325 10.1958 37.7325 9.62378 38.3045L0.429053 47.4994C-0.143018 48.0714 -0.143018 48.9989 0.429053 49.5709C0.715088 49.857 1.08989 50 1.4648 50C1.8397 50 2.2146 49.857 2.50054 49.5708L11.6953 40.3761C12.2674 39.8041 12.2674 38.8766 11.6954 38.3045Z" fill="black"/>
<path d="M14.0084 42.6874L9.22593 47.4699C8.65386 48.0419 8.65386 48.9694 9.22593 49.5415C9.51196 49.8275 9.88686 49.9706 10.2617 49.9706C10.6365 49.9706 11.0115 49.8276 11.2974 49.5415L16.0799 44.7589C16.652 44.1869 16.652 43.2594 16.0799 42.6874C15.508 42.1153 14.5804 42.1153 14.0084 42.6874Z" fill="black"/>
<circle cx="34" cy="16" r="5" fill="#1E47A1"/>
</g>
<defs>
<clipPath id="clip0_1871_3324">
<rect width="50" height="50" fill="white"/>
</clipPath>
</defs>
</svg>
