<svg width="35" height="30" viewBox="0 0 35 30" fill="none" xmlns="http://www.w3.org/2000/svg">
<g id="Group">
<path id="Vector" d="M3.3342 13.5702L3.84983 13.6132C5.676 13.8066 7.3303 12.539 7.63108 10.7343L8.59787 5.19134C8.94162 3.21478 7.52366 1.34564 5.52561 1.13079L4.23655 1.00189C2.2385 0.787043 0.476784 2.33392 0.390846 4.35345L0.197488 9.98236C0.133035 11.8085 1.50804 13.3769 3.31272 13.5702H3.3342Z" fill="#FE9738"/>
<path id="Vector_2" d="M14.7852 17.0079L15.2149 17.3087C16.6973 18.3829 18.7598 18.1251 19.92 16.7072L23.5293 12.3888C24.8184 10.8419 24.5391 8.52162 22.8848 7.33997L21.8321 6.58802C20.1993 5.40638 17.9004 5.85755 16.8477 7.5763L13.8614 12.3458C12.8946 13.8927 13.2813 15.9337 14.7637 17.0079H14.7852Z" fill="#FE9738"/>
<path id="Vector_3" d="M21.9608 26.5466L22.1756 27.0193C22.9276 28.6951 24.8397 29.49 26.5584 28.8669L31.8436 26.9334C33.7342 26.2459 34.6365 24.0759 33.8201 22.2498L33.283 21.0681C32.4666 19.2205 30.2537 18.4685 28.4705 19.4138L23.5076 22.0564C21.8963 22.9158 21.2088 24.8709 21.9608 26.5466Z" fill="#FE9738"/>
</g>
</svg>
