<svg width="110" height="111" viewBox="0 0 110 111" fill="none" xmlns="http://www.w3.org/2000/svg">
<g id="graduation-cap 1">
<g id="Group">
<path id="Vector" d="M107.637 54.3184C107.637 83.3889 84.0705 106.955 55 106.955C25.9295 106.955 2.36328 83.3889 2.36328 54.3184C2.36328 25.2479 25.9295 1.68164 55 1.68164C84.0705 1.68164 107.637 25.2479 107.637 54.3184Z" fill="#65BEFC"/>
<path id="Vector_2" d="M96.3574 58.1587C96.3574 81.8897 77.1197 101.127 53.3887 101.127C29.6577 101.127 10.4199 81.8897 10.4199 58.1587C10.4199 34.4277 29.6577 15.1899 53.3887 15.1899C77.1197 15.1899 96.3574 34.4277 96.3574 58.1587Z" fill="#93D0FD"/>
<path id="Vector_3" d="M88.0953 36.6963V69.3025C88.0953 70.144 87.604 70.908 86.8383 71.2573L55.8915 85.3687C55.3254 85.627 54.6751 85.627 54.1087 85.3687L28.9854 73.9126V34.5479H85.9469C87.1335 34.5479 88.0953 35.5097 88.0953 36.6963Z" fill="#0055CA"/>
<path id="Vector_4" d="M29.3643 34.5479V74.0858L23.1613 71.2571C22.3956 70.908 21.9043 70.1438 21.9043 69.3023V36.6963C21.9043 35.5099 22.8662 34.5479 24.0527 34.5479H29.3643Z" fill="#00429C"/>
<path id="Vector_5" d="M108.567 32.667L56.8373 48.0562C55.6381 48.4131 54.361 48.4131 53.1618 48.0562L3.96792 33.4215C3.55757 33.2995 3.55757 32.7183 3.96792 32.5963L61.1636 15.5809C62.1036 15.3012 63.1047 15.3012 64.0447 15.5809L108.567 28.826C110.477 29.3943 110.477 32.0989 108.567 32.667Z" fill="#0077F0"/>
<path id="Vector_6" d="M84.3257 75.3031C84.3285 76.193 83.6094 76.9168 82.7193 76.9194H82.7141C81.8266 76.9194 81.1058 76.2014 81.103 75.313L81.0083 45.3004C81.0001 42.7124 79.3424 40.4314 76.8835 39.6244L54.497 32.2776C53.6514 32.0001 53.1909 31.0898 53.4685 30.2441C53.7461 29.3983 54.6566 28.9379 55.502 29.2157L77.8883 36.5625C81.6693 37.8032 84.218 41.3108 84.2307 45.2901L84.3257 75.3031Z" fill="#FFAA00"/>
<path id="Vector_7" d="M60.7044 30.6939C60.7044 32.5723 58.1504 34.0949 54.9997 34.0949C51.849 34.0949 49.2949 32.5723 49.2949 30.6939C49.2949 28.8156 51.849 27.293 54.9997 27.293C58.1504 27.293 60.7044 28.8156 60.7044 30.6939Z" fill="#0055CA"/>
<path id="Vector_8" d="M1.43231 28.8258L53.1622 13.4366C54.3614 13.0797 55.6385 13.0797 56.8377 13.4366L64.186 15.6226L4.16297 33.4791L1.43231 32.6668C-0.477437 32.0988 -0.477437 29.3941 1.43231 28.8258Z" fill="#0066ED"/>
<path id="Vector_9" d="M81.3001 93.8496H77.0215C76.4283 93.8496 75.9473 93.3686 75.9473 92.7754V73.5469C75.9473 69.8092 78.9772 66.7793 82.7148 66.7793C83.4625 66.7793 84.1818 66.9007 84.8543 67.1245C82.1651 68.0198 80.2259 70.5569 80.2259 73.5469V92.7754C80.2259 93.3686 80.7067 93.8496 81.3001 93.8496Z" fill="#FFAA00"/>
<path id="Vector_10" d="M88.4077 93.8495H80.9814C80.3883 93.8495 79.9072 93.3685 79.9072 92.7753V73.5468C79.9072 70.4981 81.9231 67.9204 84.6946 67.0737C87.4661 67.9204 89.482 70.4981 89.482 73.5468V92.7753C89.482 93.3685 89.0011 93.8495 88.4077 93.8495Z" fill="#FFB509"/>
<path id="Vector_11" d="M85.6152 65.4775C85.6152 67.0794 84.3167 68.3779 82.7148 68.3779C81.113 68.3779 79.8145 67.0794 79.8145 65.4775C79.8145 63.8757 81.113 62.5771 82.7148 62.5771C84.3167 62.5771 85.6152 63.8757 85.6152 65.4775Z" fill="#FF9500"/>
<path id="Vector_12" d="M20.9622 67.3333C17.425 67.3287 13.9811 65.5112 12.0509 62.2453C10.1206 58.9795 10.1887 55.0861 11.8902 51.985C12.078 51.6421 21.3533 67.3339 20.9622 67.3333Z" fill="#FFAA00"/>
<path id="Vector_13" d="M21.9037 66.7769C21.7157 67.1196 21.3531 67.334 20.962 67.3334C17.4249 67.3289 10.1885 55.0862 11.8898 51.9852C12.0778 51.6425 12.4405 51.4281 12.8315 51.4287C16.3687 51.4332 19.8124 53.2508 21.7428 56.5166C23.6732 59.7825 23.6053 63.6759 21.9037 66.7769Z" fill="#FFB509"/>
<path id="Vector_14" d="M67.1252 108.411C66.8461 108.985 66.2723 109.318 65.675 109.318C65.4385 109.318 65.1983 109.266 64.9714 109.155C55.9129 104.747 45.7102 97.1057 36.2425 87.6381C26.775 78.1706 19.1332 67.9677 14.7253 58.9092C14.336 58.1092 14.669 57.1447 15.469 56.7554C16.2693 56.3663 17.2336 56.6991 17.6229 57.4994C26.4235 75.5843 48.2965 97.4571 66.3812 106.258C67.1813 106.647 67.5145 107.611 67.1252 108.411Z" fill="#FF9500"/>
<path id="Vector_15" d="M30.0805 75.3008C26.9821 73.5949 24.8375 70.3444 24.7167 66.5526C24.596 62.7608 26.5292 59.3805 29.5127 57.4808C29.8427 57.2709 30.4232 75.4894 30.0805 75.3008ZM26.2643 78.6775C23.5007 80.8852 19.6765 81.6198 16.1281 80.2777C12.5798 78.9355 10.1989 75.8542 9.58809 72.3701C9.52063 71.9849 26.5698 78.4334 26.2643 78.6775Z" fill="#FFAA00"/>
<path id="Vector_16" d="M35.9698 66.1943C36.0905 69.9861 34.1574 73.3664 31.1738 75.2661C30.8441 75.476 30.4232 75.4895 30.0807 75.3009C26.9822 73.595 26.5294 59.3805 29.5129 57.4809C29.8427 57.271 30.2635 57.2574 30.606 57.4461C33.7045 59.1519 35.8491 62.4025 35.9698 66.1943ZM20.1113 69.747C23.6597 71.0891 26.0406 74.1704 26.6514 77.6545C26.7188 78.0397 26.57 78.4335 26.2644 78.6776C23.5009 80.8853 10.1991 75.8543 9.58828 72.3702C9.52082 71.985 9.6697 71.5912 9.97521 71.3471C12.7387 69.1394 16.563 68.405 20.1113 69.747Z" fill="#FFB509"/>
<path id="Vector_17" d="M41.5295 87.5235C38.2443 86.2125 35.7156 83.2511 35.1282 79.5031C34.5409 75.7552 36.0426 72.1624 38.7694 69.9093C39.0708 69.6603 41.8926 87.6685 41.5295 87.5235ZM34.0777 89.2977C32.0747 92.2131 28.6286 94.0266 24.8435 93.7731C21.0583 93.5196 17.8849 91.2626 16.2884 88.1063C16.112 87.7574 34.2992 88.9754 34.0777 89.2977ZM53.5086 96.8232C50.2234 95.5122 47.6947 92.5508 47.1073 88.8029C46.5199 85.0549 48.0217 81.4621 50.7485 79.209C51.0499 78.96 53.8716 96.968 53.5086 96.8232ZM45.7175 99.3483C43.7145 102.264 40.2684 104.077 36.4833 103.824C32.6982 103.57 29.5247 101.313 27.9282 98.157C27.7518 97.8081 45.939 99.026 45.7175 99.3483Z" fill="#FFAA00"/>
<path id="Vector_18" d="M46.2516 77.76C46.839 81.508 45.3372 85.1008 42.6104 87.3539C42.309 87.6029 41.8931 87.6682 41.5298 87.5232C38.2446 86.2122 36.0429 72.1621 38.7697 69.909C39.0711 69.66 39.487 69.5947 39.8503 69.7397C43.1355 71.0507 45.6642 74.0121 46.2516 77.76ZM25.5961 82.5392C29.3812 82.7927 32.5547 85.0497 34.1512 88.2059C34.3276 88.5548 34.2994 88.9751 34.0781 89.2974C32.0751 92.2128 17.8853 91.2625 16.2888 88.106C16.1125 87.7571 16.1406 87.3369 16.3619 87.0146C18.3649 84.0994 21.811 82.2859 25.5961 82.5392ZM58.2306 87.0598C58.818 90.8077 57.3163 94.4005 54.5895 96.6536C54.288 96.9026 53.8721 96.9679 53.5088 96.8229C50.2236 95.5119 48.0219 81.4618 50.7487 79.2087C51.0501 78.9597 51.4661 78.8944 51.8294 79.0394C55.1145 80.3504 57.6433 83.3118 58.2306 87.0598ZM37.2359 92.5898C41.021 92.8433 44.1945 95.1003 45.791 98.2566C45.9674 98.6055 45.9392 99.0257 45.7179 99.348C43.7149 102.263 29.5252 101.313 27.9286 98.1567C27.7523 97.8077 27.7804 97.3875 28.0017 97.0652C30.0047 94.15 33.4508 92.3363 37.2359 92.5898Z" fill="#FFB509"/>
<path id="Vector_19" d="M55.2343 102.294C55.1026 102.327 54.9705 102.343 54.8407 102.343C54.1195 102.343 53.4627 101.855 53.279 101.124C51.979 95.9486 51.1534 91.0927 50.8251 86.691C50.7587 85.8037 51.4247 85.0305 52.312 84.9643C53.2015 84.8996 53.9726 85.5639 54.0387 86.4514C54.3535 90.6695 55.1495 95.3419 56.4046 100.339C56.6214 101.202 56.0974 102.077 55.2343 102.294ZM30.2394 81.0655C30.4439 81.0655 30.6435 81.026 30.8287 80.9525C30.8588 80.9542 30.8891 80.9553 30.9196 80.9553C30.9853 80.9553 31.0517 80.9512 31.1186 80.9428C32.0018 80.8341 32.6298 80.03 32.5208 79.1467C31.8911 74.033 31.6771 69.2981 31.8849 65.0734C31.9285 64.1846 31.2434 63.4286 30.3546 63.385C29.4673 63.3452 28.7097 64.0265 28.6661 64.9153C28.4779 68.7425 28.6197 72.956 29.087 77.4662C24.7804 76.1972 20.8881 74.7435 17.4972 73.1365C16.6976 72.7573 15.7418 73.0983 15.3628 73.8983C14.9838 74.6982 15.3247 75.6538 16.1246 76.033C20.0908 77.9127 24.6952 79.5861 29.8097 81.0069C29.953 81.0466 30.0974 81.0655 30.2394 81.0655ZM39.36 90.4224C39.9716 90.4078 40.495 90.0524 40.7528 89.5422C40.9247 90.2956 41.1071 91.0564 41.3 91.8242C41.4837 92.5556 42.1403 93.0435 42.8617 93.0435C42.9915 93.0435 43.1236 93.0276 43.2555 92.9945C44.1185 92.7775 44.6425 91.9022 44.4258 91.039C43.1706 86.0415 42.3746 81.3691 42.0599 77.1515C41.9935 76.2638 41.2218 75.5986 40.3332 75.6643C39.4459 75.7307 38.7801 76.5037 38.8463 77.391C39.083 80.5649 39.5785 83.9756 40.324 87.5721C40.0391 87.3435 39.6756 87.2098 39.2839 87.2178C33.8505 87.3467 28.0061 87.0597 24.03 86.4676C23.1543 86.3378 22.3392 86.9411 22.209 87.8166C22.0786 88.6918 22.6825 89.5074 23.558 89.6376C27.052 90.1577 31.9032 90.4531 36.6972 90.4531C37.5894 90.4535 38.4808 90.4434 39.36 90.4224ZM51.0545 97.2985C45.5913 97.4287 39.7147 97.1397 35.7177 96.5444C34.8375 96.4133 34.0177 97.0205 33.8868 97.9007C33.7558 98.7809 34.3629 99.6007 35.2431 99.7316C38.7552 100.255 43.6323 100.551 48.4528 100.551C49.3504 100.551 50.2467 100.541 51.1312 100.52C52.0209 100.499 52.725 99.7604 52.7039 98.8705C52.6824 97.9812 51.9354 97.2811 51.0545 97.2985Z" fill="#FF9500"/>
</g>
</g>
</svg>
