<svg width="110" height="107" viewBox="0 0 110 107" fill="none" xmlns="http://www.w3.org/2000/svg">
<path id="Vector" d="M109.484 46.709C108.968 48.3633 108.023 49.9316 106.627 51.3066L93.0915 64.4981C90.4704 67.0547 89.2673 70.75 89.8903 74.3594L93.0915 92.9863C93.1344 93.2656 93.1774 93.5449 93.1989 93.8457C88.4938 98.3789 82.9723 102.096 76.8923 104.738L60.1774 95.9512C56.9333 94.2324 53.0446 94.2324 49.8005 95.9512L33.0856 104.738C25.1579 108.906 15.9411 102.525 16.8005 93.8457C16.822 93.5664 16.8649 93.2871 16.9079 92.9863L20.1091 74.3594C20.7321 70.75 19.529 67.0547 16.9079 64.4981L3.37273 51.3066C1.97625 49.9316 1.03094 48.3633 0.51531 46.709C-0.752268 42.7129 0.386404 38.2656 3.32976 35.3652C4.91961 33.7969 7.02508 32.6797 9.56023 32.3145L28.2516 29.6074C31.8825 29.0918 35.0192 26.793 36.652 23.5059L45.0094 6.57617C49.0915 -1.7168 60.9079 -1.7168 64.9899 6.57617L73.3473 23.5059C74.9801 26.793 78.1169 29.0703 81.7477 29.6074L100.439 32.3145C102.974 32.6797 105.08 33.7969 106.67 35.3652C109.613 38.2656 110.773 42.7129 109.484 46.7305V46.709Z" fill="#FE646F"/>
</svg>
