<svg width="20" height="14" viewBox="0 0 20 14" fill="none" xmlns="http://www.w3.org/2000/svg">
<g id="Group">
<path id="Vector" d="M18.8686 2.72938C18.6681 1.62192 17.9913 0.910994 16.9331 0.717445C16.4964 0.637277 16.0518 0.578869 15.6083 0.558826C13.7275 0.473791 11.8458 0.407079 9.96443 0.333496C9.96386 0.352966 9.96329 0.372435 9.96272 0.391904C9.53009 0.391904 9.09719 0.385606 8.66485 0.39305C6.87108 0.423113 5.07703 0.442869 3.29271 0.665622C2.18295 0.803912 1.4142 1.46387 1.18314 2.56103C1.05401 3.17375 0.983578 3.80192 0.932614 4.42695C0.823527 5.76375 0.796614 7.10486 0.89167 8.44367C0.950651 9.27169 1.02624 10.1023 1.16396 10.9203C1.34462 11.9917 2.08303 12.7 3.12264 12.8544C3.73822 12.9457 4.35981 13.0236 4.98111 13.0439C6.88826 13.1057 8.79655 13.163 10.7046 13.1725C12.6066 13.1822 14.5094 13.137 16.404 12.938C16.8924 12.8864 17.3737 12.8085 17.8006 12.5351C18.5067 12.083 18.8279 11.4036 18.9049 10.6056C19.0089 9.52594 19.1142 8.44367 19.1497 7.36054C19.201 5.81071 19.1454 4.26146 18.8686 2.72938ZM8.18727 9.5185V4.04558C9.77575 4.95864 11.3476 5.86225 12.9473 6.78189C11.3499 7.70039 9.77833 8.60372 8.18727 9.5185Z" fill="#555555"/>
</g>
</svg>
