<svg width="18" height="18" viewBox="0 0 18 18" fill="none" xmlns="http://www.w3.org/2000/svg">
<g id="Group">
<path id="Vector" d="M17.3298 5.30963C17.3184 3.51331 16.5175 2.15028 14.9677 1.24295C14.2858 0.843499 13.5322 0.670675 12.7418 0.670267C10.2469 0.668229 7.75191 0.662115 5.25696 0.671897C3.22627 0.679642 1.52981 1.91917 0.887426 3.85489C0.792862 4.14021 0.758215 4.44591 0.696259 4.74224C0.685254 4.79482 0.676286 4.84781 0.666504 4.90039V13.1022C0.71134 13.3517 0.735797 13.6068 0.803867 13.8498C1.32071 15.6946 2.51948 16.8277 4.38835 17.25C4.55587 17.2879 4.72829 17.3059 4.89826 17.3332H13.1017C13.3516 17.2883 13.6068 17.2639 13.8501 17.1958C15.6929 16.6798 16.8293 15.4831 17.245 13.6162C17.3119 13.3174 17.329 13.0028 17.3298 12.6954C17.3363 10.2335 17.3453 7.77157 17.3298 5.30963ZM9.00733 13.5685C6.49811 13.5828 4.43074 11.5187 4.43196 9.0005C4.43318 6.48476 6.46673 4.44836 8.99266 4.43409C11.5019 4.41983 13.5693 6.48353 13.568 9.00172C13.5668 11.5175 11.5333 13.5539 9.00733 13.5685ZM13.8436 5.54645C13.0895 5.544 12.4553 4.90895 12.4557 4.15651C12.4557 3.40163 13.0879 2.77229 13.8456 2.7731C14.6074 2.77351 15.2315 3.39837 15.2294 4.15896C15.2278 4.91711 14.5968 5.54889 13.8436 5.54645Z" fill="#555555"/>
<path id="Vector_2" d="M0.666504 13.1025C0.71134 13.352 0.735797 13.6072 0.803867 13.8501C1.32071 15.6949 2.51948 16.8281 4.38835 17.2503C4.55587 17.2882 4.72829 17.3062 4.89826 17.3335C3.48754 17.3335 2.07682 17.3335 0.666504 17.3335C0.666504 15.9232 0.666504 14.5129 0.666504 13.1025Z" fill="white"/>
<path id="Vector_3" d="M12.5839 9.00914C12.5773 10.9909 10.96 12.5973 8.9847 12.5842C7.00618 12.5712 5.41 10.9652 5.41652 8.99365C5.42305 7.01228 7.04083 5.40509 9.01609 5.41854C10.9946 5.43158 12.5904 7.03755 12.5839 9.00914Z" fill="#555555"/>
<path id="Vector_4" d="M14.2445 4.15518C14.2453 4.37447 14.0599 4.56116 13.843 4.55993C13.6282 4.55871 13.4387 4.3655 13.4419 4.1511C13.4456 3.94037 13.6266 3.76021 13.8385 3.75736C14.0607 3.7545 14.2437 3.93385 14.2445 4.15518Z" fill="#555555"/>
</g>
</svg>
