<svg width="80" height="80" viewBox="0 0 80 80" fill="none" xmlns="http://www.w3.org/2000/svg">
<g id="graduation (2) 1">
<g id="Graduated-Students">
<g id="Group">
<g id="doctor_shadow">
<g id="Group_2">
<path id="&#232;&#183;&#175;&#229;&#190;&#132;" d="M44.9434 27.0122C44.1684 25.9059 43.9465 24.6091 44.8496 24.1153C45.7528 23.6216 47.2653 24.1153 47.8434 25.2216C48.4215 26.3278 48.0184 27.6247 47.3184 28.1184C46.6184 28.6122 45.7278 28.1184 44.9434 27.0122Z" fill="url(#paint0_linear_1238_21772)"/>
<path id="&#232;&#183;&#175;&#229;&#190;&#132;_2" d="M63.6217 27.0122C64.3967 25.9059 64.6186 24.6091 63.7155 24.1153C62.8123 23.6216 61.2998 24.1153 60.7217 25.2216C60.1436 26.3278 60.5467 27.6247 61.2467 28.1184C61.9467 28.6122 62.8248 28.1184 63.6217 27.0122Z" fill="url(#paint1_linear_1238_21772)"/>
<path id="&#232;&#183;&#175;&#229;&#190;&#132;_3" d="M49.5126 32.2586C49.5126 32.2586 50.8407 35.9836 45.1376 40.7992C42.1532 43.3367 44.247 46.4398 44.247 46.4398L64.3126 52.5961L64.9001 41.0336C63.3445 39.9161 61.9199 38.6267 60.6532 37.1898C57.8032 33.7523 59.0032 31.4023 59.0032 31.4023L49.5126 32.2586Z" fill="url(#paint2_linear_1238_21772)"/>
</g>
<path id="&#232;&#183;&#175;&#229;&#190;&#132;_4" fill-rule="evenodd" clip-rule="evenodd" d="M48.1465 41.1465C48.1465 41.1465 53.309 46.7715 60.2715 41.1465L58.709 52.8215L46.584 51.4746L48.1465 41.1465Z" fill="url(#paint3_linear_1238_21772)"/>
<path id="&#232;&#183;&#175;&#229;&#190;&#132;_5" d="M45.1836 24.009C45.1836 24.009 47.0586 29.2934 47.7398 30.6434C48.5305 32.2246 50.8367 35.409 54.5742 35.409C58.2461 35.409 61.2336 30.7465 61.5086 29.7434C62.0367 27.8121 62.5367 25.9059 62.9461 24.3121C62.9461 24.0871 61.8367 18.6871 61.8367 18.6871L52.2055 11.5215L45.2773 19.359L45.1836 24.009Z" fill="url(#paint4_linear_1238_21772)"/>
<path id="&#232;&#183;&#175;&#229;&#190;&#132;_6" fill-rule="evenodd" clip-rule="evenodd" d="M48.1465 41.1465C48.1465 41.1465 53.309 46.7715 60.2715 41.1465L58.709 52.8215L46.584 51.4746L48.1465 41.1465Z" fill="url(#paint5_linear_1238_21772)"/>
<path id="&#232;&#183;&#175;&#229;&#190;&#132;_7" fill-rule="evenodd" clip-rule="evenodd" d="M60.6497 37.1807L54.2091 49.0057L48.3091 37.1932C47.9216 37.3525 31.2997 47.4338 32.6184 55.515C33.7778 58.7932 36.1747 61.4994 41.9934 61.4994H66.7122C66.7122 61.4994 75.5278 61.4744 76.0591 55.4307C76.7028 48.0963 63.5934 39.0963 60.6497 37.1807Z" fill="url(#paint6_linear_1238_21772)"/>
</g>
<g id="Group_3">
<path id="&#232;&#183;&#175;&#229;&#190;&#132;_8" d="M58.3098 12.3125C58.3098 12.3125 62.8254 13.7687 63.2066 18.25C63.6254 23.1906 62.3441 26.7344 62.3441 26.7344C62.3441 26.7344 62.4566 19.5312 57.5566 18.9219L58.3098 12.3125Z" fill="#D39D76"/>
<path id="&#232;&#183;&#175;&#229;&#190;&#132;_9" d="M58.3094 12.3121C59.8563 13.3059 59.5813 19.7715 54.2063 20.4903C48.8313 21.209 50.0125 20.9403 47.5469 20.9715C46.2032 20.9715 46.2032 27.459 46.2032 27.459C46.2032 27.459 44.3594 22.9684 44.8594 19.5278C45.6907 13.784 50.2625 9.29651 58.3094 12.3121Z" fill="#D39D76"/>
<path id="&#232;&#183;&#175;&#229;&#190;&#132;_10" d="M58.3094 11.8652C58.3094 11.8652 62.825 13.3215 63.2063 17.8027C63.6219 22.7402 62.3344 26.284 62.3344 26.284C62.3344 26.284 62.4469 19.0965 57.5469 18.4715L58.3094 11.8652Z" fill="url(#paint7_linear_1238_21772)"/>
<path id="&#232;&#183;&#175;&#229;&#190;&#132;_11" d="M58.3094 11.8658C59.8469 12.847 59.5594 19.3252 54.1969 20.0345C48.8344 20.7439 50.0125 20.4845 47.5469 20.5064C46.2032 20.5064 46.2032 26.9939 46.2032 26.9939C46.2032 26.9939 44.3594 22.5033 44.8594 19.0627C45.6907 13.3314 50.2625 8.85016 58.3094 11.8658Z" fill="url(#paint8_linear_1238_21772)"/>
<path id="&#232;&#183;&#175;&#229;&#190;&#132;_12" d="M45.4348 13.568L44.3535 20.5961C44.3535 20.5961 54.4098 20.1648 54.5191 21.6773C54.9504 19.9461 64.316 20.5961 64.316 20.5961L62.4129 12.918L45.4348 13.568Z" fill="url(#paint9_linear_1238_21772)"/>
<path id="&#232;&#183;&#175;&#229;&#190;&#132;_13" opacity="0.2" d="M54.5191 21.0277C54.416 19.5745 45.1441 19.9152 44.4035 19.9433L44.3535 20.2558C44.3535 20.2558 54.4098 19.8245 54.5191 21.337C54.9504 19.6058 64.316 20.2558 64.316 20.2558L64.2348 19.9433C63.3098 19.8839 54.9285 19.4089 54.5191 21.0277Z" fill="url(#paint10_linear_1238_21772)"/>
<path id="&#232;&#183;&#175;&#229;&#190;&#132;_14" d="M55.0439 8.82782C53.9799 8.70374 52.9038 8.73003 51.8471 8.90594L37.4033 11.7403C36.5283 11.9122 36.5283 12.1966 37.4033 12.3653L52.7158 15.4091C53.764 15.5767 54.8352 15.5321 55.8658 15.2778L68.9658 11.5278C69.8221 11.2809 69.8033 10.9747 68.9189 10.8466L55.0439 8.82782Z" fill="url(#paint11_linear_1238_21772)"/>
<path id="&#232;&#183;&#175;&#229;&#190;&#132;_15" opacity="0.2" d="M38.4122 12.2213C38.5489 12.1651 38.6915 12.1242 38.8372 12.0995L51.9622 9.52135C52.9229 9.36157 53.9011 9.33737 54.8685 9.44947L67.4872 11.2838C67.6493 11.3032 67.808 11.3442 67.9591 11.4057C68.2529 11.2276 68.0935 11.0463 67.4872 10.9588L54.8716 9.13072C53.9043 9.01862 52.926 9.04282 51.9654 9.2026L38.8404 11.7807C38.2247 11.9088 38.0841 12.0776 38.4122 12.2213Z" fill="url(#paint12_linear_1238_21772)"/>
<path id="&#232;&#183;&#175;&#229;&#190;&#132;_16" d="M64.4784 12.7617C64.4784 12.643 64.4096 12.6367 64.4096 12.6367L53.569 11.0273C53.4891 11.0324 53.4279 11.1005 53.4315 11.1805C53.4247 11.2499 53.4605 11.3166 53.5221 11.3492C53.5221 11.3492 64.0315 12.8742 64.0315 13.0398V15.0523H64.4721V12.9867C64.4721 12.9867 64.4721 12.8805 64.4784 12.7617Z" fill="#E1E12E"/>
<path id="&#232;&#183;&#175;&#229;&#190;&#132;_17" d="M65.2349 26.8305C65.24 26.982 65.1833 27.1292 65.0778 27.2382C64.9724 27.3472 64.8272 27.4086 64.6755 27.4086H63.9661C63.8139 27.4095 63.6679 27.3484 63.5618 27.2393C63.4556 27.1302 63.3985 26.9826 63.4036 26.8305L63.6943 15.4961C63.7169 15.184 63.9767 14.9424 64.2896 14.9424C64.6025 14.9424 64.8623 15.184 64.8849 15.4961L65.2349 26.8305Z" fill="url(#paint13_linear_1238_21772)"/>
</g>
<path id="&#232;&#183;&#175;&#229;&#190;&#132;_18" opacity="0.2" fill-rule="evenodd" clip-rule="evenodd" d="M60.8906 38.5965C64.3656 40.9309 75.1562 48.6934 75.4031 55.1152C75.6687 48.6121 64.4469 40.5371 60.8906 38.1465" fill="white"/>
<path id="&#232;&#183;&#175;&#229;&#190;&#132;_19" opacity="0.2" fill-rule="evenodd" clip-rule="evenodd" d="M48.0377 38.1406C45.2574 39.8838 42.6199 41.8452 40.1502 44.0062C36.8565 46.9219 33.0877 51.0937 33.2377 54.8C33.3909 51.2094 36.9877 47.2531 40.1502 44.4562C42.6199 42.2952 45.2574 40.3338 48.0377 38.5906" fill="white"/>
<path id="&#232;&#183;&#175;&#229;&#190;&#132;_20" d="M65.0623 17.3686C65.0623 17.6067 64.8692 17.7998 64.6311 17.7998H63.9654C63.7273 17.7998 63.5342 17.6067 63.5342 17.3686V16.2311C63.5342 16.1167 63.5796 16.007 63.6605 15.9261C63.7414 15.8452 63.8511 15.7998 63.9654 15.7998H64.6311C64.7454 15.7998 64.8551 15.8452 64.936 15.9261C65.0169 16.007 65.0623 16.1167 65.0623 16.2311V17.3686Z" fill="url(#paint14_linear_1238_21772)"/>
<path id="&#232;&#183;&#175;&#229;&#190;&#132;_21" d="M60.2225 36.8275L54.51 38.4494L48.6943 36.7588L54.7756 40.94L60.2225 36.8275Z" fill="url(#paint15_linear_1238_21772)"/>
<path id="&#232;&#183;&#175;&#229;&#190;&#132;_22" fill-rule="evenodd" clip-rule="evenodd" d="M48.5846 36.8281L54.2814 38.8844L60.6033 37.0375L53.5939 54.7656L47.0596 39.0938L48.5846 36.8281Z" fill="white"/>
<path id="&#232;&#183;&#175;&#229;&#190;&#132;_23" d="M54.3375 39.0619L52.2344 40.3619L53.1 43.0307L55.8156 43.0557L56.9594 40.2713L54.5281 38.8838" fill="url(#paint16_linear_1238_21772)"/>
<path id="&#232;&#183;&#175;&#229;&#190;&#132;_24" d="M49.8283 41.9313L54.3377 39.0625L48.2096 37.4844L47.9502 37.7438L49.8283 41.9313Z" fill="url(#paint17_linear_1238_21772)"/>
<path id="&#232;&#183;&#175;&#229;&#190;&#132;_25" d="M49.9406 41.3594L54.2812 38.8844L48.5844 36.8281L48.3125 37.0719L49.9406 41.3594Z" fill="white"/>
<path id="&#232;&#183;&#175;&#229;&#190;&#132;_26" d="M58.9785 41.9313L54.3379 39.0625L60.5973 37.4844L60.8566 37.7438L58.9785 41.9313Z" fill="url(#paint18_linear_1238_21772)"/>
<path id="&#232;&#183;&#175;&#229;&#190;&#132;_27" d="M58.8658 41.3594L54.5283 38.8844L60.2221 36.8281L60.6502 37.1813L58.8658 41.3594Z" fill="white"/>
<path id="&#232;&#183;&#175;&#229;&#190;&#132;_28" d="M53.0998 43.0312L51.3154 49.925L54.4467 53.7219L56.8217 48.5L55.8154 43.0563L53.0998 43.0312Z" fill="url(#paint19_linear_1238_21772)"/>
<path id="&#232;&#183;&#175;&#229;&#190;&#132;_29" fill-rule="evenodd" clip-rule="evenodd" d="M48.4316 37.1059L46.3535 38.3621L53.6879 56.3809L62.4285 38.309L60.6035 37.0371L53.7598 51.1809L48.4316 37.1059Z" fill="#EEEEEE"/>
<path id="&#232;&#183;&#175;&#229;&#190;&#132;_30" d="M18.6816 27.3438C18.6816 27.3438 20.4223 42.0125 15.9473 48.9719H41.8035C41.8035 48.9719 35.5879 38.0344 38.0754 28.3469L18.9348 27.3438H18.6816Z" fill="url(#paint20_linear_1238_21772)"/>
<g id="doctor_shadow-2">
<g id="Group_4">
<path id="&#232;&#183;&#175;&#229;&#190;&#132;_31" d="M18.0932 33.2094C17.2369 31.9844 16.99 30.55 17.9869 30.0031C18.9838 29.4562 20.6588 30.0031 21.3025 31.2281C21.9463 32.4531 21.4963 33.8875 20.7213 34.4344C19.9463 34.9812 18.9619 34.4312 18.0932 33.2094Z" fill="url(#paint21_linear_1238_21772)"/>
<path id="&#232;&#183;&#175;&#229;&#190;&#132;_32" d="M38.7623 33.2094C39.6186 31.9844 39.8655 30.55 38.8655 30.0031C37.8655 29.4562 36.1936 30.0031 35.5498 31.2281C34.9061 32.4531 35.3561 33.8875 36.1311 34.4344C36.9061 34.9812 37.8936 34.4312 38.7623 33.2094Z" fill="url(#paint22_linear_1238_21772)"/>
<path id="&#232;&#183;&#175;&#229;&#190;&#132;_33" d="M23.153 39.0187C23.153 39.0187 24.6218 43.1594 18.3093 48.4719C14.9905 51.2844 17.3093 54.7219 17.3093 54.7219L39.528 61.5375L40.178 48.725C40.178 48.725 37.3655 46.7437 35.4905 44.4688C32.3343 40.6562 33.6655 38.0625 33.6655 38.0625L23.153 39.0187Z" fill="url(#paint23_linear_1238_21772)"/>
</g>
<path id="&#232;&#183;&#175;&#229;&#190;&#132;_34" fill-rule="evenodd" clip-rule="evenodd" d="M21.641 48.8623C21.641 48.8623 27.3598 55.0779 35.0785 48.8623L33.3379 61.7904L19.9004 60.2998L21.641 48.8623Z" fill="url(#paint24_linear_1238_21772)"/>
<path id="&#232;&#183;&#175;&#229;&#190;&#132;_35" d="M18.3623 29.884C18.3623 29.884 20.4467 35.734 21.1936 37.2309C22.0686 38.9809 24.6311 42.5059 28.7623 42.5059C32.8248 42.5059 36.1373 37.3434 36.4404 36.2309C37.0248 34.0934 37.5779 31.9809 38.0342 30.2152C38.0342 29.9652 36.8061 23.9902 36.8061 23.9902L26.1373 16.0527L18.4654 24.7215L18.3623 29.884Z" fill="url(#paint25_linear_1238_21772)"/>
<path id="&#232;&#183;&#175;&#229;&#190;&#132;_36" fill-rule="evenodd" clip-rule="evenodd" d="M21.641 48.8623C21.641 48.8623 27.3598 55.0779 35.0785 48.8623L33.3379 61.7904L19.9004 60.2998L21.641 48.8623Z" fill="url(#paint26_linear_1238_21772)"/>
<path id="&#232;&#183;&#175;&#229;&#190;&#132;_37" fill-rule="evenodd" clip-rule="evenodd" d="M35.497 44.4688L28.3627 57.5625L21.8314 44.4844C21.4033 44.6625 2.99704 55.825 4.45641 64.7719C5.74079 68.4031 8.39391 71.3969 14.8252 71.3969H42.197C42.197 71.3969 51.9595 71.3688 52.547 64.675C53.2627 56.5563 38.747 46.5969 35.497 44.4688Z" fill="url(#paint27_linear_1238_21772)"/>
</g>
<path id="&#232;&#183;&#175;&#229;&#190;&#132;_38" d="M32.8811 16.9307C32.8811 16.9307 37.8811 18.5432 38.3029 23.4932C38.7654 28.9619 37.3467 32.8869 37.3467 32.8869C37.3467 32.8869 37.4717 24.9088 32.0342 24.2369L32.8811 16.9307Z" fill="#BB8B69"/>
<path id="&#232;&#183;&#175;&#229;&#190;&#132;_39" d="M32.8818 16.9305C34.5943 18.0337 34.2912 25.1899 28.338 25.993C22.3849 26.7962 23.7037 26.4899 20.9755 26.5149C19.488 26.5149 19.488 33.7024 19.488 33.7024C19.488 33.7024 17.4474 28.7212 17.9974 24.9118C18.9349 18.5555 23.9849 13.593 32.8818 16.9305Z" fill="#BB8B69"/>
<path id="&#232;&#183;&#175;&#229;&#190;&#132;_40" d="M32.8811 16.4336C32.8811 16.4336 37.8811 18.0461 38.3029 22.9961C38.7654 28.4648 37.3467 32.3898 37.3467 32.3898C37.3467 32.3898 37.4717 24.4117 32.0342 23.7398L32.8811 16.4336Z" fill="url(#paint28_linear_1238_21772)"/>
<path id="&#232;&#183;&#175;&#229;&#190;&#132;_41" d="M32.8818 16.4338C34.5943 17.537 34.2912 24.6932 28.338 25.4963C22.3849 26.2995 23.7037 25.9932 20.9755 26.0182C19.488 26.0182 19.488 33.2057 19.488 33.2057C19.488 33.2057 17.4474 28.2245 17.9974 24.4088C18.9349 18.0588 23.9849 13.0932 32.8818 16.4338Z" fill="url(#paint29_linear_1238_21772)"/>
<path id="&#232;&#183;&#175;&#229;&#190;&#132;_42" d="M18.6373 18.3211L17.4404 26.1055C17.4404 26.1055 28.5748 25.6273 28.6904 27.3023C29.1748 25.3867 39.5592 26.1055 39.5592 26.1055L37.4529 17.6055L18.6373 18.3211Z" fill="url(#paint30_linear_1238_21772)"/>
<path id="&#232;&#183;&#175;&#229;&#190;&#132;_43" opacity="0.2" d="M28.6967 26.5966C28.5811 24.9747 18.3311 25.3466 17.4967 25.3841L17.4404 25.7466C17.4404 25.7466 28.5748 25.2685 28.6904 26.9435C29.1748 25.0341 39.5592 25.7466 39.5592 25.7466L39.4686 25.381C38.4436 25.3154 29.1498 24.7716 28.6967 26.5966Z" fill="url(#paint31_linear_1238_21772)"/>
<path id="&#232;&#183;&#175;&#229;&#190;&#132;_44" d="M29.2785 13.0718C28.1001 12.9336 26.908 12.9631 25.7379 13.1593L9.74414 16.2843C8.77539 16.4749 8.77539 16.7874 9.74414 16.9812L26.6973 20.3687C27.8577 20.554 29.0435 20.5052 30.1848 20.2249L44.691 16.0656C45.6285 15.7937 45.6285 15.4406 44.641 15.3124L29.2785 13.0718Z" fill="url(#paint32_linear_1238_21772)"/>
<path id="&#232;&#183;&#175;&#229;&#190;&#132;_45" opacity="0.2" d="M10.8623 16.8371C11.013 16.7741 11.1702 16.728 11.331 16.6996L25.8716 13.8465C26.9363 13.6741 28.0199 13.6531 29.0904 13.784L43.0591 15.8183C43.239 15.8381 43.4148 15.8844 43.581 15.9558C43.8935 15.7558 43.731 15.559 43.0591 15.459L29.0904 13.409C28.0191 13.2848 26.9357 13.3111 25.8716 13.4871L11.331 16.3402C10.656 16.4746 10.4966 16.6715 10.8623 16.8371Z" fill="url(#paint33_linear_1238_21772)"/>
<path id="&#232;&#183;&#175;&#229;&#190;&#132;_46" d="M39.7254 17.4275C39.7254 17.2963 39.6504 17.29 39.6504 17.29L27.6473 15.5088C27.5587 15.5138 27.4906 15.5889 27.4941 15.6775C27.4863 15.7545 27.5258 15.8286 27.5941 15.865C27.5941 15.865 39.2316 17.5525 39.2316 17.74V19.9682H39.7191V17.6807C39.7191 17.6807 39.7191 17.5588 39.7254 17.4275Z" fill="#D0D129"/>
<path id="&#232;&#183;&#175;&#229;&#190;&#132;_47" d="M40.5627 33.0087C40.5627 33.3539 40.2829 33.6337 39.9377 33.6337H39.1533C38.8081 33.6337 38.5283 33.3539 38.5283 33.0087L38.8408 20.4587C38.8647 20.113 39.1521 19.8447 39.4986 19.8447C39.8452 19.8447 40.1326 20.113 40.1564 20.4587L40.5627 33.0087Z" fill="url(#paint34_linear_1238_21772)"/>
<path id="&#232;&#183;&#175;&#229;&#190;&#132;_48" opacity="0.2" fill-rule="evenodd" clip-rule="evenodd" d="M35.7529 46.0369C39.5998 48.6213 51.5498 57.2182 51.8217 64.3307C52.1154 57.1432 39.6904 48.1869 35.7529 45.54" fill="white"/>
<path id="&#232;&#183;&#175;&#229;&#190;&#132;_49" opacity="0.2" fill-rule="evenodd" clip-rule="evenodd" d="M21.5189 45.5312C18.4399 47.4608 15.5192 49.6323 12.7845 52.025C9.13766 55.2531 4.97204 59.8719 5.12829 63.975C5.29704 60 9.28454 55.6188 12.7845 52.5219C15.5192 50.1291 18.4399 47.9577 21.5189 46.0281" fill="white"/>
<path id="&#232;&#183;&#175;&#229;&#190;&#132;_50" d="M40.3725 22.5338C40.3708 22.7971 40.1577 23.0102 39.8943 23.0119H39.1568C38.8935 23.0102 38.6804 22.7971 38.6787 22.5338V21.2838C38.6804 21.0204 38.8935 20.8074 39.1568 20.8057H39.8943C40.1577 20.8074 40.3708 21.0204 40.3725 21.2838V22.5338Z" fill="url(#paint35_linear_1238_21772)"/>
<path id="&#232;&#183;&#175;&#229;&#190;&#132;_51" d="M35.0129 44.0781L28.6848 45.8719L22.2441 44L28.9816 48.6344L35.0129 44.0781Z" fill="url(#paint36_linear_1238_21772)"/>
<path id="&#232;&#183;&#175;&#229;&#190;&#132;_52" fill-rule="evenodd" clip-rule="evenodd" d="M22.125 44.0781L28.4313 46.3562L35.4344 44.3094L27.6719 63.9406L20.4375 46.5875L22.125 44.0781Z" fill="white"/>
<path id="&#232;&#183;&#175;&#229;&#190;&#132;_53" d="M28.4973 46.5523L26.166 47.9898L27.1254 50.9461L30.1348 50.9742L31.4004 47.893L28.7066 46.3555" fill="url(#paint37_linear_1238_21772)"/>
<path id="&#232;&#183;&#175;&#229;&#190;&#132;_54" d="M23.5029 49.7275L28.4967 46.5525L21.7092 44.8057L21.4248 45.0932L23.5029 49.7275Z" fill="url(#paint38_linear_1238_21772)"/>
<path id="&#232;&#183;&#175;&#229;&#190;&#132;_55" d="M23.6285 49.0969L28.4316 46.3562L22.1254 44.0781L21.8223 44.3469L23.6285 49.0969Z" fill="white"/>
<path id="&#232;&#183;&#175;&#229;&#190;&#132;_56" d="M33.6346 49.7275L28.4971 46.5525L35.4283 44.8057L35.7158 45.0932L33.6346 49.7275Z" fill="url(#paint39_linear_1238_21772)"/>
<path id="&#232;&#183;&#175;&#229;&#190;&#132;_57" d="M33.5092 49.0969L28.7061 46.3562L35.0123 44.0781L35.4873 44.4688L33.5092 49.0969Z" fill="white"/>
<path id="&#232;&#183;&#175;&#229;&#190;&#132;_58" d="M27.1256 50.9463L25.1475 58.5775L28.6193 62.7838L31.2475 57.0025L30.135 50.9744L27.1256 50.9463Z" fill="url(#paint40_linear_1238_21772)"/>
<path id="&#232;&#183;&#175;&#229;&#190;&#132;_59" fill-rule="evenodd" clip-rule="evenodd" d="M21.9562 44.3836L19.6562 45.7773L27.7781 65.7273L37.4562 45.718L35.4344 44.3086L27.8562 59.9711L21.9562 44.3836Z" fill="#E5E5E5"/>
</g>
</g>
</g>
<defs>
<linearGradient id="paint0_linear_1238_21772" x1="-66.742" y1="-421.46" x2="681.557" y2="476.351" gradientUnits="userSpaceOnUse">
<stop stop-color="#FEF4EB"/>
<stop offset="0.84" stop-color="#EEBD85"/>
</linearGradient>
<linearGradient id="paint1_linear_1238_21772" x1="1156.65" y1="-421.461" x2="408.978" y2="476.455" gradientUnits="userSpaceOnUse">
<stop stop-color="#FEF4EB"/>
<stop offset="0.84" stop-color="#EEBD85"/>
</linearGradient>
<linearGradient id="paint2_linear_1238_21772" x1="2779.04" y1="7137.8" x2="2779.04" y2="-1958.22" gradientUnits="userSpaceOnUse">
<stop stop-color="#FEF4EB"/>
<stop offset="0.15" stop-color="#FDF1E4"/>
<stop offset="0.37" stop-color="#F9E6D2"/>
<stop offset="0.63" stop-color="#F5D7B5"/>
<stop offset="0.92" stop-color="#EFC28F"/>
<stop offset="1" stop-color="#EEBD85"/>
</linearGradient>
<linearGradient id="paint3_linear_1238_21772" x1="1796.97" y1="-677.241" x2="1796.97" y2="2340.34" gradientUnits="userSpaceOnUse">
<stop stop-color="#ECE6DD"/>
<stop offset="0.15" stop-color="#EBE3D7"/>
<stop offset="0.37" stop-color="#EAD9C5"/>
<stop offset="0.63" stop-color="#E7CBA9"/>
<stop offset="0.92" stop-color="#E1B785"/>
<stop offset="1" stop-color="#E0B27B"/>
</linearGradient>
<linearGradient id="paint4_linear_1238_21772" x1="2319.6" y1="1268.32" x2="2319.6" y2="6956.31" gradientUnits="userSpaceOnUse">
<stop stop-color="#FEF4EB"/>
<stop offset="0.84" stop-color="#EEBD85"/>
</linearGradient>
<linearGradient id="paint5_linear_1238_21772" x1="44.2013" y1="1535.55" x2="3550.58" y2="1535.55" gradientUnits="userSpaceOnUse">
<stop offset="0.01" stop-color="#FDBF13"/>
<stop offset="1" stop-color="#E79026"/>
</linearGradient>
<linearGradient id="paint6_linear_1238_21772" x1="5605.97" y1="750.759" x2="5605.97" y2="6031.56" gradientUnits="userSpaceOnUse">
<stop offset="0.01" stop-color="#848486"/>
<stop offset="0.12" stop-color="#818183"/>
<stop offset="0.26" stop-color="#777778"/>
<stop offset="0.43" stop-color="#676767"/>
<stop offset="0.6" stop-color="#515151"/>
<stop offset="0.79" stop-color="#373738"/>
<stop offset="0.99" stop-color="#161616"/>
<stop offset="1" stop-color="#131313"/>
</linearGradient>
<linearGradient id="paint7_linear_1238_21772" x1="791.142" y1="3427.07" x2="791.142" y2="667.865" gradientUnits="userSpaceOnUse">
<stop stop-color="#6C4F47"/>
<stop offset="1" stop-color="#9C6B50"/>
</linearGradient>
<linearGradient id="paint8_linear_1238_21772" x1="1881.18" y1="2870" x2="1881.18" y2="397.995" gradientUnits="userSpaceOnUse">
<stop stop-color="#6C4F47"/>
<stop offset="1" stop-color="#9C6B50"/>
</linearGradient>
<linearGradient id="paint9_linear_1238_21772" x1="921.963" y1="1126.96" x2="6370.74" y2="1200.56" gradientUnits="userSpaceOnUse">
<stop offset="0.01" stop-color="#848486"/>
<stop offset="0.12" stop-color="#818183"/>
<stop offset="0.26" stop-color="#777778"/>
<stop offset="0.43" stop-color="#676767"/>
<stop offset="0.6" stop-color="#515151"/>
<stop offset="0.79" stop-color="#373738"/>
<stop offset="0.99" stop-color="#161616"/>
<stop offset="1" stop-color="#131313"/>
</linearGradient>
<linearGradient id="paint10_linear_1238_21772" x1="2599.55" y1="580.862" x2="2599.55" y2="-155.937" gradientUnits="userSpaceOnUse">
<stop stop-color="white"/>
<stop offset="1" stop-color="white"/>
</linearGradient>
<linearGradient id="paint11_linear_1238_21772" x1="4240.74" y1="26.8288" x2="4240.74" y2="2654.03" gradientUnits="userSpaceOnUse">
<stop offset="0.01" stop-color="#848486"/>
<stop offset="0.12" stop-color="#818183"/>
<stop offset="0.26" stop-color="#777778"/>
<stop offset="0.43" stop-color="#676767"/>
<stop offset="0.6" stop-color="#515151"/>
<stop offset="0.79" stop-color="#373738"/>
<stop offset="0.99" stop-color="#161616"/>
<stop offset="1" stop-color="#131313"/>
</linearGradient>
<linearGradient id="paint12_linear_1238_21772" x1="3860.64" y1="9.17477" x2="3860.64" y2="819.579" gradientUnits="userSpaceOnUse">
<stop stop-color="white"/>
<stop offset="1" stop-color="white"/>
</linearGradient>
<linearGradient id="paint13_linear_1238_21772" x1="62.6858" y1="1607.11" x2="531.483" y2="1607.11" gradientUnits="userSpaceOnUse">
<stop offset="0.01" stop-color="#FDBF13"/>
<stop offset="1" stop-color="#E79026"/>
</linearGradient>
<linearGradient id="paint14_linear_1238_21772" x1="54.7361" y1="271.8" x2="313.135" y2="271.8" gradientUnits="userSpaceOnUse">
<stop stop-color="#F8F8F8"/>
<stop offset="0.44" stop-color="#F0EFEF"/>
<stop offset="1" stop-color="#E0DEDD"/>
</linearGradient>
<linearGradient id="paint15_linear_1238_21772" x1="72.6876" y1="586.923" x2="3007.52" y2="410.905" gradientUnits="userSpaceOnUse">
<stop stop-color="#F5CBA8"/>
<stop offset="0.28" stop-color="#F4C9A2"/>
<stop offset="0.69" stop-color="#F1C393"/>
<stop offset="1" stop-color="#EEBD85"/>
</linearGradient>
<linearGradient id="paint16_linear_1238_21772" x1="657.035" y1="-52.3127" x2="657.035" y2="2257.28" gradientUnits="userSpaceOnUse">
<stop stop-color="#53C1EF"/>
<stop offset="1" stop-color="#0A90BF"/>
</linearGradient>
<linearGradient id="paint17_linear_1238_21772" x1="1389.55" y1="266.838" x2="456.595" y2="902.618" gradientUnits="userSpaceOnUse">
<stop stop-color="#AFAFAF"/>
<stop offset="1" stop-color="#F2F2F2"/>
</linearGradient>
<linearGradient id="paint18_linear_1238_21772" x1="353.537" y1="276.287" x2="1298" y2="920.538" gradientUnits="userSpaceOnUse">
<stop stop-color="#AFAFAF"/>
<stop offset="1" stop-color="#F2F2F2"/>
</linearGradient>
<linearGradient id="paint19_linear_1238_21772" x1="756.115" y1="300.619" x2="756.115" y2="2151.02" gradientUnits="userSpaceOnUse">
<stop stop-color="#53C1EF"/>
<stop offset="1" stop-color="#0A90BF"/>
</linearGradient>
<linearGradient id="paint20_linear_1238_21772" x1="-2260.86" y1="-1404.92" x2="2289.45" y2="4055.06" gradientUnits="userSpaceOnUse">
<stop stop-color="#644532"/>
<stop offset="0.57" stop-color="#422D23"/>
<stop offset="1" stop-color="#2C1B14"/>
</linearGradient>
<linearGradient id="paint21_linear_1238_21772" x1="-106.571" y1="-463.117" x2="722.316" y2="530.529" gradientUnits="userSpaceOnUse">
<stop stop-color="#FCF3EA"/>
<stop offset="0.84" stop-color="#E5B680"/>
</linearGradient>
<linearGradient id="paint22_linear_1238_21772" x1="1254.12" y1="-463.912" x2="425.44" y2="531.073" gradientUnits="userSpaceOnUse">
<stop stop-color="#FCF3EA"/>
<stop offset="0.84" stop-color="#E5B680"/>
</linearGradient>
<linearGradient id="paint23_linear_1238_21772" x1="3047.77" y1="7909.26" x2="3047.77" y2="-2162.71" gradientUnits="userSpaceOnUse">
<stop stop-color="#FCF3EA"/>
<stop offset="0.14" stop-color="#FAEFE3"/>
<stop offset="0.36" stop-color="#F6E4D0"/>
<stop offset="0.61" stop-color="#F0D4B3"/>
<stop offset="0.9" stop-color="#E8BE8D"/>
<stop offset="1" stop-color="#E5B680"/>
</linearGradient>
<linearGradient id="paint24_linear_1238_21772" x1="1961.5" y1="-747.129" x2="1961.5" y2="2594.47" gradientUnits="userSpaceOnUse">
<stop stop-color="#E3DDD5"/>
<stop offset="0.14" stop-color="#E2D9CF"/>
<stop offset="0.36" stop-color="#DFD0BD"/>
<stop offset="0.62" stop-color="#DAC0A1"/>
<stop offset="0.9" stop-color="#D2AC7E"/>
<stop offset="1" stop-color="#D0A572"/>
</linearGradient>
<linearGradient id="paint25_linear_1238_21772" x1="2536.76" y1="1408.04" x2="2536.76" y2="7706.47" gradientUnits="userSpaceOnUse">
<stop stop-color="#FCF3EA"/>
<stop offset="0.84" stop-color="#E5B680"/>
</linearGradient>
<linearGradient id="paint26_linear_1238_21772" x1="19.9004" y1="1703.27" x2="3902.31" y2="1703.27" gradientUnits="userSpaceOnUse">
<stop offset="0.01" stop-color="#FEBF10"/>
<stop offset="1" stop-color="#DC8927"/>
</linearGradient>
<linearGradient id="paint27_linear_1238_21772" x1="6173.42" y1="834.889" x2="6173.42" y2="6682.04" gradientUnits="userSpaceOnUse">
<stop offset="0.01" stop-color="#454546"/>
<stop offset="0.18" stop-color="#434343"/>
<stop offset="0.39" stop-color="#3B3B3C"/>
<stop offset="0.64" stop-color="#2F2F2F"/>
<stop offset="0.91" stop-color="#1C1D1D"/>
<stop offset="1" stop-color="#131313"/>
</linearGradient>
<linearGradient id="paint28_linear_1238_21772" x1="848.041" y1="3798.84" x2="848.041" y2="743.651" gradientUnits="userSpaceOnUse">
<stop stop-color="#3D2C28"/>
<stop offset="1" stop-color="#664634"/>
</linearGradient>
<linearGradient id="paint29_linear_1238_21772" x1="2051.6" y1="3181.14" x2="2051.6" y2="444.311" gradientUnits="userSpaceOnUse">
<stop stop-color="#3D2C28"/>
<stop offset="1" stop-color="#664634"/>
</linearGradient>
<linearGradient id="paint30_linear_1238_21772" x1="988.655" y1="1250.89" x2="7022.98" y2="1332.5" gradientUnits="userSpaceOnUse">
<stop offset="0.01" stop-color="#454546"/>
<stop offset="0.18" stop-color="#434343"/>
<stop offset="0.39" stop-color="#3B3B3C"/>
<stop offset="0.64" stop-color="#2F2F2F"/>
<stop offset="0.91" stop-color="#1C1D1D"/>
<stop offset="1" stop-color="#131313"/>
</linearGradient>
<linearGradient id="paint31_linear_1238_21772" x1="2846.26" y1="647.14" x2="2846.26" y2="-168.059" gradientUnits="userSpaceOnUse">
<stop stop-color="white"/>
<stop offset="1" stop-color="white"/>
</linearGradient>
<linearGradient id="paint32_linear_1238_21772" x1="4664.62" y1="33.2797" x2="4664.62" y2="2942.06" gradientUnits="userSpaceOnUse">
<stop offset="0.01" stop-color="#454546"/>
<stop offset="0.18" stop-color="#434343"/>
<stop offset="0.39" stop-color="#3B3B3C"/>
<stop offset="0.64" stop-color="#2F2F2F"/>
<stop offset="0.91" stop-color="#1C1D1D"/>
<stop offset="1" stop-color="#131313"/>
</linearGradient>
<linearGradient id="paint33_linear_1238_21772" x1="4243.68" y1="13.027" x2="4243.68" y2="910.625" gradientUnits="userSpaceOnUse">
<stop stop-color="white"/>
<stop offset="1" stop-color="white"/>
</linearGradient>
<linearGradient id="paint34_linear_1238_21772" x1="39.3304" y1="1783.43" x2="558.526" y2="1783.43" gradientUnits="userSpaceOnUse">
<stop offset="0.01" stop-color="#FEBF10"/>
<stop offset="1" stop-color="#DC8927"/>
</linearGradient>
<linearGradient id="paint35_linear_1238_21772" x1="29.8766" y1="300.805" x2="315.481" y2="300.805" gradientUnits="userSpaceOnUse">
<stop stop-color="#F4F4F4"/>
<stop offset="0.31" stop-color="#EDEDED"/>
<stop offset="0.75" stop-color="#DBDADA"/>
<stop offset="1" stop-color="#CFCDCD"/>
</linearGradient>
<linearGradient id="paint36_linear_1238_21772" x1="30.3835" y1="650.001" x2="3281.01" y2="454.904" gradientUnits="userSpaceOnUse">
<stop stop-color="#F0C7A4"/>
<stop offset="0.27" stop-color="#EEC49E"/>
<stop offset="0.67" stop-color="#EABD8F"/>
<stop offset="1" stop-color="#E5B680"/>
</linearGradient>
<linearGradient id="paint37_linear_1238_21772" x1="696.568" y1="-54.4441" x2="696.568" y2="2503.16" gradientUnits="userSpaceOnUse">
<stop stop-color="#BE2126"/>
<stop offset="1" stop-color="#821518"/>
</linearGradient>
<linearGradient id="paint38_linear_1238_21772" x1="1506.22" y1="298.734" x2="473.529" y2="1002.14" gradientUnits="userSpaceOnUse">
<stop stop-color="#838383"/>
<stop offset="1" stop-color="#EAEAEA"/>
</linearGradient>
<linearGradient id="paint39_linear_1238_21772" x1="359.696" y1="309.418" x2="1405.12" y2="1022.07" gradientUnits="userSpaceOnUse">
<stop stop-color="#838383"/>
<stop offset="1" stop-color="#EAEAEA"/>
</linearGradient>
<linearGradient id="paint40_linear_1238_21772" x1="805.947" y1="335.743" x2="805.947" y2="2385.35" gradientUnits="userSpaceOnUse">
<stop stop-color="#BE2126"/>
<stop offset="1" stop-color="#821518"/>
</linearGradient>
</defs>
</svg>
