<svg width="10" height="18" viewBox="0 0 10 18" fill="none" xmlns="http://www.w3.org/2000/svg">
<g id="Group">
<path id="Vector" d="M6.86136 4.78746C6.85102 5.39072 6.85918 5.99344 6.85918 6.61792C6.94513 6.62173 7.01639 6.62825 7.0882 6.62825C7.79372 6.6288 8.4998 6.62771 9.20587 6.6288C9.63343 6.62989 9.73896 6.73487 9.7395 7.15482C9.74059 7.96261 9.74114 8.77041 9.7395 9.5782C9.73842 9.95245 9.6454 10.0471 9.26897 10.0487C8.5493 10.052 7.83017 10.0498 7.1105 10.0498H6.86027V16.6765C6.86027 17.2754 6.80152 17.333 6.19282 17.333C5.41875 17.333 4.64523 17.3336 3.8717 17.3325C3.44197 17.3319 3.34242 17.2335 3.34188 16.807C3.34133 14.6556 3.34188 12.5037 3.34188 10.3517V10.0874C3.25919 10.0825 3.18793 10.0748 3.11667 10.0748C2.52647 10.0738 1.93571 10.0754 1.34551 10.0738C0.935898 10.0721 0.836896 9.97693 0.835808 9.57113C0.832544 8.77694 0.833088 7.98274 0.835264 7.18854C0.836352 6.76642 0.933179 6.67177 1.3504 6.67123C1.93408 6.67069 2.51776 6.67123 3.10144 6.67123H3.34188C3.34188 6.57059 3.34079 6.49118 3.34188 6.41176C3.35602 5.63823 3.32828 4.86144 3.39355 4.09281C3.55892 2.15791 5.04668 0.75719 6.99082 0.684298C7.80406 0.653836 8.61893 0.671243 9.43379 0.673419C9.70306 0.674507 9.81838 0.790916 9.82001 1.06181C9.82436 1.86961 9.82436 2.6774 9.82001 3.4852C9.81838 3.7599 9.70523 3.8687 9.4104 3.87577C8.86099 3.88882 8.31104 3.88937 7.76163 3.89753C7.1241 3.90732 6.87278 4.1483 6.86136 4.78746Z" fill="#555555"/>
</g>
</svg>
