<svg width="80" height="80" viewBox="0 0 80 80" fill="none" xmlns="http://www.w3.org/2000/svg">
<g id="university 1">
<path id="Vector" d="M39.859 59.5247C41.2392 58.1541 43.4791 58.1851 44.8544 59.5605L52.2976 67.0036C52.3984 67.1045 52.3442 67.277 52.2038 67.3021L48.7142 67.9258C48.4736 67.9688 48.2853 68.1572 48.2424 68.3977L47.6187 71.8871C47.5936 72.0275 47.421 72.0816 47.3202 71.9809L39.85 64.5108C38.4728 63.1334 38.4758 60.8984 39.859 59.5247Z" fill="url(#paint0_linear_1238_21844)"/>
<path id="Vector_2" d="M44.6779 59.5247C43.2977 58.1541 41.0579 58.1851 39.6825 59.5605L32.2394 67.0036C32.1385 67.1045 32.1928 67.277 32.3332 67.3021L35.8226 67.9258C36.0632 67.9688 36.2514 68.1572 36.2944 68.3977L36.9181 71.8871C36.9432 72.0275 37.1157 72.0816 37.2166 71.9809L44.6867 64.5108C46.0641 63.1334 46.0612 60.8984 44.6779 59.5247Z" fill="url(#paint1_linear_1238_21844)"/>
<path id="Vector_3" d="M72.0384 63.9268C74.4652 63.825 76.4189 59.3698 76.4189 53.885C76.4189 48.4001 74.4652 43.9449 72.0384 43.8431V43.8379H8.04572C5.58109 43.8379 3.58203 48.3359 3.58203 53.885C3.58203 59.434 5.58109 63.932 8.04572 63.932H72.0384V63.9268Z" fill="url(#paint2_linear_1238_21844)"/>
<path id="Vector_4" d="M72.0382 43.8431V43.8379H12.8104C12.5685 45.6517 12.4297 47.1844 12.4297 47.6959C12.4297 48.0357 12.705 48.2991 13.1309 48.4875L28.5754 63.932H72.0382V63.927C74.465 63.8252 76.4187 59.37 76.4187 53.8851C76.4187 48.4001 74.465 43.9449 72.0382 43.8431Z" fill="url(#paint3_linear_1238_21844)"/>
<path id="Vector_5" d="M8.04572 63.932C5.58109 63.932 3.58203 59.434 3.58203 53.885C3.58203 48.3359 5.58109 43.8379 8.04572 43.8379C10.5124 43.8379 12.5114 48.3359 12.5114 53.885C12.5114 59.434 10.5122 63.932 8.04572 63.932Z" fill="url(#paint4_linear_1238_21844)"/>
<path id="Vector_6" d="M8.04572 63.9323C5.58109 63.9323 3.58203 59.4342 3.58203 53.8852C3.58203 53.2535 3.60854 52.6358 3.65764 52.036C3.68415 51.8722 3.71474 51.7139 3.74956 51.5585C3.79238 51.3696 3.83944 51.1864 3.89042 51.0101C3.92509 50.8935 3.96195 50.7796 4.0007 50.67C4.02109 50.6145 4.03944 50.5603 4.05984 50.5075C4.34156 49.7607 4.7174 49.1969 5.14407 48.9055C5.32587 48.7806 5.51976 48.7042 5.71787 48.6847C5.7505 48.6819 5.78533 48.6807 5.81795 48.6807H11.8663C12.2746 50.1994 12.5114 51.9806 12.5114 53.8854C12.5114 53.9298 12.5114 53.9756 12.5094 54.0201C12.4787 59.5064 10.4918 63.9323 8.04572 63.9323Z" fill="url(#paint5_linear_1238_21844)"/>
<path id="Vector_7" d="M12.509 54.0201H8.12891C8.12891 53.9757 8.13095 53.9313 8.13095 53.8854C8.13095 51.0116 7.09566 48.6807 5.81738 48.6807H11.8657C12.274 50.1994 12.5109 51.9806 12.5109 53.8854C12.511 53.9298 12.511 53.9756 12.509 54.0201Z" fill="url(#paint6_linear_1238_21844)"/>
<path id="Vector_8" d="M44.705 43.8431V43.8379H38.1885V43.8431C40.6153 43.9449 42.569 48.4001 42.569 53.885C42.569 59.3698 40.6153 63.825 38.1885 63.9268V63.9319H44.705V63.9268C47.1318 63.825 49.0856 59.3698 49.0856 53.885C49.0854 48.4001 47.1318 43.9449 44.705 43.8431Z" fill="url(#paint7_linear_1238_21844)"/>
<path id="Vector_9" d="M44.705 43.8431V43.8379H38.1885V43.8431C40.6153 43.9449 42.569 48.4001 42.569 53.885C42.569 59.3698 40.6153 63.825 38.1885 63.9268V63.9319H44.705V63.9268C47.1318 63.825 49.0856 59.3698 49.0856 53.885C49.0854 48.4001 47.1318 43.9449 44.705 43.8431Z" fill="url(#paint8_linear_1238_21844)"/>
<path id="Vector_10" d="M14.7217 21.1885H65.278C66.5374 21.1885 67.5584 22.2095 67.5584 23.4689V36.0399C67.5584 39.3996 65.5009 42.4164 62.3732 43.6429C47.9907 49.2826 32.0091 49.2826 17.6267 43.6429C14.499 42.4164 12.4414 39.3996 12.4414 36.0399V23.4689C12.4412 22.2095 13.4623 21.1885 14.7217 21.1885Z" fill="url(#paint9_linear_1238_21844)"/>
<path id="Vector_11" d="M65.2784 21.1885H15.1992V42.1571C15.9026 42.7792 16.7194 43.2868 17.6271 43.6428C32.0096 49.2824 47.9912 49.2824 62.3737 43.6428C65.5015 42.4162 67.5589 39.3995 67.5589 36.0398V23.4688C67.5589 22.2095 66.5379 21.1885 65.2784 21.1885Z" fill="url(#paint10_linear_1238_21844)"/>
<path id="Vector_12" d="M65.2781 21.1885H14.7219C13.4624 21.1885 12.4414 22.2095 12.4414 23.4689V24.6694L35.475 47.7028C44.5565 48.375 53.7522 47.0233 62.3733 43.6428C65.5012 42.4162 67.5586 39.3995 67.5586 36.0398V23.4688C67.5586 22.2095 66.5376 21.1885 65.2781 21.1885Z" fill="url(#paint11_linear_1238_21844)"/>
<path id="Vector_13" d="M79.9985 18.8408C80.0065 18.5837 79.8595 18.3221 79.5552 18.2394L43.3164 8.40868C41.1447 7.8195 38.8553 7.8195 36.6835 8.40868L0.444737 18.2396C0.140424 18.3221 -0.00671376 18.5839 0.00128624 18.841V20.8135C-0.00671376 21.0706 0.140267 21.3323 0.444737 21.415L36.6833 31.2457C38.8551 31.8349 41.1445 31.8349 43.3163 31.2457L79.555 21.415C79.8593 21.3324 80.0065 21.0706 79.9983 20.8135V18.8408H79.9985Z" fill="url(#paint12_linear_1238_21844)"/>
<path id="Vector_14" d="M36.6834 8.40856L0.444824 18.2395C-0.148275 18.4004 -0.148275 19.2418 0.444824 19.4028L36.6834 29.2335C38.8552 29.8227 41.1446 29.8227 43.3164 29.2335L79.5549 19.4028C80.148 19.2418 80.148 18.4004 79.5549 18.2395L43.3165 8.40856C41.1447 7.81954 38.8552 7.81954 36.6834 8.40856Z" fill="url(#paint13_linear_1238_21844)"/>
<path id="Vector_15" d="M37.0342 10.6607L4.63312 19.4505C4.10276 19.5943 4.10276 20.3466 4.63312 20.4906L37.0344 29.2804C38.9762 29.8072 41.0232 29.8072 42.9649 29.2804L75.3661 20.4906C75.8965 20.3468 75.8965 19.5945 75.3661 19.4505L42.9649 10.6607C41.0231 10.1339 38.976 10.1339 37.0342 10.6607Z" fill="url(#paint14_linear_1238_21844)"/>
<path id="Vector_16" d="M40.0001 13.9248C38.6294 13.9248 37.4943 14.9218 37.2732 16.2294L18.5624 21.3054C16.5795 21.8434 15.0443 23.3333 14.3955 25.1993L36.6837 31.2456C38.8554 31.8348 41.1448 31.8348 43.3166 31.2456L55.2187 28.0167L42.1441 14.9421C41.6361 14.3215 40.8645 13.9248 40.0001 13.9248Z" fill="url(#paint15_linear_1238_21844)"/>
<path id="Vector_17" d="M15.129 34.7928C14.5373 34.7928 14.0576 34.3131 14.0576 33.7214V27.1942C14.0576 24.4463 15.91 22.0246 18.5621 21.3051L39.8454 15.5313C40.4162 15.3777 41.0049 15.7139 41.1599 16.2847C41.3147 16.8557 40.9775 17.4442 40.4065 17.5994L19.123 23.3732C17.4021 23.84 16.2002 25.4111 16.2002 27.1942V33.7214C16.2002 34.3131 15.7207 34.7928 15.129 34.7928Z" fill="url(#paint16_linear_1238_21844)"/>
<path id="Vector_18" d="M42.7692 16.6937C42.7692 18.223 37.2314 18.223 37.2314 16.6937C37.2314 15.1645 38.4711 13.9248 40.0004 13.9248C41.5295 13.9248 42.7692 15.1645 42.7692 16.6937Z" fill="url(#paint17_linear_1238_21844)"/>
<path id="Vector_19" d="M17.9684 47.6966C17.9684 49.2259 12.4307 49.2259 12.4307 47.6966C12.4307 46.1673 13.6704 35.5059 15.1996 35.5059C16.7287 35.5059 17.9684 46.1673 17.9684 47.6966Z" fill="url(#paint18_linear_1238_21844)"/>
<path id="Vector_20" d="M17.9669 47.6963C17.9669 48.2068 17.3475 48.5476 16.5216 48.717C15.7075 48.8846 14.6926 48.8846 13.8764 48.717C13.7498 48.5476 13.6758 48.341 13.6758 48.0937C13.6758 46.5257 14.3478 35.6781 15.1795 35.5087C15.1853 35.5068 15.1931 35.5068 15.1989 35.5068C15.2047 35.5068 15.2126 35.5068 15.2184 35.5087C16.7398 35.5984 17.9669 46.1732 17.9669 47.6963Z" fill="url(#paint19_linear_1238_21844)"/>
<path id="Vector_21" d="M17.0538 47.6963C17.0538 48.4248 16.2124 48.8066 15.328 48.8417C15.2424 48.8436 15.1547 48.8436 15.067 48.8417C13.7288 48.8184 12.4297 48.4366 12.4297 47.6963C12.4297 46.1751 13.6568 35.6177 15.1762 35.5087C15.184 35.5068 15.1917 35.5068 15.1996 35.5068C15.2074 35.5068 15.2151 35.5068 15.2229 35.5087C16.2377 35.6723 17.0538 46.179 17.0538 47.6963Z" fill="url(#paint20_linear_1238_21844)"/>
<path id="Vector_22" d="M15.1985 37.4887C16.6872 37.4887 17.894 36.2819 17.894 34.7932C17.894 33.3045 16.6872 32.0977 15.1985 32.0977C13.7098 32.0977 12.5029 33.3045 12.5029 34.7932C12.5029 36.2819 13.7098 37.4887 15.1985 37.4887Z" fill="url(#paint21_linear_1238_21844)"/>
<path id="Vector_23" d="M15.1988 37.0431C16.4412 37.0431 17.4484 36.0359 17.4484 34.7935C17.4484 33.5511 16.4412 32.5439 15.1988 32.5439C13.9564 32.5439 12.9492 33.5511 12.9492 34.7935C12.9492 36.0359 13.9564 37.0431 15.1988 37.0431Z" fill="url(#paint22_linear_1238_21844)"/>
<path id="Vector_24" d="M16.4052 32.3818C16.587 32.7447 16.6894 33.1541 16.6894 33.5876C16.6894 35.0763 15.4827 36.2832 13.9939 36.2832C13.5605 36.2832 13.1509 36.1807 12.7881 35.9989C13.2306 36.8822 14.1442 37.4887 15.1994 37.4887C16.688 37.4887 17.8949 36.2819 17.8949 34.7931C17.8949 33.7379 17.2885 32.8245 16.4052 32.3818Z" fill="url(#paint23_linear_1238_21844)"/>
</g>
<defs>
<linearGradient id="paint0_linear_1238_21844" x1="48.7407" y1="67.8799" x2="44.6099" y2="64.5752" gradientUnits="userSpaceOnUse">
<stop stop-color="#FF7044"/>
<stop offset="1" stop-color="#F92814"/>
</linearGradient>
<linearGradient id="paint1_linear_1238_21844" x1="39.4795" y1="60.6675" x2="37.7412" y2="73.9636" gradientUnits="userSpaceOnUse">
<stop stop-color="#FF7044"/>
<stop offset="1" stop-color="#F92814"/>
</linearGradient>
<linearGradient id="paint2_linear_1238_21844" x1="40.0004" y1="48.591" x2="40.0004" y2="62.695" gradientUnits="userSpaceOnUse">
<stop stop-color="#F9F7FC"/>
<stop offset="1" stop-color="#F0DDFC"/>
</linearGradient>
<linearGradient id="paint3_linear_1238_21844" x1="45.5599" y1="55.4653" x2="41.1677" y2="33.3477" gradientUnits="userSpaceOnUse">
<stop stop-color="#F0DDFC" stop-opacity="0"/>
<stop offset="0.2889" stop-color="#C8B7E0" stop-opacity="0.289"/>
<stop offset="0.5915" stop-color="#A595C8" stop-opacity="0.592"/>
<stop offset="0.8395" stop-color="#8F81B8" stop-opacity="0.84"/>
<stop offset="1" stop-color="#8779B3"/>
</linearGradient>
<linearGradient id="paint4_linear_1238_21844" x1="0.0134035" y1="53.885" x2="15.5325" y2="53.885" gradientUnits="userSpaceOnUse">
<stop stop-color="#F0DDFC" stop-opacity="0"/>
<stop offset="0.2889" stop-color="#C8B7E0" stop-opacity="0.289"/>
<stop offset="0.5915" stop-color="#A595C8" stop-opacity="0.592"/>
<stop offset="0.8395" stop-color="#8F81B8" stop-opacity="0.84"/>
<stop offset="1" stop-color="#8779B3"/>
</linearGradient>
<linearGradient id="paint5_linear_1238_21844" x1="1.5094" y1="61.958" x2="15.9376" y2="47.5298" gradientUnits="userSpaceOnUse">
<stop stop-color="#F0DDFC" stop-opacity="0"/>
<stop offset="0.2889" stop-color="#C8B7E0" stop-opacity="0.289"/>
<stop offset="0.5915" stop-color="#A595C8" stop-opacity="0.592"/>
<stop offset="0.8395" stop-color="#8F81B8" stop-opacity="0.84"/>
<stop offset="1" stop-color="#8779B3"/>
</linearGradient>
<linearGradient id="paint6_linear_1238_21844" x1="9.02397" y1="50.5651" x2="20.7181" y2="59.9996" gradientUnits="userSpaceOnUse">
<stop stop-color="#F9F7FC"/>
<stop offset="1" stop-color="#F0DDFC"/>
</linearGradient>
<linearGradient id="paint7_linear_1238_21844" x1="43.6369" y1="54.1653" x2="43.6369" y2="63.8093" gradientUnits="userSpaceOnUse">
<stop stop-color="#FF7044"/>
<stop offset="1" stop-color="#F92814"/>
</linearGradient>
<linearGradient id="paint8_linear_1238_21844" x1="43.6369" y1="51.7085" x2="43.6369" y2="45.569" gradientUnits="userSpaceOnUse">
<stop stop-color="#F92814" stop-opacity="0"/>
<stop offset="1" stop-color="#C1272D"/>
</linearGradient>
<linearGradient id="paint9_linear_1238_21844" x1="26.5787" y1="34.5304" x2="63.7376" y2="34.5304" gradientUnits="userSpaceOnUse">
<stop stop-color="#7E8595"/>
<stop offset="1" stop-color="#555A66"/>
</linearGradient>
<linearGradient id="paint10_linear_1238_21844" x1="23.8905" y1="34.5304" x2="15.2356" y2="34.5304" gradientUnits="userSpaceOnUse">
<stop stop-color="#555A66" stop-opacity="0"/>
<stop offset="1" stop-color="#555A66"/>
</linearGradient>
<linearGradient id="paint11_linear_1238_21844" x1="44.3504" y1="45.7962" x2="37.2351" y2="10.0746" gradientUnits="userSpaceOnUse">
<stop stop-color="#555A66" stop-opacity="0"/>
<stop offset="1" stop-color="#555A66"/>
</linearGradient>
<linearGradient id="paint12_linear_1238_21844" x1="39.9999" y1="13.651" x2="39.9999" y2="29.9759" gradientUnits="userSpaceOnUse">
<stop stop-color="#7E8595"/>
<stop offset="1" stop-color="#555A66"/>
</linearGradient>
<linearGradient id="paint13_linear_1238_21844" x1="31.0127" y1="6.59084" x2="50.0462" y2="32.4923" gradientUnits="userSpaceOnUse">
<stop stop-color="#7E8595"/>
<stop offset="1" stop-color="#555A66"/>
</linearGradient>
<linearGradient id="paint14_linear_1238_21844" x1="39.9398" y1="19.3634" x2="36.0027" y2="-20.5851" gradientUnits="userSpaceOnUse">
<stop stop-color="#BEC3D2" stop-opacity="0"/>
<stop offset="0.5577" stop-color="#D4D9E4" stop-opacity="0.558"/>
<stop offset="1" stop-color="#E9EDF5"/>
</linearGradient>
<linearGradient id="paint15_linear_1238_21844" x1="34.5968" y1="26.0616" x2="30.7889" y2="16.161" gradientUnits="userSpaceOnUse">
<stop stop-color="#555A66" stop-opacity="0"/>
<stop offset="1" stop-color="#555A66"/>
</linearGradient>
<linearGradient id="paint16_linear_1238_21844" x1="22.3751" y1="17.9959" x2="28.5514" y2="26.4006" gradientUnits="userSpaceOnUse">
<stop stop-color="#FFDA45"/>
<stop offset="1" stop-color="#FFA425"/>
</linearGradient>
<linearGradient id="paint17_linear_1238_21844" x1="38.4628" y1="14.7151" x2="41.3576" y2="17.6098" gradientUnits="userSpaceOnUse">
<stop stop-color="#7E8595"/>
<stop offset="1" stop-color="#555A66"/>
</linearGradient>
<linearGradient id="paint18_linear_1238_21844" x1="13.7274" y1="42.2094" x2="21.3703" y2="42.0337" gradientUnits="userSpaceOnUse">
<stop stop-color="#FFDA45"/>
<stop offset="1" stop-color="#FFA425"/>
</linearGradient>
<linearGradient id="paint19_linear_1238_21844" x1="16.6535" y1="41.7999" x2="11.5048" y2="44.1641" gradientUnits="userSpaceOnUse">
<stop stop-color="#FFDA45" stop-opacity="0"/>
<stop offset="1" stop-color="#FCEE21"/>
</linearGradient>
<linearGradient id="paint20_linear_1238_21844" x1="13.5991" y1="42.8981" x2="22.5754" y2="39.4097" gradientUnits="userSpaceOnUse">
<stop stop-color="#FFDA45" stop-opacity="0"/>
<stop offset="1" stop-color="#B53759"/>
</linearGradient>
<linearGradient id="paint21_linear_1238_21844" x1="14.1898" y1="33.7847" x2="17.681" y2="37.2757" gradientUnits="userSpaceOnUse">
<stop stop-color="#FF7044"/>
<stop offset="1" stop-color="#F92814"/>
</linearGradient>
<linearGradient id="paint22_linear_1238_21844" x1="15.4673" y1="35.0621" x2="13.028" y2="32.6227" gradientUnits="userSpaceOnUse">
<stop stop-color="#FF7044" stop-opacity="0"/>
<stop offset="1" stop-color="#FFA425"/>
</linearGradient>
<linearGradient id="paint23_linear_1238_21844" x1="15.293" y1="35.8262" x2="18.9981" y2="28.9351" gradientUnits="userSpaceOnUse">
<stop stop-color="#F92814" stop-opacity="0"/>
<stop offset="1" stop-color="#C1272D"/>
</linearGradient>
</defs>
</svg>
