<svg width="80" height="80" viewBox="0 0 80 80" fill="none" xmlns="http://www.w3.org/2000/svg">
<g id="university (1) 1" clip-path="url(#clip0_1238_21874)">
<g id="Group">
<path id="Vector" d="M5.35191 32.4284L0.594727 27.6712V24.1034C0.594727 23.4466 1.12721 22.9141 1.78402 22.9141H4.16262C4.81942 22.9141 5.35191 23.4466 5.35191 24.1034V32.4284Z" fill="#D0CDCD"/>
<path id="Vector_2" d="M29.1378 27.6709H19.6234L14.8662 41.9425H29.1378V27.6709Z" fill="#464342"/>
<path id="Vector_3" d="M0.594727 27.6709V37.1853L19.6235 41.9425V27.6709H0.594727Z" fill="#625F5E"/>
<path id="Vector_4" d="M14.8662 65.7285L19.6234 80.0001H24.3806L29.1378 65.7285H14.8662Z" fill="#D0CDCD"/>
<path id="Vector_5" d="M0.594727 70.4857V78.8108C0.594727 79.4676 1.12721 80.0001 1.78402 80.0001H19.6235V65.7285L0.594727 70.4857Z" fill="#E7E6E6"/>
<path id="Vector_6" d="M29.1378 37.1855H19.6234L14.8662 53.8357L19.6234 70.4858H29.1378V37.1855Z" fill="#FF835D"/>
<path id="Vector_7" d="M19.6235 37.1855H0.594727V70.4858H19.6235V65.7287L17.2449 60.9715L19.6235 56.2143V51.4571L17.2449 46.6999L19.6235 41.9427V37.1855Z" fill="#FC9F63"/>
<path id="Vector_8" d="M74.6484 32.4284L79.4056 27.6712V24.1034C79.4056 23.4466 78.8731 22.9141 78.2163 22.9141H75.8377C75.1809 22.9141 74.6484 23.4466 74.6484 24.1034V32.4284Z" fill="#B8B4B3"/>
<path id="Vector_9" d="M79.405 27.6709H74.6478L69.8906 41.9425L79.405 37.1853V27.6709Z" fill="#464342"/>
<path id="Vector_10" d="M50.8623 27.6709H74.6482V41.9425H50.8623V27.6709Z" fill="#625F5E"/>
<path id="Vector_11" d="M79.405 70.4857L69.8906 65.7285L74.6478 80.0001H78.2157C78.8725 80.0001 79.405 79.4676 79.405 78.8108V70.4857Z" fill="#B8B4B3"/>
<path id="Vector_12" d="M50.8623 65.7285L55.6195 80.0001H74.6482V65.7285H50.8623Z" fill="#D0CDCD"/>
<path id="Vector_13" d="M74.6478 37.1855L69.8906 53.8357L74.6478 70.4858H79.405V37.1855H74.6478Z" fill="#FC6356"/>
<path id="Vector_14" d="M72.2696 60.9715L74.6482 56.2143V51.4571L72.2696 46.6999L74.6482 41.9427V37.1855H50.8623V70.4858H74.6482V65.7287L72.2696 60.9715Z" fill="#FF835D"/>
<path id="Vector_15" d="M40 13.082L50.8622 79.9998H55.6194V23.5702C55.6194 23.1616 55.4096 22.7815 55.0636 22.5637L40 13.082Z" fill="#FC9F63"/>
<path id="Vector_16" d="M50.8625 22.9135L40.0003 13.082L24.9367 22.5637C24.5908 22.7815 24.3809 23.1616 24.3809 23.5702V79.9998H29.138L50.8625 46.6995V41.9423L49.5147 36.9274L50.8625 31.9126V22.9135Z" fill="#F9BB69"/>
<path id="Vector_17" d="M43.7266 72.8643V77.6214L46.1052 80H50.8623V75.2429L43.7266 72.8643Z" fill="#9C9897"/>
<path id="Vector_18" d="M29.1377 75.2429V80H46.105V72.8643L29.1377 75.2429Z" fill="#B8B4B3"/>
<path id="Vector_19" d="M41.3477 65.7285L43.7262 72.8643L46.1048 75.2429H50.862V70.4857L41.3477 65.7285Z" fill="#B8B4B3"/>
<path id="Vector_20" d="M29.1377 70.486V75.2432H46.105V68.1074L29.1377 70.486Z" fill="#D0CDCD"/>
<path id="Vector_21" d="M46.1055 46.6992L38.9697 58.5922L46.1055 70.4851H50.8627V46.6992H46.1055Z" fill="#86E0FF"/>
<path id="Vector_22" d="M40.0003 46.6992L35.2432 58.5922L40.0003 70.4851H46.1054V46.6992H40.0003Z" fill="#C3EFFF"/>
<g id="Group_2">
<path id="Vector_23" d="M29.1377 46.6992H39.9999V70.4851H29.1377V46.6992Z" fill="white"/>
<path id="Vector_24" d="M5.35156 56.2139H10.1087V65.7282H5.35156V56.2139Z" fill="white"/>
<path id="Vector_25" d="M14.8662 56.2139H19.6234V65.7282H14.8662V56.2139Z" fill="white"/>
<path id="Vector_26" d="M5.35156 41.9424H10.1087V51.4568H5.35156V41.9424Z" fill="white"/>
<path id="Vector_27" d="M14.8662 41.9424H19.6234V51.4568H14.8662V41.9424Z" fill="white"/>
<path id="Vector_28" d="M60.376 56.2139H65.1332V65.7282H60.376V56.2139Z" fill="white"/>
<path id="Vector_29" d="M69.8906 56.2139H74.6478V65.7282H69.8906V56.2139Z" fill="white"/>
<path id="Vector_30" d="M60.376 41.9424H65.1332V51.4568H60.376V41.9424Z" fill="white"/>
<path id="Vector_31" d="M69.8906 41.9424H74.6478V51.4568H69.8906V41.9424Z" fill="white"/>
</g>
<path id="Vector_32" d="M41.5859 3.56836L44.7574 6.73982C44.7574 8.05343 45.8224 9.11841 47.136 9.11841H48.3253C48.9821 9.11841 49.5146 8.58592 49.5146 7.92911V4.75766C49.5146 4.10085 48.9821 3.56836 48.3253 3.56836H41.5859Z" fill="#F72349"/>
<path id="Vector_33" d="M42.3786 1.18945H40V6.7395H44.7572V3.56805C44.7572 2.25443 43.6922 1.18945 42.3786 1.18945Z" fill="#FA4350"/>
<path id="Vector_34" d="M42.3789 41.9424H50.8626V37.1852L46.6207 34.8066L42.3789 37.1852V41.9424Z" fill="#FC9F63"/>
<path id="Vector_35" d="M46.6207 27.6709C44.278 27.6709 42.3789 29.57 42.3789 31.9127V37.1853H50.8626V31.9127C50.8626 29.57 48.9635 27.6709 46.6207 27.6709Z" fill="white"/>
<path id="Vector_36" d="M29.1377 41.9424H37.6213V37.1852L33.3795 34.8066L29.1377 37.1852V41.9424Z" fill="#FC9F63"/>
<path id="Vector_37" d="M33.3795 27.6709C31.0368 27.6709 29.1377 29.57 29.1377 31.9127V37.1853H37.6213V31.9127C37.6213 29.57 35.7223 27.6709 33.3795 27.6709Z" fill="white"/>
<path id="Vector_38" d="M41.1891 13.8309V1.1893C41.1891 0.532329 40.6568 0 39.9998 0C39.343 0 38.8105 0.532329 38.8105 1.1893V13.8309H41.1891Z" fill="#B8B4B3"/>
</g>
</g>
<defs>
<clipPath id="clip0_1238_21874">
<rect width="80" height="80" fill="white"/>
</clipPath>
</defs>
</svg>
