<svg width="84" height="107" viewBox="0 0 84 107" fill="none" xmlns="http://www.w3.org/2000/svg">
<g id="Group">
<path id="Vector" d="M29.5408 92.9648L32.742 74.3379C33.3651 70.7285 32.1619 67.0332 29.5408 64.4765L16.0057 51.2851C9.3885 44.8398 13.0408 33.6035 22.1932 32.2714L40.8846 29.5644C44.5155 29.0273 47.6522 26.75 49.285 23.4629L57.6424 6.51168C58.5448 4.68551 59.8338 3.24606 61.3377 2.23629C56.0741 -1.3516 48.2108 0.066368 45.0311 6.51168L36.6737 23.4629C35.0408 26.75 31.9041 29.0273 28.2733 29.5644L9.58186 32.2714C0.429519 33.6035 -3.20134 44.8398 3.39436 51.2851L16.9295 64.4765C19.5506 67.0332 20.7537 70.7285 20.1307 74.3379L16.9295 92.9648C15.3612 102.074 24.9217 109.014 33.1073 104.717L34.3104 104.094C30.9158 101.795 28.7459 97.6699 29.5623 92.9648H29.5408Z" fill="#FD4755"/>
<path id="Vector_2" d="M83.2734 101.43C81.2324 102.654 79.1055 103.75 76.8926 104.717L61.3164 96.5312L62.4336 95.9512C65.6777 94.2324 69.5664 94.2324 72.8105 95.9512L83.2734 101.451V101.43Z" fill="#FD4755"/>
</g>
</svg>
