<svg width="20" height="20" viewBox="0 0 20 20" fill="none" xmlns="http://www.w3.org/2000/svg">
<g id="Icon">
<path id="Icon_2" d="M2.4998 2.5L5.49076 5.49097M17.4998 17.5L14.5091 14.5093M11.5622 15.6872C11.0562 15.7831 10.5341 15.8333 10.0002 15.8333C6.2688 15.8333 3.11022 13.3809 2.04834 9.99997C2.33742 9.07958 2.78189 8.22801 3.35099 7.47598M8.23203 8.23223C8.68444 7.77982 9.30944 7.5 9.9998 7.5C11.3805 7.5 12.4998 8.61929 12.4998 10C12.4998 10.6904 12.22 11.3154 11.7676 11.7678M8.23203 8.23223L11.7676 11.7678M8.23203 8.23223L5.49076 5.49097M11.7676 11.7678L5.49076 5.49097M11.7676 11.7678L14.5091 14.5093M5.49076 5.49097C6.79061 4.65295 8.3386 4.16667 10.0002 4.16667C13.7315 4.16667 16.8901 6.61909 17.952 10C17.3629 11.8756 16.1286 13.4654 14.5091 14.5093" stroke="#7E8492" stroke-width="2" stroke-linecap="round" stroke-linejoin="round"/>
</g>
</svg>
