<svg width="14" height="18" viewBox="0 0 14 18" fill="none" xmlns="http://www.w3.org/2000/svg">
<g id="Group">
<path id="Vector" d="M13.4369 6.27943C13.4417 7.55307 13.2122 8.78284 12.6499 9.93363C12.0391 11.183 11.134 12.1428 9.80839 12.6281C8.79865 12.9986 7.76665 13.0897 6.75692 12.6065C6.49098 12.4796 6.25002 12.3014 5.98544 12.1387C5.89972 12.4681 5.8059 12.8096 5.72288 13.1538C5.49745 14.0927 5.22612 15.016 4.80765 15.8908C4.60111 16.3221 4.37905 16.7446 4.02267 17.076C3.95585 17.1381 3.87958 17.1921 3.80061 17.2393C3.49756 17.4196 3.19653 17.3359 3.03252 17.0254C2.8658 16.7095 2.8334 16.3639 2.82395 16.0157C2.79291 14.8237 3.00957 13.6655 3.29237 12.514C3.61163 11.2154 3.91266 9.91136 4.21571 8.6087C4.23596 8.52095 4.22584 8.41633 4.19816 8.32927C3.86878 7.28916 3.84314 6.2693 4.41077 5.29737C4.72328 4.7628 5.1728 4.40103 5.80388 4.30181C6.69415 4.16142 7.47979 4.8033 7.54526 5.70234C7.59318 6.35232 7.4096 6.95776 7.23883 7.56792C7.08022 8.13083 6.90811 8.68969 6.75017 9.2526C6.66242 9.56511 6.67052 9.87694 6.83724 10.1665C7.12139 10.6579 7.57631 10.8178 8.10885 10.7699C8.73386 10.7146 9.1908 10.3568 9.55865 9.87559C10.0291 9.26003 10.2896 8.55133 10.4462 7.80145C10.6042 7.04348 10.6872 6.27875 10.5751 5.50728C10.3949 4.26199 9.69972 3.41762 8.51045 3.03155C7.31038 2.6421 6.11098 2.69744 4.96896 3.26508C3.78509 3.85297 3.08516 4.833 2.79696 6.10934C2.65117 6.75797 2.62417 7.41403 2.89145 8.04309C2.98527 8.2638 3.12296 8.47168 3.26942 8.66404C3.44424 8.89285 3.51511 9.12706 3.43749 9.40717C3.37202 9.64205 3.32005 9.88031 3.25255 10.1145C3.12026 10.5775 2.78953 10.7294 2.35216 10.5343C1.48417 10.1476 0.944206 9.46251 0.645201 8.5871C0.157883 7.16227 0.242928 5.75229 0.893584 4.39765C1.85 2.40789 3.47056 1.26856 5.60814 0.829843C5.9409 0.761673 6.28377 0.738724 6.62192 0.693502C6.65837 0.688777 6.69415 0.675953 6.72992 0.666504H7.64178C7.82402 0.688102 8.00626 0.707676 8.1885 0.731975C9.74157 0.934461 11.0746 1.57567 12.1073 2.76764C12.9753 3.76995 13.4329 4.94572 13.4369 6.27943Z" fill="#FF782D"/>
</g>
</svg>
