<svg width="110" height="111" viewBox="0 0 110 111" fill="none" xmlns="http://www.w3.org/2000/svg">
<path id="Vector" d="M110 55.25C110 70.7832 103.555 84.8125 93.1992 94.8242C90.1914 97.7246 78.7617 89.9688 75.1738 92.1172C73.1328 93.3418 79.1055 104.771 76.8926 105.717C70.1895 108.639 62.7773 110.25 55 110.25C47.2227 110.25 39.8105 108.639 33.1074 105.717C27.0273 103.074 21.5059 99.3574 16.8008 94.8242C6.44531 84.8125 0 70.7832 0 55.25C0 39.7168 0.171875 50.1797 0.515625 47.709C1.05273 43.7773 2.01953 39.9746 3.33008 36.3652C11.043 15.2891 31.2598 0.25 55 0.25C78.7402 0.25 98.957 15.2891 106.67 36.3438C108.002 39.9746 108.947 43.7559 109.484 47.6875C109.828 50.1582 110 52.6719 110 55.2285V55.25Z" fill="#FEE45A"/>
</svg>
