<svg width="16" height="16" viewBox="0 0 16 16" fill="none" xmlns="http://www.w3.org/2000/svg">
<g id="Ikon">
<path id="Vector" d="M15.8749 8.00003C15.8752 7.82832 15.8369 7.65875 15.7629 7.50379C15.689 7.34883 15.5812 7.21244 15.4475 7.10464L14.4332 6.25977L14.8977 5.05127C14.9579 4.89102 14.9818 4.71941 14.9678 4.54879C14.9537 4.37817 14.902 4.21279 14.8164 4.06455C14.7308 3.91631 14.6134 3.7889 14.4726 3.69148C14.3318 3.59406 14.1712 3.52906 14.0023 3.50115L12.7012 3.27648L12.4991 1.99765C12.4712 1.82871 12.4062 1.66806 12.3087 1.52726C12.2113 1.38647 12.0838 1.26903 11.9356 1.1834C11.7873 1.09777 11.6219 1.04608 11.4512 1.03205C11.2806 1.01802 11.1089 1.042 10.9486 1.10226L9.70965 1.55875L8.8953 0.552399C8.7839 0.424338 8.64632 0.321662 8.49186 0.251301C8.3374 0.18094 8.16964 0.144531 7.99991 0.144531C7.83017 0.144531 7.66242 0.18094 7.50795 0.251301C7.35349 0.321662 7.21592 0.424338 7.10452 0.552399L6.25965 1.56643L5.05145 1.10226C4.89116 1.04195 4.7195 1.01793 4.54881 1.03194C4.37813 1.04595 4.21267 1.09763 4.06436 1.18326C3.91605 1.2689 3.78858 1.38635 3.69111 1.52718C3.59365 1.668 3.52863 1.82868 3.50073 1.99765L3.27634 3.29898L1.99808 3.50059C1.82911 3.52851 1.66842 3.59354 1.52759 3.69099C1.38676 3.78844 1.26928 3.9159 1.1836 4.06419C1.09793 4.21248 1.04618 4.37792 1.0321 4.5486C1.01801 4.71928 1.04193 4.89097 1.10214 5.0513L1.55862 6.29056L0.55175 7.10464C0.419488 7.2134 0.312971 7.35012 0.239858 7.50496C0.166745 7.6598 0.128853 7.82893 0.128906 8.00016C0.12896 8.1714 0.166958 8.3405 0.240169 8.49529C0.313379 8.65009 0.419983 8.78674 0.552312 8.89542L1.56662 9.74029L1.10214 10.9488C1.04192 11.109 1.01797 11.2806 1.03202 11.4513C1.04608 11.6219 1.09777 11.7873 1.1834 11.9355C1.26903 12.0837 1.38645 12.2112 1.52723 12.3086C1.668 12.406 1.82862 12.471 1.99753 12.4989L3.29859 12.7236L3.50073 14.0024C3.5287 14.1713 3.59375 14.3319 3.69121 14.4727C3.78867 14.6134 3.91611 14.7309 4.06437 14.8165C4.21263 14.9021 4.37803 14.9538 4.54865 14.9679C4.71928 14.9819 4.89091 14.958 5.05118 14.8978L6.29017 14.4413L7.10453 15.4477C7.21318 15.5801 7.34984 15.6867 7.50467 15.76C7.65949 15.8332 7.82864 15.8712 7.99991 15.8712C8.17119 15.8712 8.34033 15.8332 8.49516 15.76C8.64999 15.6867 8.78665 15.5801 8.8953 15.4477L9.74018 14.4336L10.9484 14.8978C11.1087 14.9581 11.2804 14.9821 11.4511 14.9681C11.6217 14.954 11.7872 14.9024 11.9355 14.8167C12.0838 14.7311 12.2113 14.6136 12.3087 14.4728C12.4062 14.332 12.4712 14.1714 12.4991 14.0024L12.7235 12.7011L14.0018 12.4995C14.1708 12.4716 14.3315 12.4065 14.4723 12.3091C14.6131 12.2116 14.7306 12.0842 14.8163 11.9359C14.902 11.7876 14.9537 11.6221 14.9678 11.4515C14.9819 11.2808 14.9579 11.1091 14.8977 10.9488L14.4413 9.7095L15.4481 8.89542C15.5816 8.78751 15.6892 8.65107 15.7631 8.49613C15.8369 8.34119 15.8751 8.17167 15.8749 8.00003Z" fill="#1976D2"/>
<path id="Vector_2" d="M6.94224 10.6528C6.57891 10.6538 6.22517 10.5363 5.93452 10.3183L4.56864 9.29384C4.44932 9.20431 4.37046 9.07105 4.34939 8.92338C4.32832 8.7757 4.36678 8.62571 4.45631 8.50639C4.54583 8.38707 4.67909 8.30821 4.82677 8.28714C4.97444 8.26607 5.12443 8.30453 5.24375 8.39406L6.60935 9.41853C6.72773 9.50606 6.87554 9.54406 7.02145 9.52448C7.16737 9.50489 7.29992 9.42926 7.39103 9.31361L10.6496 5.12343C10.695 5.0651 10.7514 5.01629 10.8156 4.97977C10.8799 4.94325 10.9507 4.91974 11.024 4.91059C11.0973 4.90143 11.1717 4.90681 11.243 4.92641C11.3142 4.94601 11.3809 4.97945 11.4392 5.02483C11.4976 5.0702 11.5464 5.12662 11.5829 5.19086C11.6194 5.2551 11.6429 5.3259 11.6521 5.39923C11.6612 5.47255 11.6559 5.54696 11.6363 5.61821C11.6167 5.68946 11.5832 5.75615 11.5378 5.81447L8.27901 10.0047C8.12021 10.2073 7.91724 10.371 7.68559 10.4833C7.45393 10.5957 7.19969 10.6536 6.94224 10.6528Z" fill="#F5F5F5"/>
</g>
</svg>
