<svg width="110" height="110" viewBox="0 0 110 110" fill="none" xmlns="http://www.w3.org/2000/svg">
<g id="soft-skills2 1" clip-path="url(#clip0_1238_21477)">
<g id="Group">
<path id="Vector" d="M110 55C110 69.2012 104.629 82.1348 95.7991 91.8887C95.3694 92.3613 94.2093 91.9961 93.7581 92.4688C89.3753 96.9805 84.219 100.74 78.5257 103.555C78.2034 103.705 78.6116 104.693 78.2893 104.844C71.221 108.152 63.3362 110 55.0003 110C46.6643 110 49.7581 109.807 47.2229 109.463C46.3636 109.334 46.2991 107.551 45.4612 107.4C29.262 104.328 17.2737 93.7363 9.47488 79.8359C9.13113 79.2344 6.33817 80.6738 6.0159 80.0508C2.77176 73.7129 0.709259 66.6445 0.150666 59.168C0.0432438 57.793 2.04129 57.3633 2.04129 55.9668C2.04129 44.9668 5.26395 34.7188 10.8284 26.125C11.5159 25.0508 10.2054 23.0527 10.9788 22.0215C21.012 8.63672 36.9964 0 55.0003 0C85.3792 0 110 24.6211 110 55Z" fill="#6354B2"/>
<path id="Vector_2" d="M92.3828 70.8984V95.3477C88.2363 99.1934 83.4668 102.416 78.2891 104.844H58.4375C56.0742 104.844 54.1406 102.91 54.1406 100.547V70.8984C54.1406 68.5352 56.0742 66.6016 58.4375 66.6016H88.0859C90.4492 66.6016 92.3828 68.5352 92.3828 70.8984ZM45.1172 66.6016H16.4141C16.3496 66.6016 16.3066 66.6016 16.2422 66.6016C16.1777 66.6016 16.1348 66.6016 16.0703 66.6016H10.291C7.92773 66.6016 5.99414 68.5352 5.99414 70.8984V80.0293C13.9863 95.627 29.1758 106.885 47.2012 109.441C48.5117 108.711 49.3926 107.293 49.3926 105.682V70.877C49.3926 68.5137 47.459 66.5801 45.0957 66.5801L45.1172 66.6016ZM92.3828 19.7656H64.668C64.5176 19.7656 64.3672 19.7656 64.2168 19.7871C64.0664 19.7871 63.916 19.7656 63.7656 19.7656H58.416C56.0527 19.7656 54.1191 21.6992 54.1191 24.0625V58.0078C54.1191 60.3711 56.0527 62.3047 58.416 62.3047H63.7656C63.916 62.3047 64.0664 62.3047 64.2168 62.2832C64.3672 62.2832 64.5176 62.3047 64.668 62.3047H92.3828C94.7461 62.3047 96.6797 60.3711 96.6797 58.0078V24.0625C96.6797 21.6992 94.7461 19.7656 92.3828 19.7656ZM45.1172 12.8906H19.6152C7.62695 22.9883 0 38.0918 0 55C0 71.9082 0.0429687 57.793 0.150391 59.1465C0.644531 60.9727 2.32031 62.3047 4.29688 62.3047H45.1172C47.4805 62.3047 49.4141 60.3711 49.4141 58.0078V17.1875C49.4141 14.8242 47.4805 12.8906 45.1172 12.8906Z" fill="#54469D"/>
<path id="Vector_3" d="M22.5371 103.555H16.7578C14.3945 103.555 12.4609 101.621 12.4609 99.2578V64.4531C12.4609 62.0898 14.3945 60.1562 16.7578 60.1562H22.5371C24.9004 60.1562 26.834 62.0898 26.834 64.4531V99.2578C26.834 101.621 24.9004 103.555 22.5371 103.555Z" fill="#FF4FB8"/>
<path id="Vector_4" d="M51.5625 103.555H22.8594C20.4961 103.555 18.5625 101.621 18.5625 99.2578V64.4531C18.5625 62.0898 20.4961 60.1562 22.8594 60.1562H51.5625C53.9258 60.1562 55.8594 62.0898 55.8594 64.4531V99.2578C55.8594 101.621 53.9258 103.555 51.5625 103.555Z" fill="#FF73C6"/>
<path id="Vector_5" d="M71.3496 98.3984H64.8828C62.5195 98.3984 60.5859 96.4648 60.5859 94.1016V64.4531C60.5859 62.0898 62.5195 60.1562 64.8828 60.1562H71.3496C73.7129 60.1562 75.6465 62.0898 75.6465 64.4531V94.1016C75.6465 96.4648 73.7129 98.3984 71.3496 98.3984Z" fill="#4BCD5C"/>
<path id="Vector_6" d="M94.5312 98.3984H71.1133C68.75 98.3984 66.8164 96.4648 66.8164 94.1016V64.4531C66.8164 62.0898 68.75 60.1562 71.1133 60.1562H94.5312C96.8945 60.1562 98.8281 62.0898 98.8281 64.4531V94.1016C98.8281 96.4648 96.8945 98.3984 94.5312 98.3984Z" fill="#74D579"/>
<path id="Vector_7" d="M70.2324 55.8594H64.8828C62.5195 55.8594 60.5859 53.9258 60.5859 51.5625V17.6172C60.5859 15.2539 62.5195 13.3203 64.8828 13.3203H70.2324C72.5957 13.3203 74.5293 15.2539 74.5293 17.6172V51.5625C74.5293 53.9258 72.5957 55.8594 70.2324 55.8594Z" fill="#00C1FB"/>
<path id="Vector_8" d="M98.8281 55.8594H71.1133C68.75 55.8594 66.8164 53.9258 66.8164 51.5625V17.6172C66.8164 15.2539 68.75 13.3203 71.1133 13.3203H98.8281C101.191 13.3203 103.125 15.2539 103.125 17.6172V51.5625C103.125 53.9258 101.191 55.8594 98.8281 55.8594Z" fill="#00D1FC"/>
<path id="Vector_9" d="M16.2422 55.8594H10.7422C8.37891 55.8594 6.44531 53.9258 6.44531 51.5625V10.7422C6.44531 8.37891 8.37891 6.44531 10.7422 6.44531H16.2422C18.6055 6.44531 20.5391 8.37891 20.5391 10.7422V51.5625C20.5391 53.9258 18.6055 55.8594 16.2422 55.8594Z" fill="#FFEF31"/>
<path id="Vector_10" d="M51.5625 55.8594H16.2852C13.9219 55.8594 11.9883 53.9258 11.9883 51.5625V10.7422C11.9883 8.37891 13.9219 6.44531 16.2852 6.44531H51.5625C53.9258 6.44531 55.8594 8.37891 55.8594 10.7422V51.5625C55.8594 53.9258 53.9258 55.8594 51.5625 55.8594Z" fill="#FFF261"/>
<path id="Vector_11" d="M50.7246 18.2617C50.7246 19.4434 49.7578 20.4102 48.5762 20.4102H36.459C35.2773 20.4102 34.3105 19.4434 34.3105 18.2617C34.3105 17.0801 35.2773 16.1133 36.459 16.1133H48.5762C49.7578 16.1133 50.7246 17.0801 50.7246 18.2617ZM16.3496 20.4102C17.5312 20.4102 18.498 19.4434 18.498 18.2617C18.498 17.0801 17.5312 16.1133 16.3496 16.1133C15.168 16.1133 14.2012 17.0801 14.2012 18.2617C14.2012 19.4434 15.168 20.4102 16.3496 20.4102ZM22.7949 20.4102C23.9766 20.4102 24.9434 19.4434 24.9434 18.2617C24.9434 17.0801 23.9766 16.1133 22.7949 16.1133C21.6133 16.1133 20.6465 17.0801 20.6465 18.2617C20.6465 19.4434 21.6133 20.4102 22.7949 20.4102ZM29.2402 20.4102C30.4219 20.4102 31.3887 19.4434 31.3887 18.2617C31.3887 17.0801 30.4219 16.1133 29.2402 16.1133C28.0586 16.1133 27.0918 17.0801 27.0918 18.2617C27.0918 19.4434 28.0586 20.4102 29.2402 20.4102ZM16.3496 29.0039H38.8438C40.0254 29.0039 40.9922 28.0371 40.9922 26.8555C40.9922 25.6738 40.0254 24.707 38.8438 24.707H16.3496C15.168 24.707 14.2012 25.6738 14.2012 26.8555C14.2012 28.0371 15.168 29.0039 16.3496 29.0039ZM48.5762 33.3008H16.3496C15.168 33.3008 14.2012 34.2676 14.2012 35.4492C14.2012 36.6309 15.168 37.5977 16.3496 37.5977H48.5762C49.7578 37.5977 50.7246 36.6309 50.7246 35.4492C50.7246 34.2676 49.7578 33.3008 48.5762 33.3008ZM38.8438 41.8945H16.3496C15.168 41.8945 14.2012 42.8613 14.2012 44.043C14.2012 45.2246 15.168 46.1914 16.3496 46.1914H38.8438C40.0254 46.1914 40.9922 45.2246 40.9922 44.043C40.9922 42.8613 40.0254 41.8945 38.8438 41.8945Z" fill="#FFAA00"/>
<g id="Group_2">
<path id="Vector_12" d="M89.2032 84.8848C87.6563 86.4531 86.6895 88.5586 86.5176 90.7715C86.4961 91.1582 86.1739 91.4375 85.7872 91.4375H79.8575C79.4708 91.4375 79.1485 91.1367 79.127 90.7715C78.9551 88.5586 77.9883 86.4746 76.4415 84.8848C76.1836 84.6484 76.1407 84.2617 76.334 83.9609L82.0918 75.3242L82.7364 76.4629L82.8223 76.3555L83.5528 75.3242L89.3106 83.9609C89.504 84.2617 89.461 84.6484 89.2032 84.8848Z" fill="#FFDA45"/>
<path id="Vector_13" d="M89.2031 84.8848C87.6563 86.4531 86.6895 88.5586 86.5176 90.7715C86.4961 91.1582 86.1738 91.4375 85.7871 91.4375H82.8223V76.3555L83.5527 75.3242L89.3105 83.9609C89.5039 84.2617 89.4609 84.6484 89.2031 84.8848Z" fill="#FFBC36"/>
<path id="Vector_14" d="M84.2832 89.5469H81.3398C79.3203 89.5469 77.666 91.2012 77.666 93.2207C77.666 95.2402 77.9883 93.9512 78.3965 93.9512H87.2051C87.6133 93.9512 87.9355 93.6289 87.9355 93.2207C87.9355 91.2012 86.2813 89.5469 84.2617 89.5469H84.2832Z" fill="#BF6015"/>
<path id="Vector_15" d="M87.957 93.2207C87.957 93.6289 87.6348 93.9512 87.2266 93.9512H82.8223V89.5469H84.2832C86.3027 89.5469 87.957 91.2012 87.957 93.2207Z" fill="#994C10"/>
<path id="Vector_16" d="M92.3613 71.0918C92.3613 71.5 92.0391 71.8223 91.6309 71.8223H74.0137C73.6055 71.8223 73.2832 71.5 73.2832 71.0918C73.2832 70.6836 73.6055 70.3613 74.0137 70.3613H91.6309C92.0391 70.3613 92.3613 70.6836 92.3613 71.0918Z" fill="#1689FC"/>
<path id="Vector_17" d="M92.3613 71.0918C92.3613 71.5 92.0391 71.8223 91.6309 71.8223H82.8223V70.3613H91.6309C92.0391 70.3613 92.3613 70.6836 92.3613 71.0918Z" fill="#136EF1"/>
<path id="Vector_18" d="M74.0137 80.6524C73.6055 80.6524 73.2832 80.3302 73.2832 79.922C73.2832 75.2384 76.6348 71.2852 81.2324 70.5118C81.6406 70.4473 82.0059 70.7052 82.0703 71.1134C82.1348 71.5216 81.877 71.8868 81.4688 71.9512C77.5586 72.5958 74.7441 75.9473 74.7441 79.922C74.7441 83.8966 74.4219 80.6524 74.0137 80.6524Z" fill="#1689FC"/>
<path id="Vector_19" d="M91.6309 80.6524C91.2227 80.6524 90.9005 80.3302 90.9005 79.922C90.9005 75.9688 88.0645 72.6173 84.1759 71.9512C83.7677 71.8868 83.5098 71.5001 83.5743 71.1134C83.6388 70.7052 84.0255 70.4473 84.4122 70.5118C89.0313 71.2852 92.3614 75.2384 92.3614 79.922C92.3614 84.6055 92.0391 80.6524 91.6309 80.6524Z" fill="#136EF1"/>
<path id="Vector_20" d="M74.0137 83.5742C72.7891 83.5742 71.8008 82.5859 71.8008 81.3613C71.8008 80.1367 72.7891 79.1484 74.0137 79.1484C75.2383 79.1484 76.2266 80.1367 76.2266 81.3613C76.2266 82.5859 75.2383 83.5742 74.0137 83.5742Z" fill="#00C8C8"/>
<path id="Vector_21" d="M74.0137 82.1133C73.6055 82.1133 73.2832 81.791 73.2832 81.3828C73.2832 80.9746 73.6055 80.6523 74.0137 80.6523C74.4219 80.6523 74.7441 80.9746 74.7441 81.3828C74.7441 81.791 74.4219 82.1133 74.0137 82.1133Z" fill="#E1F1FA"/>
<path id="Vector_22" d="M91.6309 83.5742C90.4062 83.5742 89.418 82.5859 89.418 81.3613C89.418 80.1367 90.4062 79.1484 91.6309 79.1484C92.8555 79.1484 93.8437 80.1367 93.8437 81.3613C93.8437 82.5859 92.8555 83.5742 91.6309 83.5742Z" fill="#00A1B2"/>
<path id="Vector_23" d="M91.6309 82.1133C91.2227 82.1133 90.9004 81.791 90.9004 81.3828C90.9004 80.9746 91.2227 80.6523 91.6309 80.6523C92.0391 80.6523 92.3613 80.9746 92.3613 81.3828C92.3613 81.791 92.0391 82.1133 91.6309 82.1133Z" fill="#BFE1FF"/>
<g id="Group_3">
<path id="Vector_24" d="M82.8223 68.9004C81.5977 68.9004 80.6094 69.8887 80.6094 71.1133C80.6094 72.3379 81.5977 73.3262 82.8223 73.3262C84.0469 73.3262 85.0352 72.3379 85.0352 71.1133C85.0352 69.8887 84.0469 68.9004 82.8223 68.9004Z" fill="#00C8C8"/>
<path id="Vector_25" d="M73.9707 73.3047H71.0273C70.6191 73.3047 70.2969 72.9824 70.2969 72.5742V69.6309C70.2969 69.2227 70.6191 68.9004 71.0273 68.9004H73.9707C74.3789 68.9004 74.7012 69.2227 74.7012 69.6309V72.5742C74.7012 72.9824 74.3789 73.3047 73.9707 73.3047Z" fill="#00C8C8"/>
</g>
<path id="Vector_26" d="M73.2187 70.3613H71.7578V71.8223H73.2187V70.3613Z" fill="#E1F1FA"/>
<path id="Vector_27" d="M94.6172 73.3047H91.6738C91.2656 73.3047 90.9434 72.9824 90.9434 72.5742V69.6309C90.9434 69.2227 91.2656 68.9004 91.6738 68.9004H94.6172C95.0254 68.9004 95.3477 69.2227 95.3477 69.6309V72.5742C95.3477 72.9824 95.0254 73.3047 94.6172 73.3047Z" fill="#00A1B2"/>
<path id="Vector_28" d="M93.8652 70.3613H92.4043V71.8223H93.8652V70.3613Z" fill="#BFE1FF"/>
<g id="Group_4">
<path id="Vector_29" d="M82.8223 82.1562C81.5977 82.1562 80.6094 83.1445 80.6094 84.3691C80.6094 85.5938 81.5977 86.582 82.8223 86.582C84.0469 86.582 85.0352 85.5938 85.0352 84.3691C85.0352 83.1445 84.0469 82.1562 82.8223 82.1562Z" fill="#994C0F"/>
<path id="Vector_30" d="M83.5527 75.3242V82.9082C83.5527 83.3164 83.2305 83.6387 82.8223 83.6387C82.4141 83.6387 82.0918 83.3164 82.0918 82.9082V75.3242L82.1992 75.1523C82.3496 74.9375 82.5859 74.8516 82.8223 74.8516C83.0586 74.8516 83.2949 74.959 83.4453 75.1523L83.5527 75.3242Z" fill="#994C0F"/>
</g>
<path id="Vector_31" d="M82.8223 73.3047V68.9004C84.0469 68.9004 85.0352 69.8887 85.0352 71.1133C85.0352 72.3379 84.0469 73.3262 82.8223 73.3262V73.3047Z" fill="#00A1B2"/>
<path id="Vector_32" d="M82.8223 71.8437C82.4141 71.8437 82.0918 71.5215 82.0918 71.1133C82.0918 70.7051 82.4141 70.3828 82.8223 70.3828C83.2305 70.3828 83.5527 70.7051 83.5527 71.1133C83.5527 71.5215 83.2305 71.8437 82.8223 71.8437Z" fill="#E1F1FA"/>
<path id="Vector_33" d="M83.5527 71.0918C83.5527 70.6836 83.2305 70.3613 82.8223 70.3613V71.8223C83.2305 71.8223 83.5527 71.5 83.5527 71.0918Z" fill="#BFE1FF"/>
<g id="Group_5">
<path id="Vector_34" d="M82.8223 83.6387V74.8516C83.0586 74.8516 83.2949 74.959 83.4453 75.1523L83.5527 75.3242V82.9082C83.5527 83.3164 83.2305 83.6387 82.8223 83.6387Z" fill="#713708"/>
<path id="Vector_35" d="M85.0352 84.3691C85.0352 85.5938 84.0469 86.582 82.8223 86.582V82.1777C84.0469 82.1777 85.0352 83.166 85.0352 84.3906V84.3691Z" fill="#713708"/>
</g>
</g>
<g id="Group_6">
<path id="Vector_36" d="M91.3516 37.9199H95.9062V46.3203H91.3516V37.9199Z" fill="#FD697F"/>
<path id="Vector_37" d="M93.6289 37.9199H95.9063V46.3203H93.6289V37.9199Z" fill="#E6455D"/>
<path id="Vector_38" d="M87.5488 37.9199H85.2715V46.3203H89.8262V37.9199H87.5488Z" fill="#8ADB53"/>
<path id="Vector_39" d="M87.5488 37.9199H89.8262V46.3203H87.5488V37.9199Z" fill="#4FC16E"/>
<path id="Vector_40" d="M81.4688 40.0898L79.1914 41.2285V46.2988H83.7461V38.9297L81.4688 40.0684V40.0898Z" fill="#FD697F"/>
<path id="Vector_41" d="M83.7676 38.9512L81.4902 40.0898V46.3203H83.7676V38.9512Z" fill="#E6455D"/>
<path id="Vector_42" d="M74.6367 27.2637H76.1621V29.541H74.6367V27.2637Z" fill="#60474F"/>
<path id="Vector_43" d="M74.6367 34.1172H76.1621V36.3945H74.6367V34.1172Z" fill="#60474F"/>
<path id="Vector_44" d="M75.3887 27.2637H76.1406V29.541H75.3887V27.2637Z" fill="#3F303A"/>
<path id="Vector_45" d="M75.3887 34.1172H76.1406V36.3945H75.3887V34.1172Z" fill="#3F303A"/>
<path id="Vector_46" d="M73.1113 40.9492H77.666V46.3203H73.1113V40.9492Z" fill="#8ADB53"/>
<path id="Vector_47" d="M75.3887 40.9492H77.666V46.3203H75.3887V40.9492Z" fill="#4FC16E"/>
<g id="Group_7">
<path id="Vector_48" d="M93.6074 31.0234L93.0059 32.4199L94.2305 32.957L90.4277 34.8691H84.1758L78.2676 37.8984H72.3594V39.4238H78.6113L84.5195 36.3945H90.7715L94.8965 34.332L94.5957 35.6426L96.0781 35.9863L96.8945 32.4844L93.6074 31.0449V31.0234Z" fill="#FD697F"/>
<path id="Vector_49" d="M94.918 34.332L94.6172 35.6426L96.0996 35.9863L96.916 32.4844L93.6289 31.0449L93.0273 32.4414L94.252 32.9785L90.4492 34.8906H84.541V36.416H90.793L94.918 34.3535V34.332Z" fill="#E6455D"/>
<path id="Vector_50" d="M84.5195 45.5684H71.543V47.0937H97.4746V45.5684H84.498H84.5195Z" fill="#60474F"/>
<path id="Vector_51" d="M84.5195 45.5684H97.4961V47.0937H84.5195V45.5684Z" fill="#3F303A"/>
</g>
<path id="Vector_52" d="M73.1113 28.7891V34.8691H77.666V28.7891H73.1113Z" fill="#8ADB53"/>
<path id="Vector_53" d="M75.3887 28.7891H77.666V34.8691H75.3887V28.7891Z" fill="#4FC16E"/>
<path id="Vector_54" d="M80.7168 24.2344H82.2422V26.5117H80.7168V24.2344Z" fill="#60474F"/>
<path id="Vector_55" d="M80.7168 31.0664H82.2422V33.3437H80.7168V31.0664Z" fill="#60474F"/>
<path id="Vector_56" d="M81.4688 24.2344H82.2207V26.5117H81.4688V24.2344Z" fill="#3F303A"/>
<path id="Vector_57" d="M81.4688 31.0664H82.2207V33.3437H81.4688V31.0664Z" fill="#3F303A"/>
<path id="Vector_58" d="M79.1914 25.7598V31.8398H83.7461V25.7598H79.1914Z" fill="#FD697F"/>
<path id="Vector_59" d="M81.4688 25.7598H83.7461V31.8398H81.4688V25.7598Z" fill="#E6455D"/>
<path id="Vector_60" d="M92.877 21.1406H94.4023V23.418H92.877V21.1406Z" fill="#60474F"/>
<path id="Vector_61" d="M92.877 28.0371H94.4023V30.3145H92.877V28.0371Z" fill="#60474F"/>
<path id="Vector_62" d="M93.6289 21.1406H94.3809V23.418H93.6289V21.1406Z" fill="#3F303A"/>
<path id="Vector_63" d="M93.6289 28.0371H94.3809V30.3145H93.6289V28.0371Z" fill="#3F303A"/>
<path id="Vector_64" d="M91.3516 22.666V28.7891H95.9062V22.666H91.3516Z" fill="#FD697F"/>
<path id="Vector_65" d="M93.6289 22.666H95.9063V28.7891H93.6289V22.666Z" fill="#E6455D"/>
<path id="Vector_66" d="M86.7969 22.709H88.3223V24.9863H86.7969V22.709Z" fill="#60474F"/>
<path id="Vector_67" d="M86.7969 29.541H88.3223V31.8184H86.7969V29.541Z" fill="#60474F"/>
<path id="Vector_68" d="M87.5488 22.709H88.3008V24.9863H87.5488V22.709Z" fill="#3F303A"/>
<path id="Vector_69" d="M87.5488 29.541H88.3008V31.8184H87.5488V29.541Z" fill="#3F303A"/>
<path id="Vector_70" d="M85.2715 24.2344V30.3145H89.8262V24.2344H85.2715Z" fill="#8ADB53"/>
<path id="Vector_71" d="M87.5488 24.2344H89.8262V30.3145H87.5488V24.2344Z" fill="#4FC16E"/>
</g>
</g>
<g id="Group_8">
<path id="Vector_72" d="M45.375 79.1914V84.7559C45.375 87.0762 41.3145 88.3438 37.4687 88.3438C33.623 88.3438 29.5625 87.0762 29.5625 84.7559V79.1914C29.5625 78.8047 29.8848 78.4824 30.2715 78.4824H44.6445C45.0527 78.4824 45.3535 78.8047 45.3535 79.1914H45.375Z" fill="#444444"/>
<path id="Vector_73" d="M45.375 79.1914V84.7559C45.375 87.0762 41.3145 88.3438 37.4688 88.3438V78.4609H44.6445C45.0527 78.4609 45.3535 78.7832 45.3535 79.1699L45.375 79.1914Z" fill="#292929"/>
<path id="Vector_74" d="M49.7363 77.5801C49.7363 77.8809 49.543 78.1602 49.2852 78.2461L37.748 82.5645C37.6621 82.5859 37.5762 82.6074 37.4902 82.6074C37.4043 82.6074 37.3184 82.6074 37.2324 82.5645L25.6953 78.2461V76.8926L37.2324 72.5742C37.3184 72.5527 37.4043 72.5313 37.4902 72.5313C37.5762 72.5313 37.6621 72.5312 37.748 72.5742L49.2852 76.8926C49.5645 77 49.7363 77.2578 49.7363 77.5586V77.5801Z" fill="#6E6E6E"/>
<path id="Vector_75" d="M49.7363 77.5801C49.7363 77.8809 49.543 78.1602 49.2852 78.2461L37.748 82.5644C37.6621 82.5859 37.5762 82.6074 37.4902 82.6074V72.5527C37.5762 72.5527 37.6621 72.5527 37.748 72.5957L49.2852 76.9141C49.5645 77.0215 49.7363 77.2793 49.7363 77.5801Z" fill="#5A5A5A"/>
<path id="Vector_76" d="M38.1992 77.5801C38.1992 77.9883 37.877 78.2891 37.4902 78.2891H26.6621V88.9453L28.0586 93.1348C28.1875 93.5 27.9941 93.9297 27.6074 94.0371C27.2207 94.166 26.8125 93.9727 26.7051 93.5859L26.6621 93.457C26.5977 93.8008 26.2969 94.0801 25.9531 94.0801C25.6094 94.0801 25.2441 93.7578 25.2441 93.3711V77.5586C25.2441 77.1504 25.5664 76.8496 25.9531 76.8496H37.4902C37.8984 76.8496 38.1992 77.1719 38.1992 77.5586V77.5801Z" fill="#FDBF00"/>
</g>
</g>
<defs>
<clipPath id="clip0_1238_21477">
<rect width="110" height="110" fill="white"/>
</clipPath>
</defs>
</svg>
