<svg width="110" height="110" viewBox="0 0 110 110" fill="none" xmlns="http://www.w3.org/2000/svg">
<g id="diploma 1" clip-path="url(#clip0_1238_21387)">
<g id="Group">
<g id="Group_2">
<path id="Vector" d="M97.9683 87.7723C104.057 79.1843 107.637 68.692 107.637 57.3633C107.637 28.2928 84.0705 4.72656 55 4.72656C25.9295 4.72656 2.36328 28.2928 2.36328 57.3633C2.36328 68.692 5.94279 79.1843 12.0317 87.7723H97.9683Z" fill="#2A428C"/>
</g>
<g id="Group_3">
<path id="Vector_2" d="M97.9688 12.8906V87.7723C88.434 101.221 72.7418 110 55 110C37.2582 110 21.566 101.221 12.0312 87.7723V6.44531C12.0312 2.88535 14.9166 0 18.4766 0C23.4545 0 37.8318 2.18926 53.0148 4.76309C60.442 6.02422 68.0625 7.37559 74.8709 8.60664C87.9119 10.9678 97.9688 12.8906 97.9688 12.8906Z" fill="#E9EFFF"/>
</g>
<g id="Group_4">
<g id="Group_5">
<g id="Group_6">
<path id="Vector_3" d="M55.7241 99.7903C55.3485 99.7903 54.9704 99.7404 54.6004 99.6386C53.3204 99.2869 52.3102 98.3674 51.8287 97.1157L50.7199 94.2336C50.5137 93.6971 50.046 93.6294 49.8545 93.6249C49.667 93.6223 49.1932 93.6675 48.9629 94.194C48.6063 95.0094 47.6565 95.3817 46.8411 95.0248C46.0258 94.6682 45.6539 93.7182 46.0103 92.9031C46.691 91.3463 48.2215 90.3666 49.9271 90.4033C51.6257 90.4416 53.1176 91.4909 53.7277 93.0766L54.8365 95.9588C54.9798 96.3309 55.2516 96.4755 55.4544 96.5313C55.7543 96.6136 56.0833 96.553 56.3123 96.3728C57.3846 95.5284 58.783 95.0635 60.2502 95.0635H61.4355C62.3253 95.0635 63.0468 95.785 63.0468 96.6748C63.0468 97.5647 62.3253 98.2862 61.4355 98.2862H60.2502C59.5029 98.2862 58.8127 98.5057 58.3061 98.9047C57.57 99.4844 56.655 99.7903 55.7241 99.7903Z" fill="#2A428C"/>
</g>
</g>
<g id="Group_7">
<g id="Group_8">
<path id="Vector_4" d="M66.8106 98.2861C65.9208 98.2861 65.1982 97.5647 65.1982 96.6748C65.1982 95.7849 65.9186 95.0635 66.8085 95.0635H66.8106C67.7005 95.0635 68.422 95.7849 68.422 96.6748C68.422 97.5647 67.7005 98.2861 66.8106 98.2861Z" fill="#2A428C"/>
</g>
</g>
</g>
<g id="Group_9">
<path id="Vector_5" d="M97.9688 12.8906V21.4844H31.3672C27.8072 21.4844 24.9219 24.3697 24.9219 27.9297V100.564C19.9203 97.0771 15.5547 92.7438 12.0312 87.7723V6.44531C12.0312 4.66641 12.7531 3.05508 13.9197 1.88848C15.0863 0.721875 16.6977 0 18.4766 0C23.4545 0 37.8318 2.18926 53.0148 4.76309C60.442 6.02422 68.0625 7.37559 74.8709 8.60664C87.9119 10.9678 97.9688 12.8906 97.9688 12.8906Z" fill="#D3DCFB"/>
</g>
<g id="Group_10">
<g id="Group_11">
<g id="Group_12">
<path id="Vector_6" d="M74.873 58.2227H35.127C34.2371 58.2227 33.5156 57.5012 33.5156 56.6113C33.5156 55.7214 34.2371 55 35.127 55H74.873C75.7629 55 76.4844 55.7214 76.4844 56.6113C76.4844 57.5012 75.7629 58.2227 74.873 58.2227Z" fill="#D3DCFB"/>
</g>
<g id="Group_13">
<path id="Vector_7" d="M46.4062 56.6113C46.4062 55.7214 47.1277 55 48.0176 55H35.127C34.2371 55 33.5156 55.7214 33.5156 56.6113C33.5156 57.5012 34.2371 58.2227 35.127 58.2227H48.0176C47.1277 58.2227 46.4062 57.5012 46.4062 56.6113Z" fill="#BEC8F7"/>
</g>
</g>
<g id="Group_14">
<g id="Group_15">
<path id="Vector_8" d="M88.8379 65.7422H21.1621C20.2722 65.7422 19.5508 65.0207 19.5508 64.1309C19.5508 63.241 20.2722 62.5195 21.1621 62.5195H88.8379C89.7278 62.5195 90.4492 63.241 90.4492 64.1309C90.4492 65.0207 89.7278 65.7422 88.8379 65.7422Z" fill="#D3DCFB"/>
</g>
<g id="Group_16">
<path id="Vector_9" d="M32.4414 64.1309C32.4414 63.241 33.1629 62.5195 34.0527 62.5195H21.1621C20.2722 62.5195 19.5508 63.241 19.5508 64.1309C19.5508 65.0207 20.2722 65.7422 21.1621 65.7422H34.0527C33.1629 65.7422 32.4414 65.0207 32.4414 64.1309Z" fill="#BEC8F7"/>
</g>
</g>
<g id="Group_17">
<g id="Group_18">
<path id="Vector_10" d="M80.2441 73.2617H29.7559C28.866 73.2617 28.1445 72.5403 28.1445 71.6504C28.1445 70.7605 28.866 70.0391 29.7559 70.0391H80.2441C81.134 70.0391 81.8555 70.7605 81.8555 71.6504C81.8555 72.5403 81.134 73.2617 80.2441 73.2617Z" fill="#D3DCFB"/>
</g>
<g id="Group_19">
<path id="Vector_11" d="M41.0352 71.6504C41.0352 70.7605 41.7566 70.0391 42.6465 70.0391H29.7559C28.866 70.0391 28.1445 70.7605 28.1445 71.6504C28.1445 72.5403 28.866 73.2617 29.7559 73.2617H42.6465C41.7566 73.2617 41.0352 72.5403 41.0352 71.6504Z" fill="#BEC8F7"/>
</g>
</g>
<g id="Group_20">
<g id="Group_21">
<path id="Vector_12" d="M80.2441 80.7812H29.7559C28.866 80.7812 28.1445 80.0598 28.1445 79.1699C28.1445 78.28 28.866 77.5586 29.7559 77.5586H80.2441C81.134 77.5586 81.8555 78.28 81.8555 79.1699C81.8555 80.0598 81.134 80.7812 80.2441 80.7812Z" fill="#D3DCFB"/>
</g>
<g id="Group_22">
<path id="Vector_13" d="M41.0352 79.1699C41.0352 78.28 41.7566 77.5586 42.6465 77.5586H29.7559C28.866 77.5586 28.1445 78.28 28.1445 79.1699C28.1445 80.0598 28.866 80.7812 29.7559 80.7812H42.6465C41.7566 80.7812 41.0352 80.0598 41.0352 79.1699Z" fill="#BEC8F7"/>
</g>
</g>
</g>
<g id="Group_23">
<path id="Vector_14" d="M82.9297 44.4727H30.293C28.5132 44.4727 27.0703 43.0298 27.0703 41.25C27.0703 39.4702 28.5132 38.0273 30.293 38.0273H82.9297V44.4727Z" fill="#D3DCFB"/>
</g>
<g id="Group_24">
<path id="Vector_15" d="M39.9609 41.25C39.9609 39.4702 41.4038 38.0273 43.1836 38.0273H30.293C28.5132 38.0273 27.0703 39.4702 27.0703 41.25C27.0703 43.0298 28.5132 44.4727 30.293 44.4727H43.1836C41.4038 44.4727 39.9609 43.0298 39.9609 41.25Z" fill="#BEC8F7"/>
</g>
<g id="Group_25">
<path id="Vector_16" d="M55 41.25C60.9327 41.25 65.7422 36.4406 65.7422 30.5078C65.7422 24.5751 60.9327 19.7656 55 19.7656C49.0673 19.7656 44.2578 24.5751 44.2578 30.5078C44.2578 36.4406 49.0673 41.25 55 41.25Z" fill="white"/>
</g>
<g id="Group_26">
<path id="Vector_17" d="M55 38.0273C59.1529 38.0273 62.5195 34.6607 62.5195 30.5078C62.5195 26.3549 59.1529 22.9883 55 22.9883C50.8471 22.9883 47.4805 26.3549 47.4805 30.5078C47.4805 34.6607 50.8471 38.0273 55 38.0273Z" fill="#E9EFFF"/>
</g>
<g id="Group_27">
<path id="Vector_18" d="M52.8516 30.5078C52.8516 27.6055 54.0046 24.9739 55.8751 23.0409C55.5876 23.0074 55.2961 22.9883 55 22.9883C50.8537 22.9883 47.4805 26.3615 47.4805 30.5078C47.4805 34.6541 50.8537 38.0273 55 38.0273C55.2961 38.0273 55.5876 38.0082 55.8751 37.9747C54.0046 36.0418 52.8516 33.4101 52.8516 30.5078Z" fill="#D3DCFB"/>
</g>
<g id="Group_28">
<path id="Vector_19" d="M97.9688 0C101.528 0 104.414 2.88557 104.414 6.44531C104.414 10.0051 101.528 12.8906 97.9688 12.8906H31.3672C27.8074 12.8906 24.9219 10.0051 24.9219 6.44531C24.9219 2.88557 22.0363 0 18.4766 0H97.9688Z" fill="#E9EFFF"/>
</g>
<g id="Group_29">
<g id="Group_30">
<path id="Vector_20" d="M86.5107 68.8154V87.6656L89.7856 89.3031C91.5712 90.196 93.6721 88.8975 93.6721 86.9012V68.8156H86.5107V68.8154Z" fill="#FF4155"/>
</g>
<g id="Group_31">
<path id="Vector_21" d="M86.5107 68.8154V83.306C86.5107 81.3284 88.1139 79.7252 90.0915 79.7252C92.0692 79.7252 93.6723 81.3284 93.6723 83.306V68.8154H86.5107Z" fill="#E80054"/>
</g>
<g id="Group_32">
<path id="Vector_22" d="M80.5273 87.0763C82.0393 86.3203 83.8191 86.3203 85.3314 87.0763L86.51 87.6656V68.8154H79.3486V87.6656L80.5273 87.0763Z" fill="#E80054"/>
</g>
<g id="Group_33">
<path id="Vector_23" d="M79.3486 68.8154V83.306C79.3486 81.3284 80.9518 79.7252 82.9294 79.7252C84.9071 79.7252 86.5102 81.3284 86.5102 83.306V68.8154H79.3486Z" fill="#C90052"/>
</g>
<g id="Group_34">
<path id="Vector_24" d="M76.074 89.3031L79.3489 87.6656V68.8154H72.1875V86.901C72.1875 88.8975 74.2885 90.196 76.074 89.3031Z" fill="#FF4155"/>
</g>
<g id="Group_35">
<path id="Vector_25" d="M72.1875 68.8154V83.306C72.1875 81.3284 73.7907 79.7252 75.7683 79.7252C77.7459 79.7252 79.3491 81.3284 79.3491 83.306V68.8154H72.1875Z" fill="#E80054"/>
</g>
</g>
<g id="Group_36">
<g id="Group_37">
<path id="Vector_26" d="M82.9297 76.6992C93.6086 76.6992 102.266 68.0422 102.266 57.3633C102.266 46.6843 93.6086 38.0273 82.9297 38.0273C72.2507 38.0273 63.5938 46.6843 63.5938 57.3633C63.5938 68.0422 72.2507 76.6992 82.9297 76.6992Z" fill="#FFE98D"/>
</g>
<g id="Group_38">
<path id="Vector_27" d="M81.3184 75.0879C81.3184 74.1995 82.0411 73.4766 82.9297 73.4766V41.25C82.0411 41.25 81.3184 40.5271 81.3184 39.6387C81.3184 38.7503 82.0411 38.0273 82.9297 38.0273C72.2507 38.0273 63.5938 46.6843 63.5938 57.3633C63.5938 68.0423 72.2507 76.6992 82.9297 76.6992C82.0413 76.6992 81.3184 75.9763 81.3184 75.0879Z" fill="#FFDD40"/>
</g>
<g id="Group_39">
<path id="Vector_28" d="M82.9297 73.4766C91.8288 73.4766 99.043 66.2624 99.043 57.3633C99.043 48.4642 91.8288 41.25 82.9297 41.25C74.0306 41.25 66.8164 48.4642 66.8164 57.3633C66.8164 66.2624 74.0306 73.4766 82.9297 73.4766Z" fill="#FFDD40"/>
</g>
<g id="Group_40">
<path id="Vector_29" d="M82.9297 71.8652C90.9389 71.8652 97.4316 65.3725 97.4316 57.3633C97.4316 49.3541 90.9389 42.8613 82.9297 42.8613C74.9205 42.8613 68.4277 49.3541 68.4277 57.3633C68.4277 65.3725 74.9205 71.8652 82.9297 71.8652Z" fill="#FF9100"/>
</g>
<g id="Group_41">
<path id="Vector_30" d="M82.9297 68.1055C88.8624 68.1055 93.6719 63.296 93.6719 57.3633C93.6719 51.4305 88.8624 46.6211 82.9297 46.6211C76.9969 46.6211 72.1875 51.4305 72.1875 57.3633C72.1875 63.296 76.9969 68.1055 82.9297 68.1055Z" fill="#FFB332"/>
</g>
<g id="Group_42">
<path id="Vector_31" d="M84.1267 45.9443L87.0545 51.877L93.6017 52.8283C94.6965 52.9875 95.1337 54.3329 94.3414 55.1052L89.6039 59.7231L90.7224 66.2438C90.9095 67.3344 89.7648 68.1658 88.7855 67.651L82.9295 64.5723L77.0738 67.651C76.0945 68.1658 74.9498 67.3344 75.1369 66.2438L76.2554 59.7231L71.5179 55.1052C70.7256 54.3329 71.1628 52.9875 72.2576 52.8283L78.8048 51.877L81.7326 45.9443C82.2223 44.9522 83.637 44.9522 84.1267 45.9443Z" fill="#FFE98D"/>
</g>
<g id="Group_43">
<path id="Vector_32" d="M82.9297 45.2002C82.4536 45.2002 81.9775 45.4481 81.7326 45.9442L78.8047 51.8771L82.9297 56.2144V45.2002Z" fill="#FFDD40"/>
</g>
<g id="Group_44">
<path id="Vector_33" d="M71.239 53.5898C71.0184 54.0711 71.0779 54.6765 71.5181 55.1056L76.2556 59.7234L82.93 56.2146L71.239 53.5898Z" fill="#FFDD40"/>
</g>
<g id="Group_45">
<path id="Vector_34" d="M75.5986 67.4959C75.9877 67.8186 76.554 67.9247 77.0737 67.6514L82.9295 64.5729V56.2148L75.5986 67.4959Z" fill="#FFDD40"/>
</g>
<g id="Group_46">
<path id="Vector_35" d="M90.2606 67.4951C90.6046 67.2098 90.8102 66.7552 90.7223 66.2434L89.6038 59.7229L82.9297 56.2139L90.2606 67.4951Z" fill="#FFDD40"/>
</g>
<g id="Group_47">
<path id="Vector_36" d="M94.6206 53.5895C94.444 53.2045 94.0885 52.899 93.6018 52.8283L87.0547 51.877L82.9297 56.2142L94.6206 53.5895Z" fill="#FFDD40"/>
</g>
</g>
</g>
</g>
<defs>
<clipPath id="clip0_1238_21387">
<rect width="110" height="110" fill="white"/>
</clipPath>
</defs>
</svg>
