<svg width="17" height="18" viewBox="0 0 17 18" fill="none" xmlns="http://www.w3.org/2000/svg">
<g id="Group">
<path id="Vector" d="M15.9859 15.9613C14.1304 13.2539 12.2733 10.5473 10.4169 7.84044C10.3927 7.80518 10.3705 7.76847 10.3403 7.72163C10.6654 7.34258 10.9889 6.96515 11.3128 6.58791C12.9961 4.62737 14.6796 2.66665 16.3629 0.705928C16.3734 0.693631 16.3817 0.679706 16.3911 0.666504H14.9616C13.2144 2.70101 11.4671 4.7357 9.69211 6.80257C9.67077 6.76405 9.65558 6.73096 9.63533 6.70148C8.2723 4.71327 6.90891 2.72542 5.54588 0.737214C5.53087 0.715151 5.5202 0.690195 5.50736 0.666504H0.666504C0.70846 0.735225 0.747161 0.806116 0.792553 0.872305C2.83845 3.85661 4.88489 6.84055 6.93133 9.82467C6.95267 9.85578 6.97311 9.88761 7.00295 9.93264C6.83675 10.1276 6.66965 10.3245 6.50128 10.5206C4.5988 12.7361 2.69613 14.9514 0.793819 17.1672C0.748607 17.22 0.708822 17.2777 0.666504 17.3332H2.09608C2.74351 16.5756 3.38967 15.817 4.03836 15.0605C5.19161 13.7156 6.34648 12.3717 7.50063 11.0277C7.54277 10.9785 7.58617 10.9305 7.63645 10.8732C7.669 10.9126 7.69794 10.943 7.72145 10.9772C9.15229 13.0632 10.5828 15.1495 12.0131 17.2361C12.0342 17.267 12.0512 17.3008 12.0702 17.3332H16.9109C16.6027 16.8758 16.2977 16.4163 15.9859 15.9613ZM14.7675 16.2971C14.1505 16.2977 13.5334 16.2944 12.9164 16.3002C12.8016 16.3011 12.7308 16.2684 12.6638 16.1723C9.34959 11.4176 6.03271 6.66441 2.71638 1.91108C2.68582 1.86731 2.65797 1.82156 2.60914 1.74669C3.21443 1.74669 3.78807 1.76948 4.35881 1.73801C4.69645 1.71938 4.88254 1.8382 5.07369 2.11344C8.31208 6.77581 11.5633 11.4293 14.8116 16.0848C14.8538 16.1452 14.8945 16.2065 14.9498 16.2875C14.8704 16.2919 14.8191 16.2969 14.7675 16.2971Z" fill="#555555"/>
</g>
</svg>
