<svg width="965" height="224" viewBox="0 0 965 224" fill="none" xmlns="http://www.w3.org/2000/svg">
<g filter="url(#filter0_d_1661_3609)">
<rect x="10" y="4" width="945" height="94" rx="8" fill="white"/>
<rect x="10.5" y="4.5" width="944" height="93" rx="7.5" stroke="#E5EAF4"/>
</g>
<path d="M917.105 55.6287L921.886 50.8475C922.217 50.517 922.217 49.9826 921.883 49.6521L917.102 44.8709C916.775 44.5404 916.24 44.5404 915.91 44.8709L915.119 45.6725C914.788 45.9994 914.788 46.5338 915.119 46.8643L918.508 50.2533L915.119 53.6424C914.788 53.9693 914.788 54.5037 915.119 54.8342L915.913 55.6287C916.24 55.9592 916.775 55.9592 917.105 55.6287Z" fill="#1E47A1"/>
<path d="M48.68 45.32C47.84 45.32 47.0733 45.1867 46.38 44.92C45.7 44.64 45.12 44.24 44.64 43.72C44.16 43.2 43.7867 42.5733 43.52 41.84C43.2533 41.0933 43.12 40.2467 43.12 39.3V30.68H45.82V39.46C45.82 39.94 45.88 40.38 46 40.78C46.12 41.18 46.3 41.5267 46.54 41.82C46.78 42.1133 47.08 42.3467 47.44 42.52C47.8 42.68 48.2133 42.76 48.68 42.76C49.16 42.76 49.58 42.68 49.94 42.52C50.3 42.3467 50.6 42.1133 50.84 41.82C51.08 41.5267 51.26 41.18 51.38 40.78C51.5 40.38 51.56 39.94 51.56 39.46V30.68H54.26V39.3C54.26 40.1933 54.1267 41.0133 53.86 41.76C53.6067 42.4933 53.2333 43.1267 52.74 43.66C52.26 44.18 51.6733 44.5867 50.98 44.88C50.3 45.1733 49.5333 45.32 48.68 45.32ZM60.3989 37.52L56.0589 30.68H59.3989L62.1789 35.36H62.3389L65.1189 30.68H68.4589L64.1189 37.52L68.8189 45H65.4589L62.3389 39.84H62.1789L59.0589 45H55.6989L60.3989 37.52ZM74.983 30.68H79.823C80.9563 30.68 81.9763 30.8533 82.883 31.2C83.7896 31.5467 84.563 32.04 85.203 32.68C85.843 33.3067 86.3296 34.06 86.663 34.94C87.0096 35.82 87.183 36.7867 87.183 37.84C87.183 38.9067 87.0096 39.88 86.663 40.76C86.3296 41.64 85.843 42.3933 85.203 43.02C84.563 43.6467 83.7896 44.1333 82.883 44.48C81.9763 44.8267 80.9563 45 79.823 45H74.983V30.68ZM79.703 42.44C80.4896 42.44 81.183 42.3333 81.783 42.12C82.383 41.8933 82.883 41.58 83.283 41.18C83.683 40.78 83.983 40.3 84.183 39.74C84.383 39.1667 84.483 38.5333 84.483 37.84C84.483 37.1467 84.383 36.52 84.183 35.96C83.983 35.3867 83.683 34.9 83.283 34.5C82.883 34.1 82.383 33.7933 81.783 33.58C81.183 33.3533 80.4896 33.24 79.703 33.24H77.683V42.44H79.703ZM98.025 42.64C97.5717 43.44 96.9583 44.0867 96.185 44.58C95.425 45.0733 94.4917 45.32 93.385 45.32C92.6383 45.32 91.945 45.1933 91.305 44.94C90.6783 44.6733 90.1317 44.3067 89.665 43.84C89.1983 43.3733 88.8317 42.8267 88.565 42.2C88.3117 41.56 88.185 40.86 88.185 40.1C88.185 39.3933 88.3117 38.7267 88.565 38.1C88.8183 37.46 89.1717 36.9067 89.625 36.44C90.0783 35.96 90.6117 35.58 91.225 35.3C91.8517 35.02 92.5383 34.88 93.285 34.88C94.0717 34.88 94.7717 35.0133 95.385 35.28C95.9983 35.5333 96.5117 35.8933 96.925 36.36C97.3383 36.8133 97.6517 37.3533 97.865 37.98C98.0783 38.6067 98.185 39.2867 98.185 40.02C98.185 40.1133 98.185 40.1933 98.185 40.26C98.1717 40.34 98.165 40.4133 98.165 40.48C98.1517 40.5467 98.145 40.62 98.145 40.7H90.765C90.8183 41.1 90.925 41.4467 91.085 41.74C91.2583 42.02 91.465 42.26 91.705 42.46C91.9583 42.6467 92.2317 42.7867 92.525 42.88C92.8183 42.96 93.1183 43 93.425 43C94.025 43 94.5183 42.8667 94.905 42.6C95.305 42.32 95.6183 41.9733 95.845 41.56L98.025 42.64ZM95.645 38.84C95.6317 38.6667 95.5717 38.4733 95.465 38.26C95.3717 38.0467 95.225 37.8467 95.025 37.66C94.8383 37.4733 94.5983 37.32 94.305 37.2C94.025 37.08 93.685 37.02 93.285 37.02C92.725 37.02 92.2317 37.18 91.805 37.5C91.3783 37.82 91.0783 38.2667 90.905 38.84H95.645ZM103.836 45.32C103.196 45.32 102.623 45.24 102.116 45.08C101.623 44.92 101.189 44.7133 100.816 44.46C100.456 44.1933 100.149 43.8933 99.8959 43.56C99.6426 43.2133 99.4493 42.8667 99.3159 42.52L101.656 41.52C101.883 42.0267 102.183 42.4067 102.556 42.66C102.943 42.9 103.369 43.02 103.836 43.02C104.316 43.02 104.696 42.9333 104.976 42.76C105.256 42.5867 105.396 42.38 105.396 42.14C105.396 41.8733 105.276 41.66 105.036 41.5C104.809 41.3267 104.409 41.1733 103.836 41.04L102.456 40.74C102.149 40.6733 101.829 40.5667 101.496 40.42C101.176 40.2733 100.883 40.0867 100.616 39.86C100.349 39.6333 100.129 39.36 99.9559 39.04C99.7826 38.72 99.6959 38.3467 99.6959 37.92C99.6959 37.44 99.7959 37.0133 99.9959 36.64C100.209 36.2667 100.496 35.9533 100.856 35.7C101.216 35.4333 101.636 35.2333 102.116 35.1C102.609 34.9533 103.136 34.88 103.696 34.88C104.629 34.88 105.463 35.0667 106.196 35.44C106.929 35.8 107.469 36.38 107.816 37.18L105.556 38.1C105.369 37.7133 105.096 37.4333 104.736 37.26C104.376 37.0867 104.016 37 103.656 37C103.283 37 102.956 37.08 102.676 37.24C102.396 37.3867 102.256 37.58 102.256 37.82C102.256 38.0467 102.369 38.2267 102.596 38.36C102.836 38.4933 103.156 38.6133 103.556 38.72L105.056 39.08C106.056 39.32 106.796 39.7067 107.276 40.24C107.769 40.76 108.016 41.38 108.016 42.1C108.016 42.5267 107.916 42.9333 107.716 43.32C107.516 43.7067 107.229 44.0533 106.856 44.36C106.496 44.6533 106.056 44.8867 105.536 45.06C105.029 45.2333 104.463 45.32 103.836 45.32ZM110.986 33.78C110.76 33.78 110.54 33.74 110.326 33.66C110.126 33.5667 109.946 33.4467 109.786 33.3C109.64 33.14 109.52 32.96 109.426 32.76C109.346 32.56 109.306 32.34 109.306 32.1C109.306 31.86 109.346 31.64 109.426 31.44C109.52 31.24 109.64 31.0667 109.786 30.92C109.946 30.76 110.126 30.64 110.326 30.56C110.54 30.4667 110.76 30.42 110.986 30.42C111.453 30.42 111.853 30.5867 112.186 30.92C112.52 31.24 112.686 31.6333 112.686 32.1C112.686 32.5667 112.52 32.9667 112.186 33.3C111.853 33.62 111.453 33.78 110.986 33.78ZM109.686 45V35.2H112.306V45H109.686ZM119.124 49.64C118.431 49.64 117.811 49.5467 117.264 49.36C116.731 49.1867 116.264 48.9533 115.864 48.66C115.464 48.38 115.131 48.0667 114.864 47.72C114.598 47.3733 114.404 47.0267 114.284 46.68L116.784 45.68C116.971 46.2 117.278 46.6 117.704 46.88C118.131 47.1733 118.604 47.32 119.124 47.32C119.951 47.32 120.604 47.06 121.084 46.54C121.564 46.0333 121.804 45.32 121.804 44.4V43.72H121.644C121.338 44.1467 120.931 44.4867 120.424 44.74C119.931 44.98 119.344 45.1 118.664 45.1C118.078 45.1 117.504 44.98 116.944 44.74C116.398 44.5 115.911 44.16 115.484 43.72C115.058 43.2667 114.711 42.7267 114.444 42.1C114.178 41.4733 114.044 40.7733 114.044 40C114.044 39.2267 114.178 38.5267 114.444 37.9C114.711 37.26 115.058 36.72 115.484 36.28C115.911 35.8267 116.398 35.48 116.944 35.24C117.504 35 118.078 34.88 118.664 34.88C119.344 34.88 119.931 35.0067 120.424 35.26C120.931 35.5 121.338 35.8333 121.644 36.26H121.804V35.2H124.304V44.3C124.304 45.1267 124.178 45.8667 123.924 46.52C123.671 47.1867 123.318 47.7467 122.864 48.2C122.411 48.6667 121.864 49.02 121.224 49.26C120.598 49.5133 119.898 49.64 119.124 49.64ZM119.224 42.74C119.544 42.74 119.858 42.68 120.164 42.56C120.484 42.44 120.764 42.2667 121.004 42.04C121.244 41.8 121.438 41.5133 121.584 41.18C121.731 40.8333 121.804 40.44 121.804 40C121.804 39.56 121.731 39.1667 121.584 38.82C121.438 38.4733 121.244 38.1867 121.004 37.96C120.764 37.72 120.484 37.54 120.164 37.42C119.858 37.3 119.544 37.24 119.224 37.24C118.904 37.24 118.591 37.3 118.284 37.42C117.978 37.54 117.704 37.72 117.464 37.96C117.224 38.2 117.031 38.4933 116.884 38.84C116.738 39.1733 116.664 39.56 116.664 40C116.664 40.44 116.738 40.8333 116.884 41.18C117.031 41.5133 117.224 41.8 117.464 42.04C117.704 42.2667 117.978 42.44 118.284 42.56C118.591 42.68 118.904 42.74 119.224 42.74ZM128.998 36.48H129.158C129.465 35.9867 129.878 35.6 130.398 35.32C130.918 35.0267 131.511 34.88 132.178 34.88C132.791 34.88 133.331 34.98 133.798 35.18C134.265 35.38 134.645 35.6667 134.938 36.04C135.245 36.4 135.471 36.84 135.618 37.36C135.778 37.8667 135.858 38.4333 135.858 39.06V45H133.238V39.38C133.238 38.6733 133.078 38.1533 132.758 37.82C132.451 37.4733 131.998 37.3 131.398 37.3C131.038 37.3 130.718 37.38 130.438 37.54C130.171 37.6867 129.938 37.8933 129.738 38.16C129.551 38.4133 129.405 38.72 129.298 39.08C129.205 39.4267 129.158 39.8 129.158 40.2V45H126.538V35.2H128.998V36.48ZM147.302 42.64C146.849 43.44 146.236 44.0867 145.462 44.58C144.702 45.0733 143.769 45.32 142.662 45.32C141.916 45.32 141.222 45.1933 140.582 44.94C139.956 44.6733 139.409 44.3067 138.942 43.84C138.476 43.3733 138.109 42.8267 137.842 42.2C137.589 41.56 137.462 40.86 137.462 40.1C137.462 39.3933 137.589 38.7267 137.842 38.1C138.096 37.46 138.449 36.9067 138.902 36.44C139.356 35.96 139.889 35.58 140.502 35.3C141.129 35.02 141.816 34.88 142.562 34.88C143.349 34.88 144.049 35.0133 144.662 35.28C145.276 35.5333 145.789 35.8933 146.202 36.36C146.616 36.8133 146.929 37.3533 147.142 37.98C147.356 38.6067 147.462 39.2867 147.462 40.02C147.462 40.1133 147.462 40.1933 147.462 40.26C147.449 40.34 147.442 40.4133 147.442 40.48C147.429 40.5467 147.422 40.62 147.422 40.7H140.042C140.096 41.1 140.202 41.4467 140.362 41.74C140.536 42.02 140.742 42.26 140.982 42.46C141.236 42.6467 141.509 42.7867 141.802 42.88C142.096 42.96 142.396 43 142.702 43C143.302 43 143.796 42.8667 144.182 42.6C144.582 42.32 144.896 41.9733 145.122 41.56L147.302 42.64ZM144.922 38.84C144.909 38.6667 144.849 38.4733 144.742 38.26C144.649 38.0467 144.502 37.8467 144.302 37.66C144.116 37.4733 143.876 37.32 143.582 37.2C143.302 37.08 142.962 37.02 142.562 37.02C142.002 37.02 141.509 37.18 141.082 37.5C140.656 37.82 140.356 38.2667 140.182 38.84H144.922ZM149.136 35.2H151.596V36.56H151.756C151.876 36.32 152.036 36.1 152.236 35.9C152.436 35.7 152.656 35.5267 152.896 35.38C153.149 35.2333 153.416 35.12 153.696 35.04C153.989 34.96 154.276 34.92 154.556 34.92C154.902 34.92 155.196 34.9533 155.436 35.02C155.689 35.0867 155.902 35.1733 156.076 35.28L155.376 37.66C155.216 37.58 155.036 37.52 154.836 37.48C154.649 37.4267 154.416 37.4 154.136 37.4C153.776 37.4 153.449 37.4733 153.156 37.62C152.862 37.7533 152.609 37.9467 152.396 38.2C152.196 38.4533 152.036 38.7533 151.916 39.1C151.809 39.4333 151.756 39.8 151.756 40.2V45H149.136V35.2Z" fill="#1E47A1"/>
<path d="M47.726 73.224C46.242 73.224 45.0007 72.7247 44.002 71.726C43.0127 70.7273 42.518 69.4813 42.518 67.988C42.518 66.4947 43.0127 65.2533 44.002 64.264C44.9913 63.256 46.2327 62.752 47.726 62.752C49.238 62.752 50.4653 63.298 51.408 64.39L50.484 65.286C49.7653 64.418 48.846 63.984 47.726 63.984C46.6153 63.984 45.6867 64.3573 44.94 65.104C44.2027 65.8413 43.834 66.8027 43.834 67.988C43.834 69.1733 44.2027 70.1347 44.94 70.872C45.6867 71.6187 46.6153 71.992 47.726 71.992C48.8927 71.992 49.9053 71.502 50.764 70.522L51.702 71.432C51.226 72.0013 50.6427 72.4447 49.952 72.762C49.2613 73.07 48.5193 73.224 47.726 73.224ZM53.6478 70.9C53.6478 71.236 53.7878 71.516 54.0678 71.74C54.3571 71.964 54.6931 72.076 55.0758 72.076C55.6171 72.076 56.0978 71.8753 56.5178 71.474C56.9471 71.0727 57.1618 70.6013 57.1618 70.06C56.7604 69.7427 56.2004 69.584 55.4818 69.584C54.9591 69.584 54.5204 69.71 54.1658 69.962C53.8204 70.214 53.6478 70.5267 53.6478 70.9ZM55.3138 65.916C56.2658 65.916 57.0171 66.1727 57.5678 66.686C58.1184 67.19 58.3938 67.8853 58.3938 68.772V73H57.1618V72.048H57.1058C56.5738 72.832 55.8644 73.224 54.9778 73.224C54.2218 73.224 53.5871 73 53.0738 72.552C52.5698 72.104 52.3178 71.544 52.3178 70.872C52.3178 70.1627 52.5838 69.598 53.1158 69.178C53.6571 68.758 54.3758 68.548 55.2718 68.548C56.0371 68.548 56.6671 68.688 57.1618 68.968V68.674C57.1618 68.226 56.9844 67.848 56.6298 67.54C56.2751 67.2227 55.8598 67.064 55.3838 67.064C54.6651 67.064 54.0958 67.3673 53.6758 67.974L52.5418 67.26C53.1671 66.364 54.0911 65.916 55.3138 65.916ZM61.1345 62.976V73H59.8465V62.976H61.1345ZM64.3699 63.774C64.3699 64.026 64.2813 64.2407 64.1039 64.418C63.9266 64.5953 63.7119 64.684 63.4599 64.684C63.2079 64.684 62.9933 64.5953 62.8159 64.418C62.6386 64.2407 62.5499 64.026 62.5499 63.774C62.5499 63.522 62.6386 63.3073 62.8159 63.13C62.9933 62.9527 63.2079 62.864 63.4599 62.864C63.7119 62.864 63.9266 62.9527 64.1039 63.13C64.2813 63.3073 64.3699 63.522 64.3699 63.774ZM64.1039 66.14V73H62.8159V66.14H64.1039ZM68.8477 73.224C67.8304 73.224 66.9857 72.8787 66.3137 72.188C65.6511 71.4787 65.3197 70.606 65.3197 69.57C65.3197 68.5153 65.6511 67.6427 66.3137 66.952C66.9857 66.2613 67.8304 65.916 68.8477 65.916C69.5477 65.916 70.1591 66.0933 70.6817 66.448C71.2044 66.7933 71.5964 67.274 71.8577 67.89L70.6817 68.38C70.3177 67.5213 69.6784 67.092 68.7637 67.092C68.1757 67.092 67.6671 67.33 67.2377 67.806C66.8177 68.282 66.6077 68.87 66.6077 69.57C66.6077 70.27 66.8177 70.858 67.2377 71.334C67.6671 71.81 68.1757 72.048 68.7637 72.048C69.7064 72.048 70.3691 71.6187 70.7517 70.76L71.8997 71.25C71.6477 71.866 71.2511 72.3513 70.7097 72.706C70.1777 73.0513 69.5571 73.224 68.8477 73.224ZM79.0462 73H77.8142V72.048H77.7582C77.5622 72.384 77.2589 72.664 76.8482 72.888C76.4469 73.112 76.0269 73.224 75.5882 73.224C74.7482 73.224 74.0995 72.986 73.6422 72.51C73.1942 72.0247 72.9702 71.3387 72.9702 70.452V66.14H74.2582V70.368C74.2862 71.488 74.8509 72.048 75.9522 72.048C76.4655 72.048 76.8949 71.8427 77.2402 71.432C77.5855 71.012 77.7582 70.5127 77.7582 69.934V66.14H79.0462V73ZM83.3984 73.112C82.8384 73.112 82.3718 72.9393 81.9984 72.594C81.6344 72.2487 81.4478 71.768 81.4384 71.152V67.316H80.2344V66.14H81.4384V64.04H82.7264V66.14H84.4064V67.316H82.7264V70.732C82.7264 71.1893 82.8151 71.502 82.9924 71.67C83.1698 71.8287 83.3704 71.908 83.5944 71.908C83.6971 71.908 83.7951 71.8987 83.8884 71.88C83.9911 71.852 84.0844 71.8193 84.1684 71.782L84.5744 72.93C84.2384 73.0513 83.8464 73.112 83.3984 73.112ZM86.0657 74.568L85.4637 74.176L86.2197 73C86.0237 72.9627 85.8557 72.8647 85.7157 72.706C85.585 72.5473 85.5197 72.356 85.5197 72.132C85.5197 71.8613 85.613 71.6373 85.7997 71.46C85.9863 71.2733 86.2103 71.18 86.4717 71.18C86.7423 71.18 86.9663 71.2733 87.1437 71.46C87.3303 71.6373 87.4237 71.8613 87.4237 72.132C87.4237 72.384 87.3303 72.6593 87.1437 72.958L86.0657 74.568ZM97.9397 62.976H99.6057V63.032L95.8817 67.33L99.8577 72.944V73H98.2757L95.0137 68.324L93.4737 70.102V73H92.1857V62.976H93.4737V68.142H93.5297L97.9397 62.976ZM103.477 73.224C102.469 73.224 101.639 72.8787 100.985 72.188C100.332 71.4973 100.005 70.6247 100.005 69.57C100.005 68.5247 100.323 67.6567 100.957 66.966C101.592 66.266 102.404 65.916 103.393 65.916C104.411 65.916 105.218 66.2473 105.815 66.91C106.422 67.5633 106.725 68.4827 106.725 69.668L106.711 69.808H101.321C101.34 70.48 101.564 71.0213 101.993 71.432C102.423 71.8427 102.936 72.048 103.533 72.048C104.355 72.048 104.999 71.6373 105.465 70.816L106.613 71.376C106.305 71.9547 105.876 72.4073 105.325 72.734C104.784 73.0607 104.168 73.224 103.477 73.224ZM101.419 68.744H105.353C105.316 68.268 105.12 67.876 104.765 67.568C104.42 67.2507 103.953 67.092 103.365 67.092C102.88 67.092 102.46 67.2413 102.105 67.54C101.76 67.8387 101.531 68.24 101.419 68.744ZM109.191 73H107.903V66.14H109.135V67.26H109.191C109.322 66.896 109.588 66.588 109.989 66.336C110.4 66.0747 110.801 65.944 111.193 65.944C111.566 65.944 111.884 66 112.145 66.112L111.753 67.358C111.594 67.2927 111.342 67.26 110.997 67.26C110.512 67.26 110.087 67.456 109.723 67.848C109.368 68.24 109.191 68.6973 109.191 69.22V73ZM113.654 70.9C113.654 71.236 113.794 71.516 114.074 71.74C114.363 71.964 114.699 72.076 115.082 72.076C115.623 72.076 116.104 71.8753 116.524 71.474C116.953 71.0727 117.168 70.6013 117.168 70.06C116.766 69.7427 116.206 69.584 115.488 69.584C114.965 69.584 114.526 69.71 114.172 69.962C113.826 70.214 113.654 70.5267 113.654 70.9ZM115.32 65.916C116.272 65.916 117.023 66.1727 117.574 66.686C118.124 67.19 118.4 67.8853 118.4 68.772V73H117.168V72.048H117.112C116.58 72.832 115.87 73.224 114.984 73.224C114.228 73.224 113.593 73 113.08 72.552C112.576 72.104 112.324 71.544 112.324 70.872C112.324 70.1627 112.59 69.598 113.122 69.178C113.663 68.758 114.382 68.548 115.278 68.548C116.043 68.548 116.673 68.688 117.168 68.968V68.674C117.168 68.226 116.99 67.848 116.636 67.54C116.281 67.2227 115.866 67.064 115.39 67.064C114.671 67.064 114.102 67.3673 113.682 67.974L112.548 67.26C113.173 66.364 114.097 65.916 115.32 65.916ZM121.14 62.976V73H119.852V62.976H121.14ZM123.579 70.9C123.579 71.236 123.719 71.516 123.999 71.74C124.289 71.964 124.625 72.076 125.007 72.076C125.549 72.076 126.029 71.8753 126.449 71.474C126.879 71.0727 127.093 70.6013 127.093 70.06C126.692 69.7427 126.132 69.584 125.413 69.584C124.891 69.584 124.452 69.71 124.097 69.962C123.752 70.214 123.579 70.5267 123.579 70.9ZM125.245 65.916C126.197 65.916 126.949 66.1727 127.499 66.686C128.05 67.19 128.325 67.8853 128.325 68.772V73H127.093V72.048H127.037C126.505 72.832 125.796 73.224 124.909 73.224C124.153 73.224 123.519 73 123.005 72.552C122.501 72.104 122.249 71.544 122.249 70.872C122.249 70.1627 122.515 69.598 123.047 69.178C123.589 68.758 124.307 68.548 125.203 68.548C125.969 68.548 126.599 68.688 127.093 68.968V68.674C127.093 68.226 126.916 67.848 126.561 67.54C126.207 67.2227 125.791 67.064 125.315 67.064C124.597 67.064 124.027 67.3673 123.607 67.974L122.473 67.26C123.099 66.364 124.023 65.916 125.245 65.916Z" fill="#5A7184"/>
<g filter="url(#filter1_d_1661_3609)">
<rect x="10" y="114" width="945" height="94" rx="8" fill="white"/>
<rect x="10.5" y="114.5" width="944" height="93" rx="7.5" stroke="#E5EAF4"/>
</g>
<path d="M917.105 165.629L921.886 160.847C922.217 160.517 922.217 159.983 921.883 159.652L917.102 154.871C916.775 154.54 916.24 154.54 915.91 154.871L915.119 155.672C914.788 155.999 914.788 156.534 915.119 156.864L918.508 160.253L915.119 163.642C914.788 163.969 914.788 164.504 915.119 164.834L915.913 165.629C916.24 165.959 916.775 165.959 917.105 165.629Z" fill="#1E47A1"/>
<path d="M43.44 140.68H49.04C49.6533 140.68 50.2267 140.78 50.76 140.98C51.2933 141.167 51.7533 141.433 52.14 141.78C52.54 142.113 52.8533 142.507 53.08 142.96C53.3067 143.413 53.42 143.9 53.42 144.42C53.42 145.18 53.2333 145.82 52.86 146.34C52.5 146.847 52.0467 147.233 51.5 147.5V147.66C52.2333 147.927 52.82 148.347 53.26 148.92C53.7133 149.48 53.94 150.18 53.94 151.02C53.94 151.633 53.8133 152.187 53.56 152.68C53.32 153.16 52.9867 153.573 52.56 153.92C52.1333 154.267 51.6333 154.533 51.06 154.72C50.5 154.907 49.8933 155 49.24 155H43.44V140.68ZM48.84 146.52C49.4667 146.52 49.9467 146.353 50.28 146.02C50.6267 145.673 50.8 145.267 50.8 144.8C50.8 144.333 50.6333 143.933 50.3 143.6C49.9667 143.267 49.5067 143.1 48.92 143.1H46.14V146.52H48.84ZM49.14 152.52C49.82 152.52 50.34 152.353 50.7 152.02C51.06 151.673 51.24 151.233 51.24 150.7C51.24 150.167 51.0533 149.727 50.68 149.38C50.32 149.02 49.78 148.84 49.06 148.84H46.14V152.52H49.14ZM62.4781 153.72H62.3181C62.0115 154.213 61.5981 154.607 61.0781 154.9C60.5581 155.18 59.9648 155.32 59.2981 155.32C58.0581 155.32 57.1315 154.94 56.5181 154.18C55.9181 153.42 55.6181 152.407 55.6181 151.14V145.2H58.2381V150.82C58.2381 151.527 58.3915 152.053 58.6981 152.4C59.0181 152.733 59.4781 152.9 60.0781 152.9C60.4381 152.9 60.7515 152.827 61.0181 152.68C61.2981 152.52 61.5315 152.313 61.7181 152.06C61.9181 151.793 62.0648 151.487 62.1581 151.14C62.2648 150.78 62.3181 150.4 62.3181 150V145.2H64.9381V155H62.4781V153.72ZM70.9648 155.32C70.3248 155.32 69.7515 155.24 69.2448 155.08C68.7515 154.92 68.3182 154.713 67.9448 154.46C67.5848 154.193 67.2782 153.893 67.0248 153.56C66.7715 153.213 66.5782 152.867 66.4448 152.52L68.7848 151.52C69.0115 152.027 69.3115 152.407 69.6848 152.66C70.0715 152.9 70.4982 153.02 70.9648 153.02C71.4448 153.02 71.8248 152.933 72.1048 152.76C72.3848 152.587 72.5248 152.38 72.5248 152.14C72.5248 151.873 72.4048 151.66 72.1648 151.5C71.9382 151.327 71.5382 151.173 70.9648 151.04L69.5848 150.74C69.2782 150.673 68.9582 150.567 68.6248 150.42C68.3048 150.273 68.0115 150.087 67.7448 149.86C67.4782 149.633 67.2582 149.36 67.0848 149.04C66.9115 148.72 66.8248 148.347 66.8248 147.92C66.8248 147.44 66.9248 147.013 67.1248 146.64C67.3382 146.267 67.6248 145.953 67.9848 145.7C68.3448 145.433 68.7648 145.233 69.2448 145.1C69.7382 144.953 70.2648 144.88 70.8248 144.88C71.7582 144.88 72.5915 145.067 73.3248 145.44C74.0582 145.8 74.5982 146.38 74.9448 147.18L72.6848 148.1C72.4982 147.713 72.2248 147.433 71.8648 147.26C71.5048 147.087 71.1448 147 70.7848 147C70.4115 147 70.0848 147.08 69.8048 147.24C69.5248 147.387 69.3848 147.58 69.3848 147.82C69.3848 148.047 69.4982 148.227 69.7248 148.36C69.9648 148.493 70.2848 148.613 70.6848 148.72L72.1848 149.08C73.1848 149.32 73.9248 149.707 74.4048 150.24C74.8982 150.76 75.1448 151.38 75.1448 152.1C75.1448 152.527 75.0448 152.933 74.8448 153.32C74.6448 153.707 74.3582 154.053 73.9848 154.36C73.6248 154.653 73.1848 154.887 72.6648 155.06C72.1582 155.233 71.5915 155.32 70.9648 155.32ZM78.1152 143.78C77.8885 143.78 77.6685 143.74 77.4552 143.66C77.2552 143.567 77.0752 143.447 76.9152 143.3C76.7685 143.14 76.6485 142.96 76.5552 142.76C76.4752 142.56 76.4352 142.34 76.4352 142.1C76.4352 141.86 76.4752 141.64 76.5552 141.44C76.6485 141.24 76.7685 141.067 76.9152 140.92C77.0752 140.76 77.2552 140.64 77.4552 140.56C77.6685 140.467 77.8885 140.42 78.1152 140.42C78.5818 140.42 78.9818 140.587 79.3152 140.92C79.6485 141.24 79.8152 141.633 79.8152 142.1C79.8152 142.567 79.6485 142.967 79.3152 143.3C78.9818 143.62 78.5818 143.78 78.1152 143.78ZM76.8152 155V145.2H79.4352V155H76.8152ZM84.2909 146.48H84.4509C84.7576 145.987 85.1709 145.6 85.6909 145.32C86.2109 145.027 86.8043 144.88 87.4709 144.88C88.0843 144.88 88.6243 144.98 89.0909 145.18C89.5576 145.38 89.9376 145.667 90.2309 146.04C90.5376 146.4 90.7643 146.84 90.9109 147.36C91.0709 147.867 91.1509 148.433 91.1509 149.06V155H88.5309V149.38C88.5309 148.673 88.3709 148.153 88.0509 147.82C87.7443 147.473 87.2909 147.3 86.6909 147.3C86.3309 147.3 86.0109 147.38 85.7309 147.54C85.4643 147.687 85.2309 147.893 85.0309 148.16C84.8443 148.413 84.6976 148.72 84.5909 149.08C84.4976 149.427 84.4509 149.8 84.4509 150.2V155H81.8309V145.2H84.2909V146.48ZM102.595 152.64C102.142 153.44 101.529 154.087 100.755 154.58C99.9953 155.073 99.062 155.32 97.9553 155.32C97.2086 155.32 96.5153 155.193 95.8753 154.94C95.2486 154.673 94.702 154.307 94.2353 153.84C93.7686 153.373 93.402 152.827 93.1353 152.2C92.882 151.56 92.7553 150.86 92.7553 150.1C92.7553 149.393 92.882 148.727 93.1353 148.1C93.3886 147.46 93.742 146.907 94.1953 146.44C94.6486 145.96 95.182 145.58 95.7953 145.3C96.422 145.02 97.1086 144.88 97.8553 144.88C98.642 144.88 99.342 145.013 99.9553 145.28C100.569 145.533 101.082 145.893 101.495 146.36C101.909 146.813 102.222 147.353 102.435 147.98C102.649 148.607 102.755 149.287 102.755 150.02C102.755 150.113 102.755 150.193 102.755 150.26C102.742 150.34 102.735 150.413 102.735 150.48C102.722 150.547 102.715 150.62 102.715 150.7H95.3353C95.3886 151.1 95.4953 151.447 95.6553 151.74C95.8286 152.02 96.0353 152.26 96.2753 152.46C96.5286 152.647 96.802 152.787 97.0953 152.88C97.3886 152.96 97.6886 153 97.9953 153C98.5953 153 99.0886 152.867 99.4753 152.6C99.8753 152.32 100.189 151.973 100.415 151.56L102.595 152.64ZM100.215 148.84C100.202 148.667 100.142 148.473 100.035 148.26C99.942 148.047 99.7953 147.847 99.5953 147.66C99.4086 147.473 99.1686 147.32 98.8753 147.2C98.5953 147.08 98.2553 147.02 97.8553 147.02C97.2953 147.02 96.802 147.18 96.3753 147.5C95.9486 147.82 95.6486 148.267 95.4753 148.84H100.215ZM108.406 155.32C107.766 155.32 107.193 155.24 106.686 155.08C106.193 154.92 105.76 154.713 105.386 154.46C105.026 154.193 104.72 153.893 104.466 153.56C104.213 153.213 104.02 152.867 103.886 152.52L106.226 151.52C106.453 152.027 106.753 152.407 107.126 152.66C107.513 152.9 107.94 153.02 108.406 153.02C108.886 153.02 109.266 152.933 109.546 152.76C109.826 152.587 109.966 152.38 109.966 152.14C109.966 151.873 109.846 151.66 109.606 151.5C109.38 151.327 108.98 151.173 108.406 151.04L107.026 150.74C106.72 150.673 106.4 150.567 106.066 150.42C105.746 150.273 105.453 150.087 105.186 149.86C104.92 149.633 104.7 149.36 104.526 149.04C104.353 148.72 104.266 148.347 104.266 147.92C104.266 147.44 104.366 147.013 104.566 146.64C104.78 146.267 105.066 145.953 105.426 145.7C105.786 145.433 106.206 145.233 106.686 145.1C107.18 144.953 107.706 144.88 108.266 144.88C109.2 144.88 110.033 145.067 110.766 145.44C111.5 145.8 112.04 146.38 112.386 147.18L110.126 148.1C109.94 147.713 109.666 147.433 109.306 147.26C108.946 147.087 108.586 147 108.226 147C107.853 147 107.526 147.08 107.246 147.24C106.966 147.387 106.826 147.58 106.826 147.82C106.826 148.047 106.94 148.227 107.166 148.36C107.406 148.493 107.726 148.613 108.126 148.72L109.626 149.08C110.626 149.32 111.366 149.707 111.846 150.24C112.34 150.76 112.586 151.38 112.586 152.1C112.586 152.527 112.486 152.933 112.286 153.32C112.086 153.707 111.8 154.053 111.426 154.36C111.066 154.653 110.626 154.887 110.106 155.06C109.6 155.233 109.033 155.32 108.406 155.32ZM118.074 155.32C117.434 155.32 116.861 155.24 116.354 155.08C115.861 154.92 115.428 154.713 115.054 154.46C114.694 154.193 114.388 153.893 114.134 153.56C113.881 153.213 113.688 152.867 113.554 152.52L115.894 151.52C116.121 152.027 116.421 152.407 116.794 152.66C117.181 152.9 117.608 153.02 118.074 153.02C118.554 153.02 118.934 152.933 119.214 152.76C119.494 152.587 119.634 152.38 119.634 152.14C119.634 151.873 119.514 151.66 119.274 151.5C119.048 151.327 118.648 151.173 118.074 151.04L116.694 150.74C116.388 150.673 116.068 150.567 115.734 150.42C115.414 150.273 115.121 150.087 114.854 149.86C114.588 149.633 114.368 149.36 114.194 149.04C114.021 148.72 113.934 148.347 113.934 147.92C113.934 147.44 114.034 147.013 114.234 146.64C114.448 146.267 114.734 145.953 115.094 145.7C115.454 145.433 115.874 145.233 116.354 145.1C116.848 144.953 117.374 144.88 117.934 144.88C118.868 144.88 119.701 145.067 120.434 145.44C121.168 145.8 121.708 146.38 122.054 147.18L119.794 148.1C119.608 147.713 119.334 147.433 118.974 147.26C118.614 147.087 118.254 147 117.894 147C117.521 147 117.194 147.08 116.914 147.24C116.634 147.387 116.494 147.58 116.494 147.82C116.494 148.047 116.608 148.227 116.834 148.36C117.074 148.493 117.394 148.613 117.794 148.72L119.294 149.08C120.294 149.32 121.034 149.707 121.514 150.24C122.008 150.76 122.254 151.38 122.254 152.1C122.254 152.527 122.154 152.933 121.954 153.32C121.754 153.707 121.468 154.053 121.094 154.36C120.734 154.653 120.294 154.887 119.774 155.06C119.268 155.233 118.701 155.32 118.074 155.32ZM128.577 140.68H133.417C134.55 140.68 135.57 140.853 136.477 141.2C137.383 141.547 138.157 142.04 138.797 142.68C139.437 143.307 139.923 144.06 140.257 144.94C140.603 145.82 140.777 146.787 140.777 147.84C140.777 148.907 140.603 149.88 140.257 150.76C139.923 151.64 139.437 152.393 138.797 153.02C138.157 153.647 137.383 154.133 136.477 154.48C135.57 154.827 134.55 155 133.417 155H128.577V140.68ZM133.297 152.44C134.083 152.44 134.777 152.333 135.377 152.12C135.977 151.893 136.477 151.58 136.877 151.18C137.277 150.78 137.577 150.3 137.777 149.74C137.977 149.167 138.077 148.533 138.077 147.84C138.077 147.147 137.977 146.52 137.777 145.96C137.577 145.387 137.277 144.9 136.877 144.5C136.477 144.1 135.977 143.793 135.377 143.58C134.777 143.353 134.083 143.24 133.297 143.24H131.277V152.44H133.297ZM151.619 152.64C151.165 153.44 150.552 154.087 149.779 154.58C149.019 155.073 148.085 155.32 146.979 155.32C146.232 155.32 145.539 155.193 144.899 154.94C144.272 154.673 143.725 154.307 143.259 153.84C142.792 153.373 142.425 152.827 142.159 152.2C141.905 151.56 141.779 150.86 141.779 150.1C141.779 149.393 141.905 148.727 142.159 148.1C142.412 147.46 142.765 146.907 143.219 146.44C143.672 145.96 144.205 145.58 144.819 145.3C145.445 145.02 146.132 144.88 146.879 144.88C147.665 144.88 148.365 145.013 148.979 145.28C149.592 145.533 150.105 145.893 150.519 146.36C150.932 146.813 151.245 147.353 151.459 147.98C151.672 148.607 151.779 149.287 151.779 150.02C151.779 150.113 151.779 150.193 151.779 150.26C151.765 150.34 151.759 150.413 151.759 150.48C151.745 150.547 151.739 150.62 151.739 150.7H144.359C144.412 151.1 144.519 151.447 144.679 151.74C144.852 152.02 145.059 152.26 145.299 152.46C145.552 152.647 145.825 152.787 146.119 152.88C146.412 152.96 146.712 153 147.019 153C147.619 153 148.112 152.867 148.499 152.6C148.899 152.32 149.212 151.973 149.439 151.56L151.619 152.64ZM149.239 148.84C149.225 148.667 149.165 148.473 149.059 148.26C148.965 148.047 148.819 147.847 148.619 147.66C148.432 147.473 148.192 147.32 147.899 147.2C147.619 147.08 147.279 147.02 146.879 147.02C146.319 147.02 145.825 147.18 145.399 147.5C144.972 147.82 144.672 148.267 144.499 148.84H149.239ZM152.217 145.2H155.197L157.637 151.44H157.777L160.237 145.2H163.197L158.977 155H156.397L152.217 145.2ZM173.377 152.64C172.923 153.44 172.31 154.087 171.537 154.58C170.777 155.073 169.843 155.32 168.737 155.32C167.99 155.32 167.297 155.193 166.657 154.94C166.03 154.673 165.483 154.307 165.017 153.84C164.55 153.373 164.183 152.827 163.917 152.2C163.663 151.56 163.537 150.86 163.537 150.1C163.537 149.393 163.663 148.727 163.917 148.1C164.17 147.46 164.523 146.907 164.977 146.44C165.43 145.96 165.963 145.58 166.577 145.3C167.203 145.02 167.89 144.88 168.637 144.88C169.423 144.88 170.123 145.013 170.737 145.28C171.35 145.533 171.863 145.893 172.277 146.36C172.69 146.813 173.003 147.353 173.217 147.98C173.43 148.607 173.537 149.287 173.537 150.02C173.537 150.113 173.537 150.193 173.537 150.26C173.523 150.34 173.517 150.413 173.517 150.48C173.503 150.547 173.497 150.62 173.497 150.7H166.117C166.17 151.1 166.277 151.447 166.437 151.74C166.61 152.02 166.817 152.26 167.057 152.46C167.31 152.647 167.583 152.787 167.877 152.88C168.17 152.96 168.47 153 168.777 153C169.377 153 169.87 152.867 170.257 152.6C170.657 152.32 170.97 151.973 171.197 151.56L173.377 152.64ZM170.997 148.84C170.983 148.667 170.923 148.473 170.817 148.26C170.723 148.047 170.577 147.847 170.377 147.66C170.19 147.473 169.95 147.32 169.657 147.2C169.377 147.08 169.037 147.02 168.637 147.02C168.077 147.02 167.583 147.18 167.157 147.5C166.73 147.82 166.43 148.267 166.257 148.84H170.997ZM175.21 155V140.68H177.83V155H175.21ZM184.615 144.88C185.375 144.88 186.069 145.013 186.695 145.28C187.335 145.533 187.882 145.893 188.335 146.36C188.802 146.813 189.162 147.36 189.415 148C189.682 148.64 189.815 149.34 189.815 150.1C189.815 150.86 189.682 151.56 189.415 152.2C189.162 152.84 188.802 153.393 188.335 153.86C187.882 154.313 187.335 154.673 186.695 154.94C186.069 155.193 185.375 155.32 184.615 155.32C183.855 155.32 183.155 155.193 182.515 154.94C181.889 154.673 181.342 154.313 180.875 153.86C180.422 153.393 180.062 152.84 179.795 152.2C179.542 151.56 179.415 150.86 179.415 150.1C179.415 149.34 179.542 148.64 179.795 148C180.062 147.36 180.422 146.813 180.875 146.36C181.342 145.893 181.889 145.533 182.515 145.28C183.155 145.013 183.855 144.88 184.615 144.88ZM184.615 152.9C184.949 152.9 185.269 152.84 185.575 152.72C185.895 152.587 186.175 152.4 186.415 152.16C186.655 151.92 186.842 151.627 186.975 151.28C187.122 150.933 187.195 150.54 187.195 150.1C187.195 149.66 187.122 149.267 186.975 148.92C186.842 148.573 186.655 148.28 186.415 148.04C186.175 147.8 185.895 147.62 185.575 147.5C185.269 147.367 184.949 147.3 184.615 147.3C184.269 147.3 183.942 147.367 183.635 147.5C183.329 147.62 183.055 147.8 182.815 148.04C182.575 148.28 182.382 148.573 182.235 148.92C182.102 149.267 182.035 149.66 182.035 150.1C182.035 150.54 182.102 150.933 182.235 151.28C182.382 151.627 182.575 151.92 182.815 152.16C183.055 152.4 183.329 152.587 183.635 152.72C183.942 152.84 184.269 152.9 184.615 152.9ZM191.321 145.2H193.781V146.38H193.941C194.181 145.967 194.555 145.613 195.061 145.32C195.568 145.027 196.195 144.88 196.941 144.88C197.568 144.88 198.161 145.013 198.721 145.28C199.295 145.533 199.795 145.893 200.221 146.36C200.661 146.813 201.008 147.36 201.261 148C201.515 148.64 201.641 149.34 201.641 150.1C201.641 150.86 201.515 151.56 201.261 152.2C201.008 152.84 200.661 153.393 200.221 153.86C199.795 154.313 199.295 154.673 198.721 154.94C198.161 155.193 197.568 155.32 196.941 155.32C196.195 155.32 195.568 155.173 195.061 154.88C194.555 154.587 194.181 154.233 193.941 153.82H193.781L193.941 155.22V159.32H191.321V145.2ZM196.401 152.9C196.748 152.9 197.075 152.833 197.381 152.7C197.701 152.567 197.981 152.38 198.221 152.14C198.461 151.9 198.655 151.607 198.801 151.26C198.948 150.913 199.021 150.527 199.021 150.1C199.021 149.673 198.948 149.287 198.801 148.94C198.655 148.593 198.461 148.3 198.221 148.06C197.981 147.82 197.701 147.633 197.381 147.5C197.075 147.367 196.748 147.3 196.401 147.3C196.055 147.3 195.721 147.367 195.401 147.5C195.095 147.62 194.821 147.8 194.581 148.04C194.341 148.28 194.148 148.573 194.001 148.92C193.855 149.267 193.781 149.66 193.781 150.1C193.781 150.54 193.855 150.933 194.001 151.28C194.148 151.627 194.341 151.92 194.581 152.16C194.821 152.4 195.095 152.587 195.401 152.72C195.721 152.84 196.055 152.9 196.401 152.9ZM203.218 145.2H205.678V146.48H205.838C206.144 146 206.558 145.613 207.078 145.32C207.611 145.027 208.198 144.88 208.838 144.88C209.584 144.88 210.211 145.053 210.718 145.4C211.224 145.747 211.584 146.173 211.798 146.68C212.104 146.187 212.538 145.767 213.098 145.42C213.658 145.06 214.338 144.88 215.138 144.88C215.738 144.88 216.258 144.98 216.698 145.18C217.138 145.367 217.498 145.633 217.778 145.98C218.071 146.327 218.291 146.747 218.438 147.24C218.584 147.72 218.658 148.247 218.658 148.82V155H216.038V149.3C216.038 147.967 215.491 147.3 214.398 147.3C214.051 147.3 213.744 147.38 213.478 147.54C213.211 147.687 212.984 147.893 212.798 148.16C212.624 148.413 212.484 148.72 212.378 149.08C212.284 149.44 212.238 149.827 212.238 150.24V155H209.618V149.3C209.618 147.967 209.044 147.3 207.898 147.3C207.564 147.3 207.271 147.38 207.018 147.54C206.764 147.687 206.551 147.893 206.378 148.16C206.204 148.413 206.071 148.72 205.978 149.08C205.884 149.44 205.838 149.827 205.838 150.24V155H203.218V145.2ZM230.095 152.64C229.642 153.44 229.029 154.087 228.255 154.58C227.495 155.073 226.562 155.32 225.455 155.32C224.709 155.32 224.015 155.193 223.375 154.94C222.749 154.673 222.202 154.307 221.735 153.84C221.269 153.373 220.902 152.827 220.635 152.2C220.382 151.56 220.255 150.86 220.255 150.1C220.255 149.393 220.382 148.727 220.635 148.1C220.889 147.46 221.242 146.907 221.695 146.44C222.149 145.96 222.682 145.58 223.295 145.3C223.922 145.02 224.609 144.88 225.355 144.88C226.142 144.88 226.842 145.013 227.455 145.28C228.069 145.533 228.582 145.893 228.995 146.36C229.409 146.813 229.722 147.353 229.935 147.98C230.149 148.607 230.255 149.287 230.255 150.02C230.255 150.113 230.255 150.193 230.255 150.26C230.242 150.34 230.235 150.413 230.235 150.48C230.222 150.547 230.215 150.62 230.215 150.7H222.835C222.889 151.1 222.995 151.447 223.155 151.74C223.329 152.02 223.535 152.26 223.775 152.46C224.029 152.647 224.302 152.787 224.595 152.88C224.889 152.96 225.189 153 225.495 153C226.095 153 226.589 152.867 226.975 152.6C227.375 152.32 227.689 151.973 227.915 151.56L230.095 152.64ZM227.715 148.84C227.702 148.667 227.642 148.473 227.535 148.26C227.442 148.047 227.295 147.847 227.095 147.66C226.909 147.473 226.669 147.32 226.375 147.2C226.095 147.08 225.755 147.02 225.355 147.02C224.795 147.02 224.302 147.18 223.875 147.5C223.449 147.82 223.149 148.267 222.975 148.84H227.715ZM234.389 146.48H234.549C234.855 145.987 235.269 145.6 235.789 145.32C236.309 145.027 236.902 144.88 237.569 144.88C238.182 144.88 238.722 144.98 239.189 145.18C239.655 145.38 240.035 145.667 240.329 146.04C240.635 146.4 240.862 146.84 241.009 147.36C241.169 147.867 241.249 148.433 241.249 149.06V155H238.629V149.38C238.629 148.673 238.469 148.153 238.149 147.82C237.842 147.473 237.389 147.3 236.789 147.3C236.429 147.3 236.109 147.38 235.829 147.54C235.562 147.687 235.329 147.893 235.129 148.16C234.942 148.413 234.795 148.72 234.689 149.08C234.595 149.427 234.549 149.8 234.549 150.2V155H231.929V145.2H234.389V146.48ZM243.985 147.44H242.265V145.2H243.985V142.2H246.605V145.2H249.005V147.44H246.605V151.24C246.605 151.467 246.625 151.68 246.665 151.88C246.718 152.067 246.812 152.227 246.945 152.36C247.132 152.573 247.398 152.68 247.745 152.68C247.972 152.68 248.152 152.66 248.285 152.62C248.418 152.567 248.545 152.5 248.665 152.42L249.405 154.72C249.098 154.867 248.765 154.973 248.405 155.04C248.058 155.12 247.672 155.16 247.245 155.16C246.752 155.16 246.305 155.087 245.905 154.94C245.518 154.78 245.192 154.567 244.925 154.3C244.298 153.7 243.985 152.847 243.985 151.74V147.44ZM258.347 143.24V146.56H264.087V149.12H258.347V152.44H264.727V155H255.647V140.68H264.727V143.24H258.347ZM269.134 150.02L265.774 145.2H268.874L270.654 147.92H270.794L272.474 145.2H275.674L272.234 150.02L275.674 155H272.594L270.754 152.2H270.614L268.834 155H265.734L269.134 150.02ZM285.955 152.64C285.501 153.44 284.888 154.087 284.115 154.58C283.355 155.073 282.421 155.32 281.315 155.32C280.568 155.32 279.875 155.193 279.235 154.94C278.608 154.673 278.061 154.307 277.595 153.84C277.128 153.373 276.761 152.827 276.495 152.2C276.241 151.56 276.115 150.86 276.115 150.1C276.115 149.393 276.241 148.727 276.495 148.1C276.748 147.46 277.101 146.907 277.555 146.44C278.008 145.96 278.541 145.58 279.155 145.3C279.781 145.02 280.468 144.88 281.215 144.88C282.001 144.88 282.701 145.013 283.315 145.28C283.928 145.533 284.441 145.893 284.855 146.36C285.268 146.813 285.581 147.353 285.795 147.98C286.008 148.607 286.115 149.287 286.115 150.02C286.115 150.113 286.115 150.193 286.115 150.26C286.101 150.34 286.095 150.413 286.095 150.48C286.081 150.547 286.075 150.62 286.075 150.7H278.695C278.748 151.1 278.855 151.447 279.015 151.74C279.188 152.02 279.395 152.26 279.635 152.46C279.888 152.647 280.161 152.787 280.455 152.88C280.748 152.96 281.048 153 281.355 153C281.955 153 282.448 152.867 282.835 152.6C283.235 152.32 283.548 151.973 283.775 151.56L285.955 152.64ZM283.575 148.84C283.561 148.667 283.501 148.473 283.395 148.26C283.301 148.047 283.155 147.847 282.955 147.66C282.768 147.473 282.528 147.32 282.235 147.2C281.955 147.08 281.615 147.02 281.215 147.02C280.655 147.02 280.161 147.18 279.735 147.5C279.308 147.82 279.008 148.267 278.835 148.84H283.575ZM297.186 152.5C296.759 153.327 296.159 154.007 295.386 154.54C294.626 155.06 293.672 155.32 292.526 155.32C291.766 155.32 291.066 155.193 290.426 154.94C289.799 154.673 289.252 154.307 288.786 153.84C288.332 153.373 287.972 152.827 287.706 152.2C287.452 151.56 287.326 150.86 287.326 150.1C287.326 149.34 287.452 148.64 287.706 148C287.972 147.36 288.332 146.813 288.786 146.36C289.252 145.893 289.799 145.533 290.426 145.28C291.066 145.013 291.766 144.88 292.526 144.88C293.659 144.88 294.612 145.14 295.386 145.66C296.159 146.18 296.726 146.853 297.086 147.68L294.686 148.68C294.459 148.227 294.166 147.887 293.806 147.66C293.459 147.42 293.019 147.3 292.486 147.3C292.139 147.3 291.812 147.367 291.506 147.5C291.199 147.633 290.926 147.82 290.686 148.06C290.459 148.3 290.279 148.593 290.146 148.94C290.012 149.287 289.946 149.673 289.946 150.1C289.946 150.527 290.012 150.913 290.146 151.26C290.279 151.607 290.459 151.9 290.686 152.14C290.926 152.38 291.199 152.567 291.506 152.7C291.812 152.833 292.139 152.9 292.486 152.9C293.032 152.9 293.492 152.78 293.866 152.54C294.252 152.287 294.559 151.927 294.786 151.46L297.186 152.5ZM305.564 153.72H305.404C305.097 154.213 304.684 154.607 304.164 154.9C303.644 155.18 303.051 155.32 302.384 155.32C301.144 155.32 300.217 154.94 299.604 154.18C299.004 153.42 298.704 152.407 298.704 151.14V145.2H301.324V150.82C301.324 151.527 301.477 152.053 301.784 152.4C302.104 152.733 302.564 152.9 303.164 152.9C303.524 152.9 303.837 152.827 304.104 152.68C304.384 152.52 304.617 152.313 304.804 152.06C305.004 151.793 305.151 151.487 305.244 151.14C305.351 150.78 305.404 150.4 305.404 150V145.2H308.024V155H305.564V153.72ZM311.446 147.44H309.726V145.2H311.446V142.2H314.066V145.2H316.466V147.44H314.066V151.24C314.066 151.467 314.086 151.68 314.126 151.88C314.179 152.067 314.273 152.227 314.406 152.36C314.593 152.573 314.859 152.68 315.206 152.68C315.433 152.68 315.613 152.66 315.746 152.62C315.879 152.567 316.006 152.5 316.126 152.42L316.866 154.72C316.559 154.867 316.226 154.973 315.866 155.04C315.519 155.12 315.133 155.16 314.706 155.16C314.213 155.16 313.766 155.087 313.366 154.94C312.979 154.78 312.653 154.567 312.386 154.3C311.759 153.7 311.446 152.847 311.446 151.74V147.44ZM319.951 143.78C319.724 143.78 319.504 143.74 319.291 143.66C319.091 143.567 318.911 143.447 318.751 143.3C318.604 143.14 318.484 142.96 318.391 142.76C318.311 142.56 318.271 142.34 318.271 142.1C318.271 141.86 318.311 141.64 318.391 141.44C318.484 141.24 318.604 141.067 318.751 140.92C318.911 140.76 319.091 140.64 319.291 140.56C319.504 140.467 319.724 140.42 319.951 140.42C320.418 140.42 320.818 140.587 321.151 140.92C321.484 141.24 321.651 141.633 321.651 142.1C321.651 142.567 321.484 142.967 321.151 143.3C320.818 143.62 320.418 143.78 319.951 143.78ZM318.651 155V145.2H321.271V155H318.651ZM322.627 145.2H325.607L328.047 151.44H328.187L330.647 145.2H333.607L329.387 155H326.807L322.627 145.2ZM343.787 152.64C343.333 153.44 342.72 154.087 341.947 154.58C341.187 155.073 340.253 155.32 339.147 155.32C338.4 155.32 337.707 155.193 337.067 154.94C336.44 154.673 335.893 154.307 335.427 153.84C334.96 153.373 334.593 152.827 334.327 152.2C334.073 151.56 333.947 150.86 333.947 150.1C333.947 149.393 334.073 148.727 334.327 148.1C334.58 147.46 334.933 146.907 335.387 146.44C335.84 145.96 336.373 145.58 336.987 145.3C337.613 145.02 338.3 144.88 339.047 144.88C339.833 144.88 340.533 145.013 341.147 145.28C341.76 145.533 342.273 145.893 342.687 146.36C343.1 146.813 343.413 147.353 343.627 147.98C343.84 148.607 343.947 149.287 343.947 150.02C343.947 150.113 343.947 150.193 343.947 150.26C343.933 150.34 343.927 150.413 343.927 150.48C343.913 150.547 343.907 150.62 343.907 150.7H336.527C336.58 151.1 336.687 151.447 336.847 151.74C337.02 152.02 337.227 152.26 337.467 152.46C337.72 152.647 337.993 152.787 338.287 152.88C338.58 152.96 338.88 153 339.187 153C339.787 153 340.28 152.867 340.667 152.6C341.067 152.32 341.38 151.973 341.607 151.56L343.787 152.64ZM341.407 148.84C341.393 148.667 341.333 148.473 341.227 148.26C341.133 148.047 340.987 147.847 340.787 147.66C340.6 147.473 340.36 147.32 340.067 147.2C339.787 147.08 339.447 147.02 339.047 147.02C338.487 147.02 337.993 147.18 337.567 147.5C337.14 147.82 336.84 148.267 336.667 148.84H341.407Z" fill="#1E47A1"/>
<path d="M47.726 183.224C46.242 183.224 45.0007 182.725 44.002 181.726C43.0127 180.727 42.518 179.481 42.518 177.988C42.518 176.495 43.0127 175.253 44.002 174.264C44.9913 173.256 46.2327 172.752 47.726 172.752C49.238 172.752 50.4653 173.298 51.408 174.39L50.484 175.286C49.7653 174.418 48.846 173.984 47.726 173.984C46.6153 173.984 45.6867 174.357 44.94 175.104C44.2027 175.841 43.834 176.803 43.834 177.988C43.834 179.173 44.2027 180.135 44.94 180.872C45.6867 181.619 46.6153 181.992 47.726 181.992C48.8927 181.992 49.9053 181.502 50.764 180.522L51.702 181.432C51.226 182.001 50.6427 182.445 49.952 182.762C49.2613 183.07 48.5193 183.224 47.726 183.224ZM52.8465 172.976H54.1345V176.14L54.0785 177.092H54.1345C54.3305 176.756 54.6292 176.476 55.0305 176.252C55.4412 176.028 55.8658 175.916 56.3045 175.916C57.1445 175.916 57.7885 176.159 58.2365 176.644C58.6938 177.12 58.9225 177.801 58.9225 178.688V183H57.6345V178.94C57.6345 177.708 57.0885 177.092 55.9965 177.092C55.4738 177.092 55.0305 177.311 54.6665 177.75C54.3118 178.179 54.1345 178.683 54.1345 179.262V183H52.8465V172.976ZM63.5144 183.224C62.5064 183.224 61.6757 182.879 61.0224 182.188C60.3691 181.497 60.0424 180.625 60.0424 179.57C60.0424 178.525 60.3597 177.657 60.9944 176.966C61.6291 176.266 62.4411 175.916 63.4304 175.916C64.4477 175.916 65.2551 176.247 65.8524 176.91C66.4591 177.563 66.7624 178.483 66.7624 179.668L66.7484 179.808H61.3584C61.3771 180.48 61.6011 181.021 62.0304 181.432C62.4597 181.843 62.9731 182.048 63.5704 182.048C64.3917 182.048 65.0357 181.637 65.5024 180.816L66.6504 181.376C66.3424 181.955 65.9131 182.407 65.3624 182.734C64.8211 183.061 64.2051 183.224 63.5144 183.224ZM61.4564 178.744H65.3904C65.3531 178.268 65.1571 177.876 64.8024 177.568C64.4571 177.251 63.9904 177.092 63.4024 177.092C62.9171 177.092 62.4971 177.241 62.1424 177.54C61.7971 177.839 61.5684 178.24 61.4564 178.744ZM67.9403 176.14H69.1723V177.092H69.2283C69.4243 176.756 69.7229 176.476 70.1243 176.252C70.5349 176.028 70.9596 175.916 71.3983 175.916C72.2383 175.916 72.8823 176.159 73.3303 176.644C73.7876 177.12 74.0163 177.801 74.0163 178.688V183H72.7283V178.772C72.7003 177.652 72.1356 177.092 71.0343 177.092C70.5209 177.092 70.0916 177.302 69.7463 177.722C69.4009 178.133 69.2283 178.627 69.2283 179.206V183H67.9403V176.14ZM75.5281 176.14H76.7601V177.092H76.8161C77.0121 176.756 77.3108 176.476 77.7121 176.252C78.1228 176.028 78.5475 175.916 78.9861 175.916C79.8261 175.916 80.4701 176.159 80.9181 176.644C81.3755 177.12 81.6041 177.801 81.6041 178.688V183H80.3161V178.772C80.2881 177.652 79.7235 177.092 78.6221 177.092C78.1088 177.092 77.6795 177.302 77.3341 177.722C76.9888 178.133 76.8161 178.627 76.8161 179.206V183H75.5281V176.14ZM83.9857 180.9C83.9857 181.236 84.1257 181.516 84.4057 181.74C84.695 181.964 85.031 182.076 85.4137 182.076C85.955 182.076 86.4357 181.875 86.8557 181.474C87.285 181.073 87.4997 180.601 87.4997 180.06C87.0983 179.743 86.5383 179.584 85.8197 179.584C85.297 179.584 84.8583 179.71 84.5037 179.962C84.1583 180.214 83.9857 180.527 83.9857 180.9ZM85.6517 175.916C86.6037 175.916 87.355 176.173 87.9057 176.686C88.4563 177.19 88.7317 177.885 88.7317 178.772V183H87.4997V182.048H87.4437C86.9117 182.832 86.2023 183.224 85.3157 183.224C84.5597 183.224 83.925 183 83.4117 182.552C82.9077 182.104 82.6557 181.544 82.6557 180.872C82.6557 180.163 82.9217 179.598 83.4537 179.178C83.995 178.758 84.7137 178.548 85.6097 178.548C86.375 178.548 87.005 178.688 87.4997 178.968V178.674C87.4997 178.226 87.3223 177.848 86.9677 177.54C86.613 177.223 86.1977 177.064 85.7217 177.064C85.003 177.064 84.4337 177.367 84.0137 177.974L82.8797 177.26C83.505 176.364 84.429 175.916 85.6517 175.916ZM91.8504 173.774C91.8504 174.026 91.7617 174.241 91.5844 174.418C91.4071 174.595 91.1924 174.684 90.9404 174.684C90.6884 174.684 90.4737 174.595 90.2964 174.418C90.1191 174.241 90.0304 174.026 90.0304 173.774C90.0304 173.522 90.1191 173.307 90.2964 173.13C90.4737 172.953 90.6884 172.864 90.9404 172.864C91.1924 172.864 91.4071 172.953 91.5844 173.13C91.7617 173.307 91.8504 173.522 91.8504 173.774ZM91.5844 176.14V183H90.2964V176.14H91.5844ZM93.6946 184.568L93.0926 184.176L93.8486 183C93.6526 182.963 93.4846 182.865 93.3446 182.706C93.2139 182.547 93.1486 182.356 93.1486 182.132C93.1486 181.861 93.2419 181.637 93.4286 181.46C93.6152 181.273 93.8392 181.18 94.1006 181.18C94.3712 181.18 94.5952 181.273 94.7726 181.46C94.9592 181.637 95.0526 181.861 95.0526 182.132C95.0526 182.384 94.9592 182.659 94.7726 182.958L93.6946 184.568ZM102.67 174.208V183H101.382V174.208H98.5821V172.976H105.47V174.208H102.67ZM106.476 180.9C106.476 181.236 106.616 181.516 106.896 181.74C107.185 181.964 107.521 182.076 107.904 182.076C108.445 182.076 108.926 181.875 109.346 181.474C109.775 181.073 109.99 180.601 109.99 180.06C109.589 179.743 109.029 179.584 108.31 179.584C107.787 179.584 107.349 179.71 106.994 179.962C106.649 180.214 106.476 180.527 106.476 180.9ZM108.142 175.916C109.094 175.916 109.845 176.173 110.396 176.686C110.947 177.19 111.222 177.885 111.222 178.772V183H109.99V182.048H109.934C109.402 182.832 108.693 183.224 107.806 183.224C107.05 183.224 106.415 183 105.902 182.552C105.398 182.104 105.146 181.544 105.146 180.872C105.146 180.163 105.412 179.598 105.944 179.178C106.485 178.758 107.204 178.548 108.1 178.548C108.865 178.548 109.495 178.688 109.99 178.968V178.674C109.99 178.226 109.813 177.848 109.458 177.54C109.103 177.223 108.688 177.064 108.212 177.064C107.493 177.064 106.924 177.367 106.504 177.974L105.37 177.26C105.995 176.364 106.919 175.916 108.142 175.916ZM113.963 183H112.675V176.14H113.907V177.092H113.963C114.159 176.756 114.457 176.476 114.859 176.252C115.269 176.028 115.675 175.916 116.077 175.916C116.581 175.916 117.024 176.033 117.407 176.266C117.789 176.499 118.069 176.821 118.247 177.232C118.816 176.355 119.605 175.916 120.613 175.916C121.406 175.916 122.017 176.159 122.447 176.644C122.876 177.129 123.091 177.82 123.091 178.716V183H121.803V178.912C121.803 178.268 121.686 177.806 121.453 177.526C121.219 177.237 120.827 177.092 120.277 177.092C119.782 177.092 119.367 177.302 119.031 177.722C118.695 178.142 118.527 178.637 118.527 179.206V183H117.239V178.912C117.239 178.268 117.122 177.806 116.889 177.526C116.655 177.237 116.263 177.092 115.713 177.092C115.218 177.092 114.803 177.302 114.467 177.722C114.131 178.142 113.963 178.637 113.963 179.206V183ZM126.263 173.774C126.263 174.026 126.174 174.241 125.997 174.418C125.819 174.595 125.605 174.684 125.353 174.684C125.101 174.684 124.886 174.595 124.709 174.418C124.531 174.241 124.443 174.026 124.443 173.774C124.443 173.522 124.531 173.307 124.709 173.13C124.886 172.953 125.101 172.864 125.353 172.864C125.605 172.864 125.819 172.953 125.997 173.13C126.174 173.307 126.263 173.522 126.263 173.774ZM125.997 176.14V183H124.709V176.14H125.997ZM128.961 172.976V183H127.673V172.976H128.961ZM130.53 176.14H131.762V177.092H131.818C132.014 176.756 132.313 176.476 132.714 176.252C133.125 176.028 133.549 175.916 133.988 175.916C134.828 175.916 135.472 176.159 135.92 176.644C136.377 177.12 136.606 177.801 136.606 178.688V183H135.318V178.772C135.29 177.652 134.725 177.092 133.624 177.092C133.111 177.092 132.681 177.302 132.336 177.722C131.991 178.133 131.818 178.627 131.818 179.206V183H130.53V176.14ZM138.988 180.9C138.988 181.236 139.128 181.516 139.408 181.74C139.697 181.964 140.033 182.076 140.416 182.076C140.957 182.076 141.438 181.875 141.858 181.474C142.287 181.073 142.502 180.601 142.502 180.06C142.1 179.743 141.54 179.584 140.822 179.584C140.299 179.584 139.86 179.71 139.506 179.962C139.16 180.214 138.988 180.527 138.988 180.9ZM140.654 175.916C141.606 175.916 142.357 176.173 142.908 176.686C143.458 177.19 143.734 177.885 143.734 178.772V183H142.502V182.048H142.446C141.914 182.832 141.204 183.224 140.318 183.224C139.562 183.224 138.927 183 138.414 182.552C137.91 182.104 137.658 181.544 137.658 180.872C137.658 180.163 137.924 179.598 138.456 179.178C138.997 178.758 139.716 178.548 140.612 178.548C141.377 178.548 142.007 178.688 142.502 178.968V178.674C142.502 178.226 142.324 177.848 141.97 177.54C141.615 177.223 141.2 177.064 140.724 177.064C140.005 177.064 139.436 177.367 139.016 177.974L137.882 177.26C138.507 176.364 139.431 175.916 140.654 175.916ZM148.198 182.048C148.833 182.048 149.351 181.819 149.752 181.362C150.172 180.905 150.382 180.307 150.382 179.57C150.382 178.851 150.172 178.259 149.752 177.792C149.341 177.325 148.823 177.092 148.198 177.092C147.582 177.092 147.064 177.325 146.644 177.792C146.224 178.259 146.014 178.851 146.014 179.57C146.014 180.298 146.224 180.891 146.644 181.348C147.064 181.815 147.582 182.048 148.198 182.048ZM147.988 183.224C147.092 183.224 146.322 182.869 145.678 182.16C145.043 181.441 144.726 180.578 144.726 179.57C144.726 178.562 145.043 177.699 145.678 176.98C146.322 176.271 147.092 175.916 147.988 175.916C148.492 175.916 148.949 176.023 149.36 176.238C149.78 176.453 150.102 176.737 150.326 177.092H150.382L150.326 176.14V172.976H151.614V183H150.382V182.048H150.326C150.102 182.403 149.78 182.687 149.36 182.902C148.949 183.117 148.492 183.224 147.988 183.224ZM159.204 183H157.972V182.048H157.916C157.72 182.384 157.417 182.664 157.006 182.888C156.605 183.112 156.185 183.224 155.746 183.224C154.906 183.224 154.258 182.986 153.8 182.51C153.352 182.025 153.128 181.339 153.128 180.452V176.14H154.416V180.368C154.444 181.488 155.009 182.048 156.11 182.048C156.624 182.048 157.053 181.843 157.398 181.432C157.744 181.012 157.916 180.513 157.916 179.934V176.14H159.204V183Z" fill="#5A7184"/>
<defs>
<filter id="filter0_d_1661_3609" x="0" y="0" width="965" height="114" filterUnits="userSpaceOnUse" color-interpolation-filters="sRGB">
<feFlood flood-opacity="0" result="BackgroundImageFix"/>
<feColorMatrix in="SourceAlpha" type="matrix" values="0 0 0 0 0 0 0 0 0 0 0 0 0 0 0 0 0 0 127 0" result="hardAlpha"/>
<feOffset dy="6"/>
<feGaussianBlur stdDeviation="5"/>
<feColorMatrix type="matrix" values="0 0 0 0 0 0 0 0 0 0 0 0 0 0 0 0 0 0 0.03 0"/>
<feBlend mode="normal" in2="BackgroundImageFix" result="effect1_dropShadow_1661_3609"/>
<feBlend mode="normal" in="SourceGraphic" in2="effect1_dropShadow_1661_3609" result="shape"/>
</filter>
<filter id="filter1_d_1661_3609" x="0" y="110" width="965" height="114" filterUnits="userSpaceOnUse" color-interpolation-filters="sRGB">
<feFlood flood-opacity="0" result="BackgroundImageFix"/>
<feColorMatrix in="SourceAlpha" type="matrix" values="0 0 0 0 0 0 0 0 0 0 0 0 0 0 0 0 0 0 127 0" result="hardAlpha"/>
<feOffset dy="6"/>
<feGaussianBlur stdDeviation="5"/>
<feColorMatrix type="matrix" values="0 0 0 0 0 0 0 0 0 0 0 0 0 0 0 0 0 0 0.03 0"/>
<feBlend mode="normal" in2="BackgroundImageFix" result="effect1_dropShadow_1661_3609"/>
<feBlend mode="normal" in="SourceGraphic" in2="effect1_dropShadow_1661_3609" result="shape"/>
</filter>
</defs>
</svg>
