<svg width="80" height="80" viewBox="0 0 80 80" fill="none" xmlns="http://www.w3.org/2000/svg">
<g id="good-feedback 1">
<g id="Group">
<path id="Vector" d="M41.389 2.21301L43.501 6.45434L48.0224 7.23834C49.273 7.45567 49.7704 9.05167 48.881 9.99301L45.665 13.397L46.3477 18.1223C46.537 19.429 45.2344 20.4157 44.0997 19.825L39.9997 17.6877L35.8997 19.825C34.765 20.4157 33.4637 19.4303 33.6517 18.1223L34.3344 13.397L31.1184 9.99301C30.229 9.05167 30.7264 7.45567 31.977 7.23834L36.4984 6.45434L38.6104 2.21301C39.1944 1.03967 40.805 1.03967 41.389 2.21301Z" fill="#F9C82B"/>
<path id="Vector_2" d="M17.389 12.88L19.501 17.1213L24.0224 17.9053C25.273 18.1227 25.7704 19.7187 24.881 20.66L21.665 24.064L22.3477 28.7893C22.537 30.096 21.2344 31.0827 20.0997 30.492L15.9997 28.3547L11.8997 30.492C10.765 31.0827 9.46369 30.0973 9.65169 28.7893L10.3344 24.064L7.11836 20.66C6.22902 19.7187 6.72635 18.1227 7.97702 17.9053L12.4984 17.1213L14.6104 12.88C15.1944 11.7067 16.805 11.7067 17.389 12.88Z" fill="#F9C82B"/>
<path id="Vector_3" d="M65.389 12.88L67.501 17.1213L72.0224 17.9053C73.273 18.1227 73.7704 19.7187 72.881 20.66L69.665 24.064L70.3477 28.7893C70.537 30.096 69.2344 31.0827 68.0997 30.492L63.9997 28.3547L59.8997 30.492C58.765 31.0827 57.4637 30.0973 57.6517 28.7893L58.3344 24.064L55.1184 20.66C54.229 19.7187 54.7264 18.1227 55.977 17.9053L60.4984 17.1213L62.6104 12.88C63.1944 11.7067 64.805 11.7067 65.389 12.88Z" fill="#F9C82B"/>
</g>
<path id="Vector_4" d="M25.8663 57.867C22.2397 61.4937 19.9997 66.4803 19.9997 72.0003C19.9997 72.7337 19.3997 73.3337 18.6663 73.3337H2.66634C1.93301 73.3337 1.33301 72.7337 1.33301 72.0003C1.33301 61.3337 5.66634 51.6803 12.6663 44.667H13.9997L25.333 56.0003L25.8663 57.867Z" fill="#D7342C"/>
<path id="Vector_5" d="M40.0003 33.333L41.3337 34.6663V50.6663L40.0003 51.9997C34.4803 51.9997 29.4937 54.2397 25.867 57.8663L12.667 44.6663C19.6803 37.6663 29.3337 33.333 40.0003 33.333Z" fill="#E99E32"/>
<path id="Vector_6" d="M67.3333 44.6663L68 46.6663L56 58.6663L54.1333 57.8663C50.5067 54.2397 45.52 51.9997 40 51.9997V33.333C50.6667 33.333 60.32 37.6663 67.3333 44.6663Z" fill="#F9C82B"/>
<path id="Vector_7" d="M78.6671 72.0003C78.6671 72.7337 78.0671 73.3337 77.3338 73.3337H61.3338C60.6005 73.3337 60.0005 72.7337 60.0005 72.0003C60.0005 66.4803 57.7605 61.4937 54.1338 57.867L67.3338 44.667C74.3338 51.6803 78.6671 61.3337 78.6671 72.0003Z" fill="#2AA869"/>
<path id="Vector_8" d="M44.9597 75.2798C51.3597 71.8131 61.4264 65.8398 69.0264 61.2931C70.4131 60.4531 69.4397 58.3598 67.9197 58.8798C59.5331 61.7598 48.4931 65.6131 41.7197 68.2931L44.9597 75.2798Z" fill="#0A365E"/>
<path id="Vector_9" d="M40.0003 78.6667C42.9458 78.6667 45.3337 76.2789 45.3337 73.3333C45.3337 70.3878 42.9458 68 40.0003 68C37.0548 68 34.667 70.3878 34.667 73.3333C34.667 76.2789 37.0548 78.6667 40.0003 78.6667Z" fill="#06293F"/>
</g>
</svg>
