<svg width="110" height="111" viewBox="0 0 110 111" fill="none" xmlns="http://www.w3.org/2000/svg">
<g id="ug 1" clip-path="url(#clip0_1238_21300)">
<g id="Group">
<path id="Vector" d="M52.6362 2.86377C26.8823 2.86377 5.45182 21.3607 0.896484 45.7939L20.2786 60.4984L10.5451 87.1083C20.1495 99.8775 35.4279 108.136 52.6362 108.136C81.7065 108.136 105.273 84.5704 105.273 55.5001C105.273 26.4298 81.7065 2.86377 52.6362 2.86377Z" fill="#1D2E79"/>
<path id="Vector_2" d="M18.1051 59.5119L7.81797 56.856L2.12891 70.361C3.92672 76.4798 6.80584 82.136 10.5456 87.1081C12.6683 88.5433 14.6292 89.0398 16.1724 88.3413C16.8738 88.0238 17.4462 87.4783 17.8931 86.7394L25.0901 74.9443L18.1051 59.5119Z" fill="#02C0FC"/>
<path id="Vector_3" d="M18.1049 59.5122L13.2174 48.7135L0.715 46.8257C0.246856 49.6481 0 52.545 0 55.5002C0 60.6614 0.743789 65.6486 2.12867 70.3614C11.0417 70.6736 12.5449 63.3242 12.5449 63.3242L18.1049 59.5122Z" fill="#6AD9FB"/>
<path id="Vector_4" d="M46.0001 43.834L16.4062 67.9713C19.3522 76.1074 19.9114 83.4018 17.8925 86.74C22.117 82.9605 34.1096 73.0828 53.6814 63.559L58.1985 48.7851L46.0001 43.834Z" fill="#6AD9FB"/>
<path id="Vector_5" d="M109.511 34.8537C108.372 28.4058 105.86 24.1678 104.671 21.291L61.7942 30.9521L46 43.8341L48.5803 48.785C48.5803 48.785 44.8065 59.5094 53.6811 63.5589C55.2907 62.7756 56.9508 61.9949 58.6629 61.2199C79.8005 51.6532 96.476 48.5474 103.486 47.593C105.18 47.3623 105.905 47.7282 107.082 47.1956C109.854 45.9411 110.62 41.132 109.511 34.8537Z" fill="#ADE9F7"/>
<path id="Vector_6" d="M51.2163 36.8759L40.874 34.2275C22.1396 42.1336 7.47951 44.8836 0.896699 45.7941C0.832891 46.137 0.771016 46.4805 0.713867 46.8255C6.9048 51.2079 9.92465 57.4986 14.0804 66.6805C14.087 66.6952 14.0935 66.7096 14.1001 66.7242C15.0693 68.8698 17.7645 69.5781 19.6455 68.1621C26.8451 62.7422 36.6385 55.2528 48.5811 48.7851L51.2163 36.8759Z" fill="#ADE9F7"/>
<path id="Vector_7" d="M105.585 22.5662C105.576 22.5471 105.567 22.528 105.559 22.5088C100.294 10.8768 92.4404 3.06999 88.017 5.0719C86.8357 5.60643 86.6531 6.37643 85.3447 7.51167C80.0014 12.148 66.663 22.6268 45.5256 32.1936C43.9493 32.9071 42.3981 33.5838 40.8736 34.2273C39.349 34.8707 37.0287 45.7622 48.5802 48.7849C51.309 47.3072 54.1496 45.8825 57.0975 44.5484C75.7575 36.1029 91.5516 31.6281 102.186 29.2938C105.192 28.6342 106.851 25.3712 105.585 22.5662Z" fill="#E8F8FC"/>
<path id="Vector_8" d="M58.4487 56.0421L47.6852 51.675C45.9871 50.986 44.052 51.8041 43.363 53.5022L33.0127 79.0113L38.5376 87.5316L49.0398 88.0564L60.2759 60.3646C60.9647 58.6664 60.1468 56.7311 58.4487 56.0421Z" fill="#E51E82"/>
<path id="Vector_9" d="M63.6289 53.5022C62.9399 51.8041 61.0048 50.986 59.3067 51.675L48.5432 56.0421C46.8451 56.7311 46.027 58.6662 46.716 60.3643L57.8032 87.6897L67.5705 89.118L74.1071 79.3262L63.6289 53.5022Z" fill="#FD77A6"/>
<path id="Vector_10" d="M68.899 66.7127L68.8851 66.7133C67.7855 66.7539 66.8198 67.4558 66.4416 68.4892C64.7388 73.1442 59.1219 74.9689 55.0083 72.2036L55.0064 72.2023C54.0926 71.5883 52.8983 71.5883 51.9848 72.2023L51.9827 72.2038C47.869 74.9691 42.2522 73.1442 40.5493 68.4892V68.489C40.1712 67.4556 39.2055 66.7537 38.1059 66.7131L38.0919 66.7124C33.143 66.5296 29.6744 61.7579 31.0272 56.994L31.0309 56.9811C31.331 55.9241 30.9626 54.7903 30.0985 54.1114L30.0849 54.1009C26.1917 51.043 26.1917 45.1462 30.0849 42.0886L30.0987 42.0778C30.9628 41.3989 31.3312 40.2654 31.0311 39.2084L31.0274 39.1953C29.6748 34.4315 33.1437 29.6596 38.0924 29.477L38.1063 29.4766C39.2059 29.436 40.1716 28.7341 40.5498 27.7007L61.7205 41.2369L68.899 66.7127Z" fill="#FEA53D"/>
<path id="Vector_11" d="M33.0125 79.0111L28.2795 90.676C27.5905 92.3741 28.4084 94.3092 30.1068 94.9982L40.87 99.3654C42.5681 100.054 44.5032 99.2365 45.1922 97.5381L49.0396 88.0558C44.5767 77.6391 36.0904 78.3573 33.0125 79.0111Z" fill="#FE3D97"/>
<path id="Vector_12" d="M74.1076 79.3267C70.2868 78.2504 61.1503 76.9512 57.8037 87.69L61.7998 97.5388C62.4888 99.2369 64.4239 100.055 66.122 99.3661L76.8855 94.9989C78.5836 94.3099 79.4017 92.3746 78.7127 90.6767L74.1076 79.3267Z" fill="#FEA2C8"/>
<path id="Vector_13" d="M75.9637 39.1954L75.96 39.2083C75.6599 40.2653 76.0283 41.3991 76.8924 42.078L76.906 42.0887C80.7991 45.1466 80.7991 51.0432 76.906 54.1011L76.8922 54.1118C76.0281 54.7907 75.6597 55.9242 75.9598 56.9812L75.9634 56.9944C77.3161 61.7583 73.8472 66.53 68.8985 66.7126C63.344 65.5995 64.3681 59.6402 64.3681 59.6402C59.0937 59.6402 58.522 53.6153 58.522 53.6153L51.6943 42.4024C45.2552 42.4024 44.9752 34.7159 44.9752 34.7159C39.422 33.9126 40.549 27.7004 40.549 27.7004C42.2517 23.0454 47.8688 21.2205 51.9824 23.986L51.9843 23.9873C52.8978 24.6015 54.0923 24.6015 55.0059 23.9873L55.008 23.9858L66.2746 30.4614L75.9637 39.1954Z" fill="#FFC242"/>
<path id="Vector_14" d="M68.8993 29.477L68.8854 29.4765C67.7858 29.4359 66.8201 28.734 66.442 27.7006C64.7391 23.0458 59.1222 21.2205 55.0086 23.9858C55.0086 23.9858 51.1578 28.2251 55.2666 32.3338C59.3755 36.4426 67.959 41.5778 67.959 41.5778C67.959 41.5778 72.7006 44.0004 75.9641 39.1954C77.3169 34.4317 73.8481 29.6598 68.8993 29.477Z" fill="#FEF156"/>
<path id="Vector_15" d="M60.1408 41.1995L44.9759 34.7207C40.5641 37.5371 37.6357 42.4725 37.6357 48.0947C37.6357 56.8539 44.7363 63.9545 53.4955 63.9545C57.7028 63.9545 61.5244 62.3133 64.3632 59.64L60.1408 41.1995Z" fill="#E51E82"/>
<path id="Vector_16" d="M51.6952 42.4021L58.5229 53.615C58.5229 53.615 59.0944 59.6356 64.3638 59.6397C67.4353 56.7475 69.356 52.6463 69.356 48.0946C69.356 39.3354 62.2554 32.2349 53.4962 32.2349C50.3595 32.2349 47.438 33.1492 44.9766 34.7206C44.9804 34.8252 45.3005 42.4021 51.6952 42.4021Z" fill="#FE3D97"/>
<path id="Vector_17" d="M55.2156 41.2478L56.2711 43.3868C56.5504 43.9529 57.0906 44.3452 57.7153 44.4361L60.0756 44.779C61.6489 45.0076 62.2771 46.941 61.1386 48.0506L59.4306 49.7155C58.9786 50.1561 58.7724 50.791 58.8789 51.4132L59.2822 53.764C59.551 55.3308 57.9063 56.5258 56.4991 55.7861L54.3878 54.6762C53.829 54.3825 53.1615 54.3825 52.6027 54.6762L50.4914 55.7861C49.0842 56.5258 47.4396 55.3311 47.7083 53.764L48.1116 51.4132C48.2184 50.791 48.0119 50.1561 47.5599 49.7155L45.8519 48.0506C44.7134 46.941 45.3416 45.0076 46.9149 44.779L49.2754 44.4361C49.9002 44.3452 50.4403 43.9529 50.7196 43.3868L51.7751 41.2478C52.4792 39.8223 54.512 39.8223 55.2156 41.2478Z" fill="#FEF156"/>
</g>
</g>
<defs>
<clipPath id="clip0_1238_21300">
<rect width="110" height="110" fill="white" transform="translate(0 0.5)"/>
</clipPath>
</defs>
</svg>
