<svg width="28" height="28" viewBox="0 0 28 28" fill="none" xmlns="http://www.w3.org/2000/svg">
<g id="Ikon">
<path id="Vector" d="M27.1252 14.0002C27.1256 13.714 27.0618 13.4314 26.9385 13.1731C26.8153 12.9149 26.6356 12.6876 26.4129 12.5079L24.7224 11.0998L25.4965 9.08561C25.5968 8.81852 25.6367 8.5325 25.6133 8.24814C25.5899 7.96378 25.5037 7.68815 25.361 7.44108C25.2183 7.19401 25.0226 6.98165 24.788 6.81929C24.5533 6.65692 24.2856 6.54859 24.0041 6.50208L21.8357 6.12764L21.4988 3.99624C21.4523 3.71468 21.3439 3.44693 21.1815 3.21227C21.0191 2.97761 20.8067 2.78188 20.5596 2.63916C20.3124 2.49644 20.0367 2.41029 19.7523 2.38691C19.4679 2.36352 19.1818 2.40349 18.9147 2.50393L16.8498 3.26474L15.4925 1.58749C15.3068 1.37406 15.0775 1.20293 14.8201 1.08566C14.5627 0.968397 14.2831 0.907715 14.0002 0.907715C13.7173 0.907715 13.4377 0.968397 13.1802 1.08566C12.9228 1.20293 12.6935 1.37406 12.5079 1.58749L11.0997 3.27755L9.08608 2.50393C8.81893 2.40341 8.53282 2.36338 8.24835 2.38673C7.96387 2.41007 7.68812 2.49621 7.44093 2.63893C7.19375 2.78166 6.98129 2.97742 6.81885 3.21212C6.65641 3.44682 6.54804 3.71462 6.50154 3.99624L6.12755 6.16513L3.99712 6.50115C3.7155 6.54768 3.4477 6.65606 3.21298 6.81848C2.97826 6.9809 2.78246 7.19333 2.63966 7.44048C2.49687 7.68763 2.41063 7.96336 2.38715 8.24783C2.36368 8.5323 2.40355 8.81844 2.50389 9.08566L3.2647 11.1511L1.58658 12.5079C1.36614 12.6892 1.18861 12.917 1.06676 13.1751C0.9449 13.4332 0.881746 13.715 0.881836 14.0004C0.881926 14.2858 0.945256 14.5677 1.06727 14.8256C1.18929 15.0836 1.36696 15.3114 1.58751 15.4925L3.27803 16.9006L2.50389 18.9148C2.40352 19.1819 2.36361 19.4679 2.38703 19.7522C2.41045 20.0366 2.49662 20.3123 2.63933 20.5593C2.78204 20.8064 2.97775 21.0188 3.21237 21.1811C3.44699 21.3435 3.71469 21.4519 3.9962 21.4984L6.16464 21.8728L6.50155 24.0042C6.54816 24.2857 6.65658 24.5534 6.81901 24.788C6.98144 25.0226 7.19385 25.2183 7.44095 25.361C7.68805 25.5037 7.9637 25.5898 8.24808 25.6133C8.53246 25.6367 8.8185 25.5968 9.08563 25.4965L11.1506 24.7357L12.5079 26.4129C12.689 26.6336 12.9167 26.8114 13.1748 26.9334C13.4328 27.0555 13.7147 27.1188 14.0002 27.1188C14.2856 27.1188 14.5675 27.0555 14.8256 26.9334C15.0836 26.8114 15.3114 26.6336 15.4925 26.4129L16.9006 24.7229L18.9144 25.4965C19.1815 25.597 19.4676 25.637 19.7521 25.6136C20.0365 25.5902 20.3123 25.5041 20.5595 25.3614C20.8066 25.2187 21.0191 25.0229 21.1815 24.7882C21.344 24.5536 21.4524 24.2858 21.4989 24.0042L21.8729 21.8353L24.0033 21.4993C24.2849 21.4528 24.5527 21.3444 24.7875 21.182C25.0222 21.0195 25.218 20.8071 25.3608 20.5599C25.5036 20.3128 25.5898 20.0371 25.6133 19.7526C25.6368 19.4681 25.5969 19.182 25.4966 18.9148L24.7357 16.8493L26.4139 15.4925C26.6363 15.3127 26.8157 15.0853 26.9388 14.827C27.0619 14.5688 27.1256 14.2863 27.1252 14.0002Z" fill="#1976D2"/>
<path id="Vector_2" d="M12.2376 18.4214C11.632 18.4229 11.0424 18.2272 10.558 17.8639L8.28155 16.1564C8.08269 16.0072 7.95125 15.7851 7.91614 15.539C7.88103 15.2928 7.94513 15.0428 8.09434 14.844C8.24354 14.6451 8.46564 14.5137 8.71176 14.4786C8.95789 14.4435 9.20788 14.5076 9.40674 14.6568L11.6827 16.3642C11.88 16.5101 12.1264 16.5734 12.3696 16.5408C12.6128 16.5082 12.8337 16.3821 12.9855 16.1894L18.4165 9.20571C18.4921 9.10851 18.5861 9.02715 18.6932 8.96628C18.8003 8.90542 18.9183 8.86624 19.0405 8.85098C19.1627 8.83572 19.2867 8.84468 19.4054 8.87735C19.5242 8.91001 19.6353 8.96575 19.7325 9.04138C19.8298 9.117 19.9111 9.21103 19.972 9.3181C20.0328 9.42516 20.072 9.54317 20.0873 9.66538C20.1025 9.78759 20.0936 9.9116 20.0609 10.0303C20.0282 10.1491 19.9725 10.2602 19.8969 10.3574L14.4655 17.3411C14.2008 17.6788 13.8626 17.9517 13.4765 18.1389C13.0904 18.3261 12.6666 18.4227 12.2376 18.4214Z" fill="#F5F5F5"/>
</g>
</svg>
