<svg width="54" height="54" viewBox="0 0 54 54" fill="none" xmlns="http://www.w3.org/2000/svg">
<path id="Star 1" d="M23.2486 3.13803C24.5372 -0.344442 29.4628 -0.344452 30.7514 3.13802L35.5448 16.0919C35.9499 17.1868 36.8132 18.0501 37.9081 18.4552L50.862 23.2486C54.3444 24.5372 54.3445 29.4628 50.862 30.7514L37.9081 35.5448C36.8132 35.9499 35.9499 36.8132 35.5448 37.9081L30.7514 50.862C29.4628 54.3444 24.5372 54.3445 23.2486 50.862L18.4552 37.9081C18.0501 36.8132 17.1868 35.9499 16.0919 35.5448L3.13803 30.7514C-0.344442 29.4628 -0.344452 24.5372 3.13802 23.2486L16.0919 18.4552C17.1868 18.0501 18.0501 17.1868 18.4552 16.0919L23.2486 3.13803Z" fill="#83C2D4"/>
</svg>
