<svg width="25" height="25" viewBox="0 0 25 25" fill="none" xmlns="http://www.w3.org/2000/svg">
<g id="Frame">
<path id="Vector" d="M10.7375 14.2623L15.7854 9.21436M20.9479 6.13519L16.6875 19.9831C16.3052 21.2248 16.1146 21.8456 15.7844 22.0508C15.6438 22.1387 15.4842 22.1918 15.319 22.2056C15.1537 22.2193 14.9876 22.1934 14.8344 22.13C14.476 21.981 14.1844 21.4008 13.6031 20.2383L10.9052 14.8404C10.8494 14.7156 10.7821 14.5964 10.7042 14.4841C10.65 14.4136 10.5869 14.3502 10.5167 14.2956C10.408 14.2204 10.2926 14.1556 10.1719 14.1019L4.7625 11.3956C3.60104 10.8144 3.01979 10.5237 2.87083 10.1654C2.80729 10.012 2.78132 9.84571 2.79509 9.68028C2.80887 9.51485 2.86197 9.3551 2.95 9.21436C3.1552 8.88519 3.77604 8.69352 5.0177 8.31123L18.8667 4.05081C19.8427 3.74977 20.3302 3.59977 20.6604 3.72165C20.8023 3.77373 20.9311 3.85606 21.0379 3.9629C21.1448 4.06975 21.2271 4.19856 21.2792 4.3404C21.4 4.66956 21.25 5.15706 20.95 6.13206L20.9479 6.13519Z" stroke="#2D1247" stroke-width="2" stroke-linecap="round" stroke-linejoin="round"/>
</g>
</svg>
