<svg width="21" height="21" viewBox="0 0 21 21" fill="none" xmlns="http://www.w3.org/2000/svg">
<g id="instagram 1" clip-path="url(#clip0_1497_4330)">
<path id="Vector" d="M12.541 10.7734C12.541 11.7442 11.754 12.5312 10.7832 12.5312C9.81244 12.5312 9.02539 11.7442 9.02539 10.7734C9.02539 9.80267 9.81244 9.01562 10.7832 9.01562C11.754 9.01562 12.541 9.80267 12.541 10.7734Z" fill="#555555"/>
<path id="Vector_2" d="M13.752 5.46094H7.81445C6.52203 5.46094 5.4707 6.51227 5.4707 7.80469V13.7422C5.4707 15.0346 6.52203 16.0859 7.81445 16.0859H13.752C15.0444 16.0859 16.0957 15.0346 16.0957 13.7422V7.80469C16.0957 6.51227 15.0444 5.46094 13.752 5.46094ZM10.7832 13.7031C9.16776 13.7031 7.85352 12.3889 7.85352 10.7734C7.85352 9.15799 9.16776 7.84375 10.7832 7.84375C12.3987 7.84375 13.7129 9.15799 13.7129 10.7734C13.7129 12.3889 12.3987 13.7031 10.7832 13.7031ZM14.1426 8C13.8189 8 13.5566 7.7377 13.5566 7.41406C13.5566 7.09042 13.8189 6.82812 14.1426 6.82812C14.4662 6.82812 14.7285 7.09042 14.7285 7.41406C14.7285 7.7377 14.4662 8 14.1426 8Z" fill="#555555"/>
<path id="Vector_3" d="M15.5098 0.773438H6.05664C3.14893 0.773438 0.783203 3.13916 0.783203 6.04688V15.5C0.783203 18.4077 3.14893 20.7734 6.05664 20.7734H15.5098C18.4175 20.7734 20.7832 18.4077 20.7832 15.5V6.04688C20.7832 3.13916 18.4175 0.773438 15.5098 0.773438ZM17.2676 13.7422C17.2676 15.6807 15.6904 17.2578 13.752 17.2578H7.81445C5.87598 17.2578 4.29883 15.6807 4.29883 13.7422V7.80469C4.29883 5.86621 5.87598 4.28906 7.81445 4.28906H13.752C15.6904 4.28906 17.2676 5.86621 17.2676 7.80469V13.7422Z" fill="#555555"/>
</g>
<defs>
<clipPath id="clip0_1497_4330">
<rect width="20" height="20" fill="white" transform="translate(0.783203 0.773438)"/>
</clipPath>
</defs>
</svg>
