<svg width="21" height="21" viewBox="0 0 21 21" fill="none" xmlns="http://www.w3.org/2000/svg">
<g id="linkedin-sign 1" clip-path="url(#clip0_1497_4324)">
<g id="Group">
<path id="Vector" d="M19.6828 1.8736C18.9496 1.1402 18.0662 0.773438 17.0333 0.773438H4.53318C3.50029 0.773438 2.6169 1.1402 1.88336 1.8736C1.14997 2.60713 0.783203 3.49048 0.783203 4.52341V17.0234C0.783203 18.0562 1.14997 18.9397 1.88336 19.6732C2.6169 20.4067 3.50029 20.7735 4.53318 20.7735H17.0331C18.066 20.7735 18.9494 20.4067 19.6826 19.6732C20.4162 18.9397 20.7829 18.0563 20.7829 17.0234V4.52341C20.7829 3.49048 20.4161 2.60699 19.6828 1.8736ZM6.87689 17.5181H3.86906V8.48163H6.87689V17.5181ZM6.60361 6.80861C6.29117 7.10811 5.87879 7.25788 5.36659 7.25788H5.35346C4.85872 7.25788 4.45738 7.10811 4.14913 6.80861C3.84083 6.50911 3.68677 6.13806 3.68677 5.69536C3.68677 5.24399 3.8453 4.87066 4.16204 4.57545C4.479 4.28033 4.88909 4.13271 5.39249 4.13271C5.89594 4.13271 6.2996 4.28033 6.60348 4.57545C6.90726 4.87066 7.06355 5.24399 7.07217 5.69536C7.07213 6.13788 6.91606 6.50893 6.60361 6.80861ZM17.6972 17.5181H14.6894V12.6875C14.6894 11.3248 14.1861 10.6433 13.1791 10.6433C12.7972 10.6433 12.4758 10.7496 12.2155 10.9623C11.9549 11.1749 11.7596 11.4331 11.6296 11.7372C11.5687 11.8933 11.5384 12.1362 11.5384 12.466V17.5181H8.53062C8.55666 12.0668 8.55666 9.05449 8.53062 8.48154H11.5384V9.75733C12.1709 8.76854 13.0689 8.27312 14.2338 8.27312C15.2755 8.27312 16.1133 8.61608 16.7469 9.30172C17.3806 9.9875 17.6974 10.9989 17.6974 12.3354V17.5181H17.6972Z" fill="#555555"/>
</g>
</g>
<defs>
<clipPath id="clip0_1497_4324">
<rect width="20" height="20" fill="white" transform="translate(0.783203 0.773438)"/>
</clipPath>
</defs>
</svg>
