<svg width="40" height="40" viewBox="0 0 40 40" fill="none" xmlns="http://www.w3.org/2000/svg">
<g id="training 1">
<path id="Vector" fill-rule="evenodd" clip-rule="evenodd" d="M12.7345 17.7314V21.1803H14.6498C14.8707 21.1803 15.061 21.3113 15.1473 21.4999L15.8377 22.6959C15.9876 22.9566 15.8977 23.2895 15.6369 23.4393C15.3762 23.5892 15.0434 23.4993 14.8935 23.2386L14.3366 22.2741H10.0384L9.48156 23.2386C9.33171 23.4993 8.9989 23.5892 8.73812 23.4393C8.47742 23.2895 8.3875 22.9567 8.53734 22.6959L9.25328 21.4558C9.3539 21.2807 9.53695 21.1827 9.72539 21.1825V21.1803H11.6406V17.7314H12.7344H12.7345Z" fill="#7986BF"/>
<path id="Vector_2" d="M20.3629 4.17969H4.00781C3.17076 4.17969 2.49219 4.85826 2.49219 5.69531V17.1538C2.49219 17.9909 3.17076 18.6695 4.00781 18.6695H20.3629C21.1999 18.6695 21.8785 17.9909 21.8785 17.1538V5.69531C21.8785 4.85826 21.1999 4.17969 20.3629 4.17969Z" fill="#B6DBFF"/>
<path id="Vector_3" d="M18.898 4.17969H4.00781C3.17076 4.17969 2.49219 4.85826 2.49219 5.69531V17.1538C2.49219 17.9909 3.17076 18.6695 4.00781 18.6695H18.898C19.7351 18.6695 20.4137 17.9909 20.4137 17.1538V5.69531C20.4137 4.85826 19.7351 4.17969 18.898 4.17969Z" fill="#CFE8FF"/>
<g id="Group">
<path id="Vector_4" fill-rule="evenodd" clip-rule="evenodd" d="M5.65234 8.12793C5.35031 8.12793 5.10547 7.88309 5.10547 7.58105C5.10547 7.27902 5.35031 7.03418 5.65234 7.03418H11.9259C12.228 7.03418 12.4728 7.27902 12.4728 7.58105C12.4728 7.88309 12.228 8.12793 11.9259 8.12793H5.65234ZM5.65234 15.813C5.35031 15.813 5.10547 15.5682 5.10547 15.2661C5.10547 14.9641 5.35031 14.7193 5.65234 14.7193H11.9259C12.228 14.7193 12.4728 14.9641 12.4728 15.2661C12.4728 15.5682 12.228 15.813 11.9259 15.813H5.65234ZM5.65234 13.2513C5.35031 13.2513 5.10547 13.0064 5.10547 12.7044C5.10547 12.4024 5.35031 12.1575 5.65234 12.1575H13.442C13.7441 12.1575 13.9889 12.4024 13.9889 12.7044C13.9889 13.0064 13.7441 13.2513 13.442 13.2513H5.65234ZM5.65234 10.6896C5.35031 10.6896 5.10547 10.4447 5.10547 10.1427C5.10547 9.84066 5.35031 9.59582 5.65234 9.59582H15.481C15.783 9.59582 16.0279 9.84066 16.0279 10.1427C16.0279 10.4447 15.783 10.6896 15.481 10.6896H5.65234Z" fill="#7986BF"/>
<path id="Vector_5" fill-rule="evenodd" clip-rule="evenodd" d="M31.3564 16.0369H33.694C34.7815 16.3943 36.8998 16.7749 37.8712 17.3445C38.6743 17.8154 38.9604 18.296 39.0587 19.5751C39.2389 22.8479 39.0716 25.7864 38.9086 29.0515C38.8507 30.2125 37.9171 30.975 36.7966 30.975H36.0358V27.7071H26.6766V21.358C26.6766 20.8841 26.3086 20.4936 25.8356 20.4653C20.9323 20.1715 18.7777 17.3294 17.2481 14.126C16.4947 12.5483 18.9309 11.3229 19.7745 12.8266C21.6286 16.1314 23.8839 17.7245 29.0188 16.0368H31.3564L31.3564 16.0369Z" fill="#2A92FA"/>
<path id="Vector_6" fill-rule="evenodd" clip-rule="evenodd" d="M27.5234 16.4454C28.0885 16.3009 28.6222 16.1674 29.0188 16.0371H33.6939C34.0905 16.1675 34.6241 16.3009 35.1892 16.4454L34.9311 16.7993C34.0837 17.9613 32.8184 18.728 31.3564 18.728C29.8944 18.728 28.6291 17.9613 27.7816 16.7993L27.5235 16.4454H27.5234Z" fill="#0062D9"/>
<path id="Vector_7" fill-rule="evenodd" clip-rule="evenodd" d="M28.6837 16.1405C29.2688 15.8208 29.8053 15.1966 29.8053 14.0024V13.7656H32.9054V14.0024C32.9054 15.1966 33.442 15.8208 34.027 16.1405C33.3833 17.0233 32.4455 17.6101 31.3553 17.6101C30.2651 17.6101 29.3273 17.0233 28.6836 16.1405H28.6837Z" fill="#F29988"/>
<path id="Vector_8" fill-rule="evenodd" clip-rule="evenodd" d="M32.9039 13.7657V14.0025C32.9039 15.1967 33.4405 15.8209 34.0255 16.1406C33.3818 17.0234 32.4441 17.6102 31.3538 17.6102C30.6609 17.6102 30.0295 17.373 29.4961 16.9735C30.0291 16.5694 30.6085 15.8037 30.6085 14.7904V13.7656L32.9039 13.7657Z" fill="#FDB0A0"/>
<path id="Vector_9" fill-rule="evenodd" clip-rule="evenodd" d="M31.3561 15.146C27.1873 14.8756 26.0864 6.60547 31.3561 6.60547C36.6257 6.60547 35.5248 14.8756 31.3561 15.146Z" fill="#FDB0A0"/>
<path id="Vector_10" fill-rule="evenodd" clip-rule="evenodd" d="M31.3575 15.146C31.1844 15.1348 31.0169 15.1085 30.8547 15.0709C28.7047 13.2568 28.2081 8.51258 30.404 6.70813C30.6954 6.6418 31.0125 6.60547 31.3575 6.60547C36.6271 6.60547 35.5262 14.8756 31.3575 15.146Z" fill="#FFCEC0"/>
<path id="Vector_11" fill-rule="evenodd" clip-rule="evenodd" d="M33.6462 6.83533C34.122 6.6376 34.9132 6.87885 35.1777 7.94861C35.338 8.59705 35.2681 10.2089 34.8673 11.0793C34.4327 10.6124 34.3404 10.0931 34.0528 9.65736C33.8282 9.31705 33.4319 9.41596 32.8373 9.62228C31.2205 10.1835 29.5573 9.25096 28.7495 9.39619C28.0937 9.514 27.952 10.5042 27.845 11.0793C27.1648 10.3206 27.0948 8.2058 27.6184 6.52353C30.3457 6.94439 32.5659 4.879 33.6463 6.83525L33.6462 6.83533Z" fill="#1A1A1A"/>
</g>
<path id="Vector_12" d="M30.7969 17.6104H31.9145V27.7073H30.7969V17.6104Z" fill="#0062D9"/>
<path id="Vector_13" fill-rule="evenodd" clip-rule="evenodd" d="M35.4766 27.7075V21.4153C35.4766 21.1067 35.7268 20.8564 36.0354 20.8564C36.344 20.8564 36.5942 21.1067 36.5942 21.4153V30.9754H36.0352V27.7075L35.4766 27.7075Z" fill="#0062D9"/>
<g id="Group_2">
<path id="Vector_14" fill-rule="evenodd" clip-rule="evenodd" d="M6.52727 30.6494C9.49422 30.6494 11.9302 32.9213 12.1913 35.8203H0.863281C1.12445 32.9213 3.56031 30.6494 6.52727 30.6494Z" fill="#29B933"/>
<path id="Vector_15" fill-rule="evenodd" clip-rule="evenodd" d="M10.6137 35.8202H0.863281C1.10875 33.0959 3.27477 30.9255 5.99719 30.6738C8.42797 31.1397 10.3185 33.2234 10.6136 35.8202H10.6137Z" fill="#2DD62D"/>
<path id="Vector_16" d="M6.65233 30.6216C8.14683 30.5587 9.30743 29.2963 9.2446 27.8017C9.18177 26.3072 7.9193 25.1466 6.42479 25.2095C4.93029 25.2723 3.76969 26.5348 3.83252 28.0293C3.89535 29.5238 5.15782 30.6844 6.65233 30.6216Z" fill="#FDB0A0"/>
<path id="Vector_17" fill-rule="evenodd" clip-rule="evenodd" d="M5.9807 30.575C4.74758 30.3214 3.82031 29.2299 3.82031 27.9218C3.82031 26.6136 4.74758 25.5221 5.9807 25.2686C7.21383 25.5221 8.14117 26.6136 8.14117 27.9218C8.14117 29.2299 7.21383 30.3214 5.9807 30.575Z" fill="#FFCEC0"/>
</g>
<g id="Group_3">
<path id="Vector_18" fill-rule="evenodd" clip-rule="evenodd" d="M17.8438 30.6494C20.8108 30.6494 23.2466 32.9213 23.5078 35.8203H12.1797C12.4409 32.9213 14.8768 30.6494 17.8438 30.6494Z" fill="#FDC72E"/>
<path id="Vector_19" fill-rule="evenodd" clip-rule="evenodd" d="M21.9301 35.8202H12.1797C12.4252 33.0959 14.5912 30.9255 17.3137 30.6738C19.7445 31.1397 21.635 33.2234 21.9301 35.8202Z" fill="#FCDB35"/>
<path id="Vector_20" d="M17.8455 30.6314C19.3415 30.6314 20.5542 29.4186 20.5542 27.9226C20.5542 26.4266 19.3415 25.2139 17.8455 25.2139C16.3495 25.2139 15.1367 26.4266 15.1367 27.9226C15.1367 29.4186 16.3495 30.6314 17.8455 30.6314Z" fill="#FDB0A0"/>
<path id="Vector_21" fill-rule="evenodd" clip-rule="evenodd" d="M17.2971 30.5759C16.064 30.3224 15.1367 29.2309 15.1367 27.9227C15.1367 26.6146 16.064 25.523 17.2971 25.2695C18.5302 25.523 19.4576 26.6146 19.4576 27.9227C19.4576 29.2309 18.5302 30.3224 17.2971 30.5759Z" fill="#FFCEC0"/>
</g>
</g>
</svg>
