<svg width="40" height="40" viewBox="0 0 40 40" fill="none" xmlns="http://www.w3.org/2000/svg">
<g id="speech 1" clip-path="url(#clip0_1661_2994)">
<g id="Group">
<path id="Vector" d="M26.6432 17.1318L25.8164 17.6559C31.3362 22.5095 29.134 25.9769 29.134 25.9769L29.9248 26.4311C29.9247 26.431 32.6021 22.8686 26.6432 17.1318Z" fill="#404077"/>
<path id="Vector_2" d="M24.4343 12.4965C24.4343 12.4965 26.9698 14.5315 28.234 17.0455C29.4982 19.5596 27.4566 20.6478 24.6875 17.6373C21.9183 14.6269 19.6765 9.29002 24.4343 12.4965Z" fill="#52528C"/>
<path id="Vector_3" d="M21.4447 7.45632L17.2678 12.4465L10.3228 20.7442L10.0368 21.0862C9.6327 21.274 9.2493 21.43 8.88573 21.5575C8.53766 21.679 8.20768 21.7746 7.89493 21.8461H7.89407C2.84964 22.9989 2.36113 17.8855 4.02739 16.3898C5.90559 14.7055 7.5684 12.6128 5.85217 10.01C4.13508 7.40635 1.93466 1.40989 6.50868 0.393252C6.7861 0.332081 7.05146 0.290726 7.30476 0.267464C10.0738 0.00554959 11.4601 1.80707 11.4601 1.80707C12.0761 1.40989 12.7317 1.2281 13.3503 1.16952C14.8158 1.02994 16.0694 1.58134 16.0694 1.58134C19.7043 -0.614774 22.1667 -0.552741 22.9869 1.95095C23.9751 4.97072 21.4447 7.45632 21.4447 7.45632Z" fill="#52528C"/>
<path id="Vector_4" d="M20.3452 7.13473L17.2703 12.4462L10.3253 20.7439C9.81697 21.0713 9.32157 21.3582 8.88821 21.5572C8.49534 21.7373 8.1533 21.8459 7.89742 21.8459H7.89655C7.64067 21.8459 7.47094 21.7382 7.42183 21.4875C7.07721 19.7247 12.6748 14.5011 7.89138 7.94632C4.20821 2.8993 6.19756 0.913403 7.30725 0.267233C10.0763 0.00531875 11.4626 1.80684 11.4626 1.80684C12.0786 1.40966 12.7342 1.22787 13.3528 1.16929L13.352 1.17015C9.23111 5.14194 14.5728 7.13473 16.0719 4.37774C17.5702 1.62074 21.3214 -0.418569 21.3791 1.96968C21.4368 4.35792 20.3452 7.13473 20.3452 7.13473Z" fill="#404077"/>
<path id="Vector_5" d="M10.2914 2.93945C10.2914 2.93945 9.11157 6.05184 11.3258 7.2532C11.3258 7.2532 9.67348 8.8476 8.39785 6.95768C6.91553 4.76157 9.03058 3.27115 10.2914 2.93945Z" fill="#FAE26B"/>
<path id="Vector_6" d="M20.1662 18.4229L10.2944 18.4459C10.2944 18.4459 3.17044 20.1216 4.72073 29.0927L23.6891 24.5092C23.3589 20.7118 20.1662 18.4229 20.1662 18.4229Z" fill="#C5C5FE"/>
<path id="Vector_7" d="M15.3162 20.0007C18.2545 20.0007 20.6364 19.075 20.6364 17.933C20.6364 16.791 18.2545 15.8652 15.3162 15.8652C12.378 15.8652 9.99609 16.791 9.99609 17.933C9.99609 19.075 12.378 20.0007 15.3162 20.0007Z" fill="#A3A3F5"/>
<path id="Vector_8" d="M18.0391 13.8C18.0391 13.8 18.1692 15.3775 18.5431 16.806C18.6396 17.1773 18.7525 17.5383 18.8843 17.8588C17.5204 18.4679 16.073 18.5506 14.8169 18.4257C13.3651 18.2818 12.1693 17.8614 11.6515 17.6555C11.9367 17.1316 12.9903 14.951 12.8913 11.4359C12.4725 11.5668 11.9375 11.5341 11.3284 11.0551C10.3703 10.3003 10.3195 8.28083 11.2353 7.30641C11.7454 6.76362 12.5561 6.54393 13.6787 7.05225C13.6787 7.05225 13.9768 7.16167 14.2439 7.35207C14.5032 7.30985 14.7505 7.25471 14.9874 7.1901C15.1399 7.14788 15.2873 7.10222 15.4303 7.05225C17.7444 6.24841 18.8877 4.46929 19.2634 3.76367C23.9968 8.38594 20.336 13.3236 18.0391 13.8Z" fill="#FFEBD4"/>
<path id="Vector_9" d="M18.5415 16.8058C17.0312 15.5289 16.043 13.624 16.043 13.624C16.4815 13.761 16.9872 13.8523 17.5559 13.8523C17.7084 13.8523 17.8695 13.8342 18.0366 13.7989C18.0366 13.7989 18.0366 13.7989 18.0375 13.7998C18.0375 13.7998 18.1676 15.3773 18.5415 16.8058Z" fill="#FFD5B8"/>
<path id="Vector_10" d="M14.8169 18.4256C13.3651 18.2818 12.1693 17.8613 11.6515 17.6554C11.9367 17.1316 12.9903 14.951 12.8913 11.4358C12.4725 11.5668 11.9375 11.534 11.3284 11.055C10.3703 10.3003 10.3195 8.28078 11.2353 7.30635C11.7454 6.76357 12.5561 6.54387 13.6787 7.05219C13.6787 7.05219 13.9768 7.16161 14.2439 7.35201C14.5032 7.3098 14.7505 7.25466 14.9874 7.19004C15.1399 7.14782 15.2873 7.10216 15.4303 7.05219C14.7962 9.06652 13.627 13.7957 14.8169 18.4256Z" fill="#FFD5B8"/>
<path id="Vector_11" d="M12.1094 7.94629L13.0113 10.2341C14.1371 8.51828 12.1094 7.94629 12.1094 7.94629Z" fill="#FFC7A1"/>
<path id="Vector_12" d="M39.9881 21.4873V27.8732L30.803 37.845H2.46113L0.0117188 35.8332L0.149568 35.6101L8.17931 22.579L39.9881 21.4873Z" fill="#D68F67"/>
<path id="Vector_13" d="M39.987 21.4873V27.8732L9.37058 28.4858L2.46 37.845L0.148438 35.6101L8.17818 22.579L39.987 21.4873Z" fill="#F0B48F"/>
<path id="Vector_14" d="M32.1135 30.5859L31.7689 40.0002H7.6159L7.44531 36.4463L10.8571 31.2865L10.858 31.2856L32.1135 30.5859Z" fill="#F0B48F"/>
<g id="Group_2">
<path id="Vector_15" d="M11.3844 39.9999H7.6159L7.44531 36.4459L10.8571 31.2861L11.3844 39.9999Z" fill="#E2A27F"/>
<path id="Vector_16" d="M9.37058 28.486L2.46 37.8451L0.148438 35.6102L8.17818 22.5791L9.37058 28.486Z" fill="#E2A27F"/>
</g>
</g>
</g>
<defs>
<clipPath id="clip0_1661_2994">
<rect width="40" height="40" fill="white"/>
</clipPath>
</defs>
</svg>
