<svg width="40" height="40" viewBox="0 0 40 40" fill="none" xmlns="http://www.w3.org/2000/svg">
<g id="click 1" clip-path="url(#clip0_1661_2944)">
<path id="Vector" d="M40 5V31.6667C40 33.8333 38.6 35.6833 36.6667 36.3667V8.33333H3.33333V27.2167C0.766667 28.2 0 30.3 0 31.6667V5C0 2.25 2.25 0 5 0H35C37.75 0 40 2.25 40 5Z" fill="#607D8B"/>
<path id="Vector_2" d="M36.6654 8.33301V30.833C36.6654 27.6997 34.1987 25.1497 31.0987 24.9997C30.1637 23.033 28.1487 21.6663 25.832 21.6663C25.5487 21.6663 25.2487 21.683 24.982 21.733C24.0987 20.8497 22.947 20.2497 21.6654 20.0663V17.4997C21.6654 14.283 19.0487 11.6663 15.832 11.6663C12.6154 11.6663 9.9987 14.283 9.9987 17.4997V27.3663C8.9987 26.933 7.88203 26.6663 6.66536 26.6663C5.31536 26.6663 4.21536 26.8663 3.33203 27.2163V8.33301H36.6654Z" fill="white"/>
<path id="Vector_3" d="M7.91536 37.9133L7.94703 37.9867C8.47203 39.205 9.68203 40 11.007 40H29.9987C31.8387 40 33.332 38.5067 33.332 36.6667V30.8333C33.332 29.4517 32.212 28.3333 30.832 28.3333C29.452 28.3333 28.332 29.4517 28.332 30.8333V27.5C28.332 26.1183 27.212 25 25.832 25C24.452 25 23.332 26.1183 23.332 27.5V25.8333C23.332 24.4517 22.212 23.3333 20.832 23.3333C19.452 23.3333 18.332 24.4517 18.332 25.8333V17.5C18.332 16.1167 17.2154 15 15.832 15C14.4487 15 13.332 16.1167 13.332 17.5V35C13.332 35 10.637 30 6.66536 30C4.16536 30 3.33203 30.8917 3.33203 31.6667C3.33203 33.77 5.71203 32.5683 7.91536 37.9133Z" fill="#FFCC80"/>
<g id="Group">
<path id="Vector_4" d="M29.1654 28.9834V35.0001C28.6987 35.0001 28.332 34.6334 28.332 34.1667V30.8334C28.332 30.1001 28.6487 29.4334 29.1654 28.9834Z" fill="#FFA726"/>
<path id="Vector_5" d="M24.1654 25.6504V34.1671C23.6987 34.1671 23.332 33.8004 23.332 33.3337V27.5004C23.332 26.7671 23.6487 26.1004 24.1654 25.6504Z" fill="#FFA726"/>
<path id="Vector_6" d="M19.1654 23.9834V33.7501C18.6987 33.7501 18.332 33.3834 18.332 32.9167V25.8334C18.332 25.1001 18.6487 24.4334 19.1654 23.9834Z" fill="#FFA726"/>
</g>
<path id="Vector_7" d="M20 0H5C2.25 0 0 2.25 0 5V31.6667C0 30.3 0.766667 28.2 3.33333 27.2167V8.33333H20V0Z" fill="#546D79"/>
<path id="Vector_8" d="M19.9987 8.33301H3.33203V27.2163C4.21536 26.8663 5.31536 26.6663 6.66536 26.6663C7.88203 26.6663 8.9987 26.933 9.9987 27.3663V17.4997C9.9987 14.283 12.6154 11.6663 15.832 11.6663C17.462 11.6663 18.9387 12.3397 19.9987 13.4213V8.33301Z" fill="#DEDEDE"/>
<path id="Vector_9" d="M18.332 25.8V25.8017C18.332 25.8017 18.332 25.8017 18.332 25.8ZM18.332 25.7833V25.7867C18.332 25.785 18.332 25.785 18.332 25.7833ZM18.3337 25.7667V25.7717C18.332 25.77 18.332 25.7683 18.3337 25.7667ZM18.3337 25.75V25.7567C18.3337 25.7533 18.3337 25.7517 18.3337 25.75ZM18.3337 25.7317V25.7417C18.3337 25.7383 18.3337 25.735 18.3337 25.7317ZM15.832 15C14.4487 15 13.332 16.1167 13.332 17.5V35C13.332 35 10.637 30 6.66536 30C4.16536 30 3.33203 30.8917 3.33203 31.6667C3.33203 33.77 5.71203 32.5683 7.91536 37.9133L7.94703 37.9867C8.47203 39.205 9.68203 40 11.007 40H19.9987V23.475C19.0587 23.8067 18.377 24.685 18.3337 25.7283C18.362 25.0367 18.6737 24.4117 19.1654 23.9833V33.75C18.6987 33.75 18.332 33.3833 18.332 32.9167V25.8333V17.5C18.332 16.1167 17.2154 15 15.832 15Z" fill="#DEB26F"/>
<path id="Vector_10" d="M19.1676 23.9834C18.6759 24.4117 18.3643 25.0367 18.3359 25.7284V25.7401V25.7467V25.7534V25.7651V25.7701V25.7817V25.7851V25.7984V25.8151V25.8317V32.9151C18.3359 33.3817 18.7026 33.7484 19.1693 33.7484V23.9834H19.1676Z" fill="#DE9121"/>
</g>
<defs>
<clipPath id="clip0_1661_2944">
<rect width="40" height="40" fill="white"/>
</clipPath>
</defs>
</svg>
