<svg width="40" height="40" viewBox="0 0 40 40" fill="none" xmlns="http://www.w3.org/2000/svg">
<g id="idea 1">
<g id="layer1">
<path id="path5634-9" d="M12.5 38.7495H30.625L30.6165 38.1172L14.3665 34.9922L12.5 38.1208V38.7495Z" fill="#549AD4"/>
<path id="path5577-0" d="M19.375 18.13V21.8788C19.375 22.5711 19.9325 23.1288 20.625 23.1288H24.375C25.0675 23.1288 25.625 22.5711 25.625 21.8788V18.13C23.5417 18.1229 21.4583 18.1267 19.375 18.13Z" fill="#E4EFF8"/>
<path id="path5535-9" d="M15 9.29687C15 14.053 19.1699 16.0916 19.1699 18.1299C21.39 18.1228 23.61 18.1266 25.8301 18.1299C25.8301 16.0916 30 14.053 30 9.29687C30 5.16917 26.8674 1.875 22.5 1.875C18.1326 1.875 15 5.16917 15 9.29687Z" fill="#FFCA28"/>
<path id="path5570-1" d="M25.0024 18.13C24.6545 21.8751 22.5024 21.8751 19.3945 21.8751C19.4755 22.4882 19.9914 23.1288 20.6274 23.1288H24.3774C25.0699 23.1288 25.6274 22.5711 25.6274 21.8788V18.13C25.5351 18.1297 25.0948 18.1303 25.0024 18.13Z" fill="#C4DCF0"/>
<path id="path5565-7" d="M19.375 18.1301V21.8788C19.375 22.5711 19.9325 23.1288 20.625 23.1288H21.875C21.1825 23.1288 20.625 22.5711 20.625 21.8788V18.1301C20.2083 18.1307 19.7917 18.1294 19.375 18.1301Z" fill="#F5F9FB"/>
<path id="path5550-7" d="M21.2527 1.96166C24.9033 2.4815 27.5027 5.53933 27.5027 9.29687C27.5027 10.4666 27.3502 11.5169 26.8679 12.3523C24.2401 16.4378 20.2078 16.8696 18.7344 16.8835C19.0014 17.3131 19.1726 17.7221 19.1726 18.1299C21.5191 18.1289 23.6628 18.1269 25.8328 18.1299C25.8328 16.4737 28.5859 14.8168 29.6182 11.7029C29.8564 10.9843 30.0027 10.1886 30.0027 9.29687C30.0027 9.23753 29.9954 9.18008 29.9942 9.1211C29.9058 5.07686 26.8094 1.875 22.5027 1.875C21.9788 1.875 21.6123 1.91045 21.2527 1.96166Z" fill="#ECB200"/>
<path id="path5562-1" d="M15 9.29685C15 14.053 19.1699 16.0915 19.1699 18.1299C19.5866 18.1285 20.0033 18.1305 20.4199 18.1299C20.4199 16.0915 16.25 14.053 16.25 9.29685C16.25 5.32806 19.149 2.13854 23.125 1.89817C22.9658 1.88849 22.8078 1.87502 22.5 1.875C18.1326 1.87498 15 5.16915 15 9.29685Z" fill="#F5F9FB"/>
<path id="path5617-9" d="M32.2388 13.1263C31.5773 13.1765 30.9535 13.6734 30.9167 14.4739L30.7105 21.4246L28.042 16.0914C27.7197 15.4985 27.1427 15.2414 26.5784 15.2674C25.6378 15.3107 24.7318 16.139 25.0964 17.5001L27.102 23.7501C27.6412 25.3476 23.9417 27.9583 22.1826 29.0943C21.4946 27.0904 20.7604 25.1038 20 23.1251C19.2998 21.0746 16.875 21.7286 16.875 23.7501V27.5001C16.875 29.9688 15.625 32.5 15.625 35.2344L15.6288 35.2357L29.5277 37.9078C31.0421 35.7774 38.1251 30.897 38.1251 27.5001C38.1514 25.0001 36.6346 17.1229 36.6346 17.1229C36.3172 15.4691 34.7008 15.2951 33.8673 16.0608L33.7867 14.4581C33.6 13.4721 32.9002 13.0761 32.2388 13.1263ZM27.4255 38.1177C27.959 38.1246 28.5938 38.125 29.375 38.125C29.3763 38.1229 29.3785 38.1199 29.38 38.1177H27.4255Z" fill="#FFD1B5"/>
<g id="Group">
<path id="path5581-7" d="M11.8736 22.5C11.6853 23.1652 11.3598 23.7685 10.9248 24.2584C10.4898 24.7484 9.95814 25.1105 9.375 25.3142C9.9584 25.517 10.4905 25.8785 10.926 26.368C11.3615 26.8574 11.6876 27.4603 11.8766 28.1254C12.0649 27.4601 12.3904 26.8569 12.8254 26.367C13.2604 25.877 13.7921 25.5148 14.3752 25.3112C13.7918 25.1083 13.2597 24.7468 12.8242 24.2574C12.3887 23.7679 12.0626 23.1651 11.8736 22.5Z" fill="#FFCA28"/>
<path id="path5583-7" d="M4.6859 25.625C4.47406 26.4381 4.10789 27.1753 3.61851 27.7741C3.12913 28.373 2.53102 28.8156 1.875 29.0645C2.53131 29.3124 3.12989 29.7543 3.61985 30.3525C4.10981 30.9507 4.47666 31.6875 4.68921 32.5004C4.90105 31.6873 5.26722 30.9501 5.7566 30.3512C6.24598 29.7524 6.84409 29.3098 7.50011 29.0609C6.8438 28.8129 6.24522 28.3711 5.75526 27.7729C5.2653 27.1747 4.89845 26.4379 4.6859 25.625Z" fill="#FFCA28"/>
<path id="path5585-6" d="M6.8729 13.75C6.59045 14.7848 6.10222 15.7231 5.44971 16.4852C4.79719 17.2474 3.9997 17.8107 3.125 18.1275C4.00009 18.443 4.7982 19.0054 5.45149 19.7667C6.10478 20.528 6.59392 21.4658 6.87733 22.5004C7.15978 21.4656 7.64801 20.5272 8.30052 19.7651C8.95304 19.003 9.75054 18.4396 10.6252 18.1229C9.75014 17.8073 8.95203 17.245 8.29874 16.4836C7.64545 15.7223 7.15631 14.7845 6.8729 13.75Z" fill="#FFCA28"/>
</g>
<path id="path5669-7" d="M32.5 28.1251C32.8355 25.9423 33.0311 26.0621 32.0972 24.1956L28.042 16.0914C27.7197 15.4985 27.1427 15.2414 26.5784 15.2674C26.3857 15.2764 26.1948 15.3194 26.0156 15.3919C26.3253 15.5192 26.6033 15.7442 26.792 16.0914L30.8472 24.1956C31.5776 25.6553 31.6171 25.9002 31.4392 26.9815C31.25 27.8077 31.2699 28.1251 32.5 28.1251Z" fill="#FFB98D"/>
<path id="path5687-3" d="M24.7812 27.4997C26.5403 26.3638 28.8921 25.3473 28.353 23.7497L26.3474 17.4997C26.0574 16.4175 26.5737 15.6807 27.269 15.3989C27.0486 15.3073 26.8148 15.2562 26.5793 15.2671C25.6388 15.3104 24.7327 16.1387 25.0974 17.4997L27.103 23.7497C27.3301 25.6247 24.7812 27.4997 24.7812 27.4997Z" fill="#F5F9FB"/>
<path id="path5689-6" d="M30.918 14.4739L30.7812 20.7667L31.9617 23.1251L32.168 14.4739C32.1947 13.8908 32.5337 13.471 32.9712 13.2655C32.7415 13.1512 32.488 13.1075 32.24 13.1263C31.5786 13.1765 30.9547 13.6734 30.918 14.4739Z" fill="#F5F9FB"/>
<path id="path5651-5" d="M18.4419 21.8753C18.1706 21.8869 17.9034 21.9774 17.668 22.1353C17.9576 22.3375 18.209 22.6579 18.3687 23.1253C19.0028 24.7754 20.0544 27.6639 20.7853 29.74C20.9335 30.4501 21.7287 30.5143 22.4926 29.9691C21.8964 28.2701 20.6495 24.8071 20.0032 23.1253C19.6968 22.2282 19.061 21.849 18.4419 21.8753Z" fill="#FFB98D"/>
<path id="path5667-6" d="M29.5298 37.9081C29.7375 37.6159 30.0643 37.2639 30.449 36.8791C32.8684 34.4587 38.1272 30.4314 38.1272 27.5004C38.1535 25.0004 36.6367 17.1232 36.6367 17.1232C36.4383 16.0896 35.7328 15.6335 35.0278 15.6242C34.7303 15.6201 34.4359 15.7013 34.1769 15.8463C34.5643 16.0755 34.8801 16.4878 35.0021 17.1232C35.0021 17.1232 36.5188 25.0004 36.4926 27.5004C36.4926 30.3922 28.5209 36.8754 23.6722 35.5762L15.7052 34.0446C15.6592 34.4377 15.6271 34.8333 15.629 35.2354C20.4094 35.9609 24.9483 37.0274 29.5298 37.9081Z" fill="#FFB98D"/>
<path id="path5682-3" d="M16.875 35.2346C16.875 32.5001 18.125 29.969 18.125 27.5002V23.7502C18.125 22.8958 18.5596 22.289 19.1125 22.0241C18.8965 21.9173 18.6675 21.8655 18.4387 21.8752C17.6428 21.9089 16.875 22.6131 16.875 23.7502V27.5002C16.875 29.9689 15.625 32.5001 15.625 35.2345L16.875 35.2346Z" fill="#F5F9FB"/>
<path id="path5646-3-9" d="M24.8743 37.0127C20.5908 38.2815 14.8106 38.2401 12.5 38.1675V38.7498H30.625L30.6165 38.1174L24.8743 37.0127Z" fill="#3588CB"/>
<path id="path5642-4" d="M12.5 38.7495H13.3594C14.1013 37.6065 14.758 36.4303 15.4883 35.2082L14.3665 34.9922L12.5 38.1208V38.7495Z" fill="#F5F9FB"/>
<path id="path5595-8" d="M12.9983 24.4346C12.387 25.2417 11.6697 25.9257 11.0195 26.478C11.4094 26.9466 11.703 27.5092 11.8789 28.1248C12.0595 27.4881 12.3659 26.9079 12.7741 26.4296C13.1824 25.9512 13.6815 25.5876 14.2324 25.3672C14.2684 25.3431 14.3046 25.3195 14.3411 25.2964C13.8468 25.1176 13.3898 24.8243 12.9983 24.4346Z" fill="#ECB200"/>
<path id="path5697-1" d="M11.8738 22.5C11.6854 23.1652 11.3599 23.7683 10.9248 24.2582C10.4898 24.7481 9.95812 25.1102 9.375 25.3137C9.75436 25.4467 10.1132 25.6474 10.4382 25.9082C11.2321 25.3576 11.9002 24.588 12.3877 23.6633C12.1664 23.3074 11.9931 22.9152 11.8738 22.5Z" fill="#F5F9FB"/>
<path id="path5606-2" d="M6.17114 28.209C5.55077 29.2221 4.71191 30.0942 3.93359 30.781C4.2697 31.2903 4.52677 31.8731 4.69165 32.4998C4.90361 31.6868 5.26988 30.9496 5.75932 30.351C6.24876 29.7523 6.84691 29.3098 7.50293 29.061C7.02213 28.8773 6.57124 28.5888 6.17114 28.209Z" fill="#ECB200"/>
<path id="path5702-9" d="M4.73022 25.7783C4.62159 26.0479 4.49667 26.3055 4.36035 26.5535C3.82508 27.7613 2.93369 28.6619 1.875 29.0645C2.30128 29.2263 2.70454 29.4706 3.07007 29.7883C4.01963 29.1869 4.8032 28.2769 5.33447 27.1663C5.07869 26.7437 4.87502 26.2759 4.73022 25.7783Z" fill="#F5F9FB"/>
<path id="path5587-3" d="M8.72119 16.9209C7.95441 18.2836 6.74837 19.4278 5.78906 20.2058C6.27538 20.8779 6.64579 21.6572 6.87915 22.4995C7.16157 21.4648 7.64975 20.5265 8.3022 19.7644C8.95465 19.0023 9.75208 18.4389 10.6267 18.1221C9.9329 17.8702 9.28607 17.4624 8.72119 16.9209Z" fill="#ECB200"/>
<path id="path5694-9" d="M6.87256 13.75C6.29936 15.8501 4.90014 17.4845 3.125 18.1274C3.59695 18.3003 4.04794 18.5457 4.46655 18.8574C5.82367 18.1771 6.90562 16.896 7.48413 15.2844C7.22686 14.8056 7.02138 14.29 6.87256 13.75Z" fill="#F5F9FB"/>
<path id="path5677-0" d="M27.4258 38.1172C27.9592 38.124 28.594 38.1245 29.3752 38.1245L29.379 38.1195C29.1581 38.1185 28.8683 38.1196 28.6759 38.1172H27.4258Z" fill="#F5F9FB"/>
<path id="path5464-1" d="M22.3903 1.25195C17.836 1.25206 14.4005 4.86089 14.4005 9.31272C14.4005 11.878 15.5435 13.7348 16.6183 15.1361C17.1557 15.8367 17.6742 16.435 18.0366 16.9468C18.2173 17.2021 18.3524 17.4299 18.4425 17.6315C18.2687 17.7422 18.1535 17.937 18.1527 18.1584C18.1513 18.5061 18.4335 18.7894 18.7811 18.7881V21.3128C18.5415 21.2765 18.2989 21.2845 18.0647 21.3385C17.0753 21.5665 16.276 22.5294 16.276 23.7923V27.5457C16.276 29.611 15.2348 31.9246 15.0533 34.5416L14.5068 34.4365C14.2476 34.3869 13.9848 34.5053 13.8503 34.7323L11.9833 37.8623C11.8055 38.1596 11.9033 38.5447 12.201 38.7218C12.4982 38.8997 12.8834 38.8019 13.0605 38.5041L14.7012 35.7483L30.5465 38.8C30.8874 38.8663 31.2172 38.6426 31.2813 38.3012C31.3449 37.9633 31.1234 37.6376 30.7861 37.5713L30.7568 37.5639C31.0307 37.2792 31.3453 36.9671 31.7055 36.6311C32.5721 35.8228 33.6372 34.8834 34.6728 33.8863C35.7084 32.8891 36.7184 31.8388 37.4873 30.7808C38.2561 29.7228 38.8126 28.6511 38.8126 27.5457C38.8261 26.1586 38.4468 23.6024 38.0693 21.3103C37.6912 19.0149 37.3064 17.0348 37.3064 17.0348C37.1002 15.9606 36.3565 15.2552 35.5409 15.0762C35.1957 15.0004 34.8434 15.0061 34.509 15.086C34.4969 14.8486 34.4731 14.5952 34.4552 14.3646C34.201 13.0524 33.1859 12.453 32.2422 12.5246C31.2986 12.5962 30.3934 13.3554 30.3423 14.4698L30.1503 18.8419L28.6416 15.8293C28.5219 15.6077 28.3796 15.4256 28.2186 15.273C29.3944 13.8667 30.6761 11.9996 30.6761 9.36285C30.6761 4.88173 26.9498 1.25185 22.3903 1.25195ZM22.3903 2.50392C26.2883 2.50393 29.4229 5.57396 29.4229 9.36285C29.4229 11.7312 28.2369 13.3322 27.0608 14.7033C26.6485 14.6352 26.223 14.6796 25.8418 14.8304C24.9187 15.1957 24.1864 16.2105 24.5067 17.5337H23.1618V14.0369L24.8576 12.3351C25.1003 12.0909 25.1003 11.6953 24.8576 11.4511C24.6129 11.2053 24.2146 11.2053 23.97 11.4511L22.5383 12.8901L21.1005 11.4511C20.7942 11.1778 20.4474 11.245 20.2177 11.4511C19.975 11.6953 19.975 12.0909 20.2177 12.3351L21.9098 14.0321V17.5337H19.7348C19.6064 17.0681 19.3528 16.6421 19.0587 16.2267C18.638 15.6325 18.119 15.0387 17.6123 14.3781C16.5989 13.0568 15.6524 11.512 15.6524 9.31272C15.6524 5.49455 18.4872 2.50392 22.3903 2.50392ZM22.5383 3.75711C20.5265 3.75711 18.6647 4.82812 17.6588 6.57037C17.2393 7.29409 18.325 7.92374 18.7445 7.20003C19.5277 5.8434 20.9718 5.00908 22.5383 5.00908C23.3553 5.02982 23.4134 3.81448 22.5982 3.75711C22.5782 3.75616 22.5582 3.75616 22.5383 3.75711ZM34.4075 3.75956C34.2568 3.76713 34.1138 3.83314 33.9881 3.93684L33.3597 4.56527C33.117 4.80947 33.117 5.20503 33.3597 5.44923C33.6044 5.69504 34.0027 5.69504 34.2473 5.44923L34.8709 4.82569C35.1166 4.58096 35.1166 4.18157 34.8709 3.93684C34.7168 3.80281 34.5583 3.75197 34.4075 3.75956ZM10.603 4.38799C10.4478 4.39934 10.3063 4.46912 10.1995 4.56527C9.95683 4.80947 9.95683 5.20503 10.1995 5.44923L10.828 6.07766C11.0721 6.32039 11.4665 6.32039 11.7107 6.07766C11.9565 5.83292 11.9565 5.43476 11.7107 5.19003L11.0872 4.56527C10.9267 4.42393 10.7581 4.37668 10.603 4.38799ZM35.0078 6.88581C34.6712 6.89551 34.4013 7.17184 34.4002 7.51057C34.3988 7.85648 34.6779 8.13781 35.0237 8.139H35.6754C36.0212 8.13781 36.3003 7.85648 36.2989 7.51057C36.2977 7.16647 36.0194 6.88699 35.6754 6.88581H35.0237C35.0183 6.88583 35.013 6.88566 35.0078 6.88581ZM9.39381 7.51057C9.06121 7.52619 8.76406 7.80093 8.76538 8.13778C8.76657 8.48369 9.04552 8.76513 9.39137 8.76376H10.0174C10.3632 8.76514 10.6422 8.48369 10.6433 8.13778C10.6447 7.79006 10.365 7.51043 10.0174 7.5118L9.39381 7.51057ZM17.5353 10.0157C17.88 10.0124 18.1572 9.73086 18.1551 9.38608C18.1531 9.04084 17.872 8.76241 17.5267 8.76376C17.182 8.76511 16.9032 9.04498 16.9032 9.39342C16.9072 9.74233 17.19 10.0191 17.5353 10.0157ZM33.7669 9.39342C33.6108 9.40406 33.4676 9.47567 33.3597 9.57559C33.117 9.81979 33.117 10.2141 33.3597 10.4583L33.9881 11.0868C34.2323 11.3295 34.6267 11.3295 34.8709 11.0868C35.1166 10.842 35.1166 10.4439 34.8709 10.1991L34.2473 9.57559C34.0915 9.43299 33.9229 9.38275 33.7669 9.39342ZM11.2363 10.0206C11.0767 10.0306 10.9281 10.1002 10.828 10.1991L10.1995 10.8227C9.95375 11.0674 9.95375 11.4668 10.1995 11.7115C10.4442 11.9573 10.8425 11.9573 11.0872 11.7115L11.7107 11.0868C11.9565 10.842 11.9565 10.4439 11.7107 10.1991C11.5665 10.0602 11.3959 10.0106 11.2363 10.0206ZM6.88621 13.1493C6.6045 13.1483 6.35686 13.3352 6.28101 13.6066C5.75327 15.5404 4.47527 17.0025 2.91757 17.5667C2.3651 17.7652 2.3651 18.548 2.91757 18.7465C4.47588 19.3086 5.75638 20.7684 6.2859 22.7017C6.45625 23.3123 7.32238 23.3123 7.49263 22.7017C8.02037 20.7679 9.29835 19.3058 10.8561 18.7416C11.4085 18.5431 11.4085 17.7603 10.8561 17.5618C9.29773 16.9997 8.01726 15.5399 7.48774 13.6066C7.41227 13.3369 7.16624 13.1503 6.88621 13.1493ZM32.3388 13.7729C32.6814 13.7495 33.0908 13.9182 33.2216 14.5957L33.8035 23.2054C33.827 23.5517 34.1274 23.8126 34.4735 23.7874C34.8179 23.764 35.078 23.4667 35.0555 23.1223L34.597 16.3807C34.8065 16.2822 35.0515 16.2465 35.2731 16.2951C35.6305 16.3736 35.9482 16.5963 36.0776 17.2708C36.0776 17.2708 36.4558 19.2372 36.8308 21.5133C37.2057 23.7894 37.5724 26.4221 37.5607 27.5433C37.5607 28.2 37.1683 29.0919 36.475 30.046C35.7816 31.0001 34.8141 32.0122 33.8035 32.9852C32.793 33.9583 31.741 34.8908 30.8558 35.7165C30.232 36.2984 29.7042 36.8048 29.3092 37.2852L16.2943 34.78C16.4416 32.4069 17.5292 30.0487 17.5292 27.5457V23.7923C17.5292 23.0301 17.9685 22.6501 18.3471 22.5586C18.8441 22.4507 19.2542 22.7935 19.4462 23.39C20.3215 25.6681 21.1737 27.9447 21.9416 30.249C22.0503 30.5792 22.407 30.7575 22.7363 30.6463C23.0646 30.5357 23.2416 30.1796 23.13 29.8516C23.0673 29.6634 23.003 29.4757 22.9393 29.288C23.087 29.2057 24.2797 28.5372 25.4958 27.5641C26.1423 27.0467 26.7764 26.4608 27.2331 25.8121C27.6881 25.1659 28.0023 24.3835 27.7418 23.5954C27.0759 21.5154 26.4097 19.4388 25.7452 17.3625C25.5253 16.5284 25.9316 16.1504 26.2991 15.9956C26.6807 15.8323 27.2585 15.9027 27.5376 16.4162L31.5906 24.5173C32.0529 25.4413 32.1873 25.7859 32.2056 26.1226C32.2238 26.4593 32.104 26.9633 31.9329 28.0764C31.879 28.4201 32.1145 28.7419 32.4586 28.7928C32.8006 28.8439 33.1204 28.608 33.1714 28.2659C33.3364 27.1923 33.4862 26.6703 33.4526 26.0529C33.4191 25.4355 33.1824 24.8994 32.7093 23.9537L31.3045 21.1465L31.5955 14.526C31.618 14.0365 31.9912 13.8017 32.3388 13.7729ZM6.88621 15.4491C7.50343 16.7047 8.21868 17.5035 9.26666 18.1535C8.18413 18.8461 7.5017 19.665 6.88621 20.8457C6.33069 19.7124 5.47552 18.697 4.51065 18.1584C5.59661 17.4441 6.27859 16.6585 6.88621 15.4491ZM20.0331 18.7881H24.8857L25.0422 19.2771V21.9155C25.0422 22.2729 24.7715 22.5403 24.4138 22.5403H20.4476C20.3326 22.3257 20.1858 22.1049 20.0307 21.9437C20.037 21.7192 20.0331 21.5162 20.0331 21.2871H23.1618C23.5095 21.2885 23.7916 21.0064 23.7902 20.6587C23.789 20.3128 23.5076 20.0338 23.1618 20.0351H20.0331V18.7881ZM11.8916 21.9131C11.6116 21.9141 11.3655 22.1007 11.2901 22.3704C10.9569 23.5477 10.1538 24.4291 9.18352 24.7679C8.63106 24.9664 8.63106 25.748 9.18352 25.9465C10.1542 26.2841 10.9606 27.1684 11.295 28.3453C11.471 28.9451 12.3209 28.9451 12.4968 28.3453C12.8301 27.168 13.6331 26.2854 14.6034 25.9465C15.1646 25.7519 15.1646 24.9577 14.6034 24.763C13.6328 24.4255 12.8312 23.5473 12.4968 22.3704C12.421 22.099 12.1734 21.912 11.8916 21.9131ZM26.1303 22.6772L26.5509 23.9867C26.638 24.2416 26.554 24.6054 26.2123 25.0907C25.8704 25.5761 25.3081 26.1097 24.7145 26.5848C23.7432 27.362 22.8698 27.8783 22.5224 28.0788C22.0165 26.6404 21.4858 25.214 20.944 23.7923H24.4138C25.1726 23.7923 25.8347 23.3315 26.1303 22.6772ZM11.8916 24.0649C12.276 24.6585 12.5359 24.9268 13.0715 25.3548C12.6111 25.7284 12.2734 26.0388 11.8965 26.6459C11.4843 25.9748 11.0318 25.5986 10.7118 25.356C11.1488 25.025 11.5633 24.6258 11.8916 24.0649ZM4.69649 25.0442C4.41035 25.0422 4.1592 25.2358 4.0864 25.5125C3.69846 27.0017 2.76236 28.1101 1.65582 28.53C1.11994 28.7355 1.11994 29.4933 1.65582 29.6988C2.76274 30.117 3.70207 31.2238 4.09129 32.7126C4.25525 33.3345 5.13766 33.3345 5.30169 32.7126C5.6896 31.2233 6.63061 30.1138 7.73716 29.6939C8.27223 29.4863 8.26881 28.7285 7.73227 28.5251C6.62532 28.1068 5.69091 27.0013 5.30169 25.5125C5.22929 25.2375 4.98092 25.0443 4.69649 25.0442ZM4.69649 27.355C5.15172 28.1658 5.66462 28.7059 6.21988 29.1119C5.50095 29.6423 4.98336 30.3352 4.69649 30.8835C4.25382 30.004 3.56459 29.4109 3.1731 29.1119C3.85318 28.6302 4.30384 28.024 4.69649 27.355Z" fill="#333333"/>
</g>
</g>
</svg>
