<svg width="150" height="150" viewBox="0 0 150 150" fill="none" xmlns="http://www.w3.org/2000/svg">
<g id="request 1" clip-path="url(#clip0_599_7526)">
<g id="ESSENTIAL UI">
<path id="Vector" d="M146.795 30.2138C143.974 17.4755 131.625 5.80655 118.852 3.32804C111.067 1.77237 89.3555 -0.149502 75 -8.81637e-05C60.6445 -0.158291 38.9355 1.75772 31.1514 3.31925C18.3779 5.80655 6.0293 17.4755 3.22266 30.2138C1.60254 37.9482 0.0234375 48.4716 0 62.8358C0.0234375 77.1913 1.60254 87.7177 3.22266 95.455C6.04395 108.193 18.3926 119.862 31.166 122.341C35.3672 123.179 43.6318 124.128 52.6025 124.796C53.6182 126.392 54.7217 128.091 55.9131 129.893C60.6738 137.106 64.3154 142.131 67.0781 145.632C71.6719 151.456 78.3574 151.456 82.9512 145.632C85.7139 142.131 89.3555 137.106 94.1162 129.893C95.3076 128.093 96.4111 126.393 97.4268 124.796C106.4 124.128 114.662 123.179 118.866 122.341C131.64 119.862 143.988 108.193 146.81 95.455C148.415 87.7177 149.991 77.1972 150.018 62.8358C149.977 48.4687 148.4 37.9511 146.795 30.2138Z" fill="#F9973E"/>
<path id="Vector_2" d="M75 -8.81637e-05C60.6445 -0.158291 38.9355 1.75772 31.1514 3.31925C18.3779 5.80655 6.0293 17.4755 3.22266 30.2138C1.60254 37.9482 0.0234375 48.4716 0 62.8358C0.0234375 77.1913 1.60254 87.7177 3.22266 95.455C4.88379 102.952 9.84668 110.08 16.2539 115.181C22.5038 116.677 28.9084 117.431 35.335 117.428C80.3438 117.428 116.83 80.9413 116.83 35.9355C116.84 24.2146 114.312 12.6307 109.418 1.98038C99.4072 0.855381 85.3096 -0.105557 75 -8.81637e-05Z" fill="#FCA84C"/>
<path id="Vector_3" d="M83.2854 106.389C83.0908 107.301 82.6363 108.138 81.9765 108.798C81.3168 109.457 80.4801 109.912 79.5676 110.106C76.5414 110.571 73.4619 110.571 70.4357 110.106C69.5231 109.912 68.6862 109.458 68.0264 108.798C67.3666 108.138 66.9121 107.301 66.718 106.389C66.2492 103.362 66.2492 100.281 66.718 97.2539C66.9121 96.3412 67.3666 95.5044 68.0264 94.8446C68.6862 94.1848 69.5231 93.7303 70.4357 93.5361C73.4619 93.0713 76.5414 93.0713 79.5676 93.5361C80.4816 93.7315 81.3194 94.1878 81.9793 94.8498C82.6392 95.5118 83.0929 96.351 83.2854 97.2656C83.7541 100.293 83.7541 103.374 83.2854 106.4V106.389ZM101.121 58.4033C98.8596 61.6025 95.4699 64.5234 90.4543 67.5908C84.1057 71.5049 83.0891 73.1133 83.0891 76.2627V77.5078C83.1095 78.5844 82.9152 79.6542 82.5174 80.6548C82.1195 81.6553 81.5262 82.5665 80.7721 83.3351C80.018 84.1037 79.1183 84.7142 78.1255 85.131C77.1326 85.5478 76.0667 85.7624 74.9899 85.7624C73.9132 85.7624 72.8473 85.5478 71.8544 85.131C70.8616 84.7142 69.9619 84.1037 69.2078 83.3351C68.4537 82.5665 67.8603 81.6553 67.4625 80.6548C67.0647 79.6542 66.8704 78.5844 66.8908 77.5078V74.6221C66.8908 70.9072 67.8195 67.7549 69.7297 64.9863C71.5813 62.3027 74.3586 59.918 78.4719 57.4717C86.0568 53.0098 87.4455 50.5049 87.4455 47.1797C87.4455 43.002 83.8859 40.3008 78.3635 40.3008C72.3313 40.3008 68.4025 43.043 66.6887 48.4541C66.1334 50.1949 65.0362 51.7126 63.5573 52.7857C62.0783 53.8588 60.2951 54.431 58.468 54.4189C58.257 54.4189 58.0432 54.4189 57.8352 54.3955C56.5225 54.303 55.2484 53.9118 54.11 53.2517C52.9716 52.5916 51.9992 51.6802 51.2668 50.5869C50.5351 49.5131 50.0586 48.2862 49.8738 47C49.6889 45.7138 49.8007 44.4024 50.2004 43.166C51.9582 37.5317 55.5633 32.654 60.4338 29.3203C65.344 25.9746 71.5461 24.208 78.3635 24.208C85.4445 24.208 92.0158 26.4668 96.8674 30.5684C101.863 34.7871 104.611 40.6084 104.611 46.957C104.625 51.3223 103.48 55.0781 101.121 58.4033Z" fill="white"/>
</g>
</g>
<defs>
<clipPath id="clip0_599_7526">
<rect width="150" height="150" fill="white"/>
</clipPath>
</defs>
</svg>
