<svg width="114" height="114" viewBox="0 0 114 114" fill="none" xmlns="http://www.w3.org/2000/svg">
<g id="reset-password 1">
<g id="Group">
<path id="Vector" d="M60.3398 60.3398H57L55.3301 57L57 53.6602H60.3398V60.3398Z" fill="#292827"/>
<path id="Vector_2" d="M53.6602 53.6602H57V60.3398H53.6602V53.6602Z" fill="#464443"/>
<path id="Vector_3" d="M39.4697 53.6602H46.1494V60.3398H39.4697V53.6602Z" fill="#464443"/>
<path id="Vector_4" d="M67.8511 53.6602H74.5308V60.3398H67.8511V53.6602Z" fill="#292827"/>
<path id="Vector_5" d="M57.0001 14.1909C33.3574 14.1909 14.1909 33.3572 14.1909 57.0001C14.1909 67.7598 18.1615 77.5914 24.7159 85.1123L34.7862 75.0418C30.7828 70.1186 28.3817 63.8401 28.3817 56.9999C28.3817 41.1944 41.1944 28.3817 56.9999 28.3817H60.5477V14.1909H57.0001Z" fill="#30BBEC"/>
<path id="Vector_6" d="M89.2845 28.8877L79.2142 38.9582C83.2175 43.8814 85.6187 50.1598 85.6187 57.0001C85.6187 72.8055 72.8059 85.6183 57.0004 85.6183H53.4526V99.8091H57.0002C80.643 99.8091 99.8094 80.6428 99.8094 56.9998C99.8094 46.2402 95.8388 36.4086 89.2845 28.8877Z" fill="#1F8DCD"/>
<g id="Group_2">
<path id="Vector_7" d="M57.0005 0V42.5728L78.2869 21.2864L57.0005 0Z" fill="#16A5D9"/>
<path id="Vector_8" d="M57.0003 114V71.4272L35.7139 92.7136L57.0003 114Z" fill="#16A5D9"/>
</g>
</g>
</g>
</svg>
