<svg width="148" height="148" viewBox="0 0 148 148" fill="none" xmlns="http://www.w3.org/2000/svg">
<g id="security-shield 1" clip-path="url(#clip0_599_7543)">
<g id="Group">
<g id="XMLID_1567_">
<path id="XMLID_1568_" d="M11.5625 19.7626V58.7309C11.5625 98.0431 37.002 132.886 74 145.109C110.998 132.886 136.438 98.0431 136.438 58.7309V19.7626C114.762 17.7285 93.5617 12.0088 74 2.89062C54.4383 12.0088 33.2381 17.7285 11.5625 19.7626Z" fill="#8FECBA"/>
</g>
<g id="Group_2">
<path id="Vector" d="M74 27.4614C62.6416 27.4614 53.4009 36.7022 53.4009 48.0606V54.0555H64.9634V48.0606C64.9634 43.0777 69.0172 39.0239 74 39.0239C78.9826 39.0239 83.0367 43.0777 83.0367 48.0606V54.0555H94.5992V48.0606C94.5992 36.7019 85.3585 27.4614 74 27.4614Z" fill="#DAF9E8"/>
<path id="XMLID_678_" d="M96.1445 54.0552H51.8555C47.1631 54.0552 43.3594 57.8589 43.3594 62.5513V97.6007C43.3594 102.293 47.1631 106.097 51.8555 106.097H96.1445C100.837 106.097 104.641 102.293 104.641 97.6007V62.5513C104.641 57.8592 100.837 54.0552 96.1445 54.0552Z" fill="white"/>
<path id="Vector_2" d="M81.8547 75.2843C81.8547 70.9666 78.3545 67.4663 74.0367 67.4663C69.719 67.4663 66.2188 70.9666 66.2188 75.2843C66.2188 77.8827 67.4874 80.1839 69.438 81.6052V88.1007C69.438 90.6404 71.4967 92.6992 74.0364 92.6992C76.5762 92.6992 78.6349 90.6404 78.6349 88.1007V81.6052C80.5857 80.1836 81.8547 77.8827 81.8547 75.2843Z" fill="#FF9EB2"/>
</g>
<g id="XMLID_1564_">
<g id="XMLID_1565_">
<path id="Vector_3" d="M74 148C73.6939 148 73.3875 147.951 73.0932 147.854C54.3215 141.652 38.2329 129.868 26.5666 113.775C14.8598 97.6259 8.67188 78.592 8.67188 58.7309V19.7626C8.67188 18.2708 9.80702 17.024 11.2922 16.8847C32.7635 14.8697 53.4503 9.27977 72.7787 0.270562C73.5528 -0.0901875 74.4472 -0.0901875 75.221 0.270562C94.5492 9.27977 115.236 14.8697 136.707 16.8847C138.193 17.024 139.328 18.2708 139.328 19.7626V58.7309C139.328 78.592 133.14 97.6259 121.433 113.775C109.767 129.868 93.6782 141.652 74.9065 147.854C74.6122 147.951 74.3064 148 74 148ZM14.4531 22.3772V58.7309C14.4531 77.3653 20.2604 95.2259 31.2474 110.382C42.0086 125.226 56.7762 136.164 74 142.06C91.2238 136.164 105.991 125.227 116.752 110.382C127.739 95.2259 133.547 77.3653 133.547 58.7309V22.3772C112.802 20.1508 92.7885 14.6725 74 6.07494C55.2112 14.6722 35.1977 20.1505 14.4531 22.3772Z" fill="#45E08C"/>
</g>
</g>
</g>
</g>
<defs>
<clipPath id="clip0_599_7543">
<rect width="148" height="148" fill="white"/>
</clipPath>
</defs>
</svg>
