<svg width="101" height="100" viewBox="0 0 101 100" fill="none" xmlns="http://www.w3.org/2000/svg">
<g id="videoconference" clip-path="url(#clip0_1238_25017)">
<path id="Vector" d="M91.197 0.107422H10.3383C5.06085 0.107422 0.767578 4.40069 0.767578 9.67815V70.0434C0.767578 75.3207 5.06085 79.6141 10.3383 79.6141H34.3119L32.0497 94.0207H27.6028C25.9854 94.0207 24.6742 95.3319 24.6742 96.9493C24.6742 98.5666 25.9854 99.8778 27.6028 99.8778C37.415 99.9001 64.1668 99.8952 73.9324 99.8778C75.5497 99.8778 76.861 98.5666 76.861 96.9493C76.861 95.3319 75.5497 94.0207 73.9324 94.0207H69.0845L67.054 79.6141H91.197C96.4743 79.6141 100.768 75.3209 100.768 70.0434V9.67815C100.768 4.40069 96.4743 0.107422 91.197 0.107422ZM94.9105 9.67815V36.9323H87.7564C87.0639 33.3831 84.8602 30.3694 81.844 28.5886C82.9301 27.0291 83.5693 25.1361 83.5693 23.0958C83.5693 17.7819 79.2462 13.4587 73.9324 13.4587C68.6186 13.4587 64.2953 17.7821 64.2953 23.0958C64.2953 25.1363 64.9345 27.0291 66.0206 28.5886C63.0046 30.3694 60.8007 33.3829 60.1082 36.9323H53.6962V5.96454H91.197C93.2447 5.96454 94.9105 7.63031 94.9105 9.67815ZM74.1544 26.8643H73.7104C71.7295 26.7483 70.1524 25.105 70.1524 23.0956C70.1524 21.0113 71.8482 19.3157 73.9324 19.3157C76.0166 19.3157 77.7122 21.0115 77.7122 23.0956C77.7122 25.105 76.1353 26.7483 74.1544 26.8643ZM72.333 32.7214C73.2346 32.7236 74.4158 32.7265 75.5318 32.7214C78.3288 32.7214 80.7251 34.4704 81.6845 36.9321H66.1805C67.1397 34.4704 69.5359 32.7214 72.333 32.7214ZM10.3383 5.96454H47.8391V36.9321H41.3022C40.6097 33.3829 38.4058 30.3692 35.3898 28.5885C36.4759 27.0289 37.1151 25.1359 37.1151 23.0956C37.1151 17.7817 32.792 13.4585 27.4782 13.4585C22.1644 13.4585 17.8411 17.7819 17.8411 23.0956C17.8411 25.1361 18.4803 27.0289 19.5664 28.5885C16.5504 30.3692 14.3465 33.3827 13.654 36.9321H6.6247V9.67815C6.6247 7.63031 8.29047 5.96454 10.3383 5.96454ZM27.7 26.8643H27.256C25.2751 26.7483 23.698 25.105 23.698 23.0956C23.698 21.0113 25.3938 19.3157 27.478 19.3157C29.5622 19.3157 31.2578 21.0115 31.2578 23.0956C31.2578 25.105 29.6807 26.7483 27.7 26.8643ZM25.8784 32.7214C26.78 32.7236 27.9612 32.7265 29.0772 32.7214C31.8742 32.7214 34.2705 34.4704 35.2299 36.9321H19.7259C20.6853 34.4704 23.0815 32.7214 25.8784 32.7214ZM6.6247 70.0434V42.7892H47.8391V73.7568H41.3022C40.6097 70.2074 38.4058 67.1939 35.3898 65.4132C36.4759 63.8536 37.1151 61.9606 37.1151 59.9202C37.1151 54.6062 32.792 50.2832 27.4782 50.2832C22.1644 50.2832 17.8411 54.6064 17.8411 59.9202C17.8411 61.9606 18.4803 63.8534 19.5664 65.4132C16.5502 67.1939 14.3465 70.2074 13.654 73.7568H10.3383C8.29047 73.757 6.6247 72.0911 6.6247 70.0434ZM27.2558 63.689C25.2749 63.573 23.6978 61.9295 23.6978 59.9202C23.6978 57.8358 25.3937 56.1404 27.4778 56.1404C29.562 56.1404 31.2576 57.836 31.2576 59.9202C31.2576 61.9295 29.6805 63.573 27.6998 63.689H27.2558ZM25.8784 69.5461C26.78 69.5483 27.9612 69.5512 29.0772 69.5461C31.8742 69.5461 34.2707 71.2953 35.2299 73.7568H19.7259C20.6851 71.2953 23.0815 69.5461 25.8784 69.5461ZM37.9785 94.0207L40.2405 79.6141H61.1387L63.1692 94.0207H37.9785ZM66.1803 73.757C67.1395 71.2955 69.536 69.5463 72.333 69.5463C73.2346 69.5485 74.4158 69.5514 75.5318 69.5463C78.3288 69.5463 80.7253 71.2955 81.6845 73.757H66.1803ZM74.1544 63.689H73.7104C71.7295 63.573 70.1524 61.9295 70.1524 59.9202C70.1524 57.8358 71.8482 56.1404 73.9324 56.1404C76.0166 56.1404 77.7122 57.836 77.7122 59.9202C77.7122 61.9297 76.1353 63.5732 74.1544 63.689ZM91.197 73.757H87.7566C87.0641 70.2076 84.8604 67.1941 81.8442 65.4134C82.9303 63.8538 83.5695 61.9608 83.5695 59.9203C83.5695 54.6064 79.2464 50.2834 73.9326 50.2834C68.6188 50.2834 64.2955 54.6066 64.2955 59.9203C64.2955 61.9608 64.9347 63.8536 66.0208 65.4134C63.0046 67.1941 60.8009 70.2076 60.1084 73.757H53.6964V42.7892H94.9109V70.0434C94.9105 72.0911 93.2447 73.757 91.197 73.757Z" fill="#FA8951"/>
</g>
<defs>
<clipPath id="clip0_1238_25017">
<rect width="100" height="100" fill="white" transform="translate(0.767578)"/>
</clipPath>
</defs>
</svg>
