<svg width="101" height="100" viewBox="0 0 101 100" fill="none" xmlns="http://www.w3.org/2000/svg">
<g id="lecture">
<path id="Vector" d="M97.6426 48.4375H96.0801V38.7937C96.0801 35.525 94.8082 32.4531 92.4973 30.1453C90.1863 27.8344 87.1145 26.5625 83.8473 26.5625H82.0176V24.8719C85.7473 22.7063 88.2676 18.6781 88.2676 14.0625C88.2676 7.17031 82.6598 1.5625 75.7676 1.5625C68.8754 1.5625 63.2676 7.17031 63.2676 14.0625C63.2676 18.6766 65.7879 22.7063 69.5176 24.8719V26.5625H67.6879C64.4207 26.5625 61.3488 27.8344 59.0379 30.1453C56.727 32.4547 55.4551 35.525 55.4551 38.7937V48.4375H52.3301V43.75C52.3301 42.8859 51.6301 42.1875 50.7676 42.1875H46.0801V41.6516C46.0801 37.0953 47.6176 32.7781 50.4348 29.2797C51.016 29.5375 51.6551 29.6875 52.3301 29.6875C54.9145 29.6875 57.0176 27.5844 57.0176 25C57.0176 22.4156 54.9145 20.3125 52.3301 20.3125C49.7457 20.3125 47.6426 22.4156 47.6426 25C47.6426 25.7625 47.8426 26.4703 48.166 27.1078C44.7926 31.1969 42.9551 36.2828 42.9551 41.6516V42.1875H38.2676C37.4051 42.1875 36.7051 42.8859 36.7051 43.75V48.4375H35.1426C34.2801 48.4375 33.5801 49.1359 33.5801 50V56.25C33.5801 57.1141 34.2801 57.8125 35.1426 57.8125H36.7051V67.1875C32.3973 67.1875 28.8926 70.6922 28.8926 75C28.8926 77.3203 29.9301 79.3844 31.541 80.8172C29.0941 81.9328 27.0645 83.8078 25.7676 86.15C24.4707 83.8094 22.441 81.9344 19.9941 80.8172C21.6051 79.3844 22.6426 77.3203 22.6426 75C22.6426 70.6922 19.1379 67.1875 14.8301 67.1875C10.5223 67.1875 7.01758 70.6922 7.01758 75C7.01758 77.3203 8.05508 79.3844 9.66602 80.8172C5.3457 82.7875 2.33008 87.1375 2.33008 92.1875V96.875C2.33008 97.7391 3.03008 98.4375 3.89258 98.4375H69.5176C70.3801 98.4375 71.0801 97.7391 71.0801 96.875V95.3125H94.5176C95.3801 95.3125 96.0801 94.6141 96.0801 93.75V57.8125H97.6426C98.5051 57.8125 99.2051 57.1141 99.2051 56.25V50C99.2051 49.1359 98.5051 48.4375 97.6426 48.4375ZM52.3301 23.4375C53.191 23.4375 53.8926 24.1375 53.8926 25C53.8926 25.8625 53.191 26.5625 52.3301 26.5625C51.4691 26.5625 50.7676 25.8625 50.7676 25C50.7676 24.1375 51.4691 23.4375 52.3301 23.4375ZM92.9551 38.7937V48.4375H89.8301V42.1875H86.7051V48.4375H77.3301V36.9031L81.3191 38.8969C81.5379 39.0078 81.7785 39.0625 82.0176 39.0625C82.2207 39.0625 82.4238 39.0234 82.616 38.9437C83.0348 38.7703 83.3566 38.4234 83.5004 37.9953L86.1676 29.9953C87.7113 30.4 89.1301 31.1969 90.2895 32.3563C92.0082 34.075 92.9551 36.3609 92.9551 38.7937ZM70.2988 29.6875L73.3941 33.8141L70.4301 35.2969L68.5613 29.6875H70.2988ZM81.2363 29.6875H82.9754L81.1066 35.2969L78.1426 33.8141L81.2363 29.6875ZM75.7676 4.6875C80.3613 4.6875 84.1863 8.01094 84.9832 12.3781C82.0238 12.0031 79.2848 10.6813 77.1426 8.53906L76.8754 8.27031C76.2895 7.68125 75.2488 7.68125 74.6629 8.27031L74.3973 8.5375C72.2535 10.6813 69.5145 12.0031 66.5551 12.3766C67.3488 8.01094 71.1738 4.6875 75.7676 4.6875ZM66.5098 15.5422C69.9441 15.2016 73.1566 13.8125 75.7676 11.5312C78.3785 13.8109 81.5895 15.2016 85.0254 15.5422C84.3145 20.0109 80.4332 23.4375 75.7676 23.4375C71.102 23.4375 67.2207 20.0109 66.5098 15.5422ZM75.7676 26.5625C76.8488 26.5625 77.891 26.4109 78.8926 26.1516V27.6047L75.7676 31.7703L72.6426 27.6047V26.1516C73.6441 26.4109 74.6863 26.5625 75.7676 26.5625ZM58.5801 38.7937C58.5801 36.3609 59.527 34.0734 61.2473 32.3547C62.4066 31.1969 63.8254 30.3984 65.3691 29.9937L68.0363 37.9938C68.1801 38.4219 68.502 38.7687 68.9207 38.9422C69.1113 39.0234 69.3145 39.0625 69.5176 39.0625C69.7566 39.0625 69.9973 39.0078 70.216 38.8984L74.2051 36.9031V48.4375H64.8301V42.1875H61.7051V48.4375H58.5801V38.7937ZM39.8301 45.3125H49.2051V48.4375H39.8301V45.3125ZM32.0176 75C32.0176 72.4156 34.1207 70.3125 36.7051 70.3125C39.2895 70.3125 41.3926 72.4156 41.3926 75C41.3926 77.5844 39.2895 79.6875 36.7051 79.6875C34.1207 79.6875 32.0176 77.5844 32.0176 75ZM10.1426 75C10.1426 72.4156 12.2457 70.3125 14.8301 70.3125C17.4145 70.3125 19.5176 72.4156 19.5176 75C19.5176 77.5844 17.4145 79.6875 14.8301 79.6875C12.2457 79.6875 10.1426 77.5844 10.1426 75ZM5.45508 92.1875C5.45508 87.0172 9.65977 82.8125 14.8301 82.8125C20.0004 82.8125 24.2051 87.0172 24.2051 92.1875V95.3125H5.45508V92.1875ZM27.3301 92.1875C27.3301 87.0172 31.5348 82.8125 36.7051 82.8125C41.8754 82.8125 46.0801 87.0172 46.0801 92.1875V95.3125H27.3301V92.1875ZM67.9551 95.3125H49.2051V92.1875C49.2051 87.0172 53.4098 82.8125 58.5801 82.8125C63.7504 82.8125 67.9551 87.0172 67.9551 92.1875V95.3125ZM53.8926 75C53.8926 72.4156 55.9957 70.3125 58.5801 70.3125C61.1645 70.3125 63.2676 72.4156 63.2676 75C63.2676 77.5844 61.1645 79.6875 58.5801 79.6875C55.9957 79.6875 53.8926 77.5844 53.8926 75ZM92.9551 92.1875H71.0801C71.0801 87.1375 68.0645 82.7875 63.7441 80.8172C65.3551 79.3844 66.3926 77.3203 66.3926 75C66.3926 70.6922 62.8879 67.1875 58.5801 67.1875C54.2723 67.1875 50.7676 70.6922 50.7676 75C50.7676 77.3203 51.8051 79.3844 53.416 80.8172C50.9691 81.9328 48.9395 83.8078 47.6426 86.15C46.3457 83.8094 44.316 81.9344 41.8691 80.8172C43.4801 79.3844 44.5176 77.3203 44.5176 75C44.5176 71.8047 42.5848 69.0594 39.8301 67.85V57.8125H92.9551V92.1875ZM96.0801 54.6875H36.7051V51.5625H96.0801V54.6875Z" fill="#FA8951"/>
<path id="Vector_2" d="M7.01758 32.8125H32.0176C34.602 32.8125 36.7051 30.7094 36.7051 28.125V25.6469L42.4973 19.8547C43.1082 19.2437 43.1082 18.2563 42.4973 17.6453L36.7051 11.8531V9.375C36.7051 6.79062 34.602 4.6875 32.0176 4.6875H7.01758C4.4332 4.6875 2.33008 6.79062 2.33008 9.375V28.125C2.33008 30.7094 4.4332 32.8125 7.01758 32.8125ZM5.45508 9.375C5.45508 8.5125 6.15664 7.8125 7.01758 7.8125H32.0176C32.8785 7.8125 33.5801 8.5125 33.5801 9.375V12.5C33.5801 12.9156 33.7441 13.3125 34.0379 13.6047L39.1832 18.75L34.0379 23.8953C33.7441 24.1875 33.5801 24.5844 33.5801 25V28.125C33.5801 28.9875 32.8785 29.6875 32.0176 29.6875H7.01758C6.15664 29.6875 5.45508 28.9875 5.45508 28.125V9.375Z" fill="#FA8951"/>
<path id="Vector_3" d="M8.58008 10.9375H30.4551V14.0625H8.58008V10.9375Z" fill="#FA8951"/>
<path id="Vector_4" d="M8.58008 23.4375H30.4551V26.5625H8.58008V23.4375Z" fill="#FA8951"/>
<path id="Vector_5" d="M11.7051 17.1875H27.3301V20.3125H11.7051V17.1875Z" fill="#FA8951"/>
</g>
</svg>
