<svg width="130" height="130" viewBox="0 0 130 130" fill="none" xmlns="http://www.w3.org/2000/svg">
<g id="soft-skills2 1" clip-path="url(#clip0_1238_26319)">
<g id="Group">
<path id="Vector" d="M129.999 65C129.999 81.7832 123.651 97.0684 113.216 108.596C112.708 109.154 111.337 108.723 110.804 109.281C105.624 114.613 99.5303 119.057 92.8018 122.383C92.421 122.561 92.9034 123.729 92.5225 123.906C84.169 127.816 74.8506 130 64.9991 130C55.1475 130 58.8038 129.771 55.8077 129.365C54.792 129.213 54.7159 127.105 53.7256 126.928C34.5811 123.297 20.4131 110.779 11.1963 94.3516C10.7901 93.6406 7.48932 95.3418 7.10846 94.6055C3.27447 87.1152 0.836973 78.7617 0.176817 69.9258C0.0498634 68.3008 2.41119 67.793 2.41119 66.1426C2.41119 53.1426 6.21979 41.0312 12.796 30.875C13.6085 29.6055 12.0596 27.2441 12.9737 26.0254C24.8311 10.207 43.7217 0 64.9991 0C100.901 0 129.999 29.0977 129.999 65Z" fill="#6354B2"/>
<path id="Vector_2" d="M109.18 83.7891V112.684C104.279 117.229 98.6426 121.037 92.5234 123.906H69.0625C66.2695 123.906 63.9844 121.621 63.9844 118.828V83.7891C63.9844 80.9961 66.2695 78.7109 69.0625 78.7109H104.102C106.895 78.7109 109.18 80.9961 109.18 83.7891ZM53.3203 78.7109H19.3984C19.3223 78.7109 19.2715 78.7109 19.1953 78.7109C19.1191 78.7109 19.0684 78.7109 18.9922 78.7109H12.1621C9.36914 78.7109 7.08398 80.9961 7.08398 83.7891V94.5801C16.5293 113.014 34.4805 126.318 55.7832 129.34C57.332 128.477 58.373 126.801 58.373 124.896V83.7637C58.373 80.9707 56.0879 78.6855 53.2949 78.6855L53.3203 78.7109ZM109.18 23.3594H76.4258C76.248 23.3594 76.0703 23.3594 75.8926 23.3848C75.7148 23.3848 75.5371 23.3594 75.3594 23.3594H69.0371C66.2441 23.3594 63.959 25.6445 63.959 28.4375V68.5547C63.959 71.3477 66.2441 73.6328 69.0371 73.6328H75.3594C75.5371 73.6328 75.7148 73.6328 75.8926 73.6074C76.0703 73.6074 76.248 73.6328 76.4258 73.6328H109.18C111.973 73.6328 114.258 71.3477 114.258 68.5547V28.4375C114.258 25.6445 111.973 23.3594 109.18 23.3594ZM53.3203 15.2344H23.1816C9.01367 27.168 0 45.0176 0 65C0 84.9824 0.0507812 68.3008 0.177734 69.9004C0.761719 72.0586 2.74219 73.6328 5.07812 73.6328H53.3203C56.1133 73.6328 58.3984 71.3477 58.3984 68.5547V20.3125C58.3984 17.5195 56.1133 15.2344 53.3203 15.2344Z" fill="#54469D"/>
<path id="Vector_3" d="M26.6348 122.383H19.8047C17.0117 122.383 14.7266 120.098 14.7266 117.305V76.1719C14.7266 73.3789 17.0117 71.0938 19.8047 71.0938H26.6348C29.4277 71.0938 31.7129 73.3789 31.7129 76.1719V117.305C31.7129 120.098 29.4277 122.383 26.6348 122.383Z" fill="#FF4FB8"/>
<path id="Vector_4" d="M60.9375 122.383H27.0156C24.2227 122.383 21.9375 120.098 21.9375 117.305V76.1719C21.9375 73.3789 24.2227 71.0938 27.0156 71.0938H60.9375C63.7305 71.0938 66.0156 73.3789 66.0156 76.1719V117.305C66.0156 120.098 63.7305 122.383 60.9375 122.383Z" fill="#FF73C6"/>
<path id="Vector_5" d="M84.3223 116.289H76.6797C73.8867 116.289 71.6016 114.004 71.6016 111.211V76.1719C71.6016 73.3789 73.8867 71.0938 76.6797 71.0938H84.3223C87.1152 71.0938 89.4004 73.3789 89.4004 76.1719V111.211C89.4004 114.004 87.1152 116.289 84.3223 116.289Z" fill="#4BCD5C"/>
<path id="Vector_6" d="M111.719 116.289H84.043C81.25 116.289 78.9648 114.004 78.9648 111.211V76.1719C78.9648 73.3789 81.25 71.0938 84.043 71.0938H111.719C114.512 71.0938 116.797 73.3789 116.797 76.1719V111.211C116.797 114.004 114.512 116.289 111.719 116.289Z" fill="#74D579"/>
<path id="Vector_7" d="M83.002 66.0156H76.6797C73.8867 66.0156 71.6016 63.7305 71.6016 60.9375V20.8203C71.6016 18.0273 73.8867 15.7422 76.6797 15.7422H83.002C85.7949 15.7422 88.0801 18.0273 88.0801 20.8203V60.9375C88.0801 63.7305 85.7949 66.0156 83.002 66.0156Z" fill="#00C1FB"/>
<path id="Vector_8" d="M116.797 66.0156H84.043C81.25 66.0156 78.9648 63.7305 78.9648 60.9375V20.8203C78.9648 18.0273 81.25 15.7422 84.043 15.7422H116.797C119.59 15.7422 121.875 18.0273 121.875 20.8203V60.9375C121.875 63.7305 119.59 66.0156 116.797 66.0156Z" fill="#00D1FC"/>
<path id="Vector_9" d="M19.1953 66.0156H12.6953C9.90234 66.0156 7.61719 63.7305 7.61719 60.9375V12.6953C7.61719 9.90234 9.90234 7.61719 12.6953 7.61719H19.1953C21.9883 7.61719 24.2734 9.90234 24.2734 12.6953V60.9375C24.2734 63.7305 21.9883 66.0156 19.1953 66.0156Z" fill="#FFEF31"/>
<path id="Vector_10" d="M60.9375 66.0156H19.2461C16.4531 66.0156 14.168 63.7305 14.168 60.9375V12.6953C14.168 9.90234 16.4531 7.61719 19.2461 7.61719H60.9375C63.7305 7.61719 66.0156 9.90234 66.0156 12.6953V60.9375C66.0156 63.7305 63.7305 66.0156 60.9375 66.0156Z" fill="#FFF261"/>
<path id="Vector_11" d="M59.9473 21.582C59.9473 22.9785 58.8047 24.1211 57.4082 24.1211H43.0879C41.6914 24.1211 40.5488 22.9785 40.5488 21.582C40.5488 20.1855 41.6914 19.043 43.0879 19.043H57.4082C58.8047 19.043 59.9473 20.1855 59.9473 21.582ZM19.3223 24.1211C20.7188 24.1211 21.8613 22.9785 21.8613 21.582C21.8613 20.1855 20.7188 19.043 19.3223 19.043C17.9258 19.043 16.7832 20.1855 16.7832 21.582C16.7832 22.9785 17.9258 24.1211 19.3223 24.1211ZM26.9395 24.1211C28.3359 24.1211 29.4785 22.9785 29.4785 21.582C29.4785 20.1855 28.3359 19.043 26.9395 19.043C25.543 19.043 24.4004 20.1855 24.4004 21.582C24.4004 22.9785 25.543 24.1211 26.9395 24.1211ZM34.5566 24.1211C35.9531 24.1211 37.0957 22.9785 37.0957 21.582C37.0957 20.1855 35.9531 19.043 34.5566 19.043C33.1602 19.043 32.0176 20.1855 32.0176 21.582C32.0176 22.9785 33.1602 24.1211 34.5566 24.1211ZM19.3223 34.2773H45.9063C47.3027 34.2773 48.4453 33.1348 48.4453 31.7383C48.4453 30.3418 47.3027 29.1992 45.9063 29.1992H19.3223C17.9258 29.1992 16.7832 30.3418 16.7832 31.7383C16.7832 33.1348 17.9258 34.2773 19.3223 34.2773ZM57.4082 39.3555H19.3223C17.9258 39.3555 16.7832 40.498 16.7832 41.8945C16.7832 43.291 17.9258 44.4336 19.3223 44.4336H57.4082C58.8047 44.4336 59.9473 43.291 59.9473 41.8945C59.9473 40.498 58.8047 39.3555 57.4082 39.3555ZM45.9063 49.5117H19.3223C17.9258 49.5117 16.7832 50.6543 16.7832 52.0508C16.7832 53.4473 17.9258 54.5898 19.3223 54.5898H45.9063C47.3027 54.5898 48.4453 53.4473 48.4453 52.0508C48.4453 50.6543 47.3027 49.5117 45.9063 49.5117Z" fill="#FFAA00"/>
<g id="Group_2">
<path id="Vector_12" d="M105.421 100.318C103.593 102.172 102.451 104.66 102.247 107.275C102.222 107.732 101.841 108.062 101.384 108.062H94.3764C93.9194 108.062 93.5385 107.707 93.5131 107.275C93.31 104.66 92.1674 102.197 90.3393 100.318C90.0346 100.039 89.9838 99.582 90.2123 99.2266L97.017 89.0195L97.7787 90.3652L97.8803 90.2383L98.7436 89.0195L105.548 99.2266C105.777 99.582 105.726 100.039 105.421 100.318Z" fill="#FFDA45"/>
<path id="Vector_13" d="M105.422 100.318C103.594 102.172 102.451 104.66 102.248 107.275C102.223 107.732 101.842 108.062 101.385 108.062H97.8809V90.2383L98.7441 89.0195L105.549 99.2266C105.777 99.582 105.727 100.039 105.422 100.318Z" fill="#FFBC36"/>
<path id="Vector_14" d="M99.6074 105.828H96.1289C93.7422 105.828 91.7871 107.783 91.7871 110.17C91.7871 112.557 92.168 111.033 92.6504 111.033H103.061C103.543 111.033 103.924 110.652 103.924 110.17C103.924 107.783 101.969 105.828 99.582 105.828H99.6074Z" fill="#BF6015"/>
<path id="Vector_15" d="M103.949 110.17C103.949 110.652 103.568 111.033 103.086 111.033H97.8809V105.828H99.6074C101.994 105.828 103.949 107.783 103.949 110.17Z" fill="#994C10"/>
<path id="Vector_16" d="M109.154 84.0176C109.154 84.5 108.773 84.8809 108.291 84.8809H87.4707C86.9883 84.8809 86.6074 84.5 86.6074 84.0176C86.6074 83.5352 86.9883 83.1543 87.4707 83.1543H108.291C108.773 83.1543 109.154 83.5352 109.154 84.0176Z" fill="#1689FC"/>
<path id="Vector_17" d="M109.154 84.0176C109.154 84.5 108.773 84.8809 108.291 84.8809H97.8809V83.1543H108.291C108.773 83.1543 109.154 83.5352 109.154 84.0176Z" fill="#136EF1"/>
<path id="Vector_18" d="M87.4707 95.3163C86.9883 95.3163 86.6074 94.9355 86.6074 94.453C86.6074 88.9179 90.5684 84.246 96.002 83.332C96.4844 83.2558 96.916 83.5605 96.9922 84.0429C97.0684 84.5253 96.7637 84.9569 96.2813 85.0331C91.6602 85.7948 88.334 89.7558 88.334 94.453C88.334 99.1503 87.9531 95.3163 87.4707 95.3163Z" fill="#1689FC"/>
<path id="Vector_19" d="M108.291 95.3163C107.809 95.3163 107.428 94.9355 107.428 94.453C107.428 89.7812 104.076 85.8202 99.4804 85.0331C98.998 84.9569 98.6933 84.4999 98.7695 84.0429C98.8456 83.5605 99.3027 83.2558 99.7597 83.332C105.219 84.246 109.154 88.9179 109.154 94.453C109.154 99.9882 108.773 95.3163 108.291 95.3163Z" fill="#136EF1"/>
<path id="Vector_20" d="M87.4707 98.7695C86.0234 98.7695 84.8555 97.6016 84.8555 96.1543C84.8555 94.707 86.0234 93.5391 87.4707 93.5391C88.918 93.5391 90.0859 94.707 90.0859 96.1543C90.0859 97.6016 88.918 98.7695 87.4707 98.7695Z" fill="#00C8C8"/>
<path id="Vector_21" d="M87.4707 97.043C86.9883 97.043 86.6074 96.6621 86.6074 96.1797C86.6074 95.6973 86.9883 95.3164 87.4707 95.3164C87.9531 95.3164 88.334 95.6973 88.334 96.1797C88.334 96.6621 87.9531 97.043 87.4707 97.043Z" fill="#E1F1FA"/>
<path id="Vector_22" d="M108.291 98.7695C106.844 98.7695 105.676 97.6016 105.676 96.1543C105.676 94.707 106.844 93.5391 108.291 93.5391C109.738 93.5391 110.906 94.707 110.906 96.1543C110.906 97.6016 109.738 98.7695 108.291 98.7695Z" fill="#00A1B2"/>
<path id="Vector_23" d="M108.291 97.043C107.809 97.043 107.428 96.6621 107.428 96.1797C107.428 95.6973 107.809 95.3164 108.291 95.3164C108.773 95.3164 109.154 95.6973 109.154 96.1797C109.154 96.6621 108.773 97.043 108.291 97.043Z" fill="#BFE1FF"/>
<g id="Group_3">
<path id="Vector_24" d="M97.8809 81.4277C96.4336 81.4277 95.2656 82.5957 95.2656 84.043C95.2656 85.4902 96.4336 86.6582 97.8809 86.6582C99.3281 86.6582 100.496 85.4902 100.496 84.043C100.496 82.5957 99.3281 81.4277 97.8809 81.4277Z" fill="#00C8C8"/>
<path id="Vector_25" d="M87.4199 86.6328H83.9414C83.459 86.6328 83.0781 86.2519 83.0781 85.7695V82.291C83.0781 81.8086 83.459 81.4277 83.9414 81.4277H87.4199C87.9023 81.4277 88.2832 81.8086 88.2832 82.291V85.7695C88.2832 86.2519 87.9023 86.6328 87.4199 86.6328Z" fill="#00C8C8"/>
</g>
<path id="Vector_26" d="M86.5312 83.1543H84.8047V84.8809H86.5312V83.1543Z" fill="#E1F1FA"/>
<path id="Vector_27" d="M111.82 86.6328H108.342C107.859 86.6328 107.479 86.2519 107.479 85.7695V82.291C107.479 81.8086 107.859 81.4277 108.342 81.4277H111.82C112.303 81.4277 112.684 81.8086 112.684 82.291V85.7695C112.684 86.2519 112.303 86.6328 111.82 86.6328Z" fill="#00A1B2"/>
<path id="Vector_28" d="M110.932 83.1543H109.205V84.8809H110.932V83.1543Z" fill="#BFE1FF"/>
<g id="Group_4">
<path id="Vector_29" d="M97.8809 97.0938C96.4336 97.0938 95.2656 98.2617 95.2656 99.709C95.2656 101.156 96.4336 102.324 97.8809 102.324C99.3281 102.324 100.496 101.156 100.496 99.709C100.496 98.2617 99.3281 97.0938 97.8809 97.0938Z" fill="#994C0F"/>
<path id="Vector_30" d="M98.7441 89.0195V97.9824C98.7441 98.4648 98.3633 98.8457 97.8809 98.8457C97.3984 98.8457 97.0176 98.4648 97.0176 97.9824V89.0195L97.1445 88.8164C97.3223 88.5625 97.6016 88.4609 97.8809 88.4609C98.1602 88.4609 98.4395 88.5879 98.6172 88.8164L98.7441 89.0195Z" fill="#994C0F"/>
</g>
<path id="Vector_31" d="M97.8809 86.6328V81.4277C99.3281 81.4277 100.496 82.5957 100.496 84.043C100.496 85.4902 99.3281 86.6582 97.8809 86.6582V86.6328Z" fill="#00A1B2"/>
<path id="Vector_32" d="M97.8809 84.9062C97.3984 84.9062 97.0176 84.5254 97.0176 84.043C97.0176 83.5605 97.3984 83.1797 97.8809 83.1797C98.3633 83.1797 98.7441 83.5605 98.7441 84.043C98.7441 84.5254 98.3633 84.9062 97.8809 84.9062Z" fill="#E1F1FA"/>
<path id="Vector_33" d="M98.7441 84.0176C98.7441 83.5352 98.3633 83.1543 97.8809 83.1543V84.8809C98.3633 84.8809 98.7441 84.5 98.7441 84.0176Z" fill="#BFE1FF"/>
<g id="Group_5">
<path id="Vector_34" d="M97.8809 98.8457V88.4609C98.1602 88.4609 98.4395 88.5879 98.6172 88.8164L98.7441 89.0195V97.9824C98.7441 98.4648 98.3633 98.8457 97.8809 98.8457Z" fill="#713708"/>
<path id="Vector_35" d="M100.496 99.709C100.496 101.156 99.3281 102.324 97.8809 102.324V97.1191C99.3281 97.1191 100.496 98.2871 100.496 99.7344V99.709Z" fill="#713708"/>
</g>
</g>
<g id="Group_6">
<path id="Vector_36" d="M107.961 44.8145H113.344V54.7422H107.961V44.8145Z" fill="#FD697F"/>
<path id="Vector_37" d="M110.652 44.8145H113.344V54.7422H110.652V44.8145Z" fill="#E6455D"/>
<path id="Vector_38" d="M103.467 44.8145H100.775V54.7422H106.158V44.8145H103.467Z" fill="#8ADB53"/>
<path id="Vector_39" d="M103.467 44.8145H106.158V54.7422H103.467V44.8145Z" fill="#4FC16E"/>
<path id="Vector_40" d="M96.2813 47.3789L93.5898 48.7246V54.7168H98.9727V46.0078L96.2813 47.3535V47.3789Z" fill="#FD697F"/>
<path id="Vector_41" d="M98.998 46.0332L96.3066 47.3789V54.7422H98.998V46.0332Z" fill="#E6455D"/>
<path id="Vector_42" d="M88.207 32.2207H90.0098V34.9121H88.207V32.2207Z" fill="#60474F"/>
<path id="Vector_43" d="M88.207 40.3203H90.0098V43.0117H88.207V40.3203Z" fill="#60474F"/>
<path id="Vector_44" d="M89.0957 32.2207H89.9844V34.9121H89.0957V32.2207Z" fill="#3F303A"/>
<path id="Vector_45" d="M89.0957 40.3203H89.9844V43.0117H89.0957V40.3203Z" fill="#3F303A"/>
<path id="Vector_46" d="M86.4043 48.3945H91.7871V54.7422H86.4043V48.3945Z" fill="#8ADB53"/>
<path id="Vector_47" d="M89.0957 48.3945H91.7871V54.7422H89.0957V48.3945Z" fill="#4FC16E"/>
<g id="Group_7">
<path id="Vector_48" d="M110.627 36.6641L109.916 38.3145L111.363 38.9492L106.869 41.209H99.4805L92.498 44.7891H85.5156V46.5918H92.9043L99.8867 43.0117H107.275L112.15 40.5742L111.795 42.123L113.547 42.5293L114.512 38.3906L110.627 36.6895V36.6641Z" fill="#FD697F"/>
<path id="Vector_49" d="M112.176 40.5742L111.82 42.123L113.572 42.5293L114.537 38.3906L110.652 36.6895L109.941 38.3398L111.389 38.9746L106.895 41.2344H99.9121V43.0371H107.301L112.176 40.5996V40.5742Z" fill="#E6455D"/>
<path id="Vector_50" d="M99.8867 53.8535H84.5508V55.6562H115.197V53.8535H99.8613H99.8867Z" fill="#60474F"/>
<path id="Vector_51" d="M99.8867 53.8535H115.223V55.6562H99.8867V53.8535Z" fill="#3F303A"/>
</g>
<path id="Vector_52" d="M86.4043 34.0234V41.209H91.7871V34.0234H86.4043Z" fill="#8ADB53"/>
<path id="Vector_53" d="M89.0957 34.0234H91.7871V41.209H89.0957V34.0234Z" fill="#4FC16E"/>
<path id="Vector_54" d="M95.3926 28.6406H97.1953V31.332H95.3926V28.6406Z" fill="#60474F"/>
<path id="Vector_55" d="M95.3926 36.7148H97.1953V39.4062H95.3926V36.7148Z" fill="#60474F"/>
<path id="Vector_56" d="M96.2812 28.6406H97.1699V31.332H96.2812V28.6406Z" fill="#3F303A"/>
<path id="Vector_57" d="M96.2812 36.7148H97.1699V39.4062H96.2812V36.7148Z" fill="#3F303A"/>
<path id="Vector_58" d="M93.5898 30.4434V37.6289H98.9727V30.4434H93.5898Z" fill="#FD697F"/>
<path id="Vector_59" d="M96.2812 30.4434H98.9727V37.6289H96.2812V30.4434Z" fill="#E6455D"/>
<path id="Vector_60" d="M109.764 24.9844H111.566V27.6758H109.764V24.9844Z" fill="#60474F"/>
<path id="Vector_61" d="M109.764 33.1348H111.566V35.8262H109.764V33.1348Z" fill="#60474F"/>
<path id="Vector_62" d="M110.652 24.9844H111.541V27.6758H110.652V24.9844Z" fill="#3F303A"/>
<path id="Vector_63" d="M110.652 33.1348H111.541V35.8262H110.652V33.1348Z" fill="#3F303A"/>
<path id="Vector_64" d="M107.961 26.7871V34.0234H113.344V26.7871H107.961Z" fill="#FD697F"/>
<path id="Vector_65" d="M110.652 26.7871H113.344V34.0234H110.652V26.7871Z" fill="#E6455D"/>
<path id="Vector_66" d="M102.578 26.8379H104.381V29.5293H102.578V26.8379Z" fill="#60474F"/>
<path id="Vector_67" d="M102.578 34.9121H104.381V37.6035H102.578V34.9121Z" fill="#60474F"/>
<path id="Vector_68" d="M103.467 26.8379H104.355V29.5293H103.467V26.8379Z" fill="#3F303A"/>
<path id="Vector_69" d="M103.467 34.9121H104.355V37.6035H103.467V34.9121Z" fill="#3F303A"/>
<path id="Vector_70" d="M100.775 28.6406V35.8262H106.158V28.6406H100.775Z" fill="#8ADB53"/>
<path id="Vector_71" d="M103.467 28.6406H106.158V35.8262H103.467V28.6406Z" fill="#4FC16E"/>
</g>
</g>
<g id="Group_8">
<path id="Vector_72" d="M53.625 93.5898V100.166C53.625 102.908 48.8262 104.406 44.2812 104.406C39.7363 104.406 34.9375 102.908 34.9375 100.166V93.5898C34.9375 93.1328 35.3184 92.752 35.7754 92.752H52.7617C53.2441 92.752 53.5996 93.1328 53.5996 93.5898H53.625Z" fill="#444444"/>
<path id="Vector_73" d="M53.625 93.5898V100.166C53.625 102.908 48.8262 104.406 44.2812 104.406V92.7266H52.7617C53.2441 92.7266 53.5996 93.1074 53.5996 93.5645L53.625 93.5898Z" fill="#292929"/>
<path id="Vector_74" d="M58.7793 91.6855C58.7793 92.041 58.5508 92.3711 58.2461 92.4727L44.6113 97.5762C44.5098 97.6016 44.4082 97.627 44.3066 97.627C44.2051 97.627 44.1035 97.6269 44.002 97.5762L30.3672 92.4727V90.873L44.002 85.7695C44.1035 85.7441 44.2051 85.7188 44.3066 85.7188C44.4082 85.7188 44.5098 85.7187 44.6113 85.7695L58.2461 90.873C58.5762 91 58.7793 91.3047 58.7793 91.6602V91.6855Z" fill="#6E6E6E"/>
<path id="Vector_75" d="M58.7793 91.6855C58.7793 92.041 58.5508 92.3711 58.2461 92.4727L44.6113 97.5762C44.5098 97.6016 44.4082 97.627 44.3066 97.627V85.7441C44.4082 85.7441 44.5098 85.7441 44.6113 85.7949L58.2461 90.8984C58.5762 91.0254 58.7793 91.3301 58.7793 91.6855Z" fill="#5A5A5A"/>
<path id="Vector_76" d="M45.1445 91.6855C45.1445 92.168 44.7637 92.5234 44.3066 92.5234H31.5098V105.117L33.1602 110.068C33.3125 110.5 33.084 111.008 32.627 111.135C32.1699 111.287 31.6875 111.059 31.5605 110.602L31.5098 110.449C31.4336 110.855 31.0781 111.186 30.6719 111.186C30.2656 111.186 29.834 110.805 29.834 110.348V91.6602C29.834 91.1777 30.2148 90.8223 30.6719 90.8223H44.3066C44.7891 90.8223 45.1445 91.2031 45.1445 91.6602V91.6855Z" fill="#FDBF00"/>
</g>
</g>
<defs>
<clipPath id="clip0_1238_26319">
<rect width="130" height="130" fill="white"/>
</clipPath>
</defs>
</svg>
