<svg width="98" height="98" viewBox="0 0 98 98" fill="none" xmlns="http://www.w3.org/2000/svg">
<g id="Group">
<path id="Vector" d="M81.8379 86.3006C81.8379 88.8959 83.9364 91.0079 86.515 91.0079C89.0937 91.0079 91.1922 88.8959 91.1922 86.3006C91.1922 83.7053 89.0937 81.5933 86.515 81.5933C83.9364 81.5933 81.8379 83.7053 81.8379 86.3006ZM88.0741 86.3006C88.0741 87.1667 87.3741 87.8697 86.515 87.8697C85.656 87.8697 84.956 87.1667 84.956 86.3006C84.956 85.4344 85.656 84.7315 86.515 84.7315C87.3741 84.7315 88.0741 85.4344 88.0741 86.3006Z" fill="#FA8951"/>
<path id="Vector_2" d="M7.00391 76.886C7.00391 79.4813 9.10238 81.5933 11.681 81.5933C14.2597 81.5933 16.3582 79.4813 16.3582 76.886C16.3582 74.2907 14.2597 72.1787 11.681 72.1787C9.10238 72.1787 7.00391 74.2907 7.00391 76.886ZM13.2401 76.886C13.2401 77.7522 12.5401 78.4551 11.681 78.4551C10.822 78.4551 10.122 77.7522 10.122 76.886C10.122 76.0199 10.822 75.3169 11.681 75.3169C12.5401 75.3169 13.2401 76.0199 13.2401 76.886Z" fill="#FA8951"/>
<path id="Vector_3" d="M88.3609 43.9349C89.0064 45.7566 90.7213 47.0731 92.7512 47.0731C95.3299 47.0731 97.4284 44.9611 97.4284 42.3658C97.4284 39.7705 95.3299 37.6585 92.7512 37.6585C90.7213 37.6585 89.0064 38.975 88.3609 40.7967H75.5222C75.2541 36.2039 73.8369 31.9265 71.5404 28.2439H77.4274C78.6762 28.2439 79.8517 27.7543 80.7357 26.8646L85.3411 22.2295C86.5743 23.0517 88.0476 23.5365 89.6331 23.5365C93.9314 23.5365 97.4284 20.017 97.4284 15.691C97.4284 11.365 93.9314 7.84552 89.6331 7.84552C85.3348 7.84552 81.8379 11.365 81.8379 15.691C81.8379 17.2868 82.3197 18.7696 83.1366 20.0108L78.5312 24.6459C78.2365 24.9425 77.8436 25.1057 77.4274 25.1057H69.2689C64.7212 19.7299 58.0983 16.2088 50.657 15.7711V9.1259C52.4671 8.4763 53.7751 6.75028 53.7751 4.70731C53.7751 2.11201 51.6766 0 49.098 0C46.5193 0 44.4208 2.11201 44.4208 4.70731C44.4208 6.75028 45.7289 8.4763 47.5389 9.1259V15.7711C40.0976 16.2104 33.4748 19.7299 28.927 25.1057H14.799C13.9399 25.1057 13.2399 24.4011 13.2399 23.5365V18.6708C16.793 17.9411 19.4761 14.7731 19.4761 10.9837C19.4761 6.65771 15.9792 3.13821 11.6809 3.13821C7.38261 3.13821 3.88567 6.65771 3.88567 10.9837C3.88567 14.7715 6.56878 17.9411 10.1218 18.6708V23.5365C10.1218 26.1318 12.2203 28.2439 14.799 28.2439H26.654C24.3575 31.9265 22.9403 36.2039 22.6722 40.7967H9.83498C9.18954 38.975 7.47459 37.6585 5.44471 37.6585C2.86605 37.6585 0.767578 39.7705 0.767578 42.3658C0.767578 44.9611 2.86605 47.0731 5.44471 47.0731C7.47459 47.0731 9.18954 45.7566 9.83498 43.9349H22.641C22.8967 48.3268 24.2156 52.6638 26.3687 56.4877H14.799C12.2203 56.4877 10.1218 58.5997 10.1218 61.195V66.0279C4.84136 66.7936 0.767578 71.3644 0.767578 76.8861C0.767578 82.9412 5.66298 87.8698 11.6809 87.8698C17.6988 87.8698 22.5942 82.9412 22.5942 76.8861C22.5942 71.3644 18.5204 66.7936 13.2399 66.0279V61.195C13.2399 60.3289 13.9399 59.6259 14.799 59.6259H28.411C29.7689 61.4414 31.3311 63.0889 33.0772 64.4901C34.5677 65.6842 35.6372 67.2627 36.1922 69.0405H35.0666C32.4879 69.0405 30.3894 71.1526 30.3894 73.7478C30.3894 74.9576 30.8587 76.0513 31.6055 76.8861C30.8571 77.7208 30.3894 78.8145 30.3894 80.0243C30.3894 82.6196 32.4879 84.7316 35.0666 84.7316H36.6256C36.6256 91.6529 42.221 97.2844 49.098 97.2844C55.9749 97.2844 61.5703 91.6529 61.5703 84.7316H63.1294C65.708 84.7316 67.8065 82.6196 67.8065 80.0243C67.8065 78.8145 67.3372 77.7208 66.5905 76.8861C67.3388 76.0513 67.8065 74.9576 67.8065 73.7478C67.8065 71.1526 65.708 69.0405 63.1294 69.0405H62.0037C62.5588 67.2612 63.6283 65.6842 65.1187 64.4901C67.3559 62.6967 69.2923 60.5031 70.8778 58.0568H83.397C84.256 58.0568 84.956 58.7598 84.956 59.6259V75.4425C79.6755 76.2082 75.6017 80.779 75.6017 86.3007C75.6017 92.3559 80.4971 97.2844 86.515 97.2844C92.533 97.2844 97.4284 92.3559 97.4284 86.3007C97.4284 80.779 93.3546 76.2082 88.0741 75.4425V59.6259C88.0741 57.0306 85.9756 54.9186 83.397 54.9186H72.6536C74.3171 51.4948 75.3351 47.7368 75.5565 43.9349H88.3609ZM89.6331 10.9837C92.2118 10.9837 94.3103 13.0957 94.3103 15.691C94.3103 18.2863 92.2118 20.3983 89.6331 20.3983C87.0545 20.3983 84.956 18.2863 84.956 15.691C84.956 13.0957 87.0545 10.9837 89.6331 10.9837ZM7.00376 10.9837C7.00376 8.38843 9.10223 6.27641 11.6809 6.27641C14.2596 6.27641 16.358 8.38843 16.358 10.9837C16.358 13.579 14.2596 15.691 11.6809 15.691C9.10223 15.691 7.00376 13.579 7.00376 10.9837ZM19.4761 76.8861C19.4761 81.2121 15.9792 84.7316 11.6809 84.7316C7.38261 84.7316 3.88567 81.2121 3.88567 76.8861C3.88567 72.56 7.38261 69.0405 11.6809 69.0405C15.9792 69.0405 19.4761 72.56 19.4761 76.8861ZM94.3103 86.3007C94.3103 90.6267 90.8133 94.1462 86.515 94.1462C82.2168 94.1462 78.7198 90.6267 78.7198 86.3007C78.7198 81.9747 82.2168 78.4552 86.515 78.4552C90.8133 78.4552 94.3103 81.9747 94.3103 86.3007ZM92.7512 40.7967C93.6103 40.7967 94.3103 41.5012 94.3103 42.3658C94.3103 43.2304 93.6103 43.9349 92.7512 43.9349C91.8922 43.9349 91.1922 43.2304 91.1922 42.3658C91.1922 41.5012 91.8922 40.7967 92.7512 40.7967ZM49.098 3.13821C49.957 3.13821 50.657 3.84273 50.657 4.70731C50.657 5.57189 49.957 6.27641 49.098 6.27641C48.2389 6.27641 47.5389 5.57189 47.5389 4.70731C47.5389 3.84273 48.2389 3.13821 49.098 3.13821ZM5.44471 43.9349C4.58568 43.9349 3.88567 43.2304 3.88567 42.3658C3.88567 41.5012 4.58568 40.7967 5.44471 40.7967C6.30375 40.7967 7.00376 41.5012 7.00376 42.3658C7.00376 43.2304 6.30375 43.9349 5.44471 43.9349ZM49.098 94.1462C43.9391 94.1462 39.7437 89.9237 39.7437 84.7316H58.4522C58.4522 89.9237 54.2568 94.1462 49.098 94.1462ZM63.1294 81.5934H35.0666C34.2075 81.5934 33.5075 80.8904 33.5075 80.0243C33.5075 79.1581 34.2075 78.4552 35.0666 78.4552H63.1294C63.9884 78.4552 64.6884 79.1581 64.6884 80.0243C64.6884 80.8904 63.9884 81.5934 63.1294 81.5934ZM64.6884 73.7478C64.6884 74.614 63.9884 75.317 63.1294 75.317H35.0666C34.2075 75.317 33.5075 74.614 33.5075 73.7478C33.5075 72.8817 34.2075 72.1787 35.0666 72.1787H63.1294C63.9884 72.1787 64.6884 72.8817 64.6884 73.7478ZM43.1627 56.4877C40.7306 56.4877 38.6212 54.8182 38.2533 52.601C38.0506 51.3771 38.3094 50.1501 38.986 49.1459L40.121 47.4575L38.2096 46.7844C36.3294 46.1238 35.0666 44.3476 35.0666 42.3658C35.0666 40.7245 35.924 39.237 37.2648 38.3897C38.6835 39.8678 40.6635 40.7967 42.8618 40.7967V37.6585C40.2831 37.6585 38.1847 35.5465 38.1847 32.9512C38.1847 30.3559 40.2831 28.2439 42.8618 28.2439C45.4404 28.2439 47.5389 30.3559 47.5389 32.9512H50.657C50.657 30.3559 52.7555 28.2439 55.3341 28.2439C57.9128 28.2439 60.0113 30.3559 60.0113 32.9512C60.0113 33.8958 59.7338 34.8059 59.2099 35.5857L58.0749 37.274L59.9863 37.9472C61.8665 38.6078 63.1294 40.384 63.1294 42.3658C63.1294 44.0086 62.2703 45.4977 60.9264 46.345C59.4609 44.8214 57.4451 43.9349 55.3341 43.9349V47.0731C56.6484 47.0731 57.9097 47.6348 58.7952 48.614C59.6932 49.6072 60.1173 50.897 59.9895 52.2464C59.7634 54.6252 57.601 56.4877 55.0332 56.4877C52.6199 56.4877 50.657 58.4648 50.657 60.8938V69.0405H47.5389V60.8938C47.5389 58.4648 45.5761 56.4877 43.1627 56.4877ZM63.1761 62.0345C60.9327 63.8311 59.4079 66.2836 58.7781 69.0405H53.7751V60.8938C53.7751 60.1939 54.3395 59.6259 55.066 59.6259C59.1912 59.6259 62.7162 56.516 63.0935 52.5446C63.2089 51.3222 63.0124 50.114 62.5868 48.9905C64.8209 47.5768 66.2475 45.0992 66.2475 42.3658C66.2475 39.6544 64.8396 37.1752 62.6133 35.7599C62.9532 34.8702 63.1294 33.9209 63.1294 32.9512C63.1294 28.6252 59.6324 25.1057 55.3341 25.1057C52.7867 25.1057 50.5214 26.3421 49.098 28.2486C47.6746 26.3421 45.4093 25.1057 42.8618 25.1057C38.5635 25.1057 35.0666 28.6252 35.0666 32.9512C35.0666 33.9381 35.2692 34.8749 35.6013 35.7457C33.3719 37.1611 31.9485 39.6355 31.9485 42.3658C31.9485 45.0772 33.3563 47.5564 35.5826 48.9717C35.0868 50.2741 34.9418 51.7004 35.1788 53.1204C35.7931 56.8282 39.2245 59.6259 43.1627 59.6259C43.8565 59.6259 44.4208 60.1939 44.4208 60.8938V69.0405H39.4179C38.788 66.2852 37.2633 63.8327 35.0198 62.0345C29.2794 57.4339 25.7123 49.8975 25.7123 42.3658C25.7123 29.3877 36.2031 18.8292 49.098 18.8292C61.9928 18.8292 72.4836 29.3877 72.4836 42.3658C72.4836 49.8975 68.9165 57.4339 63.1761 62.0345Z" fill="#FA8951"/>
</g>
</svg>
