<svg width="110" height="109" viewBox="0 0 110 109" fill="none" xmlns="http://www.w3.org/2000/svg">
<g id="plant-a-tree">
<g id="_x31_7_Save_The_World">
<path id="Vector" d="M104.327 66.6537C100.425 63.5308 94.6948 63.2898 90.5273 66.4429L90.4025 66.5364C83.7465 58.8389 72.8463 53.3331 69.8837 51.9257C70.1971 49.014 70.1737 46.3533 69.8803 43.9287C70.061 43.4265 70.271 42.9451 70.4836 42.4659C74.4102 42.4529 82.7082 41.7547 87.8757 36.5122C93.0711 31.2415 93.6334 22.8779 93.5842 18.9734C93.5686 17.741 92.5723 16.7594 91.3397 16.7622C87.4365 16.7713 79.0865 17.4583 73.8918 22.7284C69.7828 26.897 68.5732 33.0025 68.2706 37.3023C68.2704 37.3016 68.2702 37.3012 68.27 37.3006C68.2753 32.1754 67.4142 20.9676 60.3694 14.0237C53.3755 7.13034 42.2775 6.38459 37.0966 6.44995C35.4612 6.4706 34.1585 7.79265 34.1624 9.42828C34.1745 14.6075 35.0861 25.6872 42.0791 32.5799C49.2416 39.6396 60.7077 40.2493 65.7053 40.1465C66.6701 43.4863 67.0523 47.4623 66.4636 52.1906C63.3842 53.6934 55.4951 57.849 49.341 63.6187C44.7217 61.3397 39.0612 61.427 34.4459 64.2864L25.8737 69.5982L25.4881 68.7973C24.5893 66.93 22.3471 66.1451 20.4799 67.0439L6.55513 73.6659C4.68808 74.5647 3.90315 76.8069 4.80176 78.6739L15.273 100.428C16.1718 102.295 18.414 103.08 20.2813 102.182L34.206 95.5596C36.0731 94.6608 36.8582 92.4186 35.9594 90.5515L35.9121 90.4536C37.9407 89.7502 40.2327 90.0089 42.0842 91.3082L47.6473 95.2115C55.4531 100.679 64.8505 98.5518 74.3042 95.7482C79.9445 94.0887 81.2917 91.4778 104.265 74.1157C106.687 72.2474 106.728 68.5868 104.327 66.6537ZM68.4482 54.9786C71.1985 56.2987 81.5244 61.5482 87.6918 68.5693L79.2758 74.88C78.7395 71.7013 75.9438 69.172 72.3654 69.2927L58.3376 69.883C56.9549 69.9642 55.6566 69.3157 54.8409 68.2106C54.0832 67.1842 53.2059 66.2922 52.2542 65.5122C58.3214 60.0486 66.1147 56.0988 68.4482 54.9786ZM102.203 71.4491C78.3029 89.5867 77.9921 91.1498 73.3489 92.5142C65.5324 94.8351 56.2717 97.1335 49.5825 92.4516L44.0198 88.5493C41.1441 86.5315 37.5507 86.1688 34.4357 87.3863L27.3441 72.6534L36.2214 67.1527C41.4717 63.8978 48.4599 65.2433 52.1284 70.2122C53.611 72.2204 56.0015 73.354 58.4789 73.2518L72.5067 72.6615C74.4319 72.5814 76.0069 74.116 76.0069 76.0173C76.0069 77.6853 74.7608 79.1153 73.1088 79.3446L54.0297 81.9882C53.1079 82.1155 52.4637 82.9671 52.5917 83.8889C52.7194 84.8103 53.571 85.4554 54.4928 85.3266L73.5718 82.6829C75.3874 82.4319 76.9383 81.4415 77.9865 80.0605C78.0994 79.9758 92.6711 69.0494 92.5559 69.1358C95.4842 66.9179 99.5104 67.1159 102.216 69.2818C102.901 69.8345 102.916 70.8977 102.203 71.4491Z" fill="#FA8951"/>
</g>
</g>
</svg>
