<svg width="58" height="57" viewBox="0 0 58 57" fill="none" xmlns="http://www.w3.org/2000/svg">
<path id="Star 2" d="M23.592 2.95828C26.1865 -0.859745 31.8135 -0.859745 34.408 2.95828C35.9907 5.28741 38.8869 6.34154 41.5965 5.57469C46.0382 4.31764 50.3487 7.93458 49.8821 12.5271C49.5974 15.3287 51.1384 17.9978 53.707 19.1521C57.9175 21.0442 58.8947 26.5856 55.5852 29.8037C53.5663 31.7669 53.0311 34.8021 54.2568 37.3374C56.266 41.4933 53.4526 46.3664 48.8488 46.7043C46.0403 46.9105 43.6793 48.8916 42.9886 51.6216C41.8564 56.0967 36.5688 58.0212 32.8249 55.3209C30.541 53.6735 27.459 53.6735 25.1751 55.3209C21.4312 58.0212 16.1436 56.0967 15.0114 51.6216C14.3207 48.8916 11.9597 46.9105 9.1512 46.7043C4.54744 46.3664 1.73396 41.4933 3.74321 37.3374C4.96892 34.8021 4.43373 31.7669 2.41482 29.8037C-0.894664 26.5857 0.0824485 21.0442 4.293 19.1521C6.86159 17.9978 8.40262 15.3287 8.11794 12.5271C7.65127 7.93458 11.9618 4.31764 16.4035 5.57469C19.1131 6.34154 22.0093 5.28741 23.592 2.95828Z" fill="#F4D36C"/>
</svg>
