<svg width="21" height="21" viewBox="0 0 21 21" fill="none" xmlns="http://www.w3.org/2000/svg">
<g id="twitter 1" clip-path="url(#clip0_1497_4327)">
<path id="Vector" d="M11.4521 10.4319L15.9528 16.8695H14.1057L10.433 11.6164V11.6161L9.89382 10.8449L5.60352 4.70801H7.45062L10.9129 9.66074L11.4521 10.4319Z" fill="#555555"/>
<path id="Vector_2" d="M18.6222 0.773438H2.94425C1.75077 0.773438 0.783203 1.741 0.783203 2.93448V18.6124C0.783203 19.8059 1.75077 20.7734 2.94425 20.7734H18.6222C19.8156 20.7734 20.7832 19.8059 20.7832 18.6124V2.93448C20.7832 1.741 19.8156 0.773438 18.6222 0.773438ZM13.5398 17.7338L9.8233 12.3249L5.17016 17.7338H3.96756L9.28932 11.548L3.96756 3.80278H8.02656L11.5459 8.9247L15.9521 3.80278H17.1547L12.08 9.70172H12.0797L17.5989 17.7338H13.5398Z" fill="#555555"/>
</g>
<defs>
<clipPath id="clip0_1497_4327">
<rect width="20" height="20" fill="white" transform="translate(0.783203 0.773438)"/>
</clipPath>
</defs>
</svg>
