<svg width="50" height="50" viewBox="0 0 50 50" fill="none" xmlns="http://www.w3.org/2000/svg">
<g id="ug 1" clip-path="url(#clip0_1238_26739)">
<g id="Group">
<path id="Vector" d="M23.9253 1.07422C12.2189 1.07422 2.47783 9.48194 0.407227 20.5879L9.21729 27.2718L4.79297 39.3672C9.15859 45.1714 16.1033 48.9254 23.9253 48.9254C37.1391 48.9254 47.8509 38.2136 47.8509 24.9998C47.8509 11.786 37.1391 1.07422 23.9253 1.07422Z" fill="#1D2E79"/>
<path id="Vector_2" d="M8.22969 26.8234L3.55371 25.6162L0.967773 31.7549C1.78496 34.5361 3.09365 37.1071 4.79355 39.3672C5.7584 40.0195 6.64971 40.2452 7.35117 39.9277C7.67002 39.7834 7.93018 39.5354 8.1333 39.1996L11.4047 33.8382L8.22969 26.8234Z" fill="#02C0FC"/>
<path id="Vector_3" d="M8.22949 26.8232L6.00791 21.9147L0.325 21.0566C0.112207 22.3396 0 23.6563 0 24.9996C0 27.3456 0.338086 29.6125 0.967578 31.7547C5.01895 31.8966 5.70225 28.556 5.70225 28.556L8.22949 26.8232Z" fill="#6AD9FB"/>
<path id="Vector_4" d="M20.9088 19.6973L7.45703 30.6688C8.79609 34.367 9.05029 37.6826 8.13262 39.2C10.0528 37.482 15.504 32.9922 24.4003 28.6632L26.4535 21.9478L20.9088 19.6973Z" fill="#6AD9FB"/>
<path id="Vector_5" d="M49.7778 15.615C49.26 12.6842 48.1181 10.7578 47.5778 9.4502L28.0884 13.8416L20.9092 19.6971L22.082 21.9475C22.082 21.9475 20.3667 26.8222 24.4006 28.6629C25.1322 28.3068 25.8868 27.952 26.665 27.5997C36.273 23.2512 43.8528 21.8395 47.039 21.4057C47.8094 21.3008 48.1389 21.4671 48.6737 21.225C49.9337 20.6548 50.2821 18.4688 49.7778 15.615Z" fill="#ADE9F7"/>
<path id="Vector_6" d="M23.2799 16.5339L18.5788 15.3301C10.0632 18.9237 3.39951 20.1737 0.407324 20.5876C0.37832 20.7435 0.350195 20.8996 0.324219 21.0564C3.13828 23.0484 4.51094 25.9078 6.3999 30.0814C6.40293 30.0881 6.40586 30.0946 6.40889 30.1013C6.84941 31.0766 8.07451 31.3985 8.92949 30.7549C12.2021 28.2913 16.6536 24.887 22.082 21.9472L23.2799 16.5339Z" fill="#ADE9F7"/>
<path id="Vector_7" d="M47.9931 10.0298C47.9892 10.0211 47.9852 10.0124 47.9812 10.0037C45.5882 4.71645 42.0184 1.16791 40.0077 2.07787C39.4708 2.32084 39.3878 2.67084 38.7931 3.18685C36.3643 5.29428 30.3014 10.0574 20.6935 14.4059C19.9769 14.7302 19.2719 15.0378 18.5789 15.3303C17.8859 15.6228 16.8312 20.5735 22.0819 21.9474C23.3223 21.2757 24.6135 20.6282 25.9534 20.0217C34.4352 16.1829 41.6144 14.1489 46.4482 13.0878C47.8146 12.788 48.5686 11.3048 47.9931 10.0298Z" fill="#E8F8FC"/>
<path id="Vector_8" d="M26.5677 25.2465L21.6752 23.2614C20.9033 22.9483 20.0237 23.3201 19.7105 24.092L15.0059 35.687L17.5172 39.5599L22.2909 39.7985L27.3982 27.2113C27.7113 26.4394 27.3396 25.5597 26.5677 25.2465Z" fill="#E51E82"/>
<path id="Vector_9" d="M28.9218 24.092C28.6086 23.3201 27.729 22.9483 26.9572 23.2614L22.0647 25.2465C21.2928 25.5597 20.9209 26.4393 21.2341 27.2112L26.2738 39.6318L30.7134 40.281L33.6846 35.8302L28.9218 24.092Z" fill="#FD77A6"/>
<path id="Vector_10" d="M31.3177 30.096L31.3113 30.0963C30.8115 30.1147 30.3725 30.4338 30.2007 30.9035C29.4266 33.0194 26.8735 33.8488 25.0037 32.5919L25.0028 32.5913C24.5875 32.3122 24.0446 32.3122 23.6294 32.5913L23.6284 32.592C21.7586 33.8489 19.2054 33.0194 18.4314 30.9035V30.9034C18.2595 30.4337 17.8206 30.1146 17.3208 30.0962L17.3144 30.0959C15.0649 30.0128 13.4883 27.8438 14.1032 25.6784L14.1049 25.6726C14.2413 25.1921 14.0738 24.6768 13.681 24.3682L13.6749 24.3634C11.9052 22.9734 11.9052 20.2931 13.6749 18.9032L13.6811 18.8983C14.0739 18.5897 14.2414 18.0745 14.105 17.594L14.1033 17.5881C13.4885 15.4228 15.0652 13.2537 17.3146 13.1707L17.321 13.1705C17.8208 13.1521 18.2597 12.833 18.4316 12.3633L28.0547 18.5161L31.3177 30.096Z" fill="#FEA53D"/>
<path id="Vector_11" d="M15.0056 35.6869L12.8542 40.9892C12.541 41.7611 12.9128 42.6406 13.6848 42.9538L18.5772 44.9389C19.3491 45.2521 20.2286 44.8803 20.5418 44.1083L22.2907 39.7982C20.262 35.0633 16.4046 35.3898 15.0056 35.6869Z" fill="#FE3D97"/>
<path id="Vector_12" d="M33.6853 35.83C31.9485 35.3408 27.7956 34.7502 26.2744 39.6315L28.0908 44.1082C28.404 44.8801 29.2836 45.252 30.0555 44.9388L34.9479 42.9538C35.7198 42.6406 36.0917 41.7609 35.7785 40.9891L33.6853 35.83Z" fill="#FEA2C8"/>
<path id="Vector_13" d="M34.5289 17.5884L34.5273 17.5942C34.3909 18.0747 34.5583 18.59 34.9511 18.8986L34.9573 18.9035C36.7269 20.2935 36.7269 22.9737 34.9573 24.3637L34.951 24.3686C34.5582 24.6771 34.3908 25.1924 34.5272 25.6729L34.5288 25.6788C35.1437 27.8442 33.5669 30.0132 31.3175 30.0962C28.7927 29.5902 29.2582 26.8814 29.2582 26.8814C26.8608 26.8814 26.6009 24.1429 26.6009 24.1429L23.4974 19.0461C20.5705 19.0461 20.4433 15.5522 20.4433 15.5522C17.9191 15.1871 18.4314 12.3634 18.4314 12.3634C19.2053 10.2475 21.7585 9.41797 23.6283 10.675L23.6292 10.6756C24.0445 10.9548 24.5874 10.9548 25.0027 10.6756L25.0036 10.6749L30.1248 13.6184L34.5289 17.5884Z" fill="#FFC242"/>
<path id="Vector_14" d="M31.3181 13.1709L31.3117 13.1707C30.8119 13.1523 30.3729 12.8332 30.2011 12.3635C29.427 10.2477 26.8739 9.41798 25.0041 10.6749C25.0041 10.6749 23.2537 12.6019 25.1214 14.4694C26.9891 16.3371 30.8906 18.6713 30.8906 18.6713C30.8906 18.6713 33.0459 19.7725 34.5293 17.5884C35.1442 15.4231 33.5675 13.254 31.3181 13.1709Z" fill="#FEF156"/>
<path id="Vector_15" d="M27.337 18.4996L20.4438 15.5547C18.4385 16.8349 17.1074 19.0782 17.1074 21.6338C17.1074 25.6152 20.335 28.8428 24.3164 28.8428C26.2288 28.8428 27.9659 28.0968 29.2563 26.8816L27.337 18.4996Z" fill="#E51E82"/>
<path id="Vector_16" d="M23.4973 19.0463L26.6008 24.1431C26.6008 24.1431 26.8605 26.8797 29.2558 26.8815C30.6519 25.5669 31.5249 23.7027 31.5249 21.6338C31.5249 17.6523 28.2974 14.4248 24.3159 14.4248C22.8901 14.4248 21.5622 14.8404 20.4434 15.5547C20.4451 15.6022 20.5906 19.0463 23.4973 19.0463Z" fill="#FE3D97"/>
<path id="Vector_17" d="M25.0977 18.5211L25.5774 19.4934C25.7044 19.7507 25.9499 19.929 26.2339 19.9703L27.3067 20.1262C28.0219 20.2301 28.3074 21.1089 27.7899 21.6133L27.0136 22.37C26.8081 22.5703 26.7144 22.8589 26.7628 23.1417L26.9461 24.2103C27.0683 24.9225 26.3207 25.4657 25.6811 25.1294L24.7214 24.6249C24.4674 24.4914 24.164 24.4914 23.91 24.6249L22.9503 25.1294C22.3106 25.4657 21.5631 24.9226 21.6853 24.2103L21.8686 23.1417C21.9171 22.8589 21.8232 22.5703 21.6178 22.37L20.8414 21.6133C20.3239 21.1089 20.6095 20.2301 21.3246 20.1262L22.3976 19.9703C22.6815 19.929 22.927 19.7507 23.054 19.4934L23.5338 18.5211C23.8538 17.8732 24.7778 17.8732 25.0977 18.5211Z" fill="#FEF156"/>
</g>
</g>
<defs>
<clipPath id="clip0_1238_26739">
<rect width="50" height="50" fill="white"/>
</clipPath>
</defs>
</svg>
