<svg width="28" height="28" viewBox="0 0 28 28" fill="none" xmlns="http://www.w3.org/2000/svg">
<g id="Ikon">
<path id="Vector" d="M27.1242 13.9997C27.1246 13.7135 27.0608 13.4309 26.9376 13.1727C26.8143 12.9144 26.6347 12.6871 26.4119 12.5074L24.7214 11.0993L25.4955 9.08512C25.5958 8.81803 25.6358 8.53202 25.6123 8.24766C25.5889 7.96329 25.5028 7.68766 25.36 7.44059C25.2173 7.19352 25.0216 6.98117 24.787 6.8188C24.5524 6.65644 24.2847 6.5481 24.0032 6.5016L21.8347 6.12715L21.4978 3.99575C21.4513 3.71419 21.343 3.44644 21.1805 3.21178C21.0181 2.97712 20.8057 2.78139 20.5586 2.63867C20.3115 2.49595 20.0358 2.4098 19.7514 2.38642C19.4669 2.36303 19.1809 2.403 18.9137 2.50344L16.8488 3.26425L15.4915 1.58701C15.3058 1.37357 15.0766 1.20244 14.8191 1.08518C14.5617 0.967908 14.2821 0.907227 13.9992 0.907227C13.7163 0.907227 13.4367 0.967908 13.1793 1.08518C12.9218 1.20244 12.6925 1.37357 12.5069 1.58701L11.0988 3.27707L9.0851 2.50344C8.81796 2.40292 8.53184 2.3629 8.24737 2.38624C7.9629 2.40959 7.68714 2.49572 7.43996 2.63845C7.19277 2.78117 6.98031 2.97693 6.81787 3.21163C6.65544 3.44633 6.54707 3.71414 6.50056 3.99575L6.12658 6.16464L3.99615 6.50066C3.71453 6.54719 3.44672 6.65557 3.212 6.81799C2.97728 6.98041 2.78148 7.19284 2.63869 7.43999C2.49589 7.68714 2.40965 7.96287 2.38618 8.24734C2.3627 8.53181 2.40257 8.81795 2.50291 9.08517L3.26372 11.1506L1.5856 12.5074C1.36516 12.6887 1.18763 12.9165 1.06578 13.1746C0.943924 13.4327 0.88077 13.7145 0.880859 13.9999C0.880949 14.2853 0.94428 14.5672 1.0663 14.8252C1.18831 15.0832 1.36599 15.3109 1.58654 15.492L3.27705 16.9002L2.50291 18.9143C2.40255 19.1814 2.36264 19.4674 2.38606 19.7518C2.40947 20.0361 2.49564 20.3118 2.63835 20.5588C2.78106 20.8059 2.97677 21.0183 3.21139 21.1807C3.44602 21.343 3.71372 21.4514 3.99523 21.4979L6.16366 21.8723L6.50057 24.0037C6.54718 24.2852 6.65561 24.5529 6.81804 24.7875C6.98047 25.0221 7.19287 25.2178 7.43997 25.3605C7.68707 25.5032 7.96272 25.5893 8.24711 25.6128C8.53149 25.6362 8.81753 25.5963 9.08465 25.496L11.1496 24.7352L12.5069 26.4124C12.688 26.6331 12.9157 26.8109 13.1738 26.9329C13.4318 27.055 13.7137 27.1183 13.9992 27.1183C14.2847 27.1183 14.5666 27.055 14.8246 26.9329C15.0827 26.8109 15.3104 26.6331 15.4915 26.4124L16.8996 24.7224L18.9134 25.496C19.1805 25.5965 19.4666 25.6365 19.7511 25.6131C20.0356 25.5897 20.3113 25.5036 20.5585 25.3609C20.8056 25.2182 21.0181 25.0224 21.1805 24.7877C21.343 24.5531 21.4514 24.2853 21.4979 24.0037L21.8719 21.8348L24.0023 21.4988C24.284 21.4523 24.5518 21.3439 24.7865 21.1815C25.0212 21.019 25.217 20.8066 25.3598 20.5595C25.5026 20.3123 25.5888 20.0366 25.6123 19.7521C25.6358 19.4676 25.5959 19.1815 25.4956 18.9143L24.7348 16.8488L26.4129 15.492C26.6354 15.3122 26.8147 15.0848 26.9378 14.8266C27.0609 14.5683 27.1246 14.2858 27.1242 13.9997Z" fill="#1976D2"/>
<path id="Vector_2" d="M12.2371 18.4204C11.6315 18.422 11.0419 18.2262 10.5575 17.8629L8.28107 16.1554C8.0822 16.0062 7.95076 15.7841 7.91565 15.538C7.88054 15.2919 7.94464 15.0419 8.09385 14.843C8.24306 14.6441 8.46515 14.5127 8.71128 14.4776C8.9574 14.4425 9.20739 14.5066 9.40625 14.6558L11.6823 16.3632C11.8795 16.5091 12.1259 16.5725 12.3691 16.5398C12.6123 16.5072 12.8332 16.3811 12.985 16.1884L18.416 9.20474C18.4916 9.10753 18.5856 9.02617 18.6927 8.96531C18.7998 8.90444 18.9178 8.86526 19.04 8.85C19.1622 8.83474 19.2862 8.8437 19.405 8.87637C19.5237 8.90904 19.6349 8.96478 19.7321 9.0404C19.8293 9.11602 19.9106 9.21005 19.9715 9.31712C20.0324 9.42419 20.0715 9.54219 20.0868 9.6644C20.1021 9.78661 20.0931 9.91063 20.0604 10.0294C20.0278 10.1481 19.972 10.2593 19.8964 10.3565L14.465 17.3401C14.2003 17.6778 13.8621 17.9507 13.476 18.1379C13.0899 18.3251 12.6662 18.4218 12.2371 18.4204Z" fill="#F5F5F5"/>
</g>
</svg>
