<svg width="230" height="56" viewBox="0 0 230 56" fill="none" xmlns="http://www.w3.org/2000/svg">
<g id="star rating">
<g id="Group 449">
<g id="Rectangle 2073" filter="url(#filter0_d_1238_25213)">
<rect x="4.36523" width="221.634" height="47.3394" rx="23.6697" fill="white"/>
</g>
</g>
<g id="Group 448">
<g id="Group">
<g id="Layer_1">
<g id="Group_2">
<g id="Group_3">
<path id="Vector" d="M45.9243 36.8607C46.0545 37.762 45.4962 38.1661 44.6852 37.7569L37.9389 34.3478C37.1278 33.9361 35.7961 33.931 34.98 34.3327L28.2037 37.6841C27.3902 38.0858 26.8345 37.6791 26.9721 36.7779L28.1186 29.2918C28.2588 28.3905 27.8508 27.1203 27.2174 26.4651L21.9456 21.04C21.3098 20.3848 21.525 19.7321 22.4237 19.5865L29.8784 18.3639C30.7746 18.2183 31.856 17.4376 32.279 16.6317L35.7986 9.92892C36.2217 9.12056 36.9076 9.12307 37.3256 9.93394L40.7851 16.6694C41.2031 17.4803 42.2745 18.266 43.1707 18.4217L50.6179 19.707C51.5141 19.8627 51.7218 20.5179 51.0835 21.1656L45.7666 26.5479C45.1282 27.1931 44.7102 28.4634 44.8404 29.3646L45.9243 36.8607Z" fill="url(#paint0_radial_1238_25213)"/>
<path id="Vector_2" style="mix-blend-mode:multiply" opacity="0.5" d="M36.5641 9.69325C36.7042 9.69325 36.8669 9.84639 36.9971 10.1024L40.4566 16.8354C40.9297 17.7542 42.0938 18.6103 43.1076 18.786L50.5548 20.0713C50.8376 20.119 51.0304 20.2295 51.0729 20.3625C51.118 20.4956 51.0229 20.6989 50.8201 20.9023L45.5032 26.2846C44.7772 27.0177 44.3267 28.3934 44.4743 29.4176L45.5583 36.9137C45.5933 37.1623 45.5633 37.3656 45.4782 37.466C45.4606 37.4861 45.4081 37.5439 45.2704 37.5439C45.1527 37.5439 45.0075 37.5037 44.8498 37.4234L38.1036 34.0142C37.6555 33.7883 37.0647 33.6653 36.4414 33.6653C35.8181 33.6653 35.2549 33.7858 34.8143 34.0017L28.0405 37.3506C27.8853 37.4284 27.7401 37.466 27.6224 37.466C27.4822 37.466 27.4297 37.4083 27.4122 37.3882C27.327 37.2853 27.297 37.0844 27.3371 36.8359L28.486 29.3473C28.6412 28.3256 28.2007 26.9474 27.4847 26.2068L22.2129 20.7793C22.0126 20.5734 21.92 20.3701 21.9626 20.2395C22.0076 20.104 22.2029 19.996 22.4857 19.9508L29.9429 18.7308C30.9593 18.5651 32.1308 17.7166 32.6114 16.8053L36.131 10.0999C36.2637 9.8489 36.4264 9.69576 36.5666 9.69576M36.5641 9.32422C36.2862 9.32422 36.0108 9.52254 35.8006 9.92672L32.281 16.6295C31.8554 17.4354 30.7765 18.2161 29.8804 18.3617L22.4257 19.5843C21.527 19.7299 21.3117 20.3851 21.9475 21.0378L27.2194 26.4629C27.8527 27.1181 28.2608 28.3884 28.1206 29.2896L26.9741 36.7757C26.8714 37.4409 27.1468 37.8376 27.6249 37.8376C27.7952 37.8376 27.9904 37.7899 28.2032 37.6819L34.9795 34.3305C35.3825 34.1322 35.9132 34.0318 36.4414 34.0318C36.9696 34.0318 37.5278 34.1372 37.9383 34.3456L44.6846 37.7547C44.8999 37.8627 45.1002 37.9129 45.2704 37.9129C45.7435 37.9129 46.0189 37.5213 45.9237 36.8585L44.8398 29.3624C44.7097 28.4612 45.1252 27.1909 45.766 26.5457L51.0829 21.1634C51.7213 20.5132 51.5135 19.8579 50.6173 19.7048L43.1702 18.4195C42.274 18.2638 41.2001 17.4756 40.7845 16.6672L37.325 9.93174C37.1148 9.52756 36.8394 9.32422 36.5616 9.32422H36.5641Z" fill="url(#paint1_radial_1238_25213)"/>
</g>
<g id="Group_4">
<path id="Vector_3" d="M84.9523 36.8607C85.0825 37.762 84.5243 38.1661 83.7132 37.7569L76.967 34.3478C76.1534 33.9361 74.8217 33.931 74.0081 34.3327L67.2318 37.6841C66.4157 38.0858 65.8625 37.6791 66.0002 36.7779L67.1492 29.2918C67.2869 28.3905 66.8813 27.1203 66.248 26.4651L60.9761 21.04C60.3403 20.3848 60.5581 19.7321 61.4543 19.5865L68.9115 18.3639C69.8076 18.2183 70.8865 17.4376 71.3096 16.6317L74.8292 9.92892C75.2547 9.12056 75.9406 9.12307 76.3562 9.93394L79.8157 16.6694C80.2337 17.4803 81.3051 18.266 82.2013 18.4217L89.6484 19.707C90.5446 19.8627 90.7524 20.5179 90.114 21.1656L84.7946 26.5479C84.1563 27.1931 83.7383 28.4634 83.8684 29.3646L84.9523 36.8607Z" fill="url(#paint2_radial_1238_25213)"/>
<path id="Vector_4" style="mix-blend-mode:multiply" opacity="0.5" d="M75.5935 9.69325C75.7337 9.69325 75.8964 9.84639 76.0291 10.1024L79.4861 16.8354C79.9592 17.7542 81.1232 18.6103 82.1395 18.786L89.5867 20.0713C89.8696 20.119 90.0623 20.2295 90.1049 20.3625C90.1475 20.4956 90.0523 20.6989 89.8521 20.9023L84.5352 26.2846C83.8117 27.0177 83.3586 28.3934 83.5063 29.4176L84.5902 36.9137C84.6278 37.1623 84.5952 37.3656 84.5101 37.466C84.4926 37.4861 84.44 37.5439 84.3024 37.5439C84.1847 37.5439 84.042 37.5037 83.8843 37.4234L77.138 34.0142C76.6899 33.7883 76.0967 33.6653 75.4759 33.6653C74.8551 33.6653 74.2893 33.7858 73.8488 34.0017L67.0749 37.3506C66.9197 37.4284 66.7746 37.466 66.6594 37.466C66.5167 37.466 66.4641 37.4083 66.4466 37.3882C66.3615 37.2853 66.3315 37.0844 66.3715 36.8359L67.5205 29.3473C67.6757 28.3256 67.2351 26.9474 66.5167 26.2068L61.2449 20.7793C61.0446 20.5734 60.952 20.3701 60.997 20.2395C61.0421 20.104 61.2373 19.996 61.5177 19.9508L68.9749 18.7308C69.9912 18.5651 71.1628 17.7166 71.6434 16.8053L75.163 10.0999C75.2956 9.8489 75.4583 9.69576 75.5985 9.69576M75.5935 9.32422C75.3157 9.32422 75.0403 9.52254 74.83 9.92672L71.3105 16.6295C70.8874 17.4354 69.806 18.2161 68.9123 18.3617L61.4551 19.5843C60.559 19.7299 60.3437 20.3851 60.977 21.0378L66.2489 26.4629C66.8822 27.1181 67.2877 28.3884 67.15 29.2896L66.001 36.7757C65.8984 37.4409 66.1738 37.8376 66.6544 37.8376C66.8246 37.8376 67.0199 37.7899 67.2326 37.6819L74.009 34.3305C74.412 34.1322 74.9427 34.0318 75.4709 34.0318C75.9991 34.0318 76.5573 34.1372 76.9678 34.3456L83.7141 37.7547C83.9294 37.8627 84.1271 37.9129 84.2998 37.9129C84.7755 37.9129 85.0483 37.5213 84.9557 36.8585L83.8718 29.3624C83.7416 28.4612 84.1597 27.1909 84.798 26.5457L90.1174 21.1634C90.7557 20.5132 90.548 19.8579 89.6518 19.7048L82.2046 18.4195C81.311 18.2638 80.2371 17.4756 79.819 16.6672L76.3595 9.93174C76.1492 9.52756 75.8739 9.32422 75.596 9.32422H75.5935Z" fill="url(#paint3_radial_1238_25213)"/>
</g>
<g id="Group_5">
<path id="Vector_5" d="M123.981 36.8607C124.111 37.762 123.556 38.1661 122.742 37.7569L115.996 34.3478C115.185 33.9361 113.853 33.931 113.037 34.3327L106.261 37.6841C105.444 38.0858 104.891 37.6791 105.029 36.7779L106.178 29.2918C106.313 28.3905 105.91 27.1203 105.274 26.4651L100.002 21.04C99.3691 20.3848 99.5844 19.7321 100.481 19.5865L107.938 18.3639C108.834 18.2183 109.915 17.4376 110.338 16.6317L113.858 9.92892C114.281 9.12056 114.967 9.12307 115.385 9.93394L118.844 16.6694C119.262 17.4803 120.334 18.266 121.23 18.4217L128.677 19.707C129.573 19.8627 129.781 20.5179 129.143 21.1656L123.826 26.5479C123.188 27.1931 122.77 28.4634 122.9 29.3646L123.984 36.8607H123.981Z" fill="url(#paint4_radial_1238_25213)"/>
<path id="Vector_6" style="mix-blend-mode:multiply" opacity="0.5" d="M114.621 9.69325C114.764 9.69325 114.924 9.84639 115.057 10.1024L118.516 16.8354C118.99 17.7542 120.154 18.6103 121.167 18.786L128.615 20.0713C128.895 20.119 129.09 20.2295 129.133 20.3625C129.175 20.4956 129.083 20.6989 128.88 20.9023L123.563 26.2846C122.84 27.0177 122.387 28.3934 122.534 29.4176L123.618 36.9137C123.656 37.1623 123.623 37.3656 123.538 37.466C123.52 37.4861 123.47 37.5439 123.33 37.5439C123.215 37.5439 123.07 37.5037 122.912 37.4234L116.166 34.0142C115.718 33.7883 115.127 33.6653 114.504 33.6653C113.88 33.6653 113.317 33.7858 112.877 34.0017L106.1 37.3506C105.945 37.4284 105.8 37.466 105.685 37.466C105.545 37.466 105.492 37.4083 105.472 37.3882C105.387 37.2853 105.359 37.0844 105.397 36.8359L106.546 29.3473C106.704 28.3256 106.261 26.9474 105.542 26.2068L100.273 20.7793C100.072 20.5734 99.9799 20.3701 100.025 20.2395C100.067 20.104 100.265 19.996 100.546 19.9508L108 18.7308C109.017 18.5651 110.191 17.7166 110.669 16.8053L114.188 10.0999C114.321 9.8489 114.484 9.69576 114.624 9.69576M114.621 9.32422C114.346 9.32422 114.068 9.52254 113.858 9.92672L110.338 16.6295C109.915 17.4354 108.834 18.2161 107.938 18.3617L100.481 19.5843C99.5844 19.7299 99.3691 20.3851 100.002 21.0378L105.274 26.4629C105.91 27.1181 106.313 28.3884 106.178 29.2896L105.029 36.7757C104.926 37.4409 105.204 37.8376 105.682 37.8376C105.853 37.8376 106.048 37.7899 106.261 37.6819L113.037 34.3305C113.44 34.1322 113.968 34.0318 114.499 34.0318C115.029 34.0318 115.583 34.1372 115.993 34.3456L122.739 37.7547C122.957 37.8627 123.155 37.9129 123.325 37.9129C123.801 37.9129 124.074 37.5213 123.981 36.8585L122.897 29.3624C122.767 28.4612 123.185 27.1909 123.823 26.5457L129.14 21.1634C129.779 20.5132 129.571 19.8579 128.675 19.7048L121.228 18.4195C120.331 18.2638 119.26 17.4756 118.842 16.6672L115.382 9.93174C115.172 9.52756 114.897 9.32422 114.619 9.32422H114.621Z" fill="url(#paint5_radial_1238_25213)"/>
</g>
<g id="Group_6">
<path id="Vector_7" d="M163.01 36.8607C163.14 37.762 162.584 38.1661 161.771 37.7569L155.024 34.3478C154.213 33.9361 152.881 33.931 152.065 34.3327L145.289 37.6841C144.476 38.0858 143.92 37.6791 144.058 36.7779L145.207 29.2918C145.344 28.3905 144.939 27.1203 144.305 26.4651L139.033 21.04C138.398 20.3848 138.613 19.7321 139.512 19.5865L146.966 18.3639C147.865 18.2183 148.946 17.4376 149.367 16.6317L152.886 9.92892C153.31 9.12056 153.998 9.12307 154.413 9.93394L157.873 16.6694C158.291 17.4803 159.362 18.266 160.259 18.4217L167.703 19.707C168.599 19.8627 168.807 20.5179 168.169 21.1656L162.849 26.5479C162.211 27.1931 161.796 28.4634 161.923 29.3646L163.007 36.8607H163.01Z" fill="url(#paint6_radial_1238_25213)"/>
<path id="Vector_8" style="mix-blend-mode:multiply" opacity="0.5" d="M153.65 9.69325C153.79 9.69325 153.953 9.84639 154.083 10.1024L157.543 16.8354C158.016 17.7542 159.18 18.6103 160.196 18.786L167.641 20.0713C167.924 20.119 168.116 20.2295 168.159 20.3625C168.202 20.4956 168.109 20.6989 167.906 20.9023L162.589 26.2846C161.863 27.0177 161.413 28.3934 161.56 29.4176L162.644 36.9137C162.679 37.1623 162.649 37.3656 162.564 37.466C162.547 37.4861 162.497 37.5439 162.356 37.5439C162.239 37.5439 162.096 37.5037 161.938 37.4234L155.192 34.0142C154.744 33.7883 154.153 33.6653 153.53 33.6653C152.907 33.6653 152.343 33.7858 151.905 34.0017L145.129 37.3506C144.974 37.4284 144.829 37.466 144.714 37.466C144.571 37.466 144.518 37.4083 144.503 37.3882C144.418 37.2853 144.391 37.0844 144.428 36.8359L145.577 29.3473C145.735 28.3256 145.292 26.9474 144.576 26.2068L139.304 20.7793C139.104 20.5734 139.011 20.3701 139.056 20.2395C139.099 20.104 139.296 19.996 139.577 19.9508L147.034 18.7308C148.05 18.5651 149.222 17.7166 149.703 16.8053L153.222 10.0999C153.355 9.8489 153.517 9.69576 153.658 9.69576M153.65 9.32422C153.375 9.32422 153.097 9.52254 152.887 9.92672L149.367 16.6295C148.944 17.4354 147.865 18.2161 146.966 18.3617L139.512 19.5843C138.616 19.7299 138.4 20.3851 139.034 21.0378L144.306 26.4629C144.939 27.1181 145.344 28.3884 145.207 29.2896L144.058 36.7757C143.955 37.4409 144.23 37.8376 144.711 37.8376C144.881 37.8376 145.077 37.7899 145.289 37.6819L152.066 34.3305C152.469 34.1322 152.997 34.0318 153.527 34.0318C154.058 34.0318 154.614 34.1372 155.024 34.3456L161.771 37.7547C161.986 37.8627 162.184 37.9129 162.356 37.9129C162.83 37.9129 163.105 37.5213 163.01 36.8585L161.926 29.3624C161.796 28.4612 162.214 27.1909 162.852 26.5457L168.172 21.1634C168.81 20.5132 168.602 19.8579 167.706 19.7048L160.261 18.4195C159.365 18.2638 158.291 17.4756 157.876 16.6672L154.416 9.93174C154.206 9.52756 153.931 9.32422 153.653 9.32422H153.65Z" fill="url(#paint7_radial_1238_25213)"/>
</g>
<g id="Group_7">
<g id="Group_8">
<path id="Vector_9" d="M202.037 36.8607C202.167 37.762 201.612 38.1661 200.798 37.7569L194.052 34.3478C193.241 33.9361 191.909 33.931 191.093 34.3327L184.317 37.6841C183.503 38.0858 182.947 37.6791 183.085 36.7779L184.234 29.2918C184.372 28.3905 183.966 27.1203 183.333 26.4651L178.061 21.04C177.428 20.3848 177.643 19.7321 178.539 19.5865L185.994 18.3639C186.892 18.2183 187.971 17.4376 188.394 16.6317L191.914 9.92892C192.34 9.12056 193.025 9.12307 193.441 9.93394L196.9 16.6694C197.319 17.4803 198.39 18.266 199.286 18.4217L206.731 19.707C207.627 19.8627 207.837 20.5179 207.196 21.1656L201.879 26.5479C201.241 27.1931 200.823 28.4634 200.953 29.3646L202.037 36.8607Z" fill="url(#paint8_radial_1238_25213)"/>
<path id="Vector_10" style="mix-blend-mode:multiply" opacity="0.5" d="M192.678 9.69325C192.818 9.69325 192.98 9.84639 193.111 10.1024L196.57 16.8354C197.041 17.7542 198.207 18.6103 199.221 18.786L206.666 20.0713C206.949 20.119 207.141 20.2295 207.184 20.3625C207.226 20.4956 207.134 20.6989 206.931 20.9023L201.614 26.2846C200.888 27.0177 200.438 28.3934 200.585 29.4176L201.669 36.9137C201.707 37.1623 201.677 37.3656 201.589 37.466C201.572 37.4861 201.519 37.5439 201.381 37.5439C201.264 37.5439 201.118 37.5037 200.961 37.4234L194.215 34.0142C193.766 33.7883 193.176 33.6653 192.552 33.6653C191.929 33.6653 191.366 33.7858 190.925 34.0017L184.149 37.3506C183.994 37.4284 183.849 37.466 183.731 37.466C183.588 37.466 183.538 37.4083 183.521 37.3882C183.433 37.2853 183.405 37.0844 183.445 36.8359L184.592 29.3473C184.75 28.3256 184.309 26.9474 183.591 26.2068L178.319 20.7793C178.119 20.5734 178.026 20.3701 178.071 20.2395C178.114 20.104 178.311 19.996 178.594 19.9508L186.051 18.7308C187.068 18.5651 188.239 17.7166 188.72 16.8053L192.237 10.0999C192.37 9.8489 192.532 9.69576 192.672 9.69576M192.678 9.32422C192.402 9.32422 192.124 9.52254 191.914 9.92672L188.394 16.6295C187.971 17.4354 186.892 18.2161 185.994 18.3617L178.539 19.5843C177.643 19.7299 177.428 20.3851 178.061 21.0378L183.333 26.4629C183.966 27.1181 184.372 28.3884 184.234 29.2896L183.085 36.7757C182.982 37.4409 183.26 37.8376 183.736 37.8376C183.906 37.8376 184.101 37.7899 184.314 37.6819L191.09 34.3305C191.493 34.1322 192.024 34.0318 192.552 34.0318C193.081 34.0318 193.636 34.1372 194.047 34.3456L200.793 37.7547C201.008 37.8627 201.206 37.9129 201.379 37.9129C201.852 37.9129 202.127 37.5213 202.032 36.8585L200.948 29.3624C200.818 28.4612 201.236 27.1909 201.874 26.5457L207.191 21.1634C207.83 20.5132 207.622 19.8579 206.726 19.7048L199.281 18.4195C198.385 18.2638 197.311 17.4756 196.895 16.6672L193.436 9.93174C193.228 9.52756 192.95 9.32422 192.672 9.32422H192.678Z" fill="url(#paint9_radial_1238_25213)"/>
</g>
<g id="Group_9">
<path id="Vector_11" d="M207.198 21.1635C207.836 20.5133 207.628 19.8581 206.732 19.705L199.288 18.4196C198.391 18.264 197.317 17.4757 196.902 16.6674L193.442 9.9319C193.242 9.54279 192.977 9.40974 192.709 9.40723V34.0621C193.2 34.0771 193.68 34.16 194.053 34.3483L200.8 37.7574C201.611 38.1641 202.169 37.7624 202.039 36.8612L200.955 29.3651C200.825 28.4638 201.243 27.1936 201.881 26.5484L207.198 21.166V21.1635Z" fill="url(#paint10_radial_1238_25213)"/>
<path id="Vector_12" style="mix-blend-mode:multiply" opacity="0.5" d="M207.198 21.1636C207.837 20.5134 207.629 19.8582 206.733 19.7051L199.288 18.4198C198.392 18.2641 197.318 17.4758 196.902 16.6675L193.443 9.93202C193.243 9.54291 192.977 9.34709 192.71 9.33203V9.70859C192.842 9.72617 192.992 9.86424 193.115 10.1027L196.575 16.8357C197.045 17.7545 198.212 18.6105 199.226 18.7863L206.67 20.0716C206.953 20.1193 207.146 20.2298 207.188 20.3628C207.231 20.4959 207.138 20.6992 206.936 20.9026L201.619 26.2849C200.893 27.0179 200.442 28.3937 200.59 29.4179L201.674 36.914C201.711 37.1625 201.681 37.3659 201.594 37.4663C201.576 37.4864 201.523 37.5441 201.386 37.5441C201.268 37.5441 201.123 37.504 200.965 37.4236L194.219 34.0145C193.808 33.8086 193.273 33.6982 192.707 33.6806V34.0521C193.198 34.0697 193.678 34.1626 194.051 34.3509L200.798 37.76C201.013 37.868 201.211 37.9182 201.383 37.9182C201.856 37.9182 202.132 37.5266 202.037 36.8638L200.953 29.3677C200.823 28.4665 201.241 27.1962 201.879 26.551L207.196 21.1687L207.198 21.1636Z" fill="url(#paint11_radial_1238_25213)"/>
</g>
</g>
</g>
</g>
</g>
</g>
</g>
<defs>
<filter id="filter0_d_1238_25213" x="0.365234" y="0" width="229.635" height="55.3398" filterUnits="userSpaceOnUse" color-interpolation-filters="sRGB">
<feFlood flood-opacity="0" result="BackgroundImageFix"/>
<feColorMatrix in="SourceAlpha" type="matrix" values="0 0 0 0 0 0 0 0 0 0 0 0 0 0 0 0 0 0 127 0" result="hardAlpha"/>
<feOffset dy="4"/>
<feGaussianBlur stdDeviation="2"/>
<feComposite in2="hardAlpha" operator="out"/>
<feColorMatrix type="matrix" values="0 0 0 0 0 0 0 0 0 0 0 0 0 0 0 0 0 0 0.25 0"/>
<feBlend mode="normal" in2="BackgroundImageFix" result="effect1_dropShadow_1238_25213"/>
<feBlend mode="normal" in="SourceGraphic" in2="effect1_dropShadow_1238_25213" result="shape"/>
</filter>
<radialGradient id="paint0_radial_1238_25213" cx="0" cy="0" r="1" gradientUnits="userSpaceOnUse" gradientTransform="translate(26.6492 38.2665) scale(31.2406 31.33)">
<stop offset="0.35" stop-color="#FFC200"/>
<stop offset="0.51" stop-color="#FFBC06"/>
<stop offset="0.72" stop-color="#FFAE18"/>
<stop offset="0.98" stop-color="#FF9736"/>
<stop offset="1" stop-color="#FF953A"/>
</radialGradient>
<radialGradient id="paint1_radial_1238_25213" cx="0" cy="0" r="1" gradientUnits="userSpaceOnUse" gradientTransform="translate(24.2706 46.0316) scale(45.1713 45.3005)">
<stop offset="0.35" stop-color="#FFC200"/>
<stop offset="0.51" stop-color="#FFBC06"/>
<stop offset="0.72" stop-color="#FFAE18"/>
<stop offset="0.98" stop-color="#FF9736"/>
<stop offset="1" stop-color="#FF953A"/>
</radialGradient>
<radialGradient id="paint2_radial_1238_25213" cx="0" cy="0" r="1" gradientUnits="userSpaceOnUse" gradientTransform="translate(65.6773 0.344134) scale(31.2406 31.33)">
<stop offset="0.35" stop-color="#FFC200"/>
<stop offset="0.51" stop-color="#FFBC06"/>
<stop offset="0.72" stop-color="#FFAE18"/>
<stop offset="0.98" stop-color="#FF9736"/>
<stop offset="1" stop-color="#FF953A"/>
</radialGradient>
<radialGradient id="paint3_radial_1238_25213" cx="0" cy="0" r="1" gradientUnits="userSpaceOnUse" gradientTransform="translate(63.3025 46.0316) scale(45.1713 45.3005)">
<stop offset="0.35" stop-color="#FFC200"/>
<stop offset="0.51" stop-color="#FFBC06"/>
<stop offset="0.72" stop-color="#FFAE18"/>
<stop offset="0.98" stop-color="#FF9736"/>
<stop offset="1" stop-color="#FF953A"/>
</radialGradient>
<radialGradient id="paint4_radial_1238_25213" cx="0" cy="0" r="1" gradientUnits="userSpaceOnUse" gradientTransform="translate(104.706 0.344134) scale(31.2406 31.33)">
<stop offset="0.35" stop-color="#FFC200"/>
<stop offset="0.51" stop-color="#FFBC06"/>
<stop offset="0.72" stop-color="#FFAE18"/>
<stop offset="0.98" stop-color="#FF9736"/>
<stop offset="1" stop-color="#FF953A"/>
</radialGradient>
<radialGradient id="paint5_radial_1238_25213" cx="0" cy="0" r="1" gradientUnits="userSpaceOnUse" gradientTransform="translate(102.33 46.0316) scale(45.1713 45.3005)">
<stop offset="0.35" stop-color="#FFC200"/>
<stop offset="0.51" stop-color="#FFBC06"/>
<stop offset="0.72" stop-color="#FFAE18"/>
<stop offset="0.98" stop-color="#FF9736"/>
<stop offset="1" stop-color="#FF953A"/>
</radialGradient>
<radialGradient id="paint6_radial_1238_25213" cx="0" cy="0" r="1" gradientUnits="userSpaceOnUse" gradientTransform="translate(143.737 0.344134) scale(31.2406 31.33)">
<stop offset="0.35" stop-color="#FFC200"/>
<stop offset="0.51" stop-color="#FFBC06"/>
<stop offset="0.72" stop-color="#FFAE18"/>
<stop offset="0.98" stop-color="#FF9736"/>
<stop offset="1" stop-color="#FF953A"/>
</radialGradient>
<radialGradient id="paint7_radial_1238_25213" cx="0" cy="0" r="1" gradientUnits="userSpaceOnUse" gradientTransform="translate(141.359 46.0316) scale(45.1712 45.3005)">
<stop offset="0.35" stop-color="#FFC200"/>
<stop offset="0.51" stop-color="#FFBC06"/>
<stop offset="0.72" stop-color="#FFAE18"/>
<stop offset="0.98" stop-color="#FF9736"/>
<stop offset="1" stop-color="#FF953A"/>
</radialGradient>
<radialGradient id="paint8_radial_1238_25213" cx="0" cy="0" r="1" gradientUnits="userSpaceOnUse" gradientTransform="translate(182.762 0.344134) scale(31.2406 31.33)">
<stop offset="0.35" stop-color="#FFC200"/>
<stop offset="0.51" stop-color="#FFBC06"/>
<stop offset="0.72" stop-color="#FFAE18"/>
<stop offset="0.98" stop-color="#FF9736"/>
<stop offset="1" stop-color="#FF953A"/>
</radialGradient>
<radialGradient id="paint9_radial_1238_25213" cx="0" cy="0" r="1" gradientUnits="userSpaceOnUse" gradientTransform="translate(180.387 46.0316) scale(45.1713 45.3005)">
<stop offset="0.35" stop-color="#FFC200"/>
<stop offset="0.51" stop-color="#FFBC06"/>
<stop offset="0.72" stop-color="#FFAE18"/>
<stop offset="0.98" stop-color="#FF9736"/>
<stop offset="1" stop-color="#FF953A"/>
</radialGradient>
<radialGradient id="paint10_radial_1238_25213" cx="0" cy="0" r="1" gradientUnits="userSpaceOnUse" gradientTransform="translate(182.761 38.2695) scale(31.2431 31.3326)">
<stop offset="0.35" stop-color="#DBDBDB"/>
<stop offset="0.55" stop-color="#D4D4D4"/>
<stop offset="0.82" stop-color="#C2C2C2"/>
<stop offset="0.99" stop-color="#B3B3B3"/>
</radialGradient>
<radialGradient id="paint11_radial_1238_25213" cx="0" cy="0" r="1" gradientUnits="userSpaceOnUse" gradientTransform="translate(180.389 46.0344) scale(45.1713 45.3005)">
<stop offset="0.35" stop-color="#DBDBDB"/>
<stop offset="0.55" stop-color="#D4D4D4"/>
<stop offset="0.82" stop-color="#C2C2C2"/>
<stop offset="0.99" stop-color="#B3B3B3"/>
</radialGradient>
</defs>
</svg>
