<svg width="20" height="20" viewBox="0 0 20 20" fill="none" xmlns="http://www.w3.org/2000/svg">
<g id="file 1" clip-path="url(#clip0_1238_26205)">
<g id="FILES AND FOLDER color">
<path id="Vector" d="M13.0802 0.691801C12.5139 0.271232 11.8321 0.0345396 11.1271 0.0136763C9.0749 -0.0357449 7.02171 0.0488098 4.98057 0.266801C3.61689 0.425004 2.30908 1.73282 2.15088 3.09649C1.79346 6.44219 1.79346 12.6547 2.15088 16.0004C2.30713 17.3641 3.61689 18.6719 4.98057 18.8301C8.31737 19.1876 11.6828 19.1876 15.0196 18.8301C16.3833 18.6719 17.6907 17.3641 17.8493 16.0004C18.0927 13.7215 18.1704 10.1129 18.0837 6.98594V6.97305C18.0775 6.29911 17.8588 5.6443 17.4587 5.10196C16.2256 3.42324 14.75 1.93697 13.0802 0.691801Z" fill="#C1E1F3"/>
<path id="Vector_2" d="M15.3233 4.575C15.3237 3.8449 15.2471 3.11679 15.0948 2.40274C14.46 1.7906 13.7872 1.21915 13.0803 0.691801C12.514 0.271232 11.8323 0.0345396 11.1272 0.0136763C9.07506 -0.0357449 7.02187 0.0488098 4.98073 0.266801C3.61706 0.425004 2.30925 1.73282 2.15104 3.09649C1.84089 5.99961 1.79948 11.0606 2.028 14.5348C2.97643 14.8117 3.9595 14.9519 4.94753 14.9512C10.678 14.9512 15.3233 10.3055 15.3233 4.575Z" fill="#CFECF9"/>
<g id="Group">
<path id="Vector_3" d="M18.0796 6.98594C17.8194 6.99258 17.5597 6.99687 17.3011 6.99687C16.2028 6.99654 15.1053 6.938 14.0132 6.82148H14.0038C13.3526 6.74609 12.7128 6.42305 12.2023 5.9125C11.6917 5.40195 11.3687 4.76172 11.2929 4.11094C11.2929 4.10781 11.2929 4.10469 11.2929 4.10156C11.1478 2.74406 11.0925 1.37846 11.1273 0.0136719C11.8324 0.0345352 12.5141 0.271227 13.0804 0.691797C14.7529 1.94018 16.2305 3.4303 17.4648 5.11328C17.8619 5.65282 18.0772 6.30466 18.0796 6.97461V6.98594Z" fill="#34344F"/>
<path id="Vector_4" d="M11.9004 13.2891H5.75977C5.61473 13.2891 5.47563 13.3467 5.37307 13.4492C5.27051 13.5518 5.21289 13.6909 5.21289 13.8359C5.21289 13.981 5.27051 14.1201 5.37307 14.2226C5.47563 14.3252 5.61473 14.3828 5.75977 14.3828H11.9004C12.0454 14.3828 12.1845 14.3252 12.2871 14.2226C12.3896 14.1201 12.4473 13.981 12.4473 13.8359C12.4473 13.6909 12.3896 13.5518 12.2871 13.4492C12.1845 13.3467 12.0454 13.2891 11.9004 13.2891Z" fill="#34344F"/>
<path id="Vector_5" d="M5.75977 11.6377H14.2363C14.3814 11.6377 14.5205 11.5801 14.623 11.4775C14.7256 11.375 14.7832 11.2359 14.7832 11.0908C14.7832 10.9458 14.7256 10.8067 14.623 10.7041C14.5205 10.6016 14.3814 10.5439 14.2363 10.5439H5.75977C5.61473 10.5439 5.47563 10.6016 5.37307 10.7041C5.27051 10.8067 5.21289 10.9458 5.21289 11.0908C5.21289 11.2359 5.27051 11.375 5.37307 11.4775C5.47563 11.5801 5.61473 11.6377 5.75977 11.6377Z" fill="#34344F"/>
<path id="Vector_6" d="M5.75977 8.89258H11.502C11.647 8.89258 11.7861 8.83496 11.8887 8.7324C11.9912 8.62984 12.0488 8.49074 12.0488 8.3457C12.0488 8.20066 11.9912 8.06156 11.8887 7.959C11.7861 7.85645 11.647 7.79883 11.502 7.79883H5.75977C5.61473 7.79883 5.47563 7.85645 5.37307 7.959C5.27051 8.06156 5.21289 8.20066 5.21289 8.3457C5.21289 8.49074 5.27051 8.62984 5.37307 8.7324C5.47563 8.83496 5.61473 8.89258 5.75977 8.89258Z" fill="#34344F"/>
</g>
<path id="Vector_7" d="M15.473 10.9453C14.5776 10.9452 13.7023 11.2107 12.9577 11.7081C12.2131 12.2055 11.6328 12.9126 11.29 13.7398C10.9473 14.5671 10.8576 15.4774 11.0323 16.3557C11.2069 17.2339 11.6381 18.0406 12.2712 18.6738C12.9043 19.307 13.711 19.7383 14.5893 19.913C15.4675 20.0877 16.3778 19.9981 17.2051 19.6554C18.0324 19.3128 18.7395 18.7325 19.237 17.988C19.7345 17.2434 20 16.3681 20 15.4727C20 14.272 19.5231 13.1205 18.6741 12.2715C17.8252 11.4224 16.6737 10.9454 15.473 10.9453Z" fill="#4193D2"/>
<path id="Vector_8" d="M17.5861 14.5637L15.8576 12.836C15.8068 12.7852 15.7465 12.7449 15.6801 12.7174C15.6138 12.6899 15.5427 12.6758 15.4708 12.6758C15.399 12.6758 15.3279 12.6899 15.2616 12.7174C15.1952 12.7449 15.1349 12.7852 15.0841 12.836L13.3576 14.5637C13.3051 14.6141 13.2632 14.6744 13.2343 14.7412C13.2055 14.808 13.1902 14.8798 13.1895 14.9526C13.1887 15.0253 13.2025 15.0975 13.23 15.1648C13.2575 15.2322 13.2981 15.2933 13.3495 15.3448C13.401 15.3962 13.4621 15.4369 13.5295 15.4644C13.5968 15.4919 13.6689 15.5058 13.7417 15.505C13.8144 15.5043 13.8863 15.4891 13.9531 15.4603C14.0198 15.4315 14.0802 15.3896 14.1306 15.3371L14.9251 14.543V17.7235C14.9251 17.8685 14.9828 18.0076 15.0853 18.1102C15.1879 18.2127 15.327 18.2704 15.472 18.2704C15.6171 18.2704 15.7562 18.2127 15.8587 18.1102C15.9613 18.0076 16.0189 17.8685 16.0189 17.7235V14.543L16.813 15.3371C16.8638 15.3879 16.9241 15.4282 16.9905 15.4557C17.0568 15.4832 17.1279 15.4973 17.1998 15.4973C17.2716 15.4973 17.3427 15.4832 17.409 15.4557C17.4754 15.4282 17.5357 15.3879 17.5865 15.3371C17.6373 15.2864 17.6775 15.2261 17.705 15.1597C17.7325 15.0934 17.7467 15.0223 17.7467 14.9504C17.7467 14.8786 17.7325 14.8075 17.705 14.7411C17.6775 14.6748 17.6373 14.6145 17.5865 14.5637H17.5861Z" fill="white"/>
</g>
</g>
<defs>
<clipPath id="clip0_1238_26205">
<rect width="20" height="20" fill="white"/>
</clipPath>
</defs>
</svg>
