<svg width="180" height="180" viewBox="0 0 180 180" fill="none" xmlns="http://www.w3.org/2000/svg">
<g id="password 1">
<g id="Group">
<g id="Group_2">
<path id="Vector" d="M116.394 53.462H116.208V44.9943C116.208 30.2693 104.16 17.7546 89.4659 18.0037C75.1768 18.2527 63.596 29.958 63.596 44.3094V45.1188C63.596 46.333 64.5922 47.3291 65.8063 47.3291H72.8731C74.0872 47.3291 75.0834 46.333 75.0834 45.1188V44.8698C75.0834 36.9625 81.0294 30.0203 88.9367 29.5222C97.5289 28.9929 104.689 35.8106 104.689 44.2783V53.4308H82.8973V53.462H62.7554C59.0197 53.5865 56 56.6062 56 60.3731V98.6643C56 102.493 59.1131 105.607 62.9422 105.607H116.363C120.192 105.607 123.305 102.493 123.305 98.6643V60.4042C123.337 56.5751 120.223 53.462 116.394 53.462ZM93.7932 81.262C93.2639 81.6356 93.1083 82.0403 93.1083 82.6629C93.1394 85.4647 93.1394 88.2665 93.1083 91.0995C93.1705 92.2825 92.579 93.4032 91.5206 93.9324C89.0612 95.1777 86.6019 93.4343 86.6019 91.0995C86.6019 91.0995 86.6019 91.0995 86.6019 91.0683C86.6019 88.2665 86.6019 85.4336 86.6019 82.6318C86.6019 82.0715 86.4773 81.6667 85.9792 81.2932C83.4265 79.4253 82.586 76.2188 83.8623 73.3859C85.1076 70.6463 88.1273 69.0275 90.9602 69.619C94.1356 70.2416 96.3459 72.8255 96.377 75.9698C96.4704 78.1801 95.5676 79.9857 93.7932 81.262Z" fill="black"/>
</g>
</g>
</g>
</svg>
