<svg width="21" height="23" viewBox="0 0 21 23" fill="none" xmlns="http://www.w3.org/2000/svg">
<path id="Vector" opacity="0.5" d="M20.7057 5.70588C20.1316 4.73529 18.8324 4.41176 17.8353 4.97059L12.5781 7.94118V2.02941C12.5781 0.911763 11.6414 0 10.4933 0C9.34515 0 8.40851 0.911763 8.40851 2.02941V7.94118L3.15124 4.97059C2.15417 4.41176 0.85496 4.73529 0.28089 5.70588C-0.293179 6.67647 0.0391768 7.94118 1.03624 8.5L6.32373 11.5L1.03624 14.5C0.0391768 15.0588 -0.293179 16.3235 0.28089 17.2941C0.85496 18.2647 2.15417 18.5882 3.15124 18.0294L8.40851 15.0588V20.9706C8.40851 22.0882 9.34515 23 10.4933 23C11.6414 23 12.5781 22.0882 12.5781 20.9706V15.0588L17.8353 18.0294C18.8324 18.5882 20.1316 18.2647 20.7057 17.2941C21.2798 16.3235 20.9474 15.0588 19.9503 14.5L14.6628 11.5L19.9503 8.5C20.9474 7.91176 21.31 6.67647 20.7057 5.70588Z" fill="black"/>
</svg>
