<svg width="19" height="13" viewBox="0 0 19 13" fill="none" xmlns="http://www.w3.org/2000/svg">
<g id="Group">
<path id="Vector" d="M18.6513 2.50233C18.4509 1.39487 17.774 0.683944 16.7158 0.490394C16.2792 0.410226 15.8345 0.351818 15.391 0.331776C13.5102 0.24674 11.6285 0.180028 9.74715 0.106445C9.74658 0.125915 9.746 0.145384 9.74543 0.164854C9.31281 0.164854 8.8799 0.158555 8.44756 0.165999C6.6538 0.196062 4.85974 0.215818 3.07543 0.438571C1.96567 0.576862 1.19691 1.23682 0.965854 2.33398C0.836726 2.94669 0.766293 3.57487 0.715328 4.1999C0.606242 5.5367 0.579329 6.87781 0.674385 8.21662C0.733366 9.04464 0.808954 9.87524 0.946671 10.6932C1.12734 11.7646 1.86574 12.473 2.90536 12.6273C3.52093 12.7186 4.14252 12.7965 4.76383 12.8168C6.67098 12.8787 8.57927 12.936 10.4873 12.9454C12.3893 12.9551 14.2921 12.9099 16.1867 12.7109C16.6751 12.6594 17.1564 12.5815 17.5833 12.3081C18.2894 11.856 18.6106 11.1765 18.6876 10.3786C18.7916 9.29889 18.8969 8.21662 18.9324 7.13349C18.9837 5.58366 18.9281 4.03441 18.6513 2.50233ZM7.96999 9.29144V3.81853C9.55847 4.73159 11.1303 5.6352 12.73 6.55484C11.1326 7.47334 9.56104 8.37667 7.96999 9.29144Z" fill="#555555"/>
</g>
</svg>
